<?xml version="1.0" encoding="UTF-8" standalone="no"?>
<!-- Created with Inkscape (http://www.inkscape.org/) -->

<svg
   xmlns:dc="http://purl.org/dc/elements/1.1/"
   xmlns:cc="http://creativecommons.org/ns#"
   xmlns:rdf="http://www.w3.org/1999/02/22-rdf-syntax-ns#"
   xmlns:svg="http://www.w3.org/2000/svg"
   xmlns="http://www.w3.org/2000/svg"
   xmlns:sodipodi="http://sodipodi.sourceforge.net/DTD/sodipodi-0.dtd"
   xmlns:inkscape="http://www.inkscape.org/namespaces/inkscape"
   id="svg2"
   version="1.1"
   inkscape:version="0.91 r13725"
   xml:space="preserve"
   width="1132.7207"
   height="600.20758"
   viewBox="0 0 1132.7207 600.20758"
   sodipodi:docname="Graph533b.svg"><metadata
     id="metadata8"><rdf:RDF><cc:Work
         rdf:about=""><dc:format>image/svg+xml</dc:format><dc:type
           rdf:resource="http://purl.org/dc/dcmitype/StillImage" /><dc:title></dc:title></cc:Work></rdf:RDF></metadata><defs
     id="defs6"><clipPath
       clipPathUnits="userSpaceOnUse"
       id="clipPath20"><path
         d="m 855,660 7042.5,0 0,3705 -7042.5,0 0,-3705 z"
         id="path22"
         inkscape:connector-curvature="0" /></clipPath></defs><sodipodi:namedview
     pagecolor="#ffffff"
     bordercolor="#666666"
     borderopacity="1"
     objecttolerance="10"
     gridtolerance="10"
     guidetolerance="10"
     inkscape:pageopacity="0"
     inkscape:pageshadow="2"
     inkscape:window-width="1855"
     inkscape:window-height="1056"
     id="namedview4"
     showgrid="false"
     inkscape:zoom="1.0214344"
     inkscape:cx="477.13383"
     inkscape:cy="262.88547"
     inkscape:window-x="65"
     inkscape:window-y="24"
     inkscape:window-maximized="1"
     inkscape:current-layer="g10"
     fit-margin-top="0"
     fit-margin-left="0"
     fit-margin-right="0"
     fit-margin-bottom="0" /><g
     id="g10"
     inkscape:groupmode="layer"
     inkscape:label="ink_ext_XXXXXX"
     transform="matrix(1.25,0,0,-1.25,52.866826,595.3125)"><g
       id="g12"
       transform="scale(0.1,0.1)"><path
         d="m 0,0 8130,0 0,4762.5 -8130,0 L 0,0 Z"
         style="fill:#ffffff;fill-opacity:1;fill-rule:nonzero;stroke:none"
         id="path14"
         inkscape:connector-curvature="0" /><g
         id="g16"><g
           id="g18"
           clip-path="url(#clipPath20)"><path
             d="m 893.469,708.051 0.703,0.922 2.812,4.992 2.039,4.531 3.504,5.301 2.391,5.516 3.266,5.718 3.257,6.223 2.969,6.207 2.988,6.602 3.79,6.914 3.367,6.832 3.773,7.55 3.699,7.899 3.661,7.906 3.414,8.418 3.941,8.664 3.254,8.371 3.801,9.223 4.422,9.121 3.976,8.707 3.699,9.633 4.301,9.512 4.344,9.23 3.992,9.93 4.391,9.531 4.172,9.547 4.742,10.179 4.328,10.079 4.344,9.89 4.981,10.438 5.15,10.328 4.55,10.14 4.89,10.723 4.78,10.68 4.57,10.426 5.98,11.016 4.69,10.75 5.47,10.47 5.44,11.19 5.74,11.02 5.25,10.56 6.32,11.36 5.28,11.01 6.92,10.72 6.28,11.3 5.9,10.95 6.51,10.66 6.65,11.05 6.77,10.35 7.27,10.66 6.47,10.78 7.72,10.24 6.72,10.72 7.1,10.42 7.51,10.44 7.77,10.65 7.76,10.29 8.07,10.54 8.05,10.73 7.81,10.3 7.86,10.38 9.04,10.69 7.84,10.09 8.26,10.55 7.75,10.49 8.35,9.87 9.28,10.77 8.98,10.3 8.27,10.02 9.03,10.63 8.72,10.59 9.63,9.94 10.75,10.81 9.45,10.51 8.84,10.04 10.28,10.7 9.64,10.31 9.18,10.12 10.33,10.79 9.91,10.38 9.39,10.06 10.32,10.76 10.58,10.59 8.63,10.27 11.34,11.31 9.45,10.84 9.92,10.57 9.32,11.74 10.35,11.16 10.11,10.67 9.7,11.9 10.52,11.1 10.87,10.75 9.46,11.84 9.88,11.32 10.83,11.07 10.03,12 10.28,11.24 11.22,11.7 11.12,11.9 10.28,11.55 10.85,12.27 11.33,12.03 10.59,11.95 10.51,12.61 10.07,12.01 10.56,12.31 10.11,12.67 10.2,12.24 10.86,12.97 10.83,12.73 11.64,12.29 11.5,13.03 11.88,13.17 11.43,12.58 12.38,13 12.79,13.24 12.19,12.55 11.72,13.47 12.57,13.22 12.56,12.54 12.97,13.43 11.9,13.12 12.11,12.46 13.31,13.48 12.96,13.29 12.79,12.65 14.33,13.68 12.3,13.29 13.29,12.58 13.93,13.78 13.85,12.97 12.94,12.65 14.92,13.53 14.65,12.71 14.47,12.43 14.74,13.54 13.97,12.5 16.38,12.4 15.28,13.71 14.56,12.49 15.38,12.34 15.26,13.4 14.92,12.62 14.91,12.43 15.84,12.95 15.57,12.65 16.59,12.11 15.94,13.07 16.81,12.22 17.21,12.44 16.79,12.68 17.64,12.34 17.69,12.58 18.72,12.5 18.5,12 17.68,12.75 18.02,12.21 18.64,12.11 18.91,12.42 17.69,11.52 19.06,12.11 19.19,12.26 17.98,11.18 19.74,12.2 20.27,12.33 19.67,11.37 19.96,12.15 20.3,12.15 19.6,10.92 20.61,12.13 21.15,11.33 21,10.83 22.31,11.82 20.69,11.09 20.45,10.93 22.89,11.35 20.97,11 21.3,10.54 22.5,11.28 21.79,10.85 21.63,10.35 22.3,11.12 21.12,10.53 21.72,10.03 22.91,10.89 22.83,10.33 21.72,9.8 22.65,10.91 22.58,9.8 22.16,9.56 23.47,10.8 22.99,9.62 22.65,9.37 23.52,10.65 22.29,9.29 22.52,9.45 23.29,10.29 23.42,9.25 23.33,9.48 22.86,9.74 23.74,9.2 23.5,9.63 22.24,9.45 23.86,9.02 23.75,9.65 21.75,9.1 24.34,9.03 22.86,9.41 21.99,8.52 23.7,9.23 23.14,8.91 22.39,8.41 24.15,9.2 24.05,8.95 23.11,8.14 24.14,8.9 19.02,7.19 -5.62,-20.57 -10.1,-20.58 -10.1,-19.49 -10.21,-19.33 -10.45,-19.23 -10.55,-18.4 -11.61,-18.5 -11.67,-18.08 -11.16,-17.49 -12.03,-18.09 -11.72,-17.63 -12.05,-16.96 -12.15,-17.6 -12.93,-17.28 -11.6,-16.45 -13.09,-17.49 -12.78,-16.87 -12.62,-16.11 -14.53,-17.18 -12.77,-16.16 -13.7,-15.38 -14.98,-16.15 -14.52,-15.25 -14.1,-14.67 -15.2,-15.63 -14.91,-14.79 -14.48,-14.29 -15.32,-15.15 -14.66,-14.41 -15.87,-14.39 -15.84,-14.79 -15.35,-14.39 -15.45,-13.91 -16.36,-14.43 -16.04,-14.3 -16.21,-13.8 -16.29,-14.57 -16.27,-13.89 -15.64,-13.58 -16.73,-14.26 -16.28,-13.6 -16.57,-13.57 -17.2,-13.99 -16.29,-13.5 -16.6,-13.5 -17.16,-13.91 -17.06,-13.19 -17.35,-13.77 -17.77,-13.68 -17.15,-13.54 -17.76,-13.68 -17.66,-13.39 -17.52,-13.33 -17.66,-13.53 -17.5,-13.07 -18.19,-13.4 -17.62,-13.45 -16.76,-12.82 -18.46,-13.53 -17.3,-13.23 -16.8,-12.86 -18.58,-13.64 -17.58,-13.08 -17.22,-12.96 -18.49,-13.45 -17.33,-12.93 -16.98,-12.64 -18.47,-13.2 -16.86,-12.83 -16.65,-12.55 -17.75,-13.13 -17.82,-12.84 -15.74,-12.34 -18.6,-13.15 -16.78,-12.76 -15.52,-12.29 -17.94,-13.06 -16.33,-12.79 -15.33,-12.12 -17.52,-12.97 -15.4,-12.33 -16.36,-12.06 -15.75,-12.86 -16.02,-12.35 -15.9,-12.15 -16.35,-12.91 -15.84,-12.27 -15.16,-12.3 -15.71,-12.8 -14.68,-12.25 -16.03,-12.43 -15.16,-12.64 -14.34,-12.26 -15.15,-12.3 -14.58,-12.56 -14.49,-12.34 -15.31,-12.33 -14.68,-12.57 -14.04,-12.33 -14.43,-12.51 -14.45,-12.38 -13.9,-12.33 -14.16,-12.37 -12.97,-12.32 -13.51,-12.33 -13.42,-12.42 -12.3,-11.98 -13.05,-12.46 -12.93,-12.1 -12.89,-11.91 -12.52,-12 -12.05,-11.85 -11.67,-11.35 -12.49,-11.7 -12.7,-11.2 -12.2,-10.71 -12.99,-11.29 -13.06,-10.77 -11.76,-10.2 -13.62,-10.85 -12.75,-10.31 -12.32,-9.91 -13.82,-10.64 -12.24,-10.06 -11.3,-9.72 -13.28,-10.61 -12.74,-9.93 -11.52,-9.82 -12.56,-10.18 -11.25,-9.77 -12.14,-9.55 -12.63,-9.87 -12.09,-9.28 -12.02,-9.28 -12.69,-9.54 -11.58,-9.01 -12.24,-8.92 -11.78,-9.4 -11.96,-9.14 -11.39,-8.79 -12.25,-9.37 -11.79,-8.77 -11.86,-8.71 -11.99,-9.05 -11.53,-8.73 -11.42,-8.65 -12.03,-8.83 -11.81,-8.46 -10.61,-8.57 -11.62,-8.55 -11.06,-8.44 -11.53,-8.52 -10.84,-8.28 -9.86,-8.46 -10.44,-8.53 -9.97,-8.22 -10.04,-8.55 -9.76,-8.36 -9.08,-8.19 -9.08,-8.45 -8.74,-8.35 -8.61,-8.1 -9.26,-8.333 -8.68,-8.238 -8.17,-7.981 -9,-8.336 -7.98,-8.023 -7.37,-7.828 -8.26,-8.254 -7.59,-7.782 -7.02,-7.753 -7.08,-7.981 -7.7,-7.695 -6.21,-7.438 -6.44,-7.855 -6.07,-7.391 -6.18,-7.215 -6.57,-7.605 -5.33,-7.16 -6.05,-7.043 -5.91,-7.196 -5.93,-6.957 -4.74,-6.503 -5.71,-6.926 -4.94,-6.637 -5.73,-6.254 -5.39,-6.789 -4.49,-6.367 -5.55,-6.141 -4.23,-6.433 -5.84,-6.078 -3.73,-6.032 -4.9,-6.109 -3.21,-5.961 -3.36,-5.91 -1.96,-5.903 -4.98,-5.492 -4.64,-5.648 -5.67,-5.27 -7.3,-5.222 -5.19,-5.047 -3.09,-4.848 -4.16,-4.637 -3.34,-4.562 -3.26,-4.219 -2.32,-3.961 -1.24,-7.797 1.22,2.039 4.84,9.817 2.95,5.73 5.89,11.762 3.15,6.281 2.27,6.047 3.91,6.992 3.8,7.035 3.64,7.192 4.31,7.98 3.62,7.743 4.12,7.757 3.54,8.223 3.78,8.137 3.58,8.277 4.44,8.856 3.76,8.421 4.58,8.418 5.47,8.903 5.3,8.894 5.88,8.645 5.5,9.242 6.01,9.199 5.9,9.043 5.83,9.559 5.55,9.308 5.67,9.207 5.91,9.836 5.65,9.641 6.41,9.617 5.74,10.192 6.57,9.949 6.19,9.902 6.54,10.496 7.08,10.03 6.48,10.29 7.65,10.57 7.03,10.17 6.73,10.54 7.33,10.44 8.19,10.41 7.45,10.68 7.76,10.27 7.86,10.65 8.06,10.64 7.67,10.38 7.4,10.72 9.41,10.85 8.16,10.34 8.31,10.87 8.86,10.82 8.78,10.13 9.34,10.93 8.78,10.78 8.86,10.1 9.52,11.13 9.18,10.65 8.91,10.56 10.11,11.16 9.21,10.9 9.28,10.65 10.04,11.34 9.53,10.96 9.62,10.63 10.59,11.44 9.97,11.04 9.46,10.8 10.85,11.56 9.96,11.02 9.5,10.87 10.18,11.31 10.38,11.34 9.43,10.65 11.18,11.84 10.18,11.09 9.93,11.12 10.87,12.05 10.51,11.48 10.09,11.08 10.43,12.21 10.7,11.43 10.66,11.39 10.41,12.18 10.75,11.6 10.17,11.6 10.78,12.18 10.55,11.55 10.8,12.16 11.42,11.86 10.5,11.99 11.29,12.7 11.05,11.96 10.26,12.51 10.88,13.05 10.36,12.15 10.88,12.78 11.35,12.91 10.25,12.35 11.15,13.35 11.22,13.03 11.12,12.64 12.25,13.51 12.42,13.51 11.46,12.81 12.15,13.52 12.59,13.55 12.1,12.8 12.91,13.57 12.16,13.36 11.87,12.72 12.55,13.51 12.93,13.17 12.26,12.61 13.44,13.44 12.51,13.19 12.7,12.65 13.39,13.69 13.95,13.06 12.98,12.58 14.43,13.48 14.38,13.06 13.13,12.41 14.57,13.53 13.72,12.5 14.16,12.47 14.81,13.43 14.61,12.35 14.55,12.46 15.67,13.51 14.74,12.72 14.93,12.56 15.6,13.27 15.68,12.52 15.82,12.55 16.09,13 15.94,12.64 15.89,12.51 16.08,12.82 16.23,12.41 16.93,12.84 16.42,12.54 16.76,12.46 17.25,12.96 17.14,12.3 17.73,12.44 18.13,12.97 17.23,12.31 17.9,12.59 18.39,12.73 17.22,11.77 18.45,12.69 17.5,12.67 17.42,11.74 18.15,12.61 18.98,12.53 17.53,11.9 18.97,12.63 17.96,12.37 17.45,11.61 18.75,12.58 18.12,11.96 17.76,11.64 18.8,12.3 18.51,11.9 17.81,11.32 19.1,12.3 17.87,11.41 18.68,11.3 18.6,12.17 18.34,11.56 17.88,11.24 18.96,12.03 18.13,11.44 18.24,10.98 18.87,11.93 17.67,11.07 18.24,11.01 18.1,11.91 17.5,10.85 17.93,10.9 18.85,11.72 18.12,11.04 18.37,10.75 18.45,11.66 18.17,10.75 18.2,10.89 17.87,11.55 18.28,10.64 18.37,11.2 17.5,10.9 18.89,10.91 18.44,11.2 17.79,10.62 18.84,10.75 18.55,11.26 17.53,10.43 18.88,10.82 18.19,10.93 17.92,9.97 18.9,10.81 18.97,10.41 19.79,9.55 20.41,10.51 20.91,10.12 20.53,9.31 21.44,10.09 12.09,5.32 -4.92,-20.07 -9.95,-20.19 -10.58,-20.04 -9.79,-18.89 -10.67,-18.49 -10.87,-18.72 -11.51,-17.73 -11.22,-17.81 -11.77,-17.89 -11.93,-17.5 -11.88,-17.63 -12.47,-17.17 -12.49,-17.07 -12.22,-17.19 -12.36,-16.85 -13.26,-17.01 -12.85,-16.73 -12.71,-16.45 -13.32,-16.54 -13.39,-16.66 -12.67,-15.86 -14.62,-16.21 -14.6,-15.5 -14.02,-14.83 -15.1,-15.18 -15.35,-14.82 -14.29,-14.38 -15.45,-14.98 -15.8,-14.6 -14.56,-14.13 -15.8,-14.76 -16.38,-14.34 -14.62,-13.72 -16.61,-14.61 -15.56,-14.27 -16.07,-13.7 -16.97,-14.45 -16.33,-13.96 -15.82,-13.3 -17.37,-14.17 -16.1,-13.7 -16.35,-13 -16.69,-13.99 -17.14,-13.45 -16.62,-13.14 -17.4,-13.84 -17.03,-13.36 -16.51,-13.19 -17.8,-13.82 -16.97,-13.22 -17.18,-13.2 -17.5,-13.45 -17.03,-13.04 -16.61,-12.98 -18.01,-13.52 -16.99,-12.88 -17.16,-12.94 -17.86,-13.41 -17.09,-12.92 -17.63,-13.02 -17.87,-13.36 -16.55,-13.03 -18.33,-12.89 -17.3,-13.28 -17.72,-12.87 -16.85,-12.91 -17.05,-12.73 -17.16,-12.6 -16.85,-12.81 -17.42,-12.5 -17.32,-12.79 -17.57,-12.75 -16.29,-12.27 -17.24,-12.93 -16.81,-12.73 -16.21,-12.22 -17.43,-12.88 -16.7,-12.51 -15.08,-12.02 -17.34,-12.79 -15.7,-12.3 -14.97,-11.95 -17.16,-12.76 -15.73,-12.37 -15.48,-11.96 -16.45,-12.84 -15.43,-12.35 -14.88,-11.97 -16.18,-12.75 -15.21,-12.41 -14.42,-11.98 -15.51,-12.73 -14.7,-12.09 -14.18,-11.95 -15.53,-12.64 -13.86,-12.13 -14.15,-12.07 -14.97,-12.56 -13.96,-12.33 -14.03,-11.93 -14.15,-12.81 -14.11,-12.23 -13.42,-11.94 -14.1,-12.66 -13.16,-12.08 -13.06,-11.87 -13.66,-12.61 -13.33,-11.86 -13.32,-11.96 -12.54,-12.26 -12.33,-11.56 -12.6,-12.09 -12.15,-11.7 -12.97,-11.63 -11.94,-11.61 -11.55,-11.32 -12.08,-11.22 -12.3,-11.06 -11.82,-10.67 -12.86,-10.72 -12.28,-10.71 -12.3,-10.05 -12.34,-10.43 -12.92,-10.12 -12.04,-9.82 -12.55,-10.28 -12.58,-9.92 -12.8,-9.75 -12.67,-10.15 -12.91,-9.87 -11.35,-9.54 -13.01,-9.98 -12.23,-9.51 -12.07,-9.03 -12.86,-9.63 -12.19,-9.15 -11.84,-8.82 -13.07,-9.4 -11.64,-9.07 -11.41,-8.86 -12.85,-9.36 -12.39,-9.07 -11.24,-8.51 -13.04,-8.99 -11.74,-8.79 -11.06,-8.37 -12.51,-8.89 -10.59,-8.32 -11.4,-8.31 -11.89,-8.83 -10.99,-8.25 -11.35,-8.23 -10.5,-8.58 -10.55,-8.21 -10.98,-8.09 -10.16,-8.6 -10.6,-8.02 -10.15,-8.29 -9.17,-8.28 -10.38,-8.23 -9.38,-7.995 -8.97,-8.289 -9.35,-8.098 -8.81,-7.976 -7.65,-8.071 -8.8,-7.941 -8,-7.981 -8.89,-7.734 -7.43,-7.937 -7.93,-7.856 -7.17,-7.508 -7.27,-7.754 -7.69,-7.632 -6.28,-7.399 -6.43,-7.547 -6.85,-7.316 -5.85,-7.215 -6.98,-7.356 -6.44,-6.996 -5.7,-6.902 -6.19,-6.945 -6.09,-6.754 -4.34,-6.543 -5.95,-6.621 -5.53,-6.399 -4.64,-6.058 -6.45,-6.625 -4.89,-6.063 -5.06,-5.894 -5.07,-6.231 -7.96,-11.75 -2.95,-5.969 -2.78,-5.578 -5.46,-5.484 -5.01,-5.629 -4.43,-5.293 -5.59,-4.988 -6.58,-5.246 -6.97,-4.696 -4.29,-4.632 -7.75,-8.754 -6.18,-8 -2.16,-3.414 -2.05,-2.332 3.64,1.144 6.9,9.363 2.52,5.387 7.39,11.777 3.12,5.895 3.02,6.488 0.65,6.621 3.87,6.856 4.63,7.683 2.94,7.469 4.86,7.246 3.29,8.168 3.6,7.742 3.85,8.004 4.09,8.641 4.4,8.285 4.58,8.137 5.37,8.754 5.03,8.351 5.36,8.696 6.64,8.836 5.8,8.796 6.5,9.024 6.39,9.176 6.76,9.09 6.05,9.488 5.49,9.137 6.46,9.64 6.12,9.883 5.83,9.398 6.57,10.016 6.47,10.215 6.66,9.652 7.24,10.336 6.64,10.377 7.11,9.79 6.78,10.67 7.88,10.53 6.87,9.78 7.7,10.66 7.67,10.43 7.85,10.05 7.69,10.74 7.9,10.52 7.67,10.14 8.58,10.77 8.28,10.53 8.21,10.2 9.13,10.74 8.47,10.61 8.08,10.37 9.63,10.76 8.56,10.44 9.11,10.49 9.41,11.05 9.2,10.53 8.65,10.35 9.96,11.25 9.17,10.54 9.24,10.68 9.51,11.33 9.35,10.86 10.03,10.7 10.66,11.32 9.71,11.01 10.14,10.9 10,11.28 10.28,10.88 10.38,11.05 10.32,11.35 10.28,11.02 9.82,10.95 10.77,11.38 9.97,11.23 10.4,11.55 10.75,11.44 10.74,11.54 10.42,11.88 10.72,11.43 10.02,11.61 10.81,11.89 10.52,11.19 10.84,11.76 11.32,12.21 10.22,11.2 11.42,11.99 11.84,12.39 10.48,11.32 11.12,12.48 10.98,12.71 10.31,11.87 10.92,12.84 11.79,12.86 9.89,12.04 11.28,13.09 10.81,12.73 11.13,12.62 12.34,13.51 11.11,13.08 11.56,12.72 12.59,13.71 11.69,13.09 11.88,12.95 12.94,13.97 12.45,13.05 12.27,13.03 12.63,13.6 12.9,12.94 11.91,12.72 13.38,13.54 12.77,12.85 12.6,12.59 13.21,13.51 13.16,12.82 12.92,12.61 13.8,13.72 13.45,12.68 13.42,12.61 13.4,13.43 13.15,12.59 13.61,12.61 14.55,12.99 13.96,12.3 14.93,12.89 14.03,12.58 14.57,12.57 14.57,12.87 15.38,12.64 15.96,12.77 15.6,13.16 14.88,12.3 16.92,12.8 16.34,13.1 15.44,12.05 15.99,13.14 16.22,12.7 15.94,12 17.24,12.81 16.21,12.74 16.15,11.91 17.77,13.09 17.27,12.69 17.26,12.17 18.29,13.01 17.72,12.6 16.95,12.06 17.97,12.84 17.91,12.51 17.23,11.92 17.9,12.5 17.51,12.55 17.87,11.61 18.63,12.57 17.32,12.37 17.49,11.88 19.4,12.81 18.17,12.1 17.77,11.57 18.64,12.61 18.11,11.78 17.48,11.27 19.32,12.37 17.83,11.65 18.16,11.28 18.58,12.34 17.75,11.24 18.08,11.39 18.52,12.1 18.31,11.26 18.32,11.57 18.08,11.78 18.38,11.44 18.05,11.47 17.1,11.49 18.53,11.15 18.26,11.61 17.41,11.11 18.53,11.41 18.18,11.58 17.31,10.97 18.14,11.58 18.23,11.59 17.22,10.97 17.92,11.52 18.22,11.44 17.33,10.91 18.52,11.54 17.81,11.69 17.29,10.66 17.88,11.6 17.51,11.51 16.77,10.73 17.46,11.51 17.3,11.43 17.33,10.67 17.84,11.62 17.3,11.01 17.02,10.75 17.84,11.14 17.56,10.97 16.46,10.37 18.15,11.16 17.39,10.46 17.43,9.84 19.25,10.57 18.84,10.09 20.19,9.42 22.16,10.28 21.84,9.44 21.99,9.06 23.71,9.78 23.31,9.2 21.97,8.55 24.54,9.5 22.71,8.7 23.25,8.02 24.76,9.28 23.52,8.33 24,8.17 23.53,8.84 24.76,8.1 24.01,8.41 24.08,8.45 24.67,7.92 24.79,8.07 23.06,8.04 24.8,7.91 24.6,8.16 23.86,7.89 25.1,7.8 25.23,8.24 22.97,7.62 23.67,7.67 24.84,8.28 23.45,7.3 23.85,8.17 23.46,7.99 24.12,7.21 24.88,7.76 24.46,7.86 23.38,6.98 24.57,7.99 24.23,7.79 23.55,6.97 24.25,7.74 23.55,7.61 23.87,7.18 24.19,7.77 22.97,7.18 23.1,7.04 23.99,7.84 23.51,7.25 23.59,6.71 24.49,7.65 23.13,6.91 23.84,6.88 24.79,7.68 24.01,6.94 22.98,6.76 23.12,7.73 24.67,6.69 22.74,6.49 23.86,7.61 23.99,6.67 23.79,6.26 23,7.57 24.52,6.38 22.88,6.41 23.56,7.36 23.06,6.57 23.87,6.38 23.47,7.21 23.64,6.25 23.93,6.98 23.14,6.89 22.85,6.39 23.25,6.89 21.39,6.76 23.2,6.35 23.3,6.9 22.12,6.32 24.56,6.59 23.27,6.9 23.08,6.13 23.49,6.82 22.97,6.79 22.32,6.18 24.26,6.89 23.17,6.6 22.56,6.06 23.27,6.8 23.25,6.1 21.98,5.97 23.03,6.77 22.63,6.51 23.13,4.33 23.19,6.56 22.53,6.85 22.1,6.21 23.26,6.86 22.94,6.38 22.19,5.98 21.9,6.77 23.42,6.35 21.96,5.86 23.29,6.98 23.27,5.97 22.44,5.58 23.07,7.07 21.06,5.44 21.99,5.73 23.28,7.37 23.12,5.57 22.3,5.98 23.29,7.09 22.66,5.91 23.12,6 23.04,6.88 23.7,5.95 23.4,6 22.25,6.91 24.07,5.98 23.92,6.24 1,-22.49 -9.37,-23.78 -9.97,-21.3 -10.5,-21.85 -9.63,-20.66 -10.59,-19.97 -10.99,-20.24 -10.31,-19.03 -11.29,-18.93 -11.41,-19.25 -10.6,-18.27 -11.25,-18.39 -11.08,-18.25 -11.31,-17.82 -10.95,-18.03 -11.1,-17.79 -11.73,-17.42 -11.4,-17.64 -11.29,-16.94 -11.49,-17.11 -11.75,-17.16 -10.85,-16.44 -12.08,-16.83 -11.17,-16.42 -12.09,-15.51 -12.79,-15.72 -12.47,-15.32 -12.01,-14.95 -12.27,-15.32 -12.61,-14.97 -12.74,-14.4 -12.71,-15.09 -13.05,-14.58 -12.74,-14.23 -13,-14.72 -13.39,-14.41 -12.47,-14.01 -13.7,-14.63 -13.07,-14.05 -12.88,-13.61 -13.67,-14.32 -13.19,-13.92 -12.87,-13.24 -13.72,-14.07 -13.39,-13.44 -12.97,-12.88 -13.87,-13.89 -13.38,-13.04 -12.77,-12.6 -14.5,-14.32 -20.65,-19.26 -19.99,-19.59 -20.14,-18.76 -19.91,-18.81 -21.06,-19.01 -20.65,-18.44 -21.51,-18.89 -20.3,-17.81 -21.98,-18.88 -19.91,-17.32 -22.64,-18.56 -20.95,-17.12 -22.29,-18.26 -20.64,-16.73 -22.9,-17.87 -21.98,-16.41 -22.81,-17.46 -22.34,-16.3 -22.66,-16.88 -22.85,-16.45 -22.61,-16.79 -22.91,-16.37 -23.5,-16.44 -22.75,-16.56 -23.46,-16.1 -23.61,-16.3 -22.94,-15.66 -23.66,-16.1 -23.66,-15.3 -22.99,-15.96 -23.7,-15.05 -23.39,-15.53 -23.96,-15.02 -23.16,-15.4 -24.77,-15.06 -23.74,-15.02 -23.74,-15.05 -23.71,-14.64 -25.53,-15.5 -23.22,-14.31 -24.8,-15.58 -23.52,-13.87 -25.81,-14.95 -22.14,-12.8 -24.86,-14.49 -23.74,-12.89 -24.54,-14.36 -23.85,-12.96 -25.13,-14.05 -25.16,-13.01 -25.16,-13.94 -25.44,-13.36 -25.14,-13.5 -26.32,-13.55 -24.97,-13.49 -26.81,-13.66 -25,-13.25 -27.59,-13.71 -26.44,-12.85 -28.49,-13.9 -26.31,-12.72 -28.67,-13.53 -26.52,-12.4 -29.4,-13.77 -27.48,-12.41 -29.41,-13.73 -27.89,-12.64 -30.18,-13.78 -29.14,-12.68 -29.49,-13.51 -29.67,-12.9 -30.45,-13.16 -30.44,-13.14 -30.6,-13.21 -31.43,-13.38 -30.52,-12.98 -31.58,-13.79 -31.17,-12.99 -31.7,-13.85 -30.87,-12.92 -31.34,-13.85 -31.47,-13.3 -31.05,-13.75 -31.65,-13.55 -31.45,-13.66 -32.39,-13.79 -31.12,-13.46 -31.44,-14 -30.11,-13.28 -31.21,-14.24 -29.21,-13.14 -31.81,-14.39 -28.38,-13.04 -31.09,-14.57 -29.32,-12.89 -30.15,-14.48 -28.59,-12.99 -28.68,-14.18 -28.32,-13.07 -28.24,-14.36 -26.3,-13.38 -27.49,-14.15 -27.32,-13.58 -26.73,-13.97 -26.75,-14.04 -26.64,-13.87 -27.9,-14.2 -26.12,-13.76 -28.02,-14.64 -25.51,-13.63 -28.1,-14.99 -25.99,-13.52 -28.46,-14.94 -26.42,-13.64 -27.97,-14.86 -25.78,-13.52 -27.09,-14.73 -25.56,-13.65 -25.72,-14.62 -26.1,-13.83 -25.64,-14.19 -24.56,-13.73 -24.46,-13.57 -23.52,-13.22 -23.92,-12.89 -24.55,-13.05 -25.15,-12.41 -23.49,-12.86 -24.82,-12.3 -23.42,-12.73 -23.9,-12.13 -24,-12.33 -22.92,-11.91 -24.03,-12 -24.56,-11.71 -23.38,-11.55 -24.96,-11.79 -23.72,-10.98 -24.94,-11.85 -23.36,-10.77 -24.37,-11.74 -22,-10.38 -24.44,-11.629 -22.35,-10.281 -23.55,-11.258 -21.27,-10.188 -21.92,-10.73 -21.14,-10.039 -21.66,-10.688 -21.29,-10.023 -21.32,-10.367 -20.9,-9.961 -19.42,-10.145 -19.09,-9.762 -17.98,-9.8 -18.13,-9.641 -15.3,-9.383 -17.24,-9.508 -14.53,-8.832 -14.4,-9.164 -14.28,-8.511 -13.89,-8.684 -12.38,-8.09 -12.87,-8.211 -11.63,-7.457 -12.49,-7.683 -10.21,-6.95 -9.45,-7.16 -8.34,-6.683 -8.65,-6.731 -9.02,-6.277 -9.76,-6.305 -10.79,-5.601 -8.68,-5.309 -7.65,-4.82 -4,-3.946 2.5,4.715 5.93,7.238 5.67,8.254 4.5,8.586 3.49,9.508 3.84,9.75 6.3,10.77 7.35,11.117 7.56,11.289 7.6,11.504 8.69,11.457 9.41,12.097 9.84,11.774 10.6,12.836 10.06,12.68 9.82,13.238 10.66,13.492 10.91,13.805 11.7,13.922 12.07,13.949 12.57,14.261 12.02,13.961 13.87,14.645 13.51,14.262 14.28,15.097 14.44,14.36 15.09,15.14 14.42,14.54 15.27,15.38 14.58,14.49 15.63,15.68 14.84,14.63 16.02,15.91 14.9,15.02 15.98,15.94 16.4,15.57 16.24,15.94 16.39,15.84 16.87,15.95 17.71,16.1 16.95,15.75 18.04,16.74 16.86,15.59 17.71,17.36 16.95,15.57 19.14,17.56 17.11,15.8 18.43,17.66 17.82,15.71 19.99,17.38 17.58,15.81 19.46,17.55 17.37,16.21 18.73,17.81 18.18,16.95 18.88,17.74 19.04,17.33 18.32,17.86 19.51,18.06 19.5,18.11 20.15,18.65 20.1,18.13 20.14,18.94 20.6,18.24 20.79,19.14 20.22,18.06 20.47,18.84 20.35,18.19 20.03,18.26 21.07,18.26 21.23,17.87 21.74,18.69 21.12,17.82 22.6,18.69 21.18,17.24 22.62,18.42 21.9,17.16 22.48,18.32 22.36,17.15 23.31,18.63 23.3,17.06 23.31,18.47 23.81,17.1 23.67,18.09 24.44,17.15 24.2,17.88 23.44,17.09 24.95,17.64 24.54,17.61 24.58,17.3 26.31,17.92 24.78,16.89 26.73,17.87 24.77,16.32 26.52,18 24.72,15.94 27.74,17.88 25.33,15.92 27.84,17.89 25.62,15.91 28.22,17.42 26.17,15.24 26.95,17.14 26.77,15.47 27.78,16.57 27.56,15.7 27.99,16.17 27.18,15.9 28.03,15.78 28.17,15.94 27.42,15.21 28.02,15.9 28.44,14.9 27.94,15.73 28.36,14.91 28.06,15.52 28.57,14.78 28.39,15.15 28.98,14.87 28.49,14.75 28.41,14.91 27.79,14.49 28.12,14.93 26.78,14.2 28.15,15.13 26.98,13.79 27.56,14.92 27.44,13.42 27.93,14.89 26.85,13.33 27.33,14.66 26.43,13.14 27.87,14.85 26.95,13.2 27.99,14.59 27.23,13.58 27.65,14.26 27.68,13.51 27.51,13.65 28.34,14.02 26.17,13.12 28.85,14.33 26.38,12.91 28.36,14.39 26.62,12.6 28.62,14.51 26.38,12.56 28.19,14.57 26.89,12.86 27.75,14.59 27.13,12.82 29.13,14.6 27.51,13.11 30.79,13.95 35.31,13.14 33.94,13.98 32.32,13.46 32.57,13.56 31.76,13.62 30.66,13.26 28.79,13.95 29.02,13.21 29.53,14.05 28.62,13.09 28.68,13.98 29.22,13.06 29.75,14.15 28.1,13.42 28.53,13.64 28.38,13.81 27.94,13.16 28.65,13.99 27.62,13.01 28.15,13.98 26.69,12.89 27.99,14.36 26.83,12.93 28.24,14.52 27.27,12.86 27.39,14.22 26.74,13.16 28.33,14.51 26.3,12.8 27.41,14.25 27.35,12.93 27.34,14.17 28.06,13.03 26.42,13.91 27.62,13.24 26,13.41 27.34,13.88 26.02,12.89 28.08,13.94 25.38,12.72 29.06,14.36 27.28,12.59 28.7,14.4 26.78,12.33 29.66,14.33 27.31,12.19 28.47,13.98 28.27,11.91 29.27,14.08 28.8,12.3 29.88,13.69 30.07,12.34 30.91,13 30.98,12.8 1.18,-25.89 -12.39,-27.79 -12.86,-27.75 -14.35,-27.76 -15.36,-27.74 -15.74,-27.77 -16.35,-27.75 -16.23,-27.58 -16.81,-27.47 -16.63,-26.6 -17.08,-26.73 -16.82,-25.6 -17.88,-26.28 -16.61,-24.94 -17.9,-25.92 -17.25,-23.77 -18.06,-25.2 -17.5,-22.51 -19.31,-23.94 -18.43,-21.44 -19.11,-23.08 -19.02,-21.21 -19.81,-22.46 -19.25,-21.05 -20.19,-21.72 -19.45,-20.88 -20.47,-21.23 -19.55,-20.64 -20.03,-20.5 -20.55,-20.31 -19.67,-20.08 -20.28,-19.98 -20.37,-19.51 -20.9,-19.71 -19.81,-18.84 -20.59,-19.45 -20.89,-18.69 -20.79,-19.31 -21.16,-18.46 -21,-18.65 -21.17,-18.45 -21.47,-17.98 -21.12,-18.49 -21.46,-17.64 -22.02,-18.34 -21.34,-17.28 -23.07,-18.22 -20.9,-16.67 -21.91,-18.03 -21.77,-16.25 -23.64,-17.63 -21.39,-16.14 -23.87,-17.48 -22.27,-16.15 -23.81,-17.19 -23.26,-15.98 -23.12,-16.56 -24.37,-16.16 -22.73,-16.29 -24.1,-15.89 -23.02,-15.74 -23.41,-15.88 -22.81,-15.23 -23.96,-15.72 -22.73,-14.88 -24.53,-15.52 -22.69,-14.66 -24.69,-15.71 -22.87,-14.4 -25.12,-15.7 -22.53,-14.19 -25.17,-15.89 -23.27,-14.35 -24.15,-15.53 -23.61,-14.34 -24.32,-15.18 -23.62,-14.32 -23.36,-14.6 -23.11,-14.21 -23.77,-14.24 -23.15,-14.38 -24.04,-14.11 -24.4,-14.36 -24.17,-13.57 -24.32,-14.14 -24.93,-13.38 -25.01,-14.14 -25.06,-13.45 -25.67,-13.78 -26.08,-13.64 -25.17,-13.68 -26.94,-13.62 -26.04,-13.27 -27.89,-13.6 -26.32,-12.92 -28.26,-13.51 -26.94,-12.98 -29.27,-13.97 -27.13,-12.71 -29.85,-14.07 -27.32,-12.53 -29.61,-14.23 -28.42,-12.68 -30.5,-14.15 -28.51,-12.74 -29.97,-13.77 -29.43,-12.91 -30.08,-13.95 -29.92,-13.11 -30.24,-13.75 -30.8,-13.61 -29.91,-13.67 -31.5,-13.83 -29.16,-13.34 -31.34,-13.94 -29.84,-13.25 -31.51,-14.34 -29.2,-13.24 -31.81,-14.2 -29.23,-13.49 -30.04,-14.09 -29.71,-13.09 -29.9,-14.39 -29.19,-13.02 -29.18,-14.3 -28.77,-13.27 -29.41,-14.16 -28.44,-13.36 -28.06,-13.79 -27.91,-13.65 -27.46,-13.46 -27.53,-13.68 -27.26,-13.29 -27.16,-14.01 -26.85,-13.35 -27.43,-13.99 -27.15,-13.54 -27.12,-14.12 -26.75,-13.7 -25.97,-13.92 -26.86,-13.84 -26.35,-13.88 -26.92,-14.17 -26.66,-13.76 -27.74,-14.52 -25.79,-13.68 -27.87,-14.68 -25.95,-13.29 -26.89,-14.76 -25.75,-13.22 -27.43,-14.81 -25.38,-13.04 -26.56,-14.41 -25.41,-13.08 -25.48,-13.85 -24.3,-12.64 -24.83,-13.07 -24.9,-12.16 -24.23,-12.58 -25.53,-12.21 -24.37,-12.27 -25.44,-12.18 -23.94,-12.06 -25.29,-12.16 -24.34,-11.51 -25.17,-12.18 -23.61,-11.27 -25.72,-11.85 -23.56,-10.76 -25.47,-11.69 -23.64,-10.53 -24.55,-11.415 -23.54,-10.542 -24.49,-11.09 -23.05,-10.535 -23.07,-10.758 -23.45,-10.285 -22.35,-10.415 -22.21,-10.25 -21.94,-10.011 -21.6,-10.246 -21.68,-9.84 -20.66,-10.125 -20.91,-9.586 -20.04,-9.938 -19,-9.484 -17.59,-9.395 -19.06,-9.187 -16.97,-9.23 -16.64,-8.782 -15.2,-8.816 -15.35,-8.731 -14.15,-8.304 -13.78,-8.18 -13.7,-7.641 -12.44,-7.796 -12.57,-7.008 -11.52,-7.348 -10.16,-6.285 -10.09,-6.836 -8.84,-5.895 -8.88,-6.378 -5.95,-5.422 -8.31,-5.399 -7.14,-4.531 -6.74,-4.227 -2.47,-0.894"
             style="fill:none;stroke:#008000;stroke-width:12;stroke-linecap:square;stroke-linejoin:miter;stroke-miterlimit:2;stroke-dasharray:none;stroke-opacity:1"
             id="path24"
             inkscape:connector-curvature="0" /></g></g><g
         id="g26"
         transform="scale(10,10)"><text
           transform="matrix(0,1,1,0,15,215.074)"
           style="font-variant:normal;font-weight:bold;font-size:16.66340065px;font-family:Helvetica;-inkscape-font-specification:Helvetica-Bold;writing-mode:lr-tb;fill:#000000;fill-opacity:1;fill-rule:nonzero;stroke:none"
           id="text28"><tspan
             x="0 12.030974 21.295826 27.777887 37.959225 47.224075 51.856503 57.405415 69.436386"
             y="0"
             sodipodi:role="line"
             id="tspan30">Carga (N)</tspan></text>
</g><g
         id="g32"
         transform="scale(10,10)"><text
           transform="matrix(1,0,0,-1,61.5,60.75)"
           style="font-variant:normal;font-weight:normal;font-size:16.66340065px;font-family:Helvetica;-inkscape-font-specification:Helvetica;writing-mode:lr-tb;fill:#3c3c3c;fill-opacity:1;fill-rule:nonzero;stroke:none"
           id="text34"><tspan
             x="0"
             y="0"
             id="tspan36">0</tspan><tspan
             x="-32.25 -22.985149 -18.352724 -9.0878744 0.1769764"
             y="-74.25"
             sodipodi:role="line"
             id="tspan38">2,000</tspan><tspan
             x="-32.25 -22.985149 -18.352724 -9.0878744 0.1769764"
             y="-147.75"
             sodipodi:role="line"
             id="tspan40">4,000</tspan><tspan
             x="-32.25 -22.985149 -18.352724 -9.0878744 0.1769764"
             y="-222"
             sodipodi:role="line"
             id="tspan42">6,000</tspan><tspan
             x="-32.25 -22.985149 -18.352724 -9.0878744 0.1769764"
             y="-295.5"
             sodipodi:role="line"
             id="tspan44">8,000</tspan><tspan
             x="-41.25 -31.985149 -22.720299 -18.087873 -8.8230238 0.44182679"
             y="-369.75"
             sodipodi:role="line"
             id="tspan46">10,000</tspan></text>
</g><path
         d="m 855,817.5 -52.5,0"
         style="fill:none;stroke:#000000;stroke-width:7.5;stroke-linecap:square;stroke-linejoin:bevel;stroke-miterlimit:10;stroke-dasharray:none;stroke-opacity:1"
         id="path48"
         inkscape:connector-curvature="0" /><path
         d="m 855,960 -52.5,0"
         style="fill:none;stroke:#000000;stroke-width:7.5;stroke-linecap:square;stroke-linejoin:bevel;stroke-miterlimit:10;stroke-dasharray:none;stroke-opacity:1"
         id="path50"
         inkscape:connector-curvature="0" /><path
         d="m 855,1110 -52.5,0"
         style="fill:none;stroke:#000000;stroke-width:7.5;stroke-linecap:square;stroke-linejoin:bevel;stroke-miterlimit:10;stroke-dasharray:none;stroke-opacity:1"
         id="path52"
         inkscape:connector-curvature="0" /><path
         d="m 855,1260 -52.5,0"
         style="fill:none;stroke:#000000;stroke-width:7.5;stroke-linecap:square;stroke-linejoin:bevel;stroke-miterlimit:10;stroke-dasharray:none;stroke-opacity:1"
         id="path54"
         inkscape:connector-curvature="0" /><path
         d="m 855,1552.5 -52.5,0"
         style="fill:none;stroke:#000000;stroke-width:7.5;stroke-linecap:square;stroke-linejoin:bevel;stroke-miterlimit:10;stroke-dasharray:none;stroke-opacity:1"
         id="path56"
         inkscape:connector-curvature="0" /><path
         d="m 855,1702.5 -52.5,0"
         style="fill:none;stroke:#000000;stroke-width:7.5;stroke-linecap:square;stroke-linejoin:bevel;stroke-miterlimit:10;stroke-dasharray:none;stroke-opacity:1"
         id="path58"
         inkscape:connector-curvature="0" /><path
         d="m 855,1852.5 -52.5,0"
         style="fill:none;stroke:#000000;stroke-width:7.5;stroke-linecap:square;stroke-linejoin:bevel;stroke-miterlimit:10;stroke-dasharray:none;stroke-opacity:1"
         id="path60"
         inkscape:connector-curvature="0" /><path
         d="m 855,1995 -52.5,0"
         style="fill:none;stroke:#000000;stroke-width:7.5;stroke-linecap:square;stroke-linejoin:bevel;stroke-miterlimit:10;stroke-dasharray:none;stroke-opacity:1"
         id="path62"
         inkscape:connector-curvature="0" /><path
         d="m 855,2295 -52.5,0"
         style="fill:none;stroke:#000000;stroke-width:7.5;stroke-linecap:square;stroke-linejoin:bevel;stroke-miterlimit:10;stroke-dasharray:none;stroke-opacity:1"
         id="path64"
         inkscape:connector-curvature="0" /><path
         d="m 855,2445 -52.5,0"
         style="fill:none;stroke:#000000;stroke-width:7.5;stroke-linecap:square;stroke-linejoin:bevel;stroke-miterlimit:10;stroke-dasharray:none;stroke-opacity:1"
         id="path66"
         inkscape:connector-curvature="0" /><path
         d="m 855,2587.5 -52.5,0"
         style="fill:none;stroke:#000000;stroke-width:7.5;stroke-linecap:square;stroke-linejoin:bevel;stroke-miterlimit:10;stroke-dasharray:none;stroke-opacity:1"
         id="path68"
         inkscape:connector-curvature="0" /><path
         d="m 855,2737.5 -52.5,0"
         style="fill:none;stroke:#000000;stroke-width:7.5;stroke-linecap:square;stroke-linejoin:bevel;stroke-miterlimit:10;stroke-dasharray:none;stroke-opacity:1"
         id="path70"
         inkscape:connector-curvature="0" /><path
         d="m 855,3037.5 -52.5,0"
         style="fill:none;stroke:#000000;stroke-width:7.5;stroke-linecap:square;stroke-linejoin:bevel;stroke-miterlimit:10;stroke-dasharray:none;stroke-opacity:1"
         id="path72"
         inkscape:connector-curvature="0" /><path
         d="m 855,3180 -52.5,0"
         style="fill:none;stroke:#000000;stroke-width:7.5;stroke-linecap:square;stroke-linejoin:bevel;stroke-miterlimit:10;stroke-dasharray:none;stroke-opacity:1"
         id="path74"
         inkscape:connector-curvature="0" /><path
         d="m 855,3330 -52.5,0"
         style="fill:none;stroke:#000000;stroke-width:7.5;stroke-linecap:square;stroke-linejoin:bevel;stroke-miterlimit:10;stroke-dasharray:none;stroke-opacity:1"
         id="path76"
         inkscape:connector-curvature="0" /><path
         d="m 855,3480 -52.5,0"
         style="fill:none;stroke:#000000;stroke-width:7.5;stroke-linecap:square;stroke-linejoin:bevel;stroke-miterlimit:10;stroke-dasharray:none;stroke-opacity:1"
         id="path78"
         inkscape:connector-curvature="0" /><path
         d="m 855,3772.5 -52.5,0"
         style="fill:none;stroke:#000000;stroke-width:7.5;stroke-linecap:square;stroke-linejoin:bevel;stroke-miterlimit:10;stroke-dasharray:none;stroke-opacity:1"
         id="path80"
         inkscape:connector-curvature="0" /><path
         d="m 855,3922.5 -52.5,0"
         style="fill:none;stroke:#000000;stroke-width:7.5;stroke-linecap:square;stroke-linejoin:bevel;stroke-miterlimit:10;stroke-dasharray:none;stroke-opacity:1"
         id="path82"
         inkscape:connector-curvature="0" /><path
         d="m 855,4072.5 -52.5,0"
         style="fill:none;stroke:#000000;stroke-width:7.5;stroke-linecap:square;stroke-linejoin:bevel;stroke-miterlimit:10;stroke-dasharray:none;stroke-opacity:1"
         id="path84"
         inkscape:connector-curvature="0" /><path
         d="m 855,4215 -52.5,0"
         style="fill:none;stroke:#000000;stroke-width:7.5;stroke-linecap:square;stroke-linejoin:bevel;stroke-miterlimit:10;stroke-dasharray:none;stroke-opacity:1"
         id="path86"
         inkscape:connector-curvature="0" /><path
         d="m 855,667.5 -105,0"
         style="fill:none;stroke:#000000;stroke-width:7.5;stroke-linecap:square;stroke-linejoin:bevel;stroke-miterlimit:10;stroke-dasharray:none;stroke-opacity:1"
         id="path88"
         inkscape:connector-curvature="0" /><path
         d="m 855,1410 -105,0"
         style="fill:none;stroke:#000000;stroke-width:7.5;stroke-linecap:square;stroke-linejoin:bevel;stroke-miterlimit:10;stroke-dasharray:none;stroke-opacity:1"
         id="path90"
         inkscape:connector-curvature="0" /><path
         d="m 855,2145 -105,0"
         style="fill:none;stroke:#000000;stroke-width:7.5;stroke-linecap:square;stroke-linejoin:bevel;stroke-miterlimit:10;stroke-dasharray:none;stroke-opacity:1"
         id="path92"
         inkscape:connector-curvature="0" /><path
         d="m 855,2887.5 -105,0"
         style="fill:none;stroke:#000000;stroke-width:7.5;stroke-linecap:square;stroke-linejoin:bevel;stroke-miterlimit:10;stroke-dasharray:none;stroke-opacity:1"
         id="path94"
         inkscape:connector-curvature="0" /><path
         d="m 855,3622.5 -105,0"
         style="fill:none;stroke:#000000;stroke-width:7.5;stroke-linecap:square;stroke-linejoin:bevel;stroke-miterlimit:10;stroke-dasharray:none;stroke-opacity:1"
         id="path96"
         inkscape:connector-curvature="0" /><path
         d="m 855,4365 -105,0"
         style="fill:none;stroke:#000000;stroke-width:7.5;stroke-linecap:square;stroke-linejoin:bevel;stroke-miterlimit:10;stroke-dasharray:none;stroke-opacity:1"
         id="path98"
         inkscape:connector-curvature="0" /><path
         d="M 855,4365 855,667.5"
         style="fill:none;stroke:#000000;stroke-width:7.5;stroke-linecap:square;stroke-linejoin:bevel;stroke-miterlimit:10;stroke-dasharray:none;stroke-opacity:1"
         id="path100"
         inkscape:connector-curvature="0" /><g
         id="g102"
         transform="scale(10,10)"><text
           transform="matrix(1,0,0,-1,423.211,15.75)"
           style="font-variant:normal;font-weight:normal;font-size:16.66340065px;font-family:Symbol;-inkscape-font-specification:Symbol;writing-mode:lr-tb;fill:#000000;fill-opacity:1;fill-rule:nonzero;stroke:none"
           id="text104"><tspan
             x="0"
             y="0"
             id="tspan106">ε</tspan></text>
<text
           transform="matrix(1,0,0,-1,436.33952,15.75)"
           style="font-variant:normal;font-weight:bold;font-size:16.66340065px;font-family:Helvetica;-inkscape-font-specification:Helvetica-Bold;writing-mode:lr-tb;fill:#000000;fill-opacity:1;fill-rule:nonzero;stroke:none"
           id="text108"><tspan
             x="0 5.548912 20.362675"
             y="0"
             sodipodi:role="line"
             id="tspan110">(%)</tspan></text>
</g><g
         id="g112"
         transform="scale(10,10)"><text
           transform="matrix(1,0,0,-1,80.25,36.75)"
           style="font-variant:normal;font-weight:normal;font-size:16.66340065px;font-family:Helvetica;-inkscape-font-specification:Helvetica;writing-mode:lr-tb;fill:#3c3c3c;fill-opacity:1;fill-rule:nonzero;stroke:none"
           id="text114"><tspan
             x="0 129.57576 139.30719 148.57204 153.20447 277.11285 286.84427 410.82581 420.55722 429.82208 434.4545 558.36285 568.0943 692.07581 701.80725 711.07208 715.70453"
             y="0"
             sodipodi:role="line"
             id="tspan116">0−0.5−1−1.5−2−2.5</tspan></text>
</g><path
         d="m 1087.5,667.5 0,-52.5"
         style="fill:none;stroke:#000000;stroke-width:7.5;stroke-linecap:square;stroke-linejoin:bevel;stroke-miterlimit:10;stroke-dasharray:none;stroke-opacity:1"
         id="path118"
         inkscape:connector-curvature="0" /><path
         d="m 1327.5,667.5 0,-52.5"
         style="fill:none;stroke:#000000;stroke-width:7.5;stroke-linecap:square;stroke-linejoin:bevel;stroke-miterlimit:10;stroke-dasharray:none;stroke-opacity:1"
         id="path120"
         inkscape:connector-curvature="0" /><path
         d="m 1792.5,667.5 0,-52.5"
         style="fill:none;stroke:#000000;stroke-width:7.5;stroke-linecap:square;stroke-linejoin:bevel;stroke-miterlimit:10;stroke-dasharray:none;stroke-opacity:1"
         id="path122"
         inkscape:connector-curvature="0" /><path
         d="m 2025,667.5 0,-52.5"
         style="fill:none;stroke:#000000;stroke-width:7.5;stroke-linecap:square;stroke-linejoin:bevel;stroke-miterlimit:10;stroke-dasharray:none;stroke-opacity:1"
         id="path124"
         inkscape:connector-curvature="0" /><path
         d="m 2497.5,667.5 0,-52.5"
         style="fill:none;stroke:#000000;stroke-width:7.5;stroke-linecap:square;stroke-linejoin:bevel;stroke-miterlimit:10;stroke-dasharray:none;stroke-opacity:1"
         id="path126"
         inkscape:connector-curvature="0" /><path
         d="m 2730,667.5 0,-52.5"
         style="fill:none;stroke:#000000;stroke-width:7.5;stroke-linecap:square;stroke-linejoin:bevel;stroke-miterlimit:10;stroke-dasharray:none;stroke-opacity:1"
         id="path128"
         inkscape:connector-curvature="0" /><path
         d="m 3202.5,667.5 0,-52.5"
         style="fill:none;stroke:#000000;stroke-width:7.5;stroke-linecap:square;stroke-linejoin:bevel;stroke-miterlimit:10;stroke-dasharray:none;stroke-opacity:1"
         id="path130"
         inkscape:connector-curvature="0" /><path
         d="m 3435,667.5 0,-52.5"
         style="fill:none;stroke:#000000;stroke-width:7.5;stroke-linecap:square;stroke-linejoin:bevel;stroke-miterlimit:10;stroke-dasharray:none;stroke-opacity:1"
         id="path132"
         inkscape:connector-curvature="0" /><path
         d="m 3900,667.5 0,-52.5"
         style="fill:none;stroke:#000000;stroke-width:7.5;stroke-linecap:square;stroke-linejoin:bevel;stroke-miterlimit:10;stroke-dasharray:none;stroke-opacity:1"
         id="path134"
         inkscape:connector-curvature="0" /><path
         d="m 4140,667.5 0,-52.5"
         style="fill:none;stroke:#000000;stroke-width:7.5;stroke-linecap:square;stroke-linejoin:bevel;stroke-miterlimit:10;stroke-dasharray:none;stroke-opacity:1"
         id="path136"
         inkscape:connector-curvature="0" /><path
         d="m 4605,667.5 0,-52.5"
         style="fill:none;stroke:#000000;stroke-width:7.5;stroke-linecap:square;stroke-linejoin:bevel;stroke-miterlimit:10;stroke-dasharray:none;stroke-opacity:1"
         id="path138"
         inkscape:connector-curvature="0" /><path
         d="m 4845,667.5 0,-52.5"
         style="fill:none;stroke:#000000;stroke-width:7.5;stroke-linecap:square;stroke-linejoin:bevel;stroke-miterlimit:10;stroke-dasharray:none;stroke-opacity:1"
         id="path140"
         inkscape:connector-curvature="0" /><path
         d="m 5310,667.5 0,-52.5"
         style="fill:none;stroke:#000000;stroke-width:7.5;stroke-linecap:square;stroke-linejoin:bevel;stroke-miterlimit:10;stroke-dasharray:none;stroke-opacity:1"
         id="path142"
         inkscape:connector-curvature="0" /><path
         d="m 5542.5,667.5 0,-52.5"
         style="fill:none;stroke:#000000;stroke-width:7.5;stroke-linecap:square;stroke-linejoin:bevel;stroke-miterlimit:10;stroke-dasharray:none;stroke-opacity:1"
         id="path144"
         inkscape:connector-curvature="0" /><path
         d="m 6015,667.5 0,-52.5"
         style="fill:none;stroke:#000000;stroke-width:7.5;stroke-linecap:square;stroke-linejoin:bevel;stroke-miterlimit:10;stroke-dasharray:none;stroke-opacity:1"
         id="path146"
         inkscape:connector-curvature="0" /><path
         d="m 6247.5,667.5 0,-52.5"
         style="fill:none;stroke:#000000;stroke-width:7.5;stroke-linecap:square;stroke-linejoin:bevel;stroke-miterlimit:10;stroke-dasharray:none;stroke-opacity:1"
         id="path148"
         inkscape:connector-curvature="0" /><path
         d="m 6720,667.5 0,-52.5"
         style="fill:none;stroke:#000000;stroke-width:7.5;stroke-linecap:square;stroke-linejoin:bevel;stroke-miterlimit:10;stroke-dasharray:none;stroke-opacity:1"
         id="path150"
         inkscape:connector-curvature="0" /><path
         d="m 6952.5,667.5 0,-52.5"
         style="fill:none;stroke:#000000;stroke-width:7.5;stroke-linecap:square;stroke-linejoin:bevel;stroke-miterlimit:10;stroke-dasharray:none;stroke-opacity:1"
         id="path152"
         inkscape:connector-curvature="0" /><path
         d="m 7417.5,667.5 0,-52.5"
         style="fill:none;stroke:#000000;stroke-width:7.5;stroke-linecap:square;stroke-linejoin:bevel;stroke-miterlimit:10;stroke-dasharray:none;stroke-opacity:1"
         id="path154"
         inkscape:connector-curvature="0" /><path
         d="m 7657.5,667.5 0,-52.5"
         style="fill:none;stroke:#000000;stroke-width:7.5;stroke-linecap:square;stroke-linejoin:bevel;stroke-miterlimit:10;stroke-dasharray:none;stroke-opacity:1"
         id="path156"
         inkscape:connector-curvature="0" /><path
         d="m 1560,667.5 0,-52.5"
         style="fill:none;stroke:#000000;stroke-width:7.5;stroke-linecap:square;stroke-linejoin:bevel;stroke-miterlimit:10;stroke-dasharray:none;stroke-opacity:1"
         id="path158"
         inkscape:connector-curvature="0" /><path
         d="m 2962.5,667.5 0,-52.5"
         style="fill:none;stroke:#000000;stroke-width:7.5;stroke-linecap:square;stroke-linejoin:bevel;stroke-miterlimit:10;stroke-dasharray:none;stroke-opacity:1"
         id="path160"
         inkscape:connector-curvature="0" /><path
         d="m 4372.5,667.5 0,-52.5"
         style="fill:none;stroke:#000000;stroke-width:7.5;stroke-linecap:square;stroke-linejoin:bevel;stroke-miterlimit:10;stroke-dasharray:none;stroke-opacity:1"
         id="path162"
         inkscape:connector-curvature="0" /><path
         d="m 5782.5,667.5 0,-52.5"
         style="fill:none;stroke:#000000;stroke-width:7.5;stroke-linecap:square;stroke-linejoin:bevel;stroke-miterlimit:10;stroke-dasharray:none;stroke-opacity:1"
         id="path164"
         inkscape:connector-curvature="0" /><path
         d="m 7185,667.5 0,-52.5"
         style="fill:none;stroke:#000000;stroke-width:7.5;stroke-linecap:square;stroke-linejoin:bevel;stroke-miterlimit:10;stroke-dasharray:none;stroke-opacity:1"
         id="path166"
         inkscape:connector-curvature="0" /><path
         d="m 855,667.5 0,-105"
         style="fill:none;stroke:#000000;stroke-width:7.5;stroke-linecap:square;stroke-linejoin:bevel;stroke-miterlimit:10;stroke-dasharray:none;stroke-opacity:1"
         id="path168"
         inkscape:connector-curvature="0" /><path
         d="m 2265,667.5 0,-105"
         style="fill:none;stroke:#000000;stroke-width:7.5;stroke-linecap:square;stroke-linejoin:bevel;stroke-miterlimit:10;stroke-dasharray:none;stroke-opacity:1"
         id="path170"
         inkscape:connector-curvature="0" /><path
         d="m 3667.5,667.5 0,-105"
         style="fill:none;stroke:#000000;stroke-width:7.5;stroke-linecap:square;stroke-linejoin:bevel;stroke-miterlimit:10;stroke-dasharray:none;stroke-opacity:1"
         id="path172"
         inkscape:connector-curvature="0" /><path
         d="m 5077.5,667.5 0,-105"
         style="fill:none;stroke:#000000;stroke-width:7.5;stroke-linecap:square;stroke-linejoin:bevel;stroke-miterlimit:10;stroke-dasharray:none;stroke-opacity:1"
         id="path174"
         inkscape:connector-curvature="0" /><path
         d="m 6480,667.5 0,-105"
         style="fill:none;stroke:#000000;stroke-width:7.5;stroke-linecap:square;stroke-linejoin:bevel;stroke-miterlimit:10;stroke-dasharray:none;stroke-opacity:1"
         id="path176"
         inkscape:connector-curvature="0" /><path
         d="m 7890,667.5 0,-105"
         style="fill:none;stroke:#000000;stroke-width:7.5;stroke-linecap:square;stroke-linejoin:bevel;stroke-miterlimit:10;stroke-dasharray:none;stroke-opacity:1"
         id="path178"
         inkscape:connector-curvature="0" /><path
         d="m 855,667.5 7035,0"
         style="fill:none;stroke:#000000;stroke-width:7.5;stroke-linecap:square;stroke-linejoin:bevel;stroke-miterlimit:10;stroke-dasharray:none;stroke-opacity:1"
         id="path180"
         inkscape:connector-curvature="0" /></g><rect
       style="opacity:1;fill:#ffffff;fill-opacity:1;fill-rule:nonzero;stroke:none;stroke-width:2.5999999;stroke-miterlimit:4;stroke-dasharray:7.79999971, 2.5999999;stroke-dashoffset:0;stroke-opacity:1"
       id="rect4346"
       width="111.99935"
       height="456.61273"
       x="-42.293461"
       y="-475.40985"
       transform="scale(1,-1)" /><rect
       style="opacity:1;fill:#ffffff;fill-opacity:1;fill-rule:nonzero;stroke:none;stroke-width:2.5999999;stroke-miterlimit:4;stroke-dasharray:7.79999971, 2.5999999;stroke-dashoffset:0;stroke-opacity:1"
       id="rect4348"
       width="822.37286"
       height="54.041645"
       x="41.51025"
       y="-50.125587"
       transform="scale(1,-1)" /><text
       sodipodi:linespacing="125%"
       id="text4690"
       y="-429.84274"
       x="-0.98396569"
       style="font-style:normal;font-weight:normal;font-size:20px;line-height:125%;font-family:sans-serif;letter-spacing:0px;word-spacing:0px;fill:#000000;fill-opacity:1;stroke:none;stroke-width:1px;stroke-linecap:butt;stroke-linejoin:miter;stroke-opacity:1"
       xml:space="preserve"
       transform="scale(1,-1)"><tspan
         y="-429.84274"
         x="-0.98396569"
         id="tspan4692"
         sodipodi:role="line">10,000</tspan></text>
<text
       sodipodi:linespacing="125%"
       id="text4694"
       y="-355.6861"
       x="11.763225"
       style="font-style:normal;font-weight:normal;font-size:20px;line-height:125%;font-family:sans-serif;letter-spacing:0px;word-spacing:0px;fill:#000000;fill-opacity:1;stroke:none;stroke-width:1px;stroke-linecap:butt;stroke-linejoin:miter;stroke-opacity:1"
       xml:space="preserve"
       transform="scale(1,-1)"><tspan
         y="-355.6861"
         x="11.763225"
         id="tspan4696"
         sodipodi:role="line">8,000</tspan></text>
<rect
       y="-307.97949"
       x="-2.4010715"
       height="81.361603"
       width="32.393967"
       id="rect4702"
       style="opacity:1;fill:#ffffff;fill-opacity:1;fill-rule:nonzero;stroke:none;stroke-width:2.5999999;stroke-miterlimit:4;stroke-dasharray:7.79999971, 2.5999999;stroke-dashoffset:0;stroke-opacity:1"
       transform="scale(1,-1)" /><text
       sodipodi:linespacing="125%"
       id="text4704"
       y="-281.85797"
       x="11.763225"
       style="font-style:normal;font-weight:normal;font-size:20px;line-height:125%;font-family:sans-serif;letter-spacing:0px;word-spacing:0px;fill:#000000;fill-opacity:1;stroke:none;stroke-width:1px;stroke-linecap:butt;stroke-linejoin:miter;stroke-opacity:1"
       xml:space="preserve"
       transform="scale(1,-1)"><tspan
         y="-281.85797"
         x="11.763225"
         id="tspan4706"
         sodipodi:role="line">6,000</tspan></text>
<text
       sodipodi:linespacing="125%"
       id="text4708"
       y="-208.60402"
       x="11.673632"
       style="font-style:normal;font-weight:normal;font-size:20px;line-height:125%;font-family:sans-serif;letter-spacing:0px;word-spacing:0px;fill:#000000;fill-opacity:1;stroke:none;stroke-width:1px;stroke-linecap:butt;stroke-linejoin:miter;stroke-opacity:1"
       xml:space="preserve"
       transform="scale(1,-1)"><tspan
         y="-208.60402"
         x="11.673632"
         id="tspan4710"
         sodipodi:role="line">4,000</tspan></text>
<text
       sodipodi:linespacing="125%"
       id="text4712"
       y="-133.87326"
       x="13.21019"
       style="font-style:normal;font-weight:normal;font-size:20px;line-height:125%;font-family:sans-serif;letter-spacing:0px;word-spacing:0px;fill:#000000;fill-opacity:1;stroke:none;stroke-width:1px;stroke-linecap:butt;stroke-linejoin:miter;stroke-opacity:1"
       xml:space="preserve"
       transform="scale(1,-1)"><tspan
         y="-133.87326"
         x="13.21019"
         id="tspan4714"
         sodipodi:role="line">2,000</tspan></text>
<text
       sodipodi:linespacing="125%"
       id="text4716"
       y="-60.768642"
       x="55.337955"
       style="font-style:normal;font-weight:normal;font-size:20px;line-height:125%;font-family:sans-serif;letter-spacing:0px;word-spacing:0px;fill:#000000;fill-opacity:1;stroke:none;stroke-width:1px;stroke-linecap:butt;stroke-linejoin:miter;stroke-opacity:1"
       xml:space="preserve"
       transform="scale(1,-1)"><tspan
         y="-60.768642"
         x="55.337955"
         id="tspan4718"
         sodipodi:role="line">0</tspan></text>
<flowRoot
       transform="matrix(0,0.8,0.8,0,-0.90197808,40.89443)"
       style="font-style:normal;font-weight:normal;font-size:25px;line-height:125%;font-family:sans-serif;letter-spacing:0px;word-spacing:0px;fill:#000000;fill-opacity:1;stroke:none;stroke-width:1px;stroke-linecap:butt;stroke-linejoin:miter;stroke-opacity:1"
       id="flowRoot4720"
       xml:space="preserve"><flowRegion
         id="flowRegion4722"><rect
           y="-38.636902"
           x="207.17073"
           height="72.509758"
           width="398.33279"
           id="rect4724" /></flowRegion><flowPara
         id="flowPara4726"
         style="font-size:30px">Carga (N)</flowPara></flowRoot><text
       sodipodi:linespacing="125%"
       id="text4664"
       y="-35.429508"
       x="78.545853"
       style="font-style:normal;font-weight:normal;font-size:20px;line-height:125%;font-family:sans-serif;letter-spacing:0px;word-spacing:0px;fill:#000000;fill-opacity:1;stroke:none;stroke-width:1px;stroke-linecap:butt;stroke-linejoin:miter;stroke-opacity:1"
       xml:space="preserve"
       transform="scale(1,-1)"><tspan
         y="-35.429508"
         x="78.545853"
         id="tspan4666"
         sodipodi:role="line">0</tspan></text>
<text
       sodipodi:linespacing="125%"
       id="text4668"
       y="-39.738026"
       x="203.8904"
       style="font-style:normal;font-weight:normal;font-size:20px;line-height:125%;font-family:sans-serif;letter-spacing:0px;word-spacing:0px;fill:#000000;fill-opacity:1;stroke:none;stroke-width:1px;stroke-linecap:butt;stroke-linejoin:miter;stroke-opacity:1"
       xml:space="preserve"
       transform="scale(1,-1)"><tspan
         y="-39.738026"
         x="203.8904"
         id="tspan4670"
         sodipodi:role="line">-0.5</tspan></text>
<text
       sodipodi:linespacing="125%"
       id="text4672"
       y="-37.355339"
       x="344.92661"
       style="font-style:normal;font-weight:normal;font-size:20px;line-height:125%;font-family:sans-serif;letter-spacing:0px;word-spacing:0px;fill:#000000;fill-opacity:1;stroke:none;stroke-width:1px;stroke-linecap:butt;stroke-linejoin:miter;stroke-opacity:1"
       xml:space="preserve"
       transform="scale(1,-1)"><tspan
         y="-37.355339"
         x="344.92661"
         id="tspan4674"
         sodipodi:role="line">-1.0</tspan></text>
<text
       sodipodi:linespacing="125%"
       id="text4676"
       y="-38.924957"
       x="488.57886"
       style="font-style:normal;font-weight:normal;font-size:20px;line-height:125%;font-family:sans-serif;letter-spacing:0px;word-spacing:0px;fill:#000000;fill-opacity:1;stroke:none;stroke-width:1px;stroke-linecap:butt;stroke-linejoin:miter;stroke-opacity:1"
       xml:space="preserve"
       transform="scale(1,-1)"><tspan
         y="-38.924957"
         x="488.57886"
         id="tspan4678"
         sodipodi:role="line">-1.5</tspan></text>
<text
       sodipodi:linespacing="125%"
       id="text4680"
       y="-39.764687"
       x="623.69568"
       style="font-style:normal;font-weight:normal;font-size:20px;line-height:125%;font-family:sans-serif;letter-spacing:0px;word-spacing:0px;fill:#000000;fill-opacity:1;stroke:none;stroke-width:1px;stroke-linecap:butt;stroke-linejoin:miter;stroke-opacity:1"
       xml:space="preserve"
       transform="scale(1,-1)"><tspan
         y="-39.764687"
         x="623.69568"
         id="tspan4682"
         sodipodi:role="line">-2.0</tspan></text>
<text
       sodipodi:linespacing="125%"
       id="text4684"
       y="-35.708355"
       x="769.42737"
       style="font-style:normal;font-weight:normal;font-size:20px;line-height:125%;font-family:sans-serif;letter-spacing:0px;word-spacing:0px;fill:#000000;fill-opacity:1;stroke:none;stroke-width:1px;stroke-linecap:butt;stroke-linejoin:miter;stroke-opacity:1"
       xml:space="preserve"
       transform="scale(1,-1)"><tspan
         y="-35.708355"
         x="769.42737"
         id="tspan4686"
         sodipodi:role="line">-2.5</tspan></text>
<rect
       y="-27.896061"
       x="400.97885"
       height="21.093746"
       width="55.747761"
       id="rect4728"
       style="opacity:1;fill:#ffffff;fill-opacity:1;fill-rule:nonzero;stroke:none;stroke-width:2.5999999;stroke-miterlimit:4;stroke-dasharray:7.79999971, 2.5999999;stroke-dashoffset:0;stroke-opacity:1"
       transform="scale(1,-1)" /><flowRoot
       transform="translate(8.4844809,24.129297)"
       style="font-style:normal;font-weight:normal;font-size:20px;line-height:125%;font-family:sans-serif;letter-spacing:0px;word-spacing:0px;fill:#000000;fill-opacity:1;stroke:none;stroke-width:1px;stroke-linecap:butt;stroke-linejoin:miter;stroke-opacity:1"
       id="flowRoot4730"
       xml:space="preserve"><flowRegion
         id="flowRegion4732"><rect
           transform="scale(1,-1)"
           y="-30.1339"
           x="455.02225"
           height="48.967628"
           width="180.0502"
           id="rect4734" /></flowRegion><flowPara
         id="flowPara4736"
         style="font-size:24px">(%)</flowPara></flowRoot><g
       id="g5015"
       transform="matrix(1.3212159,0,0,-1.3212159,127.70011,543.8128)"><g
         word-spacing="normal"
         letter-spacing="normal"
         font-size-adjust="none"
         font-stretch="normal"
         font-weight="normal"
         font-variant="normal"
         font-style="normal"
         stroke-miterlimit="10.433"
         xml:space="preserve"
         transform="matrix(0.8125,0,0,-0.8125,-142.1875,733.125)"
         id="content"
         style="font-style:normal;font-variant:normal;font-weight:normal;font-stretch:normal;letter-spacing:normal;word-spacing:normal;text-anchor:start;fill:none;fill-opacity:1;fill-rule:evenodd;stroke:#000000;stroke-linecap:butt;stroke-linejoin:miter;stroke-miterlimit:10.43299961;stroke-dasharray:none;stroke-dashoffset:0;stroke-opacity:1"><path
           id="path5018"
           d="m 463.02,417.31 0.16,-0.06 0.15,-0.06 0.15,-0.06 0.15,-0.05 0.15,-0.05 0.15,-0.05 0.14,-0.04 0.15,-0.04 0.14,-0.03 0.15,-0.03 0.28,-0.06 0.27,-0.05 0.27,-0.03 0.27,-0.03 0.26,-0.02 0.26,-0.02 0.25,-0.01 0.24,-0.01 0.24,0 0.23,0 0.23,0 0,1.1 c -1.1,0 -1.7,0 -2.64,0.25 l 0,0 c 1.14,0.4 2.19,0.44 3.04,0.44 1.24,0 1.44,-0.04 2.34,-0.29 -0.75,-0.35 -0.85,-0.4 -2.74,-0.4 l 0,-1.1 c 1.29,0 4.03,0 4.03,1.55 0,1.19 -1.74,1.34 -3.63,1.34 -1.05,0 -2.79,-0.1 -4.64,-0.95 -1.14,0.6 -1.99,1.55 -1.99,2.89 0,3.04 4.88,4.83 9.37,4.83 0.79,0 2.59,0 4.58,-1.39 0.55,-0.4 0.65,-0.5 0.99,-0.5 0.65,0 1.35,0.65 1.35,1.35 0,0.94 -3.04,2.84 -6.42,2.84 -5.74,0 -11.11,-3.34 -11.11,-7.13 0,-2.14 1.79,-3.39 1.99,-3.53 -2.94,-1.65 -4.53,-4.44 -4.53,-6.73 0,-3.24 2.83,-6.28 8.11,-6.28 6.58,0 9.37,4.39 9.37,5.14 0,0.29 -0.25,0.49 -0.55,0.49 -0.25,0 -0.4,-0.2 -0.5,-0.35 -0.69,-1.14 -1.89,-2.98 -7.87,-2.98 -3.04,0 -7.27,0.74 -7.27,4.28 0,1.69 1.39,4.33 4.43,5.83 z"
           inkscape:connector-curvature="0"
           style="fill:#000000;stroke-width:0" /></g></g></g></svg>