<?xml version="1.0" encoding="UTF-8" standalone="no"?>
<!-- Created with Inkscape (http://www.inkscape.org/) -->

<svg
   xmlns:dc="http://purl.org/dc/elements/1.1/"
   xmlns:cc="http://creativecommons.org/ns#"
   xmlns:rdf="http://www.w3.org/1999/02/22-rdf-syntax-ns#"
   xmlns:svg="http://www.w3.org/2000/svg"
   xmlns="http://www.w3.org/2000/svg"
   xmlns:sodipodi="http://sodipodi.sourceforge.net/DTD/sodipodi-0.dtd"
   xmlns:inkscape="http://www.inkscape.org/namespaces/inkscape"
   id="svg2"
   version="1.1"
   inkscape:version="0.91 r13725"
   xml:space="preserve"
   width="341.85242"
   height="323.52826"
   viewBox="0 0 341.85242 323.52826"
   sodipodi:docname="Histeresis.svg"><sodipodi:namedview
     pagecolor="#ffffff"
     bordercolor="#666666"
     borderopacity="1"
     objecttolerance="10"
     gridtolerance="10"
     guidetolerance="10"
     inkscape:pageopacity="0"
     inkscape:pageshadow="2"
     inkscape:window-width="1855"
     inkscape:window-height="1056"
     id="namedview4"
     showgrid="false"
     inkscape:zoom="1.4579151"
     inkscape:cx="28.099449"
     inkscape:cy="178.84485"
     inkscape:window-x="65"
     inkscape:window-y="24"
     inkscape:window-maximized="1"
     inkscape:current-layer="g10"
     fit-margin-top="0"
     fit-margin-left="0"
     fit-margin-right="0"
     fit-margin-bottom="0" /><metadata
     id="metadata8"><rdf:RDF><cc:Work
         rdf:about=""><dc:format>image/svg+xml</dc:format><dc:type
           rdf:resource="http://purl.org/dc/dcmitype/StillImage" /><dc:title></dc:title></cc:Work></rdf:RDF></metadata><defs
     id="defs6" /><g
     id="g10"
     inkscape:groupmode="layer"
     inkscape:label="ink_ext_XXXXXX"
     transform="matrix(1.25,0,0,-1.25,8.9358515,324.31073)"><g
       style="fill:#ffffff;stroke:#08220e;stroke-width:7.50400019;stroke-miterlimit:10;stroke-dasharray:none;stroke-opacity:1"
       id="g12"
       transform="matrix(0.1,0,0,0.1,0,1.6)"><path
         d="m 236.129,2539.23 0,-2279.996 2405.711,-5.742"
         style="fill:#ffffff;stroke:#08220e;stroke-width:7.50400019;stroke-linecap:butt;stroke-linejoin:miter;stroke-miterlimit:10;stroke-dasharray:none;stroke-opacity:1"
         id="path14"
         inkscape:connector-curvature="0" /><path
         d="m 200.621,2453.68 35.359,96.18 35.348,-96.18 c -20.859,15.36 -49.418,15.28 -70.707,0 z"
         style="fill:#ffffff;fill-opacity:1;fill-rule:evenodd;stroke:#08220e;stroke-width:7.50400019;stroke-miterlimit:10;stroke-dasharray:none;stroke-opacity:1"
         id="path16"
         inkscape:connector-curvature="0" /><path
         d="m 200.621,2453.68 35.359,96.17 35.348,-96.17 c -20.859,15.35 -49.418,15.27 -70.707,0 z"
         style="fill:#ffffff;stroke:#08220e;stroke-width:7.50400019;stroke-linecap:butt;stroke-linejoin:round;stroke-miterlimit:10;stroke-dasharray:none;stroke-opacity:1"
         id="path18"
         inkscape:connector-curvature="0" /><path
         d="m 2556.41,289.191 96.05,-35.582 -96.25,-35.121 c 15.43,20.821 15.39,49.41 0.2,70.703 z"
         style="fill:#ffffff;fill-opacity:1;fill-rule:evenodd;stroke:#08220e;stroke-width:7.50400019;stroke-miterlimit:10;stroke-dasharray:none;stroke-opacity:1"
         id="path20"
         inkscape:connector-curvature="0" /><path
         d="m 2556.41,289.188 96.05,-35.579 -96.25,-35.121 c 15.43,20.825 15.39,49.414 0.2,70.7 z"
         style="fill:#ffffff;stroke:#08220e;stroke-width:7.50400019;stroke-linecap:butt;stroke-linejoin:round;stroke-miterlimit:10;stroke-dasharray:none;stroke-opacity:1"
         id="path22"
         inkscape:connector-curvature="0" /><path
         d="m 234.301,261.422 211.398,845.738 1245.751,0 262.85,1017.11"
         style="fill:#ffffff;stroke:#0822f5;stroke-width:7.50400019;stroke-linecap:butt;stroke-linejoin:miter;stroke-miterlimit:10;stroke-dasharray:none;stroke-opacity:1"
         id="path24"
         inkscape:connector-curvature="0" /><path
         d="M 1694.1,1118.92 1631.72,882.824 388.551,895.715"
         style="fill:#ffffff;stroke:#0822f2;stroke-width:7.50400019;stroke-linecap:butt;stroke-linejoin:miter;stroke-miterlimit:10;stroke-dasharray:none;stroke-opacity:1"
         id="path26"
         inkscape:connector-curvature="0" /><path
         d="m 153.91,2561.97 1.36,0 0.511,0.07 1.168,0 0.59,0.04 1.25,0.16 0.66,0.04 0.629,0.15 0.66,0.12 0.633,0.2 0.66,0.11 0.699,0.28 0.629,0.19 0.59,0.32 0.66,0.27 0.59,0.39 0.539,0.31 0.59,0.47 0.512,0.47 0.191,0.23 0.547,0.55 0.192,0.31 0.16,0.28 0.269,0.31 0.121,0.35 0.391,0.63 0.16,0.39 0.109,0.39 0.122,0.35 0.117,0.43 0.16,0.39 0.031,0.47 0.16,0.94 0.039,0.43 0,0.97 c 0,7.85 -6.679,7.85 -12.461,7.85 l -73.0894,0 C 35.5898,2580.83 0,2527.16 0,2488.41 c 0,-28.59 18.9102,-51.37 48.0898,-51.37 l 0.3086,7.19 c -15.6992,0 -28.5195,11.68 -28.5195,35.12 0,9.73 3.8711,36.44 15.082,55.62 13.4375,22.43 32.6993,27 43.6289,27 26.9222,0 29.5002,-21.49 29.5002,-31.57 0,-15.27 -6.449,-41.99 -17.3087,-58.55 -12.5,-19.22 -29.8008,-27.62 -42.3829,-27.62 l -0.3086,-7.19 c 37.8516,0 80.5392,39.38 80.5392,89.46 0,5.54 0,21.17 -10,35.47 l 35.281,0 z"
         style="fill:#ffffff;fill-opacity:1;fill-rule:evenodd;stroke:#08220e;stroke-width:7.50400019;stroke-miterlimit:10;stroke-dasharray:none;stroke-opacity:1"
         id="path28"
         inkscape:connector-curvature="0" /><path
         d="m 569.262,691.809 0,-2.231 0.078,-0.656 0.039,-0.66 0.152,-0.633 0.117,-0.551 0.122,-0.578 0.191,-0.512 0.269,-0.468 0.629,-0.942 0.391,-0.387 0.512,-0.39 0.508,-0.352 0.582,-0.347 0.699,-0.274 0.789,-0.277 0.39,-0.153 0.43,-0.16 0.461,-0.078 0.43,-0.148 0.508,-0.082 1.019,-0.239 0.582,-0.113 0.59,-0.039 0.629,-0.078 0.66,-0.121 0.621,-0.039 1.41,-0.153 1.559,-0.078 1.641,-0.082 0.902,-0.078 1.797,-0.082 0.98,0 1.012,-0.039 2.07,0 1.059,-0.027 10.66,0 0,-7.313 -97.422,0 0,7.313 8.32,0 c 25.192,0 26.172,2.566 26.172,11.047 l 0,124.14 c 0,8.52 -0.98,11.09 -26.172,11.09 l -8.32,0 0,7.313 97.422,0 0,-7.313 -8.359,0 c -25.161,0 -26.129,-2.57 -26.129,-11.09 l 0,-124.14 z"
         style="fill:#060606;fill-opacity:1;fill-rule:evenodd;stroke:#08220e;stroke-width:7.50400019;stroke-miterlimit:10;stroke-dasharray:none;stroke-opacity:1"
         id="path30"
         inkscape:connector-curvature="0" /><path
         d="m 1198.16,1229.97 0,-2.22 0.04,-0.67 0.04,-0.62 0.12,-0.63 0.08,-0.54 0.11,-0.59 0.12,-0.51 0.2,-0.47 0.47,-0.93 0.27,-0.39 0.39,-0.36 0.35,-0.39 0.43,-0.31 0.51,-0.31 0.59,-0.27 0.27,-0.12 0.35,-0.16 0.31,-0.08 0.31,-0.15 0.4,-0.08 0.39,-0.12 0.35,-0.12 0.43,-0.11 0.43,-0.04 0.47,-0.08 0.46,-0.12 0.47,-0.04 1.02,-0.15 0.58,-0.04 0.55,-0.04 0.63,-0.04 0.58,-0.04 0.67,-0.08 1.33,-0.07 0.7,0 0.74,-0.04 1.52,0 0.78,-0.08 7.82,0 0,-7.23 -71.37,0 0,7.23 6.09,0 c 18.44,0 19.14,2.62 19.14,11.01 l 0,123.25 c 0,8.43 -0.7,11.05 -19.14,11.05 l -6.09,0 0,7.23 71.37,0 0,-7.23 -6.14,0 c -18.43,0 -19.14,-2.62 -19.14,-11.05 l 0,-123.25 z"
         style="fill:#0d0d0d;fill-opacity:1;fill-rule:evenodd;stroke:#08220e;stroke-width:7.50400019;stroke-miterlimit:10;stroke-dasharray:none;stroke-opacity:1"
         id="path32"
         inkscape:connector-curvature="0" /><path
         d="m 1287.38,1229.97 0,-2.22 0.04,-0.67 0.04,-0.62 0.12,-0.63 0.08,-0.54 0.07,-0.59 0.16,-0.51 0.2,-0.47 0.46,-0.93 0.28,-0.39 0.39,-0.36 0.35,-0.39 0.43,-0.31 0.51,-0.31 0.58,-0.27 0.28,-0.12 0.31,-0.16 0.35,-0.08 0.31,-0.15 0.39,-0.08 0.36,-0.12 0.39,-0.12 0.43,-0.11 0.43,-0.04 0.46,-0.08 0.47,-0.12 0.47,-0.04 1.02,-0.15 0.58,-0.04 0.55,-0.04 0.63,-0.04 0.58,-0.04 0.67,-0.08 1.32,-0.07 0.71,0 0.74,-0.04 1.48,0 0.82,-0.08 7.78,0 0,-7.23 -71.37,0 0,7.23 6.13,0 c 18.44,0 19.14,2.62 19.14,11.01 l 0,123.25 c 0,8.43 -0.7,11.05 -19.14,11.05 l -6.13,0 0,7.23 71.37,0 0,-7.23 -6.1,0 c -18.43,0 -19.14,-2.62 -19.14,-11.05 l 0,-123.25 z"
         style="fill:#060606;fill-opacity:1;fill-rule:evenodd;stroke:#08220e;stroke-width:7.50400019;stroke-miterlimit:10;stroke-dasharray:none;stroke-opacity:1"
         id="path34"
         inkscape:connector-curvature="0" /><path
         d="m 2048.48,1850.91 0,-1.87 0.04,-0.59 0.03,-0.55 0.16,-1.01 0.08,-0.47 0.12,-0.43 0.15,-0.39 0.24,-0.43 0.19,-0.39 0.24,-0.31 0.62,-0.63 0.35,-0.31 1.18,-0.59 0.27,-0.11 0.27,-0.08 0.31,-0.12 0.63,-0.16 0.31,-0.11 0.35,-0.08 0.39,-0.04 0.79,-0.16 0.39,-0.04 0.46,-0.07 0.43,-0.08 0.94,-0.08 0.55,-0.04 0.51,-0.04 0.54,-0.04 0.59,-0.04 0.55,-0.04 0.62,0 0.63,-0.03 1.29,0 0.66,-0.04 6.64,0 0,-6.14 -60.82,0 0,6.14 5.23,0 c 15.71,0 16.29,2.22 16.29,9.37 l 0,105 c 0,7.23 -0.58,9.42 -16.29,9.42 l -5.23,0 0,6.17 60.82,0 0,-6.17 -5.2,0 c -15.74,0 -16.32,-2.19 -16.32,-9.42 l 0,-105 z"
         style="fill:#080808;fill-opacity:1;fill-rule:evenodd;stroke:#08220e;stroke-width:7.50400019;stroke-miterlimit:10;stroke-dasharray:none;stroke-opacity:1"
         id="path36"
         inkscape:connector-curvature="0" /><path
         d="m 2124.49,1850.91 0,-1.87 0.04,-0.59 0.04,-0.55 0.16,-1.01 0.07,-0.47 0.12,-0.43 0.16,-0.39 0.19,-0.43 0.24,-0.39 0.23,-0.31 0.63,-0.63 0.35,-0.31 1.17,-0.59 0.27,-0.11 0.28,-0.08 0.31,-0.12 0.63,-0.16 0.31,-0.11 0.35,-0.08 0.39,-0.04 0.78,-0.16 0.39,-0.04 0.47,-0.07 0.43,-0.08 0.94,-0.08 0.54,-0.04 0.51,-0.04 0.55,-0.04 0.58,-0.04 0.55,-0.04 0.59,0 0.66,-0.03 1.29,0 0.67,-0.04 6.64,0 0,-6.14 -60.82,0 0,6.14 5.19,0 c 15.74,0 16.33,2.22 16.33,9.37 l 0,105 c 0,7.23 -0.59,9.42 -16.33,9.42 l -5.19,0 0,6.17 60.82,0 0,-6.17 -5.2,0 c -15.74,0 -16.33,-2.19 -16.33,-9.42 l 0,-105 z"
         style="fill:#010101;fill-opacity:1;fill-rule:evenodd;stroke:#08220e;stroke-width:7.50400019;stroke-miterlimit:10;stroke-dasharray:none;stroke-opacity:1"
         id="path38"
         inkscape:connector-curvature="0" /><path
         d="m 2200.51,1850.91 0,-1.87 0.04,-0.59 0.04,-0.55 0.15,-1.01 0.08,-0.47 0.12,-0.43 0.15,-0.39 0.2,-0.43 0.19,-0.39 0.28,-0.31 0.62,-0.63 0.35,-0.31 0.43,-0.24 0.51,-0.23 0.24,-0.12 0.27,-0.11 0.27,-0.08 0.28,-0.12 0.35,-0.08 0.31,-0.08 0.31,-0.11 0.35,-0.08 0.36,-0.04 0.43,-0.08 0.39,-0.08 0.39,-0.04 0.43,-0.07 0.47,-0.08 0.93,-0.08 0.55,-0.04 0.51,-0.04 0.54,-0.04 0.59,-0.04 0.55,-0.04 0.58,0 0.67,-0.03 1.25,0 0.7,-0.04 6.64,0 0,-6.14 -60.82,0 0,6.14 5.2,0 c 15.74,0 16.32,2.22 16.32,9.37 l 0,105 c 0,7.23 -0.58,9.42 -16.32,9.42 l -5.2,0 0,6.17 60.82,0 0,-6.17 -5.19,0 c -15.75,0 -16.33,-2.19 -16.33,-9.42 l 0,-105 z"
         style="fill:#090909;fill-opacity:1;fill-rule:evenodd;stroke:#08220e;stroke-width:7.50400019;stroke-miterlimit:10;stroke-dasharray:none;stroke-opacity:1"
         id="path40"
         inkscape:connector-curvature="0" /><path
         d="m 2541.76,107.551 1.17,-0.473 1.09,-0.5 1.1,-0.469 3.28,-1.179 1.05,-0.309 1.1,-0.312 1.01,-0.231 1.1,-0.238 2.07,-0.469 1.99,-0.391 1.95,-0.23 1.99,-0.238 1.92,-0.153 1.87,-0.16 1.84,-0.078 1.76,-0.082 5.15,0 0,8.641 c -8.08,0 -12.46,0 -19.37,1.949 8.36,3.16 16.05,3.48 22.3,3.48 9.1,0 10.55,-0.32 17.15,-2.269 -5.51,-2.77 -6.21,-3.16 -20.08,-3.16 l 0,-8.641 c 9.46,0 29.53,0 29.53,12.191 0,9.34 -12.73,10.508 -26.6,10.508 -7.69,0 -20.47,-0.777 -34.02,-7.457 -8.36,4.731 -14.57,12.188 -14.57,22.731 0,23.867 35.74,37.929 68.67,37.929 5.78,0 18.99,0 33.59,-10.902 4.03,-3.16 4.77,-3.937 7.27,-3.937 4.77,0 9.88,5.117 9.88,10.617 0,7.39 -22.3,22.312 -47.07,22.312 -42.07,0 -81.44,-26.25 -81.44,-56.019 0,-16.832 13.12,-26.684 14.57,-27.774 -21.53,-12.9685 -33.21,-34.8786 -33.21,-52.8864 0,-25.4727 20.75,-49.3399 59.46,-49.3399 48.24,0 68.71,34.5 68.71,40.3867 0,2.2735 -1.84,3.8321 -4.02,3.8321 -1.84,0 -2.93,-1.5586 -3.68,-2.7305 -5.07,-8.9492 -13.86,-23.4414 -57.69,-23.4414 -22.31,0 -53.32,5.8203 -53.32,33.6719 0,13.2812 10.19,34.0312 32.5,45.8205 z"
         style="fill:#ffffff;fill-opacity:1;fill-rule:evenodd;stroke:#08220e;stroke-width:7.50400019;stroke-miterlimit:10;stroke-dasharray:none;stroke-opacity:1"
         id="path42"
         inkscape:connector-curvature="0" /></g><rect
       style="opacity:1;fill:#ffffff;fill-opacity:0.99497483;fill-rule:nonzero;stroke:#ffffff;stroke-width:1.67999995;stroke-miterlimit:4;stroke-dasharray:none;stroke-dashoffset:0;stroke-opacity:1"
       id="rect4172"
       width="18.236464"
       height="22.892582"
       x="-6.9994421e-10"
       y="-260.20859"
       transform="scale(1,-1)" /><g
       transform="matrix(1.1942611,0,0,-1.2370317,-163.09798,322.41228)"
       id="g4196"><g
         style="font-style:normal;font-variant:normal;font-weight:normal;font-stretch:normal;letter-spacing:normal;word-spacing:normal;text-anchor:start;fill:none;fill-opacity:1;fill-rule:evenodd;stroke:#000000;stroke-linecap:butt;stroke-linejoin:miter;stroke-miterlimit:10.43299961;stroke-dasharray:none;stroke-dashoffset:0;stroke-opacity:1"
         id="content"
         transform="matrix(0.4625,0,0,-0.4625,-80.9375,249.375)"
         xml:space="preserve"
         stroke-miterlimit="10.433"
         font-style="normal"
         font-variant="normal"
         font-weight="normal"
         font-stretch="normal"
         font-size-adjust="none"
         letter-spacing="normal"
         word-spacing="normal"><path
           style="fill:#000000;stroke-width:0"
           inkscape:connector-curvature="0"
           d="m 470.64,424.58 8.38,0 c 0.64,0 2.43,0 2.43,1.69 0,1.2 -1.04,1.2 -1.99,1.2 l -13.94,0 c -1,0 -2.95,0 -5.14,-2.34 -1.64,-1.79 -3.04,-4.18 -3.04,-4.49 0,-0.05 0,-0.49 0.6,-0.49 0.4,0 0.5,0.2 0.8,0.6 2.44,3.83 5.28,3.83 6.33,3.83 l 4.13,0 -4.88,-15.99 c -0.2,-0.6 -0.5,-1.64 -0.5,-1.84 0,-0.55 0.35,-1.35 1.45,-1.35 1.64,0 1.89,1.4 2.04,2.14 z"
           id="path4199" /><path
           style="fill:#000000;stroke-width:0"
           inkscape:connector-curvature="0"
           d="m 497.71,410.86 0.39,0.09 0.38,0.11 0.38,0.11 0.38,0.12 0.37,0.13 0.37,0.14 0.36,0.15 0.35,0.15 0.34,0.16 0.34,0.17 0.33,0.18 0.32,0.18 0.31,0.19 0.3,0.2 0.29,0.2 0.27,0.21 0.27,0.22 0.25,0.22 0.24,0.23 0.22,0.23 0.21,0.24 0.2,0.25 0.17,0.25 0.17,0.25 0.14,0.26 0.13,0.27 0.11,0.27 0.09,0.27 0.07,0.28 0.06,0.28 0.03,0.29 0.01,0.29 c 0,3 -3.56,5.37 -8.61,5.37 l -10.71,0 c -0.66,0 -1.12,0 -1.12,-0.77 0,-0.49 0.42,-0.49 1.12,-0.49 0.03,0 0.7,0 1.33,-0.07 0.73,-0.07 0.8,-0.14 0.8,-0.49 0,-0.07 0,-0.24 -0.14,-0.77 l -4.64,-18.51 c -0.28,-1.18 -0.35,-1.47 -3.07,-1.47 -0.59,0 -1.04,0 -1.04,-0.73 0,-0.34 0.24,-0.52 0.56,-0.52 0.66,0 1.46,0.11 2.16,0.11 l 4.53,0 c 0.73,0 1.6,-0.11 2.34,-0.11 0.17,0 0.73,0 0.73,0.73 0,0.52 -0.35,0.52 -1.16,0.52 -0.55,0 -0.69,0 -1.32,0.07 -0.77,0.11 -0.77,0.18 -0.77,0.53 0,0.03 0,0.24 0.15,0.76 l 2.19,8.83 4.74,0 0.04,0.97 -4.5,0 2.23,8.97 c 0.24,0.97 0.31,1.08 1.08,1.18 l 2.23,0 c 3.25,0 7.25,0 7.25,-3.59 0,-1.43 -0.66,-3.63 -2.3,-4.88 -1.43,-1.12 -3.59,-1.68 -5.99,-1.68 l -0.04,-0.97 c 3,0 4.29,-1.5 4.29,-3.14 0,-0.46 -0.31,-1.64 -0.49,-2.44 -0.41,-1.61 -0.55,-2.13 -0.55,-2.72 0,-2.76 2.54,-3.84 5.12,-3.84 3.21,0 4.61,3.42 4.61,4.05 0,0.1 -0.07,0.49 -0.6,0.49 -0.45,0 -0.52,-0.25 -0.63,-0.6 -0.49,-1.53 -1.77,-2.96 -3.24,-2.96 -0.91,0 -1.57,0.38 -1.57,2.27 0,0.87 0.21,2.68 0.35,3.62 0.14,0.94 0.14,1.29 0.14,1.64 0,0.42 0,1.53 -0.98,2.58 -0.66,0.73 -1.6,1.19 -2.37,1.47 z"
           id="path4201" /></g></g><path
       style="fill:#0512f4;fill-opacity:0.97000002;fill-rule:evenodd;stroke:#2322c4;stroke-width:0.75999999;stroke-linecap:butt;stroke-linejoin:miter;stroke-miterlimit:4;stroke-dasharray:none;stroke-opacity:1"
       d="m 159.68008,112.3189 9.32839,-0.0172 0.0343,-0.0514"
       id="path4217"
       inkscape:connector-curvature="0"
       sodipodi:nodetypes="ccc" /><path
       style="opacity:1;fill:#000000;fill-opacity:0.97000002;fill-rule:nonzero;stroke:#23220e;stroke-width:0.03258077;stroke-miterlimit:4;stroke-dasharray:none;stroke-dashoffset:0;stroke-opacity:1"
       d="m 256.70505,24.593424 c 0.61019,1.519664 0.61009,3.274944 -2.7e-4,4.780648 -0.0822,0.202768 -0.13948,0.36904 -0.12728,0.36948 0.0502,0.0016 7.48144,-2.76232 7.48144,-2.782792 0,-0.01224 -0.027,-0.03008 -0.06,-0.03968 -0.033,-0.0096 -1.01686,-0.36744 -2.18634,-0.795208 -3.96456,-1.45016 -5.14419,-1.880056 -5.20203,-1.895792 -0.0459,-0.01248 -0.0266,0.0616 0.0945,0.363352 z"
       id="path4219"
       inkscape:connector-curvature="0" /><path
       style="opacity:1;fill:#000000;fill-opacity:0.97000002;fill-rule:nonzero;stroke:#23220e;stroke-width:0.03258077;stroke-miterlimit:4;stroke-dasharray:none;stroke-dashoffset:0;stroke-opacity:1"
       d="m 20.82945,247.90806 c 0.176388,0.51024 2.757311,7.49906 2.7693,7.49892 0.01734,-2.1e-4 2.775696,-7.48665 2.763595,-7.50068 -0.0036,-0.004 -0.177051,0.0609 -0.385451,0.14456 -1.546824,0.62109 -3.340654,0.60201 -4.856894,-0.0517 -0.167431,-0.0722 -0.298178,-0.11319 -0.29055,-0.0911 z"
       id="path4221"
       inkscape:connector-curvature="0" /><path
       style="fill:none;fill-rule:evenodd;stroke:#000000;stroke-width:0.29526201px;stroke-linecap:butt;stroke-linejoin:miter;stroke-opacity:1"
       d="m 115.25562,112.28957 -7.94791,2.25549 0,-4.43938 z"
       id="path4223"
       inkscape:connector-curvature="0" /><path
       style="opacity:1;fill:#000000;fill-opacity:0.97000002;fill-rule:nonzero;stroke:#08220e;stroke-width:0.01151904;stroke-miterlimit:4;stroke-dasharray:none;stroke-dashoffset:0;stroke-opacity:1"
       d="m 104.37938,90.062416 c -0.0849,0.02392 -0.15313,0.0448 -0.15156,0.04632 0.002,0.0016 0.30568,-7.28e-4 0.67581,-0.0048 l 0.67295,-0.008 -0.43651,-0.0086 c -0.52937,-0.01032 -0.58808,-0.01504 -0.58808,-0.04728 0,-0.02832 0.014,-0.03016 -0.17261,0.02248 z"
       id="path4267"
       inkscape:connector-curvature="0" /><path
       style="opacity:1;fill:#000000;fill-opacity:0.97000002;fill-rule:nonzero;stroke:#08220e;stroke-width:0.01151904;stroke-miterlimit:4;stroke-dasharray:none;stroke-dashoffset:0;stroke-opacity:1"
       d="m 105.76122,90.086048 c 0.0215,0.0024 0.0598,0.0024 0.0849,9.6e-5 0.0251,-0.0024 0.007,-0.0048 -0.0391,-0.0048 -0.0467,-4.8e-5 -0.0673,0.0024 -0.0458,0.0048 z"
       id="path4269"
       inkscape:connector-curvature="0" /><path
       style="opacity:1;fill:#090909;fill-opacity:1;fill-rule:nonzero;stroke:#000105;stroke-width:0.01629039;stroke-miterlimit:4;stroke-dasharray:none;stroke-dashoffset:0;stroke-opacity:1"
       d="m 105.86602,103.51439 0.003,0.3301 0.011,-0.28294 c 0.006,-0.15988 0.0196,-0.29874 0.0308,-0.31927 0.021,-0.0386 0.0127,-0.058 -0.0247,-0.058 -0.0183,0 -0.0223,0.065 -0.02,0.3301 z"
       id="path4283"
       inkscape:connector-curvature="0" /><path
       style="fill:none;fill-rule:evenodd;stroke:#000000;stroke-width:0;stroke-linecap:butt;stroke-linejoin:miter;stroke-miterlimit:4;stroke-dasharray:none;stroke-opacity:1"
       d="m 105.9904,106.95593 c 0.006,-0.0286 0.013,-0.0569 0.0171,-0.0857 0.002,-0.017 0,-0.0343 0,-0.0514 0,-0.04 0,-0.08 0,-0.12003 0,-0.006 -0.003,-0.0593 0,-0.0686 0.0414,-0.12421 -0.005,0.027 0.0343,-0.0514 0.006,-0.0111 -0.006,-0.0749 0,-0.0857 0.004,-0.007 0.0152,-0.009 0.0171,-0.0171 0.004,-0.0166 -0.002,-0.0345 0,-0.0514 0.003,-0.0234 0.0133,-0.0454 0.0171,-0.0686 0.004,-0.0217 0,-0.10968 0,-0.12004 0,-0.006 -0.002,-0.0116 0,-0.0171 0.004,-0.0175 0.0128,-0.0339 0.0171,-0.0514 0.002,-0.006 0,-0.0114 0,-0.0171 0,-0.0229 0,-0.0458 0,-0.0686 0,-0.0114 -0.002,-0.0231 0,-0.0343 -0.0334,-0.0477 0.0281,-0.0438 0.0343,-0.0686 0.003,-0.0123 0,-0.084 0,-0.10289 0,-0.0686 0,-0.13718 0,-0.20577 0,-0.0286 0,-0.0571 0,-0.0857 0,-0.0114 -0.002,-0.0232 0,-0.0343 0.003,-0.0124 0.0141,-0.0219 0.0171,-0.0343 0.003,-0.0135 0,-0.0851 0,-0.10289 0,-0.006 -0.002,-0.0118 0,-0.0171 0.004,-0.0122 0.0141,-0.0219 0.0171,-0.0343 0.002,-0.0111 0,-0.0229 0,-0.0343 0,-0.0343 0,-0.0686 0,-0.10288 0,-0.006 -0.002,-0.0116 0,-0.0171 0.004,-0.0175 0.0128,-0.0339 0.0171,-0.0514 0.004,-0.0158 0,-0.0897 0,-0.10289 0,-0.0514 0,-0.10289 0,-0.15433 0,-0.04 0,-0.08 0,-0.12004 0,-0.0171 0.004,-0.0348 0,-0.0514 -0.003,-0.0124 -0.0114,-0.0229 -0.0171,-0.0343 0,-0.0171 0.003,-0.0346 0,-0.0514 0.0103,-0.031 -0.0278,-0.0319 -0.0343,-0.0514 -0.002,-0.008 0,-0.0762 0,-0.0857 0,-0.0571 0,-0.11432 0,-0.17148 0,-0.01 0.003,-0.0756 0,-0.0857 -0.004,-0.0122 -0.0131,-0.0222 -0.0171,-0.0343 -0.004,-0.0126 8e-4,-0.0799 0,-0.0857 -0.0248,-0.12408 -0.0171,0.0784 -0.0171,-0.0857 0,-0.0343 0,-0.0686 0,-0.10289 0,-0.0114 0,-0.0229 0,-0.0343 0,-0.0114 0.004,-0.0234 0,-0.0343 -0.002,-0.008 -0.0135,-0.01 -0.0171,-0.0171 -0.002,-0.005 0,-0.0114 0,-0.0171 -0.006,-0.0114 -0.0101,-0.0237 -0.0171,-0.0343 -0.0262,-0.0392 -0.0136,0.0107 -0.0343,-0.0514 -3.2e-4,-8e-4 -0.002,-0.0824 0,-0.0857 0.004,-0.007 0.0146,-0.01 0.0171,-0.0171 0.003,-0.009 0,-0.12247 0,-0.13719 0,-0.0215 -0.003,-0.0964 0,-0.10288 0.004,-0.007 0.01,-0.0135 0.0171,-0.0171 0.003,-0.002 0.0832,-8e-4 0.0857,0 0.0191,0.008 0.033,0.0251 0.0514,0.0343 0.0323,0.0162 0.0694,0.0209 0.10288,0.0343 0.0118,0.005 0.0219,0.0141 0.0343,0.0171 0.0111,0.002 0.0241,-0.005 0.0343,0 0.0145,0.007 0.0204,0.026 0.0343,0.0343 0.0155,0.009 0.0346,0.0104 0.0514,0.0171 0.0118,0.005 0.0222,0.0131 0.0343,0.0171 0.006,0.002 0.0114,0 0.0171,0 0.0229,0 0.0462,-0.005 0.0686,0 0.0178,0.003 0.0339,0.0128 0.0514,0.0171 0.006,0.002 0.0114,0 0.0171,0 0.0343,0 0.0686,0 0.10288,0 0.08,0 0.16005,0 0.24008,0 0.0286,0 0.0571,0 0.0857,0 0.006,0 0.0115,-8e-4 0.0171,0 0.0231,0.005 0.0484,0.005 0.0686,0.0171 0.011,0.006 0.007,0.0266 0.0171,0.0343 0.0145,0.0109 0.0353,0.009 0.0514,0.0171 0.007,0.004 0.0114,0.0114 0.0171,0.0171 0.0171,0.0114 0.0323,0.0266 0.0514,0.0343 0.0106,0.004 0.0232,-0.002 0.0343,0 0.0124,0.003 0.0218,0.0146 0.0343,0.0171 0.0168,0.003 0.0345,-0.002 0.0514,0 0.0234,0.003 0.0454,0.0125 0.0686,0.0171 0.0529,0.0106 -0.0386,-0.045 0.0857,0.0171 0.0145,0.007 0.0209,0.0254 0.0343,0.0343 0.005,0.003 0.0114,0 0.0171,0 0.002,0 0.0718,-0.003 0.0857,0 0.0171,0.006 0.0343,0.0114 0.0514,0.0171 0.006,0 0.0115,-8e-4 0.0171,0 0.0431,10e-5 0.0792,0.0262 0.12003,0.0343 0.0168,0.003 0.0352,-0.006 0.0514,0 0.12421,0.0414 -0.027,-0.005 0.0514,0.0343 0.005,0.002 0.0118,-0.002 0.0171,0 0.0122,0.004 0.0219,0.0141 0.0343,0.0171 0.0111,0.002 0.0229,0 0.0343,0 0.0286,0 0.0575,-0.005 0.0858,0 0.0178,0.003 0.0337,0.0136 0.0514,0.0171 0.0112,0.002 0.0229,0 0.0343,0 0.0457,0 0.0229,0 0.0686,0 0.006,0 0.0114,0 0.0171,0 0.006,0 0.0121,-0.002 0.0171,0 0.007,0.004 0.01,0.0135 0.0171,0.0171 0.0109,0.006 0.0715,-0.005 0.0857,0 0.0154,0.005 0.0198,0.027 0.0343,0.0343 0.005,0.002 0.0117,-0.002 0.0171,0 0.007,0.002 0.0618,0.032 0.0686,0.0343 0.006,0.002 0.0118,-0.002 0.0171,0 0.0229,0.008 0.0718,0.0402 0.0858,0.0514 0.0126,0.0101 0.0198,0.027 0.0343,0.0343 0.0211,0.0106 0.0467,0.008 0.0686,0.0171 0.007,0.003 0.0114,0.0114 0.0171,0.0171 0.0114,0.0114 0.0214,0.0246 0.0343,0.0343 0.009,0.0378 0.0353,0.009 0.0514,0.0171 0.007,0.004 0.01,0.0146 0.0171,0.0171 0.0109,0.004 0.0229,0 0.0343,0 0.006,0 0.0124,-0.003 0.0171,0 0.0134,0.009 0.0198,0.027 0.0343,0.0343 0.037,0.0186 0.054,0.0171 0.0857,0.0171 0.0171,0 0.0348,-0.004 0.0514,0 0.008,0.002 0.01,0.0135 0.0171,0.0171 0.005,0.002 0.0116,-0.002 0.0171,0 0.0175,0.004 0.0339,0.0128 0.0514,0.0171 0.006,0.002 0.0114,0 0.0171,0 0.0171,0 0.0346,-0.003 0.0514,0 0.0126,0.002 0.0224,0.0124 0.0343,0.0171 0.12434,0.0498 -0.006,-8e-4 0.0857,0.0171 0.0177,0.003 0.0336,0.0142 0.0514,0.0171 0.0169,0.003 0.11117,-0.005 0.12004,0 0.007,0.004 0.01,0.0146 0.0171,0.0171 0.023,0.008 0.0613,-0.006 0.0857,0 0.0175,0.004 0.0337,0.0136 0.0514,0.0171 0.0571,0.0114 0.0229,-0.0229 0.10288,0 0.0198,0.006 0.0323,0.0266 0.0514,0.0343 0.0106,0.004 0.0231,-0.002 0.0343,0 0.0178,0.003 0.0339,0.0128 0.0514,0.0171 0.006,0.002 0.0118,-0.002 0.0171,0 0.0122,0.004 0.0219,0.0141 0.0343,0.0171 0.0111,0.002 0.0234,-0.004 0.0343,0 0.008,0.002 0.01,0.0135 0.0171,0.0171 0.005,0.002 0.0114,0 0.0171,0 0.006,0 0.0114,0 0.0171,0 0.0171,0 0.0343,0 0.0514,0 0.0581,0 -0.0428,-0.002 0.10289,0.0343 0.0166,0.004 0.0346,-0.003 0.0514,0 0.0178,0.003 0.0343,0.0114 0.0514,0.0171 0.0171,0.006 0.0343,0.0114 0.0514,0.0171 0.0171,0.006 0.0338,0.0136 0.0514,0.0171 0.0112,0.002 0.0241,-0.005 0.0343,0 0.0145,0.007 0.0214,0.0246 0.0343,0.0343 0.0599,0.045 0.008,-0.003 0.0686,0.0171 0.008,0.002 0.009,0.0146 0.0171,0.0171 0.0109,0.004 0.0232,-0.002 0.0343,0 0.0124,0.003 0.0222,0.0131 0.0343,0.0171 0.0124,0.004 0.0615,-0.005 0.0686,0 0.0558,0.0372 0.01,0.0319 0.0686,0.0514 0.0109,0.004 0.0229,0 0.0343,0 0.0551,0 0.10101,-0.004 0.15433,0.0171 0.007,0.003 0.01,0.0135 0.0171,0.0171 0.005,0.002 0.012,-0.002 0.0171,0 0.0184,0.009 0.035,0.0219 0.0514,0.0343 0.0262,0.0196 0.01,0.0239 0.0514,0.0343 0.0781,0 8e-4,-0.008 0.0514,0.0171 0.01,0.005 0.0614,-0.005 0.0686,0 0.0134,0.009 0.0198,0.027 0.0343,0.0343 0.0102,0.005 0.0234,-0.004 0.0343,0 0.008,0.002 0.01,0.0135 0.0171,0.0171 0.0323,0.0162 0.0706,0.0182 0.10289,0.0343 0.007,0.004 0.0107,0.0123 0.0171,0.0171 0.0165,0.0123 0.0338,0.0237 0.0514,0.0343 0.011,0.006 0.0229,0.0114 0.0343,0.0171 0.0114,0.006 0.0222,0.0131 0.0343,0.0171 0.051,0.017 -0.0352,-0.0406 0.0514,0.0171 0.006,0.005 0.009,0.0146 0.0171,0.0171 0.0514,0.0171 0.0171,-0.009 0.0514,0 0.0175,0.004 0.0339,0.0128 0.0514,0.0171 0.006,0.002 0.0117,-0.002 0.0171,0 0.0686,0.0229 -0.003,0.0165 0.0857,0.0343 0.0112,0.002 0.0234,-0.004 0.0343,0 0.0242,0.008 0.0449,0.0248 0.0686,0.0343 0.006,0.002 0.0114,0 0.0171,0 0.0171,0.006 0.0346,0.0104 0.0514,0.0171 0.0591,0.0237 0.01,0.0154 0.0858,0.0343 0.006,0.002 0.012,-0.002 0.0171,0 0.0169,0.008 0.0518,0.0602 0.0686,0.0686 0.0102,0.005 0.0232,-0.002 0.0343,0 0.0175,0.004 0.0339,0.0128 0.0514,0.0171 0.006,0.002 0.0121,-0.002 0.0171,0 0.0206,0.0103 0.0309,0.0411 0.0514,0.0514 0.005,0.002 0.0114,0 0.0171,0 0.006,0 0.0114,0 0.0171,0 0.0514,0 0.10288,0 0.15432,0 0.0494,0 0.0227,-0.002 0.0857,-0.0171 0.006,-0.002 0.0212,0.004 0.0171,0 -0.027,-0.027 -0.0995,-0.0171 -0.13719,-0.0171 -0.0114,0 -0.0232,0.002 -0.0343,0 -0.0124,-0.003 -0.0218,-0.0146 -0.0343,-0.0171 -0.0166,-0.003 -0.11684,0 -0.13718,0 -0.0857,0 -0.17148,0 -0.25722,0 -0.0857,0 -0.17148,0 -0.25721,0 -0.0169,0 -0.0915,-0.004 -0.10289,0 -0.0749,0.025 0.0121,0.0123 -0.0857,0.0514 -0.10459,0.0418 0.0591,-0.0698 -0.0857,0.0171 -0.0138,0.008 -0.0217,0.0242 -0.0343,0.0343 -0.0161,0.0129 -0.0338,0.0237 -0.0514,0.0343 -0.011,0.006 -0.0224,0.0124 -0.0343,0.0171 -0.0168,0.006 -0.0364,0.007 -0.0514,0.0171 -0.0975,0.0975 -0.004,0.019 -0.10288,0.0686 -0.007,0.004 -0.0108,0.0121 -0.0171,0.0171 -0.0223,0.0178 -0.0462,0.0336 -0.0686,0.0514 -0.006,0.005 -0.01,0.0135 -0.0171,0.0171 -0.0171,0.006 -0.0343,0.0114 -0.0514,0.0171 -0.0114,0.0114 -0.0198,0.027 -0.0343,0.0343 -0.0102,0.005 -0.0234,-0.004 -0.0343,0 -0.008,0.002 -0.01,0.0135 -0.0171,0.0171 -0.005,0.002 -0.0121,-0.002 -0.0171,0 -0.007,0.004 -0.009,0.0152 -0.0171,0.0171 -0.0166,0.004 -0.0348,-0.004 -0.0514,0 -0.008,0.002 -0.009,0.0152 -0.0171,0.0171 -0.0166,0.004 -0.0348,-0.004 -0.0514,0 -0.0157,0.004 -0.0198,0.027 -0.0343,0.0343 -0.0162,0.008 -0.0337,0.0136 -0.0514,0.0171 -0.0112,0.002 -0.023,-0.002 -0.0343,0 -0.0233,0.004 -0.0454,0.0133 -0.0686,0.0171 -0.0113,0.002 -0.023,-0.002 -0.0343,0 -0.0233,0.004 -0.0452,0.0142 -0.0686,0.0171 -0.0227,0.003 -0.0464,-0.006 -0.0686,0 -0.0248,0.006 -0.0451,0.0242 -0.0686,0.0343 -0.0166,0.007 -0.0341,0.0122 -0.0514,0.0171 -0.0226,0.006 -0.0458,0.0114 -0.0686,0.0171 -0.0229,0.006 -0.0452,0.0142 -0.0686,0.0171 -0.0227,0.003 -0.0469,-0.007 -0.0686,0 -0.0154,0.005 -0.0229,0.0229 -0.0343,0.0343 -0.0171,0.006 -0.0337,0.0136 -0.0514,0.0171 -0.0112,0.002 -0.0229,0 -0.0343,0 -0.0114,0.006 -0.0219,0.014 -0.0343,0.0171 -0.0111,0.002 -0.0234,-0.004 -0.0343,0 -0.008,0.002 -0.009,0.0152 -0.0171,0.0171 -0.0166,0.004 -0.0355,-0.006 -0.0514,0 -0.015,0.006 -0.0193,0.0283 -0.0343,0.0343 -0.0159,0.006 -0.0343,0 -0.0514,0 -0.0343,0 -0.0686,0 -0.10288,0 -0.0114,0 -0.0234,-0.004 -0.0343,0 -0.008,0.002 -0.009,0.0146 -0.0171,0.0171 -0.0109,0.004 -0.0232,-0.002 -0.0343,0 -0.0124,0.003 -0.0218,0.0146 -0.0343,0.0171 -0.13082,0 0.0135,-0.008 -0.0857,0.0171 -0.0111,0.002 -0.0241,-0.005 -0.0343,0 -0.0145,0.007 -0.0193,0.0283 -0.0343,0.0343 -0.0159,0.006 -0.0346,-0.003 -0.0514,0 -0.0126,0.002 -0.0222,0.0131 -0.0343,0.0171 -0.006,0.002 -0.0116,-0.002 -0.0171,0 -0.0175,0.004 -0.0339,0.0128 -0.0514,0.0171 -0.0111,0.002 -0.0231,-0.002 -0.0343,0 -0.0231,0.005 -0.0462,0.01 -0.0686,0.0171 -0.0806,-0.0566 -0.0673,0.0372 -0.10288,0.0514 -0.0143,0.006 -0.10133,0.0218 -0.12004,0.0343 -0.0202,0.0134 -0.0298,0.0406 -0.0514,0.0514 -0.0154,0.008 -0.035,-0.005 -0.0514,0 -0.0246,0.007 -0.0449,0.0248 -0.0686,0.0343 -0.0336,0.0134 -0.0682,0.0239 -0.10288,0.0343 -0.0451,0.0135 -0.0925,0.0194 -0.13719,0.0343 -0.0122,0.004 -0.0222,0.0131 -0.0343,0.0171 -0.006,0.002 -0.0124,-0.003 -0.0171,0 -0.0198,0.0132 -0.0317,0.0382 -0.0514,0.0514 -0.0181,0.0121 -0.068,0.0318 -0.0857,0.0343 -0.0226,0.003 -0.0469,-0.007 -0.0686,0 -0.0228,0.0228 -0.0361,0.0433 -0.0686,0.0514 -0.0111,0.002 -0.0232,-0.002 -0.0343,0 -0.0124,0.003 -0.0218,0.0146 -0.0343,0.0171 -0.0168,0.003 -0.0348,-0.004 -0.0514,0 -0.008,0.002 -0.0104,0.0126 -0.0171,0.0171 -0.0106,0.007 -0.0229,0.0114 -0.0343,0.0171 -0.0114,0.006 -0.0219,0.0141 -0.0343,0.0171 -0.0111,0.002 -0.0231,-0.002 -0.0343,0 -0.0892,0.0178 -0.0171,0.0114 -0.0858,0.0343 -0.0223,0.007 -0.047,0.008 -0.0686,0.0171 -0.0679,0.0291 -0.0306,0.0411 -0.10288,0.0514 -0.0226,0.003 -0.0462,-0.005 -0.0686,0 -0.008,0.002 -0.009,0.0152 -0.0171,0.0171 -0.0166,0.004 -0.0346,-0.003 -0.0514,0 -0.0126,0.002 -0.0219,0.0141 -0.0343,0.0171 -0.0111,0.002 -0.0237,-0.004 -0.0343,0 -0.0191,0.008 -0.0323,0.0266 -0.0514,0.0343 -0.0156,0.006 -0.0992,-0.006 -0.12004,0 -0.0124,0.003 -0.0222,0.0131 -0.0343,0.0171 -0.006,0.002 -0.0116,-0.002 -0.0171,0 -0.0175,0.004 -0.0338,0.0136 -0.0514,0.0171 -0.0112,0.002 -0.0232,-0.002 -0.0343,0 -0.0124,0.003 -0.0219,0.0141 -0.0343,0.0171 -0.0111,0.002 -0.0232,-0.002 -0.0343,0 -0.0341,0.008 -0.0688,0.043 -0.10289,0.0514 -0.0111,0.002 -0.0229,0 -0.0343,0 -0.0286,0 -0.0577,-0.006 -0.0857,0 -0.0126,0.002 -0.0222,0.0131 -0.0343,0.0171 -0.006,0.002 -0.0114,0 -0.0171,0 -0.0171,0 -0.0343,0 -0.0514,0 -0.0114,0 -0.023,-0.002 -0.0343,0 -0.0233,0.004 -0.0454,0.0126 -0.0686,0.0171 -0.006,8e-4 -0.0114,0 -0.0171,0 -0.0343,0 -0.0686,0 -0.10288,0 -0.0114,0 -0.0234,-0.004 -0.0343,0 -0.0154,0.005 -0.0209,0.0254 -0.0343,0.0343 -0.0106,0.007 -0.0229,0.0114 -0.0343,0.0171 -0.0114,0.006 -0.0222,0.0131 -0.0343,0.0171 -0.006,0.002 -0.0114,0 -0.0171,0 -0.01,0 -0.0756,-0.003 -0.0857,0 -0.0122,0.004 -0.0219,0.0141 -0.0343,0.0171 -0.0314,0.008 -0.0874,-0.009 -0.12004,0 -0.0198,0.006 -0.0323,0.0266 -0.0514,0.0343 -0.0106,0.004 -0.0229,0 -0.0343,0 -0.002,0 -0.0718,-0.003 -0.0857,0 -0.0175,0.004 -0.0343,0.0114 -0.0514,0.0171 z"
       id="path4287"
       inkscape:connector-curvature="0" /><path
       style="opacity:1;fill:#090909;fill-opacity:1;fill-rule:nonzero;stroke:#020203;stroke-width:0;stroke-miterlimit:4;stroke-dasharray:none;stroke-dashoffset:0;stroke-opacity:1"
       d="m 107.53144,110.36123 c -0.0199,0.0526 -0.0254,0.10507 -0.0377,0.36524 -0.007,0.15026 -0.0167,0.25008 -0.0243,0.25262 -0.009,0.003 -0.0126,0.53536 -0.0126,1.68394 0,1.59384 8e-4,1.67948 0.0212,1.67412 0.36176,-0.0964 7.18933,-2.04263 7.18356,-2.04775 -0.005,-0.004 -1.56075,-0.43376 -3.45805,-0.95481 -1.89731,-0.52104 -3.49699,-0.96039 -3.55486,-0.97633 l -0.1052,-0.029 -0.0121,0.0319 z"
       id="path4289"
       inkscape:connector-curvature="0" /><path
       style="fill:none;fill-rule:evenodd;stroke:#000000;stroke-width:0.29526201px;stroke-linecap:butt;stroke-linejoin:miter;stroke-opacity:1"
       d="m 106.67547,90.427823 7.94791,-2.25549 0,4.43938 z"
       id="path4223-7"
       inkscape:connector-curvature="0" /><path
       style="opacity:1;fill:#090909;fill-opacity:1;fill-rule:nonzero;stroke:#020203;stroke-width:0;stroke-miterlimit:4;stroke-dasharray:none;stroke-dashoffset:0;stroke-opacity:1"
       d="m 110.86528,89.399678 c -1.96332,0.558056 -3.57357,1.018576 -3.57833,1.023384 -0.007,0.0072 7.02376,1.94716 7.13501,1.968424 l 0.0387,0.0072 0,-2.008288 c 0,-1.104552 -0.006,-2.007672 -0.0129,-2.00692 -0.007,7.44e-4 -1.61921,0.457952 -3.58253,1.016 z"
       id="path4306"
       inkscape:connector-curvature="0" /><path
       style="opacity:1;fill:#090909;fill-opacity:1;fill-rule:nonzero;stroke:#020203;stroke-width:0;stroke-miterlimit:4;stroke-dasharray:none;stroke-dashoffset:0;stroke-opacity:1"
       d="m 253.59718,13.100976 c -0.51599,0.423504 -0.8103,0.77212 -1.03145,1.22176 -0.43503,0.884456 -0.4172,1.804152 0.0534,2.755896 0.75386,1.524616 2.71154,2.875112 4.96569,3.425552 2.29072,0.559376 4.32848,0.300256 5.92303,-0.75316 0.41933,-0.277024 0.77223,-0.65404 0.77223,-0.825 0,-0.2674 -0.3164,-0.602768 -0.56748,-0.601496 -0.048,2.4e-4 -0.28372,0.141824 -0.5238,0.314624 -0.80954,0.582688 -1.5928,0.918248 -2.49577,1.069232 -0.60252,0.100752 -2.1009,0.07592 -2.88786,-0.04784 -1.10412,-0.173672 -2.18879,-0.501704 -3.00378,-0.908424 -1.66478,-0.8308 -2.5368,-2.034736 -2.43128,-3.356712 0.0804,-1.006544 0.69003,-1.900424 1.6354,-2.397712 0.26563,-0.139736 0.26966,-0.144872 0.15449,-0.197344 -0.065,-0.0296 -0.12267,-0.05256 -0.12809,-0.05096 -0.006,0.0016 -0.20104,0.159832 -0.43473,0.351632 z"
       id="path4308"
       inkscape:connector-curvature="0" /><path
       style="opacity:1;fill:#090909;fill-opacity:1;fill-rule:nonzero;stroke:#020203;stroke-width:0;stroke-miterlimit:4;stroke-dasharray:none;stroke-dashoffset:0;stroke-opacity:1"
       d="m 254.97223,3.051944 c -1.29448,0.15008 -2.46206,0.665424 -3.27081,1.443648 -1.62169,1.560496 -1.75196,3.815816 -0.34268,5.932728 0.30872,0.463736 1.0946,1.348096 1.19796,1.348096 0.0282,0 -0.11177,-0.169144 -0.3112,-0.37588 -1.11487,-1.155688 -1.6982,-2.416848 -1.69512,-3.664872 0.002,-0.886376 0.24632,-1.549168 0.78865,-2.141032 0.35106,-0.383112 0.64191,-0.59984 1.13747,-0.8476 1.08571,-0.542792 2.42786,-0.76688 4.28585,-0.715568 2.47301,0.06832 3.96264,0.550112 4.95929,1.604072 0.33461,0.353848 0.28211,0.211104 -0.073,-0.198376 -1.53562,-1.77096 -4.09329,-2.684712 -6.67646,-2.385216 z"
       id="path4310"
       inkscape:connector-curvature="0" /><path
       style="opacity:1;fill:#090909;fill-opacity:1;fill-rule:nonzero;stroke:#020203;stroke-width:0;stroke-miterlimit:4;stroke-dasharray:none;stroke-dashoffset:0;stroke-opacity:1"
       d=""
       id="path4312"
       inkscape:connector-curvature="0" /><path
       style="opacity:1;fill:#090909;fill-opacity:1;fill-rule:nonzero;stroke:#020203;stroke-width:0;stroke-miterlimit:4;stroke-dasharray:none;stroke-dashoffset:0;stroke-opacity:1"
       d="m 254.22066,12.871856 -0.0206,0.0284 0.19643,0.09394 c 0.78629,0.376024 1.53714,0.580096 2.4578,0.668 0.1171,0.0112 0.38861,0.02184 0.65477,0.02576 1.1456,0.0168 1.8444,-0.08082 2.181,-0.304592 0.0739,-0.04912 0.15762,-0.133944 0.14484,-0.146728 -0.002,-0.0024 -0.15181,0.03904 -0.33164,0.0924 -0.65785,0.195296 -0.866,0.233584 -1.38673,0.255104 -0.33811,0.014 -0.91562,0.0072 -1.20768,-0.01416 -0.42257,-0.03088 -0.87962,-0.109224 -1.23897,-0.21236 -0.10423,-0.02992 -0.46611,-0.158 -0.80418,-0.28464 -0.33808,-0.126632 -0.61687,-0.230072 -0.61955,-0.229864 -0.002,2.08e-4 -0.0142,0.01312 -0.0255,0.02872 z"
       id="path4314"
       inkscape:connector-curvature="0" /><path
       style="opacity:1;fill:#090909;fill-opacity:1;fill-rule:nonzero;stroke:#020203;stroke-width:0;stroke-miterlimit:4;stroke-dasharray:none;stroke-dashoffset:0;stroke-opacity:1"
       d="m 252.44848,11.608968 c 0.005,0.0083 0.0327,0.044 0.0614,0.07928 0.0611,0.07528 0.0652,0.093 0.0187,0.08259 -0.0332,-0.0072 -0.0331,-0.0072 0.009,0.03016 0.0863,0.07648 0.27683,0.228264 0.41226,0.328448 0.20188,0.149328 0.35612,0.25036 0.70983,0.464912 0.25265,0.153248 0.31754,0.187776 0.33253,0.17688 0.0384,-0.02792 0.0514,-0.0276 0.12139,0.0024 l 0.0718,0.03112 0.60386,-0.16992 c 0.82279,-0.23152 0.96204,-0.263472 1.33746,-0.306872 0.13757,-0.01592 0.60906,-0.0424 0.76693,-0.04312 0.0452,-2.08e-4 0.0454,-4.88e-4 0.0454,-0.05064 l 0,-0.0504 -0.24554,0.0081 c -0.27458,0.009 -0.55388,0.03184 -0.83694,0.06816 -0.1804,0.0232 -0.63691,0.118096 -0.81183,0.168824 -0.1113,0.03224 -0.41017,0.141616 -0.5065,0.185288 -0.0434,0.01968 -0.14681,0.06376 -0.22991,0.09799 l -0.15109,0.06224 -0.15811,-0.08296 c -0.51306,-0.269232 -1.08524,-0.66928 -1.46399,-1.023584 -0.0758,-0.07096 -0.10684,-0.0921 -0.0868,-0.0592 z"
       id="path4316"
       inkscape:connector-curvature="0" /><path
       style="opacity:1;fill:#090909;fill-opacity:1;fill-rule:nonzero;stroke:#020203;stroke-width:0;stroke-miterlimit:4;stroke-dasharray:none;stroke-dashoffset:0;stroke-opacity:1"
       d="m 257.70305,12.234616 0,0.04664 0.1292,0.008 c 0.071,0.004 0.18156,0.008 0.24554,0.008 0.15665,4e-5 0.41557,0.01976 0.57103,0.04352 0.28987,0.04424 0.45185,0.103416 0.90735,0.331312 0.16118,0.08065 0.29306,0.143664 0.29306,0.14004 0,-0.02256 -0.0546,-0.1052 -0.10204,-0.154464 -0.20501,-0.212864 -0.63287,-0.357464 -1.26206,-0.426544 -0.17767,-0.01952 -0.56015,-0.04296 -0.70023,-0.04304 l -0.0818,-8e-6 0,0.04664 z"
       id="path4318"
       inkscape:connector-curvature="0" /></g></svg>