<?xml version="1.0" encoding="UTF-8" standalone="no"?>
<!-- Created with Inkscape (http://www.inkscape.org/) -->

<svg
   xmlns:dc="http://purl.org/dc/elements/1.1/"
   xmlns:cc="http://creativecommons.org/ns#"
   xmlns:rdf="http://www.w3.org/1999/02/22-rdf-syntax-ns#"
   xmlns:svg="http://www.w3.org/2000/svg"
   xmlns="http://www.w3.org/2000/svg"
   xmlns:sodipodi="http://sodipodi.sourceforge.net/DTD/sodipodi-0.dtd"
   xmlns:inkscape="http://www.inkscape.org/namespaces/inkscape"
   id="svg2"
   version="1.1"
   inkscape:version="0.91 r13725"
   xml:space="preserve"
   width="344.67044"
   height="323.78677"
   viewBox="0 0 344.67044 323.78677"
   sodipodi:docname="SigmavsDef.Polisvg.svg"><sodipodi:namedview
     pagecolor="#ffffff"
     bordercolor="#666666"
     borderopacity="1"
     objecttolerance="10"
     gridtolerance="10"
     guidetolerance="10"
     inkscape:pageopacity="0"
     inkscape:pageshadow="2"
     inkscape:window-width="1855"
     inkscape:window-height="1056"
     id="namedview4"
     showgrid="false"
     inkscape:zoom="2.0618032"
     inkscape:cx="249.5776"
     inkscape:cy="179.57815"
     inkscape:window-x="65"
     inkscape:window-y="24"
     inkscape:window-maximized="1"
     inkscape:current-layer="g10"
     fit-margin-top="0"
     fit-margin-left="0"
     fit-margin-right="0"
     fit-margin-bottom="0" /><metadata
     id="metadata8"><rdf:RDF><cc:Work
         rdf:about=""><dc:format>image/svg+xml</dc:format><dc:type
           rdf:resource="http://purl.org/dc/dcmitype/StillImage" /><dc:title></dc:title></cc:Work></rdf:RDF></metadata><defs
     id="defs6" /><g
     transform="matrix(1.25,0,0,-1.25,13.801705,325.03823)"
     inkscape:label="ink_ext_XXXXXX"
     inkscape:groupmode="layer"
     id="g10"><g
       transform="scale(0.1,0.1)"
       id="g12"><path
         inkscape:connector-curvature="0"
         id="path14"
         style="fill:none;stroke:#000000;stroke-width:8;stroke-linecap:butt;stroke-linejoin:miter;stroke-miterlimit:4;stroke-dasharray:none;stroke-opacity:1"
         d="m 236.129,2539.23 0,-2279.996 2405.711,-5.742" /><path
         inkscape:connector-curvature="0"
         id="path16"
         style="fill:none;stroke:#0000fa;stroke-width:12.80000019;stroke-linecap:butt;stroke-linejoin:miter;stroke-miterlimit:4;stroke-dasharray:none;stroke-opacity:1"
         d="m 247.539,287.785 82.582,290.59 c 68.43,265.039 232.18,497.765 449.02,535.305 262.339,25.67 476.059,44.38 651.839,66.68 521.48,66.21 709.29,164.49 844.06,572.89 l 92.5,334.53" /><path
         inkscape:connector-curvature="0"
         id="path18"
         style="fill:#000000;fill-opacity:1;fill-rule:evenodd;stroke:none"
         d="m 153.91,2561.97 1.36,0 0.511,0.07 1.168,0 0.59,0.04 1.25,0.16 0.66,0.04 0.629,0.15 0.66,0.12 0.633,0.2 0.66,0.11 0.699,0.28 0.629,0.19 0.59,0.32 0.66,0.27 0.59,0.39 0.539,0.31 0.59,0.47 0.512,0.47 0.191,0.23 0.547,0.55 0.192,0.31 0.16,0.28 0.269,0.31 0.121,0.35 0.391,0.63 0.16,0.39 0.109,0.39 0.122,0.35 0.117,0.43 0.16,0.39 0.031,0.47 0.16,0.94 0.039,0.43 0,0.97 c 0,7.85 -6.679,7.85 -12.461,7.85 l -73.0894,0 C 35.5898,2580.83 0,2527.16 0,2488.41 c 0,-28.59 18.9102,-51.37 48.0898,-51.37 l 0.3086,7.19 c -15.6992,0 -28.5195,11.68 -28.5195,35.12 0,9.73 3.8711,36.44 15.082,55.62 13.4375,22.43 32.6993,27 43.6289,27 26.9222,0 29.5002,-21.49 29.5002,-31.57 0,-15.27 -6.449,-41.99 -17.3087,-58.55 -12.5,-19.22 -29.8008,-27.62 -42.3829,-27.62 l -0.3086,-7.19 c 37.8516,0 80.5392,39.38 80.5392,89.46 0,5.54 0,21.17 -10,35.47 l 35.281,0 z" /><path
         inkscape:connector-curvature="0"
         id="path20"
         style="fill:#000000;fill-opacity:1;fill-rule:evenodd;stroke:none"
         d="m 569.262,691.809 0,-2.231 0.078,-0.656 0.039,-0.66 0.152,-0.633 0.117,-0.551 0.122,-0.578 0.191,-0.512 0.269,-0.468 0.629,-0.942 0.391,-0.387 0.512,-0.39 0.508,-0.352 0.582,-0.347 0.699,-0.274 0.789,-0.277 0.39,-0.153 0.43,-0.16 0.461,-0.078 0.43,-0.148 0.508,-0.082 1.019,-0.239 0.582,-0.113 0.59,-0.039 0.629,-0.078 0.66,-0.121 0.621,-0.039 1.41,-0.153 1.559,-0.078 1.641,-0.082 0.902,-0.078 1.797,-0.082 0.98,0 1.012,-0.039 2.07,0 1.059,-0.027 10.66,0 0,-7.313 -97.422,0 0,7.313 8.32,0 c 25.192,0 26.172,2.566 26.172,11.047 l 0,124.14 c 0,8.52 -0.98,11.09 -26.172,11.09 l -8.32,0 0,7.313 97.422,0 0,-7.313 -8.359,0 c -25.161,0 -26.129,-2.57 -26.129,-11.09 l 0,-124.14 z" /><path
         inkscape:connector-curvature="0"
         id="path22"
         style="fill:#000000;fill-opacity:1;fill-rule:evenodd;stroke:none"
         d="m 1198.16,1229.97 0,-2.22 0.04,-0.67 0.04,-0.62 0.12,-0.63 0.08,-0.54 0.11,-0.59 0.12,-0.51 0.2,-0.47 0.47,-0.93 0.27,-0.39 0.39,-0.36 0.35,-0.39 0.43,-0.31 0.51,-0.31 0.59,-0.27 0.27,-0.12 0.35,-0.16 0.31,-0.08 0.31,-0.15 0.4,-0.08 0.39,-0.12 0.35,-0.12 0.43,-0.11 0.43,-0.04 0.47,-0.08 0.46,-0.12 0.47,-0.04 1.02,-0.15 0.58,-0.04 0.55,-0.04 0.63,-0.04 0.58,-0.04 0.67,-0.08 1.33,-0.07 0.7,0 0.74,-0.04 1.52,0 0.78,-0.08 7.82,0 0,-7.23 -71.37,0 0,7.23 6.09,0 c 18.44,0 19.14,2.62 19.14,11.01 l 0,123.25 c 0,8.43 -0.7,11.05 -19.14,11.05 l -6.09,0 0,7.23 71.37,0 0,-7.23 -6.14,0 c -18.43,0 -19.14,-2.62 -19.14,-11.05 l 0,-123.25 z" /><path
         inkscape:connector-curvature="0"
         id="path24"
         style="fill:#000000;fill-opacity:1;fill-rule:evenodd;stroke:none"
         d="m 1287.38,1229.97 0,-2.22 0.04,-0.67 0.04,-0.62 0.12,-0.63 0.08,-0.54 0.07,-0.59 0.16,-0.51 0.2,-0.47 0.46,-0.93 0.28,-0.39 0.39,-0.36 0.35,-0.39 0.43,-0.31 0.51,-0.31 0.58,-0.27 0.28,-0.12 0.31,-0.16 0.35,-0.08 0.31,-0.15 0.39,-0.08 0.36,-0.12 0.39,-0.12 0.43,-0.11 0.43,-0.04 0.46,-0.08 0.47,-0.12 0.47,-0.04 1.02,-0.15 0.58,-0.04 0.55,-0.04 0.63,-0.04 0.58,-0.04 0.67,-0.08 1.32,-0.07 0.71,0 0.74,-0.04 1.48,0 0.82,-0.08 7.78,0 0,-7.23 -71.37,0 0,7.23 6.13,0 c 18.44,0 19.14,2.62 19.14,11.01 l 0,123.25 c 0,8.43 -0.7,11.05 -19.14,11.05 l -6.13,0 0,7.23 71.37,0 0,-7.23 -6.1,0 c -18.43,0 -19.14,-2.62 -19.14,-11.05 l 0,-123.25 z" /><path
         inkscape:connector-curvature="0"
         id="path26"
         style="fill:#000000;fill-opacity:1;fill-rule:evenodd;stroke:none"
         d="m 2048.48,1850.91 0,-1.87 0.04,-0.59 0.03,-0.55 0.16,-1.01 0.08,-0.47 0.12,-0.43 0.15,-0.39 0.24,-0.43 0.19,-0.39 0.24,-0.31 0.62,-0.63 0.35,-0.31 1.18,-0.59 0.27,-0.11 0.27,-0.08 0.31,-0.12 0.63,-0.16 0.31,-0.11 0.35,-0.08 0.39,-0.04 0.79,-0.16 0.39,-0.04 0.46,-0.07 0.43,-0.08 0.94,-0.08 0.55,-0.04 0.51,-0.04 0.54,-0.04 0.59,-0.04 0.55,-0.04 0.62,0 0.63,-0.03 1.29,0 0.66,-0.04 6.64,0 0,-6.14 -60.82,0 0,6.14 5.23,0 c 15.71,0 16.29,2.22 16.29,9.37 l 0,105 c 0,7.23 -0.58,9.42 -16.29,9.42 l -5.23,0 0,6.17 60.82,0 0,-6.17 -5.2,0 c -15.74,0 -16.32,-2.19 -16.32,-9.42 l 0,-105 z" /><path
         inkscape:connector-curvature="0"
         id="path28"
         style="fill:#000000;fill-opacity:1;fill-rule:evenodd;stroke:none"
         d="m 2124.49,1850.91 0,-1.87 0.04,-0.59 0.04,-0.55 0.16,-1.01 0.07,-0.47 0.12,-0.43 0.16,-0.39 0.19,-0.43 0.24,-0.39 0.23,-0.31 0.63,-0.63 0.35,-0.31 1.17,-0.59 0.27,-0.11 0.28,-0.08 0.31,-0.12 0.63,-0.16 0.31,-0.11 0.35,-0.08 0.39,-0.04 0.78,-0.16 0.39,-0.04 0.47,-0.07 0.43,-0.08 0.94,-0.08 0.54,-0.04 0.51,-0.04 0.55,-0.04 0.58,-0.04 0.55,-0.04 0.59,0 0.66,-0.03 1.29,0 0.67,-0.04 6.64,0 0,-6.14 -60.82,0 0,6.14 5.19,0 c 15.74,0 16.33,2.22 16.33,9.37 l 0,105 c 0,7.23 -0.59,9.42 -16.33,9.42 l -5.19,0 0,6.17 60.82,0 0,-6.17 -5.2,0 c -15.74,0 -16.33,-2.19 -16.33,-9.42 l 0,-105 z" /><path
         inkscape:connector-curvature="0"
         id="path30"
         style="fill:#000000;fill-opacity:1;fill-rule:evenodd;stroke:none"
         d="m 2200.51,1850.91 0,-1.87 0.04,-0.59 0.04,-0.55 0.15,-1.01 0.08,-0.47 0.12,-0.43 0.15,-0.39 0.2,-0.43 0.19,-0.39 0.28,-0.31 0.62,-0.63 0.35,-0.31 0.43,-0.24 0.51,-0.23 0.24,-0.12 0.27,-0.11 0.27,-0.08 0.28,-0.12 0.35,-0.08 0.31,-0.08 0.31,-0.11 0.35,-0.08 0.36,-0.04 0.43,-0.08 0.39,-0.08 0.39,-0.04 0.43,-0.07 0.47,-0.08 0.93,-0.08 0.55,-0.04 0.51,-0.04 0.54,-0.04 0.59,-0.04 0.55,-0.04 0.58,0 0.67,-0.03 1.25,0 0.7,-0.04 6.64,0 0,-6.14 -60.82,0 0,6.14 5.2,0 c 15.74,0 16.32,2.22 16.32,9.37 l 0,105 c 0,7.23 -0.58,9.42 -16.32,9.42 l -5.2,0 0,6.17 60.82,0 0,-6.17 -5.19,0 c -15.75,0 -16.33,-2.19 -16.33,-9.42 l 0,-105 z" /><path
         inkscape:connector-curvature="0"
         id="path32"
         style="fill:#000000;fill-opacity:1;fill-rule:evenodd;stroke:none"
         d="m 2541.76,107.551 1.17,-0.473 1.09,-0.5 1.1,-0.469 3.28,-1.179 1.05,-0.309 1.1,-0.312 1.01,-0.231 1.1,-0.238 2.07,-0.469 1.99,-0.391 1.95,-0.23 1.99,-0.238 1.92,-0.153 1.87,-0.16 1.84,-0.078 1.76,-0.082 5.15,0 0,8.641 c -8.08,0 -12.46,0 -19.37,1.949 8.36,3.16 16.05,3.48 22.3,3.48 9.1,0 10.55,-0.32 17.15,-2.269 -5.51,-2.77 -6.21,-3.16 -20.08,-3.16 l 0,-8.641 c 9.46,0 29.53,0 29.53,12.191 0,9.34 -12.73,10.508 -26.6,10.508 -7.69,0 -20.47,-0.777 -34.02,-7.457 -8.36,4.731 -14.57,12.188 -14.57,22.731 0,23.867 35.74,37.929 68.67,37.929 5.78,0 18.99,0 33.59,-10.902 4.03,-3.16 4.77,-3.937 7.27,-3.937 4.77,0 9.88,5.117 9.88,10.617 0,7.39 -22.3,22.312 -47.07,22.312 -42.07,0 -81.44,-26.25 -81.44,-56.019 0,-16.832 13.12,-26.684 14.57,-27.774 -21.53,-12.9685 -33.21,-34.8786 -33.21,-52.8864 0,-25.4727 20.75,-49.3399 59.46,-49.3399 48.24,0 68.71,34.5 68.71,40.3867 0,2.2735 -1.84,3.8321 -4.02,3.8321 -1.84,0 -2.93,-1.5586 -3.68,-2.7305 -5.07,-8.9492 -13.86,-23.4414 -57.69,-23.4414 -22.31,0 -53.32,5.8203 -53.32,33.6719 0,13.2812 10.19,34.0312 32.5,45.8205 z" /></g><rect
       transform="scale(1,-1)"
       y="-259.19058"
       x="-5.0441284"
       height="19.012484"
       width="23.668602"
       id="rect4160"
       style="opacity:1;fill:#ffffff;fill-opacity:0.99497483;fill-rule:nonzero;stroke:#ffffff;stroke-width:1.67999995;stroke-miterlimit:4;stroke-dasharray:none;stroke-dashoffset:0;stroke-opacity:1" /><g
       id="g4179"
       transform="matrix(1.2724384,0,0,-1.1570277,-177.19923,315.46491)"><g
         word-spacing="normal"
         letter-spacing="normal"
         font-size-adjust="none"
         font-stretch="normal"
         font-weight="normal"
         font-variant="normal"
         font-style="normal"
         stroke-miterlimit="10.433"
         xml:space="preserve"
         transform="matrix(0.4625,0,0,-0.4625,-80.9375,248.4375)"
         id="content"
         style="font-style:normal;font-variant:normal;font-weight:normal;font-stretch:normal;letter-spacing:normal;word-spacing:normal;text-anchor:start;fill:none;fill-opacity:1;fill-rule:evenodd;stroke:#000000;stroke-linecap:butt;stroke-linejoin:miter;stroke-miterlimit:10.43299961;stroke-dasharray:none;stroke-dashoffset:0;stroke-opacity:1"><path
           id="path4182"
           d="m 470.64,424.58 8.38,0 c 0.64,0 2.43,0 2.43,1.69 0,1.2 -1.04,1.2 -1.99,1.2 l -13.94,0 c -1,0 -2.95,0 -5.14,-2.34 -1.64,-1.79 -3.04,-4.18 -3.04,-4.49 0,-0.05 0,-0.49 0.6,-0.49 0.4,0 0.5,0.2 0.8,0.6 2.44,3.83 5.28,3.83 6.33,3.83 l 4.13,0 -4.88,-15.99 c -0.2,-0.6 -0.5,-1.64 -0.5,-1.84 0,-0.55 0.35,-1.35 1.45,-1.35 1.64,0 1.89,1.4 2.04,2.14 z"
           inkscape:connector-curvature="0"
           style="fill:#000000;stroke-width:0" /><path
           id="path4184"
           d="m 497.71,410.86 0.39,0.09 0.38,0.11 0.38,0.11 0.38,0.12 0.37,0.13 0.37,0.14 0.36,0.15 0.35,0.15 0.34,0.16 0.34,0.17 0.33,0.18 0.32,0.18 0.31,0.19 0.3,0.2 0.29,0.2 0.27,0.21 0.27,0.22 0.25,0.22 0.24,0.23 0.22,0.23 0.21,0.24 0.2,0.25 0.17,0.25 0.17,0.25 0.14,0.26 0.13,0.27 0.11,0.27 0.09,0.27 0.07,0.28 0.06,0.28 0.03,0.29 0.01,0.29 c 0,3 -3.56,5.37 -8.61,5.37 l -10.71,0 c -0.66,0 -1.12,0 -1.12,-0.77 0,-0.49 0.42,-0.49 1.12,-0.49 0.03,0 0.7,0 1.33,-0.07 0.73,-0.07 0.8,-0.14 0.8,-0.49 0,-0.07 0,-0.24 -0.14,-0.77 l -4.64,-18.51 c -0.28,-1.18 -0.35,-1.47 -3.07,-1.47 -0.59,0 -1.04,0 -1.04,-0.73 0,-0.34 0.24,-0.52 0.56,-0.52 0.66,0 1.46,0.11 2.16,0.11 l 4.53,0 c 0.73,0 1.6,-0.11 2.34,-0.11 0.17,0 0.73,0 0.73,0.73 0,0.52 -0.35,0.52 -1.16,0.52 -0.55,0 -0.69,0 -1.32,0.07 -0.77,0.11 -0.77,0.18 -0.77,0.53 0,0.03 0,0.24 0.15,0.76 l 2.19,8.83 4.74,0 0.04,0.97 -4.5,0 2.23,8.97 c 0.24,0.97 0.31,1.08 1.08,1.18 l 2.23,0 c 3.25,0 7.25,0 7.25,-3.59 0,-1.43 -0.66,-3.63 -2.3,-4.88 -1.43,-1.12 -3.59,-1.68 -5.99,-1.68 l -0.04,-0.97 c 3,0 4.29,-1.5 4.29,-3.14 0,-0.46 -0.31,-1.64 -0.49,-2.44 -0.41,-1.61 -0.55,-2.13 -0.55,-2.72 0,-2.76 2.54,-3.84 5.12,-3.84 3.21,0 4.61,3.42 4.61,4.05 0,0.1 -0.07,0.49 -0.6,0.49 -0.45,0 -0.52,-0.25 -0.63,-0.6 -0.49,-1.53 -1.77,-2.96 -3.24,-2.96 -0.91,0 -1.57,0.38 -1.57,2.27 0,0.87 0.21,2.68 0.35,3.62 0.14,0.94 0.14,1.29 0.14,1.64 0,0.42 0,1.53 -0.98,2.58 -0.66,0.73 -1.6,1.19 -2.37,1.47 z"
           inkscape:connector-curvature="0"
           style="fill:#000000;stroke-width:0" /></g></g><path
       style="fill:none;fill-rule:evenodd;stroke:#000000;stroke-width:0.80000001px;stroke-linecap:butt;stroke-linejoin:miter;stroke-opacity:1"
       d="m 20.758196,239.39772 2.767844,14.27499 2.6347,-13.94968 -5.712213,0.052"
       id="path4209"
       inkscape:connector-curvature="0"
       sodipodi:nodetypes="cccc" /><path
       style="fill:none;fill-rule:evenodd;stroke:#000000;stroke-width:0.80000001px;stroke-linecap:butt;stroke-linejoin:miter;stroke-opacity:1"
       d="m 263.6527,25.31764 -15.11657,3.574126 -0.13718,-6.854381 z"
       id="path4211"
       inkscape:connector-curvature="0"
       sodipodi:nodetypes="cccc" /><path
       style="opacity:1;fill:#0a0a0a;fill-opacity:0.99497483;fill-rule:nonzero;stroke:#ffffff;stroke-width:0.04501291;stroke-miterlimit:4;stroke-dasharray:none;stroke-dashoffset:0;stroke-opacity:1"
       d="m 26.487773,24.539315 c 0.0061,-0.0321 0.573956,-2.984778 1.261854,-6.561497 l 1.250724,-6.503125 0.0054,6.544174 c 0.003,3.599295 0.003,6.54607 0,6.548389 -0.003,0.0023 -0.573228,0.01011 -1.267248,0.01732 l -1.261854,0.01311 0.01113,-0.05837 z"
       id="path4221"
       inkscape:connector-curvature="0"
       transform="matrix(0.8,0,0,-0.8,0,259)" /><path
       style="opacity:1;fill:#0a0a0a;fill-opacity:0.99497483;fill-rule:nonzero;stroke:#ffffff;stroke-width:0.04501291;stroke-miterlimit:4;stroke-dasharray:none;stroke-dashoffset:0;stroke-opacity:1"
       d="m 30.020192,18.409559 c 9.31e-4,-3.392312 0.0054,-6.158195 0.0098,-6.146406 0.0045,0.01179 0.568488,2.765615 1.253365,6.119613 0.684878,3.353997 1.250594,6.11988 1.257147,6.146405 l 0.01191,0.04823 -1.266972,0 -1.266972,0 0.0017,-6.167841 z"
       id="path4223"
       inkscape:connector-curvature="0"
       transform="matrix(0.8,0,0,-0.8,0,259)" /><path
       style="opacity:1;fill:#0a0a0a;fill-opacity:0.99497483;fill-rule:nonzero;stroke:#ffffff;stroke-width:0.09002582;stroke-miterlimit:4;stroke-dasharray:none;stroke-dashoffset:0;stroke-opacity:1"
       d="m 311.11468,291.37146 c 0.009,-0.0766 0.0273,-0.79353 0.04,-1.5931 0.0126,-0.79958 0.0293,-1.46019 0.0372,-1.46802 0.0102,-0.0102 11.81217,2.76799 13.40432,3.15533 0.0848,0.0206 -2.81908,0.0384 -6.67422,0.0408 l -6.82426,0.004 0.017,-0.13933 z"
       id="path4225"
       inkscape:connector-curvature="0"
       transform="matrix(0.8,0,0,-0.8,0,259)" /><path
       style="opacity:1;fill:#0a0a0a;fill-opacity:0.99497483;fill-rule:nonzero;stroke:#ffffff;stroke-width:0.09002582;stroke-miterlimit:4;stroke-dasharray:none;stroke-dashoffset:0;stroke-opacity:1"
       d="m 311.04939,294.8236 c 0,-0.3998 0.0127,-1.07724 0.0282,-1.50543 l 0.0282,-0.77852 4.59098,0.006 c 2.52504,0.003 5.59848,0.0179 6.82987,0.0322 l 2.23888,0.026 -6.76161,1.45426 c -3.71889,0.79984 -6.80502,1.46281 -6.85807,1.47327 l -0.0965,0.019 0,-0.72691 z"
       id="path4227"
       inkscape:connector-curvature="0"
       transform="matrix(0.8,0,0,-0.8,0,259)" /></g></svg>