<?xml version="1.0" encoding="UTF-8" standalone="no"?>
<!-- Created with Inkscape (http://www.inkscape.org/) -->

<svg
   xmlns:dc="http://purl.org/dc/elements/1.1/"
   xmlns:cc="http://creativecommons.org/ns#"
   xmlns:rdf="http://www.w3.org/1999/02/22-rdf-syntax-ns#"
   xmlns:svg="http://www.w3.org/2000/svg"
   xmlns="http://www.w3.org/2000/svg"
   xmlns:sodipodi="http://sodipodi.sourceforge.net/DTD/sodipodi-0.dtd"
   xmlns:inkscape="http://www.inkscape.org/namespaces/inkscape"
   width="122.0725mm"
   height="95.051819mm"
   viewBox="0 0 432.54036 336.79778"
   id="svg2"
   version="1.1"
   inkscape:version="0.91 r13725"
   sodipodi:docname="Etam.svg">
  <sodipodi:namedview
     id="base"
     pagecolor="#ffffff"
     bordercolor="#666666"
     borderopacity="1.0"
     inkscape:pageopacity="0.0"
     inkscape:pageshadow="2"
     inkscape:zoom="1.979899"
     inkscape:cx="76.827276"
     inkscape:cy="197.82494"
     inkscape:document-units="px"
     inkscape:current-layer="layer1"
     showgrid="false"
     inkscape:window-width="1855"
     inkscape:window-height="1056"
     inkscape:window-x="65"
     inkscape:window-y="24"
     inkscape:window-maximized="1"
     fit-margin-top="0"
     fit-margin-left="0"
     fit-margin-right="0"
     fit-margin-bottom="0" />
  <defs
     id="defs4">
    <marker
       inkscape:stockid="Arrow1Lstart"
       orient="auto"
       refY="0"
       refX="0"
       id="Arrow1Lstart"
       style="overflow:visible"
       inkscape:isstock="true">
      <path
         id="path4142"
         d="M 0,0 5,-5 -12.5,0 5,5 0,0 Z"
         style="fill:#000000;fill-opacity:1;fill-rule:evenodd;stroke:#000000;stroke-width:1pt;stroke-opacity:1"
         transform="matrix(0.8,0,0,0.8,10,0)"
         inkscape:connector-curvature="0" />
    </marker>
    <marker
       inkscape:stockid="Arrow1Lend"
       orient="auto"
       refY="0"
       refX="0"
       id="Arrow1Lend"
       style="overflow:visible"
       inkscape:isstock="true">
      <path
         id="path4145"
         d="M 0,0 5,-5 -12.5,0 5,5 0,0 Z"
         style="fill:#000000;fill-opacity:1;fill-rule:evenodd;stroke:#000000;stroke-width:1pt;stroke-opacity:1"
         transform="matrix(-0.8,0,0,-0.8,-10,0)"
         inkscape:connector-curvature="0" />
    </marker>
  </defs>
  <metadata
     id="metadata7">
    <rdf:RDF>
      <cc:Work
         rdf:about="">
        <dc:format>image/svg+xml</dc:format>
        <dc:type
           rdf:resource="http://purl.org/dc/dcmitype/StillImage" />
        <dc:title></dc:title>
      </cc:Work>
    </rdf:RDF>
  </metadata>
  <g
     inkscape:label="Layer 1"
     inkscape:groupmode="layer"
     id="layer1"
     transform="translate(-176.38134,-84.433884)">
    <path
       style="fill:none;fill-rule:evenodd;stroke:#000000;stroke-width:1px;stroke-linecap:butt;stroke-linejoin:miter;stroke-opacity:1;marker-start:url(#Arrow1Lstart);marker-end:url(#Arrow1Lend)"
       d="m 212.13203,98.778202 0,281.832558 394.96965,0"
       id="path4136"
       inkscape:connector-curvature="0"
       inkscape:export-xdpi="90"
       inkscape:export-ydpi="90" />
    <path
       style="fill:none;fill-rule:evenodd;stroke:#000000;stroke-width:1px;stroke-linecap:butt;stroke-linejoin:miter;stroke-opacity:1"
       d="m 221.22341,150.29598 -8.83884,0 0,0"
       id="path4450"
       inkscape:connector-curvature="0"
       inkscape:export-xdpi="90"
       inkscape:export-ydpi="90" />
    <path
       style="fill:none;fill-rule:evenodd;stroke:#000000;stroke-width:1.22944081px;stroke-linecap:butt;stroke-linejoin:miter;stroke-opacity:1"
       d="m 220.72358,269.08155 -8.97035,0"
       id="path4452"
       inkscape:connector-curvature="0"
       inkscape:export-xdpi="90"
       inkscape:export-ydpi="90" />
    <g
       transform="matrix(0.35558902,0,0,0.35558902,91.624707,28.473261)"
       id="g4466"
       inkscape:export-xdpi="90"
       inkscape:export-ydpi="90">
      <g
         style="font-style:normal;font-variant:normal;font-weight:normal;font-stretch:normal;letter-spacing:normal;word-spacing:normal;text-anchor:start;fill:none;fill-opacity:1;fill-rule:evenodd;stroke:#000000;stroke-linecap:butt;stroke-linejoin:miter;stroke-miterlimit:10.43299961;stroke-dasharray:none;stroke-dashoffset:0;stroke-opacity:1"
         id="content"
         transform="matrix(1.0629921,0,0,-1.0629921,-186.02362,789.27165)"
         xml:space="preserve"
         stroke-miterlimit="10.433"
         font-style="normal"
         font-variant="normal"
         font-weight="normal"
         font-stretch="normal"
         font-size-adjust="none"
         letter-spacing="normal"
         word-spacing="normal"><path
           style="fill:#000000;stroke-width:0"
           inkscape:connector-curvature="0"
           d="m 470.64,437.88 0,0.05 0,0.06 0,0.05 0,0.05 0,0.05 0,0.05 0,0.04 0,0.05 0,0.04 0,0.04 0,0.04 0,0.04 0,0.04 -0.01,0.04 0,0.03 0,0.04 -0.01,0.03 0,0.03 -0.01,0.06 -0.01,0.05 -0.02,0.05 -0.01,0.05 -0.02,0.04 -0.02,0.04 -0.03,0.04 -0.03,0.03 -0.03,0.02 -0.03,0.03 -0.04,0.02 -0.05,0.02 -0.02,0.01 -0.03,0.01 -0.02,0 -0.03,0.01 -0.03,0.01 -0.03,0 -0.03,0.01 -0.03,0 -0.03,0.01 -0.04,0 -0.04,0 -0.03,0 -0.04,0.01 -0.04,0 -0.04,0 -0.05,0 -0.04,0 -0.05,0 -0.05,0.01 -0.05,0 -0.05,0 -0.05,0 c -3.09,-3.19 -7.47,-3.19 -9.07,-3.19 l 0,-1.55 c 1,0 3.94,0 6.53,1.3 l 0,-25.81 c 0,-1.79 -0.15,-2.39 -4.63,-2.39 l -1.6,0 0,-1.54 16.14,0 0,1.54 -1.59,0 c -4.49,0 -4.64,0.55 -4.64,2.39 z"
           id="path4469" /></g>    </g>
    <g
       id="g4499"
       transform="matrix(0.2997546,0,0,0.2997546,96.945435,166.17884)"
       inkscape:export-xdpi="90"
       inkscape:export-ydpi="90">
      <g
         word-spacing="normal"
         letter-spacing="normal"
         font-size-adjust="none"
         font-stretch="normal"
         font-weight="normal"
         font-variant="normal"
         font-style="normal"
         stroke-miterlimit="10.433"
         xml:space="preserve"
         transform="matrix(1.0629921,0,0,-1.0629921,-186.02362,789.27165)"
         id="g4501"
         style="font-style:normal;font-variant:normal;font-weight:normal;font-stretch:normal;letter-spacing:normal;word-spacing:normal;text-anchor:start;fill:none;fill-opacity:1;fill-rule:evenodd;stroke:#000000;stroke-linecap:butt;stroke-linejoin:miter;stroke-miterlimit:10.43299961;stroke-dasharray:none;stroke-dashoffset:0;stroke-opacity:1"><path
           id="path4503"
           d="m 478.91,421.94 0,0.75 -0.01,0.74 -0.02,0.75 -0.03,0.74 -0.05,0.75 -0.06,0.74 -0.07,0.74 -0.1,0.73 -0.11,0.73 -0.14,0.73 -0.16,0.72 -0.19,0.72 -0.22,0.71 -0.24,0.71 -0.28,0.7 -0.15,0.35 -0.16,0.35 c -2.29,4.78 -6.37,5.58 -8.47,5.58 -2.99,0 -6.62,-1.3 -8.66,-5.93 -1.6,-3.44 -1.85,-7.32 -1.85,-11.31 0,-3.74 0.2,-8.22 2.24,-12.01 2.15,-4.03 5.78,-5.03 8.22,-5.03 l 0,1.1 c -1.94,0 -4.88,1.25 -5.78,6.03 -0.54,2.99 -0.54,7.57 -0.54,10.51 0,3.19 0,6.47 0.4,9.16 0.94,5.93 4.68,6.38 5.92,6.38 1.65,0 4.94,-0.9 5.88,-5.83 0.5,-2.79 0.5,-6.57 0.5,-9.71 0,-3.74 0,-7.13 -0.55,-10.31 -0.75,-4.73 -3.59,-6.23 -5.83,-6.23 l 0,0 0,-1.1 c 2.69,0 6.48,1.05 8.67,5.78 1.59,3.44 1.84,7.32 1.84,11.26 z"
           inkscape:connector-curvature="0"
           style="fill:#000000;stroke-width:0" /><path
           id="path4505"
           d="m 489.56,408.64 0,0.14 -0.01,0.13 -0.02,0.13 -0.02,0.13 -0.03,0.13 -0.04,0.12 -0.04,0.12 -0.05,0.12 -0.05,0.12 -0.06,0.11 -0.06,0.11 -0.07,0.11 -0.08,0.1 -0.07,0.1 -0.09,0.1 -0.09,0.09 -0.09,0.09 -0.09,0.08 -0.1,0.08 -0.11,0.08 -0.1,0.07 -0.11,0.06 -0.12,0.06 -0.11,0.05 -0.12,0.05 -0.13,0.04 -0.12,0.04 -0.13,0.03 -0.13,0.02 -0.13,0.02 -0.13,0.01 -0.13,0 c -1.45,0 -2.64,-1.19 -2.64,-2.64 0,-1.44 1.19,-2.64 2.64,-2.64 1.44,0 2.63,1.2 2.63,2.64 z"
           inkscape:connector-curvature="0"
           style="fill:#000000;stroke-width:0" /><path
           id="path4507"
           d="m 516.37,416.01 -0.01,0.55 -0.04,0.55 -0.06,0.54 -0.08,0.53 -0.1,0.53 -0.13,0.51 -0.14,0.5 -0.17,0.5 -0.18,0.48 -0.2,0.47 -0.23,0.46 -0.24,0.44 -0.26,0.43 -0.28,0.41 -0.29,0.4 -0.31,0.38 -0.32,0.36 -0.34,0.35 -0.36,0.33 -0.37,0.3 -0.38,0.29 -0.4,0.27 -0.41,0.24 -0.42,0.22 -0.43,0.2 -0.45,0.17 -0.45,0.15 -0.47,0.13 -0.47,0.09 -0.49,0.07 -0.49,0.05 -0.5,0.01 c -2.39,0 -4.53,-0.8 -6.33,-2.54 l 0,9.71 c 1,-0.29 2.64,-0.64 4.24,-0.64 6.13,0 9.61,4.53 9.61,5.18 0,0.3 -0.15,0.55 -0.49,0.55 -0.05,0 -0.15,0 -0.4,-0.15 -1,-0.45 -3.44,-1.45 -6.78,-1.45 -1.99,0 -4.28,0.35 -6.62,1.4 -0.4,0.14 -0.5,0.14 -0.6,0.14 -0.5,0 -0.5,-0.39 -0.5,-1.19 l 0,-14.75 c 0,-0.89 0,-1.29 0.7,-1.29 0.35,0 0.45,0.15 0.65,0.45 0.55,0.8 2.39,3.48 6.42,3.48 2.59,0 3.84,-2.28 4.24,-3.18 0.79,-1.85 0.89,-3.79 0.89,-6.28 0,-1.74 0,-4.73 -1.19,-6.82 -1.2,-1.95 -3.04,-3.24 -5.33,-3.24 -3.64,0 -6.48,2.64 -7.32,5.58 0.14,-0.05 0.29,-0.1 0.84,-0.1 1.64,0 2.49,1.24 2.49,2.44 0,1.19 -0.85,2.44 -2.49,2.44 -0.7,0 -2.44,-0.35 -2.44,-2.64 0,-4.29 3.44,-9.12 9.02,-9.12 5.78,0 10.86,4.79 10.86,11.11 z"
           inkscape:connector-curvature="0"
           style="fill:#000000;stroke-width:0" /></g>    </g>
    <g
       transform="matrix(0.55163248,0,0,0.55163248,403.46767,213.74075)"
       id="g4547"
       inkscape:export-xdpi="90"
       inkscape:export-ydpi="90">
      <g
         style="font-style:normal;font-variant:normal;font-weight:normal;font-stretch:normal;letter-spacing:normal;word-spacing:normal;text-anchor:start;fill:none;fill-opacity:1;fill-rule:evenodd;stroke:#000000;stroke-linecap:butt;stroke-linejoin:miter;stroke-miterlimit:10.43299961;stroke-dasharray:none;stroke-dashoffset:0;stroke-opacity:1"
         id="g4549"
         transform="matrix(1.0629921,0,0,-1.0629921,-186.02362,789.27165)"
         xml:space="preserve"
         stroke-miterlimit="10.433"
         font-style="normal"
         font-variant="normal"
         font-weight="normal"
         font-stretch="normal"
         font-size-adjust="none"
         letter-spacing="normal"
         word-spacing="normal"><path
           style="fill:#000000;stroke-width:0"
           inkscape:connector-curvature="0"
           d="m 476.37,446.96 0.03,0.11 0.02,0.11 0.03,0.11 0.03,0.1 0.03,0.09 0.03,0.09 0.04,0.09 0.03,0.08 0.05,0.07 0.04,0.07 0.05,0.07 0.06,0.06 0.06,0.06 0.07,0.06 0.07,0.05 0.08,0.05 0.1,0.04 0.1,0.04 0.11,0.04 0.12,0.03 0.06,0.02 0.07,0.01 0.07,0.02 0.07,0.01 0.08,0.01 0.08,0.01 0.08,0.01 0.09,0.02 0.09,0 0.09,0.01 0.09,0.01 0.1,0.01 0.11,0.01 0.1,0 0.11,0.01 0.12,0 0.12,0.01 0.12,0 0.13,0 0.13,0 0.13,0.01 0.14,0 0.14,0 0.15,0 c 1.08,0 1.43,0 1.43,0.77 0,0.03 -0.03,0.49 -0.59,0.49 l -10.04,0 c -0.21,0 -0.74,0 -0.74,-0.77 0,-0.49 0.42,-0.49 1.12,-0.49 0.04,0 0.7,0 1.33,-0.07 0.73,-0.07 0.8,-0.14 0.8,-0.49 0,-0.07 0,-0.24 -0.14,-0.77 l -4.64,-18.51 c -0.31,-1.18 -0.38,-1.47 -3.07,-1.47 -0.59,0 -1.04,0 -1.04,-0.73 0,-0.52 0.41,-0.52 1.04,-0.52 l 17.54,0 c 0.87,0 0.91,0.04 1.19,0.7 0.35,0.94 2.96,7.7 2.96,7.98 0,0.11 -0.07,0.49 -0.59,0.49 -0.42,0 -0.49,-0.17 -0.7,-0.73 -1.32,-3.32 -2.86,-7.19 -9.24,-7.19 l -3.94,0 c -1.08,0 -1.12,0.04 -1.12,0.36 0,0.03 0,0.2 0.15,0.73 z"
           id="path4551" /><polyline
           style="fill:#000000;fill-rule:nonzero;stroke-width:0"
           points="462,418 489.36,418 489.36,420.04 462,420.04 "
           id="polyline4553" /><path
           style="fill:#000000;stroke-width:0"
           inkscape:connector-curvature="0"
           d="m 484.91,412.15 0,0.01 0,0 0.01,0 0,0.01 0,0.01 0,0 0,0.01 0.01,0 0,0.02 0.01,0.02 0,0.02 0.01,0.01 0,0.02 0.01,0.03 0,0.02 0.01,0.02 0.01,0.02 0,0.03 0.01,0.04 0.01,0.05 0.01,0.03 0.01,0.02 0,0.02 0.01,0.02 0,0.02 0,0.02 0.01,0.02 0,0.01 0,0.01 0,0.01 0.01,0 0,0.01 0,0.01 0,0 0,0.01 0,0 0,0 0,0.01 0,0 0,0 c 0,0.18 -0.14,0.49 -0.56,0.49 -0.7,0 -3.59,-0.28 -4.46,-0.35 -0.28,-0.03 -0.77,-0.07 -0.77,-0.8 0,-0.49 0.49,-0.49 0.91,-0.49 1.67,0 1.67,-0.24 1.67,-0.52 0,-0.25 -0.07,-0.46 -0.14,-0.77 l -1.99,-7.95 c -0.73,1.15 -1.91,2.06 -3.59,2.06 l 0,-0.98 c 2.44,0 3.11,-2.65 3.11,-3.03 0,-0.14 -0.07,-0.39 -0.11,-0.49 l -1.64,-6.52 c -0.24,-0.98 -1.01,-1.68 -1.78,-2.34 -0.31,-0.28 -1.7,-1.39 -3.2,-1.39 -1.29,0 -2.55,0.91 -2.55,3.38 0,1.85 1.01,5.69 1.82,7.08 1.6,2.79 3.38,3.31 4.35,3.31 l 0,0.98 c -4.46,0 -8.99,-4.92 -8.99,-9.94 0,-3.38 2.26,-5.79 5.26,-5.79 1.88,0 3.56,1.08 4.95,2.44 0.67,-2.09 2.69,-2.44 3.59,-2.44 1.26,0 2.13,0.77 2.76,1.85 0.77,1.36 1.22,3.35 1.22,3.48 0,0.46 -0.45,0.46 -0.56,0.46 -0.49,0 -0.52,-0.14 -0.76,-1.08 -0.42,-1.68 -1.09,-3.73 -2.55,-3.73 -0.91,0 -1.15,0.76 -1.15,1.71 0,0.66 0.07,0.97 0.17,1.43 z"
           id="path4555" /></g>    </g>
    <g
       id="g4605"
       transform="matrix(0.49621438,0,0,0.49621438,24.996884,-68.490794)"
       inkscape:export-xdpi="90"
       inkscape:export-ydpi="90">
      <g
         word-spacing="normal"
         letter-spacing="normal"
         font-size-adjust="none"
         font-stretch="normal"
         font-weight="normal"
         font-variant="normal"
         font-style="normal"
         stroke-miterlimit="10.433"
         xml:space="preserve"
         transform="matrix(1.0629921,0,0,-1.0629921,-186.02362,789.27165)"
         id="g4607"
         style="font-style:normal;font-variant:normal;font-weight:normal;font-stretch:normal;letter-spacing:normal;word-spacing:normal;text-anchor:start;fill:none;fill-opacity:1;fill-rule:evenodd;stroke:#000000;stroke-linecap:butt;stroke-linejoin:miter;stroke-miterlimit:10.43299961;stroke-dasharray:none;stroke-dashoffset:0;stroke-opacity:1"><path
           id="path4609"
           d="m 489.62,434.05 0.01,0.03 0.01,0.02 0,0.02 0.01,0.02 0.01,0.02 0.01,0.01 0.01,0.02 0.01,0.02 0,0.02 0.01,0.02 0.01,0.03 0.02,0.03 0.01,0.03 0.01,0.03 0.01,0.02 0.01,0.03 0,0.02 0.01,0.03 0.01,0.02 0,0.02 0.01,0.02 0,0.01 0.01,0.02 0,0.01 0,0.02 0.01,0.01 0,0.01 0,0.01 0,0.01 0,0.01 0,0.01 0,0.01 0,0.01 0,0 0,0.01 0,0 0,0 c 0,0.21 -0.13,0.49 -0.59,0.49 -0.07,0 -0.24,0 -0.38,-0.14 -0.07,-0.07 -0.1,-0.1 -0.52,-1.01 -2.27,-5.02 -4.05,-6.77 -9.73,-6.77 l -5.93,0 c -1.08,0 -1.12,0.04 -1.12,0.36 0,0.03 0,0.2 0.15,0.73 l 2.33,9.34 3.9,0 c 2.76,0 3.18,-0.45 3.18,-1.6 0,-0.38 -0.11,-0.98 -0.25,-1.57 -0.1,-0.31 -0.1,-0.35 -0.1,-0.42 0,-0.07 0.03,-0.49 0.59,-0.49 0.49,0 0.53,0.18 0.67,0.77 l 1.91,7.63 c 0.11,0.42 0.11,0.49 0.11,0.53 0,0.35 -0.28,0.49 -0.59,0.49 -0.46,0 -0.49,-0.18 -0.7,-0.91 -0.73,-2.72 -1.78,-3.17 -4.75,-3.17 l -3.66,0 2.1,8.29 c 0.27,1.09 0.31,1.19 1.77,1.19 l 5.69,0 c 4.56,0 5.72,-0.94 5.72,-4.04 0,-0.91 -0.14,-1.96 -0.14,-2.13 0,-0.28 0.1,-0.59 0.59,-0.59 0.52,0 0.56,0.31 0.63,0.9 l 0.62,6.07 c 0.11,1.05 -0.14,1.05 -1.01,1.05 l -19.17,0 c -0.7,0 -1.12,0 -1.12,-0.77 0,-0.49 0.38,-0.49 1.15,-0.49 0.56,0 0.7,0 1.33,-0.07 0.69,-0.07 0.76,-0.14 0.76,-0.49 0,-0.24 -0.1,-0.59 -0.14,-0.76 l -4.57,-18.24 c -0.34,-1.36 -0.38,-1.61 -3.1,-1.61 -0.63,0 -1.04,0 -1.04,-0.76 0,-0.49 0.41,-0.49 1.04,-0.49 l 19.7,0 c 0.87,0 0.91,0 1.19,0.63 z"
           inkscape:connector-curvature="0"
           style="fill:#000000;stroke-width:0" /><path
           id="path4611"
           d="m 502.59,447.88 0,0.02 0.01,0.03 0,0.03 0,0.04 0.01,0.04 0,0.04 0.01,0.05 0,0.05 0.02,0.1 0.01,0.12 0.02,0.13 0.01,0.13 0.02,0.15 0.02,0.15 0.02,0.15 0.01,0.16 0.02,0.16 0.02,0.17 0.04,0.33 0.04,0.33 0.02,0.16 0.02,0.16 0.02,0.15 0.02,0.15 0.01,0.14 0.02,0.13 0.01,0.12 0.01,0.11 0.01,0.05 0,0.05 0.01,0.05 0,0.04 0.01,0.04 0,0.04 0,0.03 0,0.03 0.01,0.02 0,0.03 0,0.01 0,0.02 c 0,0.44 -0.38,0.79 -0.88,0.79 -0.52,0 -0.87,-0.4 -0.87,-0.77 0,-0.25 0.38,-3.41 0.45,-3.93 l -3.86,2.31 c -0.25,0.15 -0.35,0.22 -0.57,0.22 -0.4,0 -0.85,-0.37 -0.85,-0.92 0,-0.4 0.25,-0.65 0.52,-0.74 1.38,-0.55 2.79,-1.05 4.19,-1.52 -1.4,-0.53 -3.69,-1.35 -4.11,-1.52 -0.17,-0.08 -0.6,-0.23 -0.6,-0.78 0,-0.54 0.45,-0.91 0.85,-0.91 0.27,0 1.05,0.47 4.43,2.53 -0.07,-0.52 -0.45,-3.68 -0.45,-3.93 0,-0.37 0.35,-0.77 0.87,-0.77 0.5,0 0.88,0.35 0.88,0.79 0,0.23 -0.4,3.41 -0.45,3.91 l 3.93,-2.36 c 0.18,-0.1 0.28,-0.17 0.5,-0.17 0.4,0 0.85,0.37 0.85,0.91 0,0.4 -0.25,0.65 -0.52,0.75 -1.37,0.55 -2.79,1.05 -4.19,1.52 1.4,0.53 3.69,1.35 4.11,1.52 0.18,0.08 0.6,0.23 0.6,0.77 0,0.55 -0.45,0.92 -0.85,0.92 -0.22,0 -0.32,-0.07 -0.57,-0.22 z"
           inkscape:connector-curvature="0"
           style="fill:#000000;stroke-width:0" /><polyline
           id="polyline4613"
           points="462,418 514.08,418 514.08,420.04 462,420.04 "
           style="fill:#000000;fill-rule:nonzero;stroke-width:0" /><path
           id="path4615"
           d="m 490.62,397.05 0.01,0.03 0.01,0.02 0,0.02 0.01,0.02 0.01,0.02 0.01,0.01 0.01,0.02 0.01,0.02 0,0.02 0.01,0.02 0.01,0.03 0.02,0.03 0.01,0.03 0.01,0.03 0.01,0.02 0.01,0.03 0,0.02 0.01,0.03 0.01,0.02 0,0.02 0.01,0.02 0,0.01 0.01,0.02 0,0.01 0,0.02 0.01,0.01 0,0.01 0,0.01 0,0.01 0,0.01 0,0.01 0,0.01 0,0.01 0,0 0,0.01 0,0 0,0 c 0,0.21 -0.13,0.49 -0.59,0.49 -0.07,0 -0.24,0 -0.38,-0.14 -0.07,-0.07 -0.1,-0.1 -0.52,-1.01 -2.27,-5.02 -4.05,-6.77 -9.73,-6.77 l -5.93,0 c -1.08,0 -1.12,0.04 -1.12,0.36 0,0.03 0,0.2 0.15,0.73 l 2.33,9.34 3.9,0 c 2.76,0 3.18,-0.45 3.18,-1.6 0,-0.38 -0.11,-0.98 -0.25,-1.57 -0.1,-0.31 -0.1,-0.35 -0.1,-0.42 0,-0.07 0.03,-0.49 0.59,-0.49 0.49,0 0.53,0.18 0.67,0.77 l 1.91,7.63 c 0.11,0.42 0.11,0.49 0.11,0.53 0,0.35 -0.28,0.49 -0.59,0.49 -0.46,0 -0.49,-0.18 -0.7,-0.91 -0.73,-2.72 -1.78,-3.17 -4.75,-3.17 l -3.66,0 2.1,8.29 c 0.27,1.09 0.31,1.19 1.77,1.19 l 5.69,0 c 4.56,0 5.72,-0.94 5.72,-4.04 0,-0.91 -0.14,-1.96 -0.14,-2.13 0,-0.28 0.1,-0.59 0.59,-0.59 0.52,0 0.56,0.31 0.63,0.9 l 0.62,6.07 c 0.11,1.05 -0.14,1.05 -1.01,1.05 l -19.17,0 c -0.7,0 -1.12,0 -1.12,-0.77 0,-0.49 0.38,-0.49 1.15,-0.49 0.56,0 0.7,0 1.33,-0.07 0.69,-0.07 0.76,-0.14 0.76,-0.49 0,-0.24 -0.1,-0.59 -0.14,-0.76 l -4.57,-18.24 c -0.34,-1.36 -0.38,-1.61 -3.1,-1.61 -0.63,0 -1.04,0 -1.04,-0.76 0,-0.49 0.41,-0.49 1.04,-0.49 l 19.7,0 c 0.87,0 0.91,0 1.19,0.63 z"
           inkscape:connector-curvature="0"
           style="fill:#000000;stroke-width:0" /><path
           id="path4617"
           d="m 505.63,393.41 -0.04,-0.01 -0.04,-0.01 -0.04,-0.01 -0.04,-0.02 -0.03,-0.01 -0.04,-0.02 -0.06,-0.03 -0.07,-0.04 -0.06,-0.03 -0.05,-0.04 -0.05,-0.04 -0.05,-0.04 -0.05,-0.05 -0.04,-0.04 -0.04,-0.04 -0.03,-0.05 -0.04,-0.05 -0.03,-0.04 -0.03,-0.05 -0.02,-0.05 -0.02,-0.04 -0.02,-0.05 -0.02,-0.04 -0.02,-0.05 -0.01,-0.04 -0.01,-0.05 -0.01,-0.04 -0.01,-0.04 -0.01,-0.04 -0.01,-0.03 0,-0.04 0,-0.03 -0.01,-0.03 0,-0.03 0,-0.02 c 0,-0.62 0.53,-0.9 0.95,-0.9 0.3,0 1.32,0.23 1.32,1.55 0,1.66 -1.97,2.19 -3.84,2.19 -4.21,0 -5.01,-2.57 -5.01,-3.46 0,-0.9 0.53,-1.42 0.98,-1.77 0.7,-0.5 1.44,-0.6 2.76,-0.82 1.57,-0.25 3.32,-0.53 3.32,-1.8 0,-0.02 0,-2.59 -4.59,-2.59 -0.95,0 -2.49,0.08 -3.29,0.85 0.9,0.2 1.3,0.92 1.3,1.52 0,0.7 -0.52,1.02 -1.07,1.02 -0.85,0 -1.6,-0.67 -1.6,-1.79 0,-2.44 3.89,-2.44 4.61,-2.44 5.11,0 5.98,2.93 5.98,3.96 0,2.24 -2.74,2.66 -4.04,2.88 -1.77,0.28 -2.98,0.48 -2.98,1.5 0,0.02 0,2.09 3.58,2.09 0.65,0 1.97,-0.05 2.62,-0.75 z"
           inkscape:connector-curvature="0"
           style="fill:#000000;stroke-width:0" /></g>    </g>
    <path
       style="fill:none;fill-rule:evenodd;stroke:#314978;stroke-width:2.5999999;stroke-linecap:butt;stroke-linejoin:miter;stroke-miterlimit:4;stroke-dasharray:none;stroke-dashoffset:0;stroke-opacity:1"
       d="m 234.86047,381.11582 c 10.0907,-52.56363 18.03815,-111.06228 58.65431,-161.74239 53.84027,-50.0402 142.33938,-49.89281 239.84576,-48.87442 l 0,0"
       id="path4649"
       inkscape:connector-curvature="0"
       sodipodi:nodetypes="cccc"
       inkscape:export-xdpi="90"
       inkscape:export-ydpi="90" />
  </g>
</svg>
