<?xml version="1.0" encoding="UTF-8" standalone="no"?>
<!-- Created with Inkscape (http://www.inkscape.org/) -->

<svg
   xmlns:dc="http://purl.org/dc/elements/1.1/"
   xmlns:cc="http://creativecommons.org/ns#"
   xmlns:rdf="http://www.w3.org/1999/02/22-rdf-syntax-ns#"
   xmlns:svg="http://www.w3.org/2000/svg"
   xmlns="http://www.w3.org/2000/svg"
   xmlns:sodipodi="http://sodipodi.sourceforge.net/DTD/sodipodi-0.dtd"
   xmlns:inkscape="http://www.inkscape.org/namespaces/inkscape"
   width="99.303497mm"
   height="69.114044mm"
   viewBox="0 0 351.86279 244.89228"
   id="svg2"
   version="1.1"
   inkscape:version="0.91 r13725"
   sodipodi:docname="fatiga.svg">
  <sodipodi:namedview
     id="base"
     pagecolor="#ffffff"
     bordercolor="#666666"
     borderopacity="1.0"
     inkscape:pageopacity="0.0"
     inkscape:pageshadow="2"
     inkscape:zoom="1.979899"
     inkscape:cx="165.29328"
     inkscape:cy="92.091088"
     inkscape:document-units="px"
     inkscape:current-layer="layer1"
     showgrid="false"
     inkscape:window-width="1855"
     inkscape:window-height="1056"
     inkscape:window-x="65"
     inkscape:window-y="24"
     inkscape:window-maximized="1"
     fit-margin-top="0"
     fit-margin-left="0"
     fit-margin-right="0"
     fit-margin-bottom="0" />
  <defs
     id="defs4">
    <marker
       inkscape:stockid="Arrow1Lstart"
       orient="auto"
       refY="0"
       refX="0"
       id="marker4595"
       style="overflow:visible"
       inkscape:isstock="true">
      <path
         id="path4597"
         d="M 0,0 5,-5 -12.5,0 5,5 0,0 Z"
         style="fill:#000000;fill-opacity:1;fill-rule:evenodd;stroke:#000000;stroke-width:1pt;stroke-opacity:1"
         transform="matrix(0.8,0,0,0.8,10,0)"
         inkscape:connector-curvature="0" />
    </marker>
    <marker
       inkscape:isstock="true"
       style="overflow:visible"
       id="marker4543"
       refX="0"
       refY="0"
       orient="auto"
       inkscape:stockid="Arrow1Lend">
      <path
         transform="matrix(-0.8,0,0,-0.8,-10,0)"
         style="fill:#000000;fill-opacity:1;fill-rule:evenodd;stroke:#000000;stroke-width:1pt;stroke-opacity:1"
         d="M 0,0 5,-5 -12.5,0 5,5 0,0 Z"
         id="path4545"
         inkscape:connector-curvature="0" />
    </marker>
    <marker
       inkscape:stockid="Arrow1Lend"
       orient="auto"
       refY="0"
       refX="0"
       id="marker4503"
       style="overflow:visible"
       inkscape:isstock="true">
      <path
         id="path4505"
         d="M 0,0 5,-5 -12.5,0 5,5 0,0 Z"
         style="fill:#000000;fill-opacity:1;fill-rule:evenodd;stroke:#000000;stroke-width:1pt;stroke-opacity:1"
         transform="matrix(-0.8,0,0,-0.8,-10,0)"
         inkscape:connector-curvature="0" />
    </marker>
    <marker
       inkscape:isstock="true"
       style="overflow:visible"
       id="marker4458"
       refX="0"
       refY="0"
       orient="auto"
       inkscape:stockid="Arrow1Lend">
      <path
         transform="matrix(-0.8,0,0,-0.8,-10,0)"
         style="fill:#000000;fill-opacity:1;fill-rule:evenodd;stroke:#000000;stroke-width:1pt;stroke-opacity:1"
         d="M 0,0 5,-5 -12.5,0 5,5 0,0 Z"
         id="path4205"
         inkscape:connector-curvature="0" />
    </marker>
    <marker
       inkscape:collect="always"
       inkscape:isstock="true"
       style="overflow:visible"
       id="Arrow1Lstart"
       refX="0"
       refY="0"
       orient="auto"
       inkscape:stockid="Arrow1Lstart">
      <path
         transform="matrix(0.8,0,0,0.8,10,0)"
         style="fill:#000000;fill-opacity:1;fill-rule:evenodd;stroke:#000000;stroke-width:1pt;stroke-opacity:1"
         d="M 0,0 5,-5 -12.5,0 5,5 0,0 Z"
         id="path4142"
         inkscape:connector-curvature="0" />
    </marker>
    <marker
       inkscape:collect="always"
       inkscape:isstock="true"
       style="overflow:visible"
       id="Arrow1Lend"
       refX="0"
       refY="0"
       orient="auto"
       inkscape:stockid="Arrow1Lend">
      <path
         transform="matrix(-0.8,0,0,-0.8,-10,0)"
         style="fill:#000000;fill-opacity:1;fill-rule:evenodd;stroke:#000000;stroke-width:1pt;stroke-opacity:1"
         d="M 0,0 5,-5 -12.5,0 5,5 0,0 Z"
         id="path4145"
         inkscape:connector-curvature="0" />
    </marker>
  </defs>
  <metadata
     id="metadata7">
    <rdf:RDF>
      <cc:Work
         rdf:about="">
        <dc:format>image/svg+xml</dc:format>
        <dc:type
           rdf:resource="http://purl.org/dc/dcmitype/StillImage" />
        <dc:title></dc:title>
      </cc:Work>
    </rdf:RDF>
  </metadata>
  <g
     id="layer1"
     inkscape:groupmode="layer"
     inkscape:label="Layer 1"
     transform="translate(-222.1001,-57.685034)">
    <path
       inkscape:connector-curvature="0"
       id="path4136"
       d="m 252.14286,59.505061 0,214.999999 320,0"
       style="fill:none;fill-rule:evenodd;stroke:#000000;stroke-width:1px;stroke-linecap:butt;stroke-linejoin:miter;stroke-opacity:1;marker-start:url(#Arrow1Lstart);marker-end:url(#Arrow1Lend)"
       inkscape:export-xdpi="90"
       inkscape:export-ydpi="90" />
    <path
       sodipodi:nodetypes="cccc"
       inkscape:connector-curvature="0"
       id="path4450"
       d="m 252.14286,273.79078 c 8.46246,-20.01675 16.63304,-39.22132 43.60165,-53.62168 14.92242,-7.29271 19.32943,-8.02179 65.95662,-11.31451 77.97731,-4.37684 59.51071,-56.76268 64.01316,-88.2781"
       style="fill:none;fill-rule:evenodd;stroke:#39816e;stroke-width:2.29999995;stroke-linecap:butt;stroke-linejoin:miter;stroke-miterlimit:4;stroke-dasharray:none;stroke-opacity:1"
       inkscape:export-xdpi="90"
       inkscape:export-ydpi="90" />
    <path
       sodipodi:nodetypes="cccc"
       inkscape:connector-curvature="0"
       id="path4450-3"
       d="m 253.0185,273.72878 c 8.46246,-20.01675 26.99019,-51.00703 61.4588,-57.9074 11.70814,-4.43557 59.32942,-1.95036 107.38518,-5.95736 77.97731,-4.37684 79.15357,-57.11983 83.65602,-88.63524"
       style="fill:none;fill-rule:evenodd;stroke:#002cd6;stroke-width:2.29999995;stroke-linecap:butt;stroke-linejoin:miter;stroke-miterlimit:4;stroke-dasharray:none;stroke-opacity:1"
       inkscape:export-xdpi="90"
       inkscape:export-ydpi="90" />
    <g
       id="g4479"
       transform="matrix(0,-0.53960134,0.53960134,0,42.032369,319.41551)"
       inkscape:export-xdpi="90"
       inkscape:export-ydpi="90">
      <g
         word-spacing="normal"
         letter-spacing="normal"
         font-size-adjust="none"
         font-stretch="normal"
         font-weight="normal"
         font-variant="normal"
         font-style="normal"
         stroke-miterlimit="10.433"
         xml:space="preserve"
         transform="matrix(1.0629921,0,0,-1.0629921,-186.02362,789.27165)"
         id="content"
         style="font-style:normal;font-variant:normal;font-weight:normal;font-stretch:normal;letter-spacing:normal;word-spacing:normal;text-anchor:start;fill:none;fill-opacity:1;fill-rule:evenodd;stroke:#000000;stroke-linecap:butt;stroke-linejoin:miter;stroke-miterlimit:10.43299961;stroke-dasharray:none;stroke-dashoffset:0;stroke-opacity:1"><path
           id="path4482"
           d="m 463.02,417.31 0.16,-0.06 0.15,-0.06 0.15,-0.06 0.15,-0.05 0.15,-0.05 0.15,-0.05 0.14,-0.04 0.15,-0.04 0.14,-0.03 0.15,-0.03 0.28,-0.06 0.27,-0.05 0.27,-0.03 0.27,-0.03 0.26,-0.02 0.26,-0.02 0.25,-0.01 0.24,-0.01 0.24,0 0.23,0 0.23,0 0,1.1 c -1.1,0 -1.7,0 -2.64,0.25 l 0,0 c 1.14,0.4 2.19,0.44 3.04,0.44 1.24,0 1.44,-0.04 2.34,-0.29 -0.75,-0.35 -0.85,-0.4 -2.74,-0.4 l 0,-1.1 c 1.29,0 4.03,0 4.03,1.55 0,1.19 -1.74,1.34 -3.63,1.34 -1.05,0 -2.79,-0.1 -4.64,-0.95 -1.14,0.6 -1.99,1.55 -1.99,2.89 0,3.04 4.88,4.83 9.37,4.83 0.79,0 2.59,0 4.58,-1.39 0.55,-0.4 0.65,-0.5 0.99,-0.5 0.65,0 1.35,0.65 1.35,1.35 0,0.94 -3.04,2.84 -6.42,2.84 -5.74,0 -11.11,-3.34 -11.11,-7.13 0,-2.14 1.79,-3.39 1.99,-3.53 -2.94,-1.65 -4.53,-4.44 -4.53,-6.73 0,-3.24 2.83,-6.28 8.11,-6.28 6.58,0 9.37,4.39 9.37,5.14 0,0.29 -0.25,0.49 -0.55,0.49 -0.25,0 -0.4,-0.2 -0.5,-0.35 -0.69,-1.14 -1.89,-2.98 -7.87,-2.98 -3.04,0 -7.27,0.74 -7.27,4.28 0,1.69 1.39,4.33 4.43,5.83 z"
           inkscape:connector-curvature="0"
           style="fill:#000000;stroke-width:0" /><path
           id="path4484"
           d="m 494.13,401.82 -0.01,-0.06 -0.02,-0.07 -0.02,-0.07 -0.02,-0.08 -0.02,-0.07 -0.02,-0.08 -0.04,-0.16 -0.04,-0.16 -0.04,-0.16 -0.04,-0.16 -0.02,-0.07 -0.02,-0.08 -0.02,-0.08 -0.01,-0.07 -0.02,-0.07 -0.02,-0.07 -0.01,-0.07 -0.02,-0.06 -0.01,-0.06 -0.01,-0.06 -0.01,-0.05 -0.02,-0.05 0,-0.04 -0.01,-0.04 -0.01,-0.04 0,-0.03 0,-0.02 -0.01,-0.02 c 0,-0.77 0.63,-1.12 1.19,-1.12 0.63,0 1.19,0.46 1.36,0.77 0.17,0.31 0.45,1.43 0.63,2.16 0.17,0.66 0.56,2.27 0.77,3.14 0.2,0.76 0.41,1.53 0.59,2.33 0.38,1.5 0.38,1.57 1.08,2.65 1.12,1.71 2.86,3.7 5.58,3.7 1.95,0 2.05,-1.6 2.05,-2.44 0,-2.09 -1.5,-5.96 -2.05,-7.43 -0.39,-0.97 -0.52,-1.29 -0.52,-1.88 0,-1.85 1.53,-3 3.31,-3 3.48,0 5.02,4.81 5.02,5.33 0,0.46 -0.45,0.46 -0.56,0.46 -0.49,0 -0.52,-0.21 -0.66,-0.59 -0.81,-2.79 -2.3,-4.22 -3.7,-4.22 -0.73,0 -0.87,0.49 -0.87,1.22 0,0.8 0.18,1.25 0.8,2.82 0.42,1.08 1.85,4.78 1.85,6.73 0,0.56 0,2.03 -1.29,3.04 -0.59,0.45 -1.6,0.94 -3.24,0.94 -3.14,0 -5.06,-2.06 -6.18,-3.52 -0.27,2.96 -2.75,3.52 -4.53,3.52 -2.89,0 -4.84,-1.78 -5.89,-3.18 -0.24,2.41 -2.3,3.18 -3.73,3.18 -1.5,0 -2.3,-1.08 -2.76,-1.88 -0.76,-1.3 -1.25,-3.29 -1.25,-3.46 0,-0.45 0.49,-0.45 0.59,-0.45 0.49,0 0.52,0.11 0.77,1.05 0.52,2.05 1.18,3.76 2.54,3.76 0.91,0 1.16,-0.77 1.16,-1.71 0,-0.66 -0.32,-1.95 -0.56,-2.89 -0.25,-0.94 -0.6,-2.37 -0.77,-3.14 l -1.12,-4.46 c -0.14,-0.46 -0.34,-1.33 -0.34,-1.43 0,-0.77 0.62,-1.12 1.18,-1.12 0.63,0 1.19,0.46 1.36,0.77 0.17,0.31 0.45,1.43 0.63,2.16 0.17,0.66 0.56,2.27 0.76,3.14 0.21,0.76 0.43,1.53 0.6,2.33 0.38,1.43 0.45,1.71 1.46,3.14 0.98,1.4 2.62,3.21 5.23,3.21 2.03,0 2.06,-1.78 2.06,-2.44 0,-0.87 -0.1,-1.32 -0.59,-3.28 z"
           inkscape:connector-curvature="0"
           style="fill:#000000;stroke-width:0" /><path
           id="path4486"
           d="m 528.72,412.32 -0.07,0.11 -0.08,0.1 -0.07,0.11 -0.08,0.1 -0.08,0.1 -0.08,0.1 -0.09,0.09 -0.09,0.1 -0.09,0.09 -0.09,0.09 -0.1,0.08 -0.1,0.09 -0.1,0.08 -0.11,0.07 -0.11,0.08 -0.11,0.07 -0.11,0.07 -0.12,0.06 -0.12,0.06 -0.12,0.06 -0.12,0.05 -0.13,0.05 -0.13,0.05 -0.13,0.04 -0.14,0.04 -0.14,0.03 -0.14,0.02 -0.14,0.03 -0.15,0.02 -0.15,0.01 -0.15,0.01 -0.16,0 0,-0.98 c 2.44,0 3.11,-2.65 3.11,-3.03 0,-0.14 -0.07,-0.39 -0.11,-0.49 l -1.64,-6.52 c -0.24,-0.98 -1.01,-1.68 -1.78,-2.34 -0.31,-0.28 -1.7,-1.39 -3.2,-1.39 -1.29,0 -2.55,0.91 -2.55,3.38 0,1.85 1.01,5.69 1.82,7.08 1.6,2.79 3.38,3.31 4.35,3.31 l 0,0.98 c -4.46,0 -8.99,-4.92 -8.99,-9.94 0,-3.38 2.27,-5.79 5.26,-5.79 1.88,0 3.56,1.08 4.95,2.44 0.67,-2.09 2.69,-2.44 3.59,-2.44 1.26,0 2.13,0.77 2.76,1.85 0.77,1.36 1.22,3.35 1.22,3.48 0,0.46 -0.45,0.46 -0.56,0.46 -0.49,0 -0.52,-0.14 -0.76,-1.08 -0.42,-1.68 -1.09,-3.73 -2.55,-3.73 -0.91,0 -1.15,0.76 -1.15,1.71 0,0.59 0.28,1.84 0.52,2.75 0.25,0.94 0.59,2.37 0.77,3.14 l 0.7,2.65 c 0.21,0.91 0.62,2.55 0.62,2.72 0,0.77 -0.62,1.11 -1.18,1.11 -0.59,0 -1.39,-0.41 -1.6,-1.39 z"
           inkscape:connector-curvature="0"
           style="fill:#000000;stroke-width:0" /><path
           id="path4488"
           d="m 544.68,402.7 -0.03,-0.12 -0.04,-0.11 -0.05,-0.12 -0.04,-0.13 -0.06,-0.12 -0.06,-0.13 -0.06,-0.12 -0.07,-0.13 -0.07,-0.13 -0.07,-0.13 -0.08,-0.13 -0.09,-0.12 -0.09,-0.13 -0.09,-0.12 -0.1,-0.12 -0.1,-0.12 -0.11,-0.12 -0.11,-0.11 -0.11,-0.1 -0.12,-0.1 -0.12,-0.1 -0.13,-0.09 -0.13,-0.08 -0.13,-0.08 -0.14,-0.07 -0.14,-0.06 -0.15,-0.05 -0.15,-0.05 -0.15,-0.03 -0.16,-0.03 -0.16,-0.02 -0.16,0 c -0.11,0 -1.16,0 -1.89,0.49 1.43,0.45 1.53,1.7 1.53,1.92 0,0.76 -0.58,1.28 -1.39,1.28 -0.98,0 -1.99,-0.83 -1.99,-2.12 0,-1.75 1.95,-2.55 3.67,-2.55 1.6,0 3.03,1.01 3.9,2.48 0.84,-1.85 2.76,-2.48 4.15,-2.48 4.01,0 6.14,4.36 6.14,5.33 0,0.46 -0.46,0.46 -0.56,0.46 -0.49,0 -0.52,-0.17 -0.67,-0.59 -0.73,-2.41 -2.82,-4.22 -4.77,-4.22 -1.4,0 -2.13,0.94 -2.13,2.26 0,0.91 0.84,4.08 1.82,7.95 0.69,2.69 2.26,3.56 3.41,3.56 0.07,0 1.15,0 1.89,-0.49 -1.12,-0.31 -1.54,-1.29 -1.54,-1.91 0,-0.77 0.59,-1.3 1.4,-1.3 0.8,0 1.95,0.67 1.95,2.13 0,1.96 -2.23,2.55 -3.63,2.55 -1.74,0 -3.14,-1.15 -3.9,-2.48 -0.63,1.43 -2.23,2.48 -4.19,2.48 -3.9,0 -6.13,-4.29 -6.13,-5.34 0,-0.45 0.49,-0.45 0.59,-0.45 0.45,0 0.49,0.14 0.66,0.59 0.87,2.72 3.07,4.22 4.78,4.22 1.15,0 2.09,-0.63 2.09,-2.3 0,-0.7 -0.42,-2.44 -0.73,-3.63 z"
           inkscape:connector-curvature="0"
           style="fill:#000000;stroke-width:0" /></g>    </g>
    <g
       transform="matrix(0.46339506,0,0,0.46339506,401.03376,136.82236)"
       id="g4524"
       inkscape:export-xdpi="90"
       inkscape:export-ydpi="90">
      <g
         style="font-style:normal;font-variant:normal;font-weight:normal;font-stretch:normal;letter-spacing:normal;word-spacing:normal;text-anchor:start;fill:none;fill-opacity:1;fill-rule:evenodd;stroke:#000000;stroke-linecap:butt;stroke-linejoin:miter;stroke-miterlimit:10.43299961;stroke-dasharray:none;stroke-dashoffset:0;stroke-opacity:1"
         id="g4526"
         transform="matrix(1.0629921,0,0,-1.0629921,-186.02362,789.27165)"
         xml:space="preserve"
         stroke-miterlimit="10.433"
         font-style="normal"
         font-variant="normal"
         font-weight="normal"
         font-stretch="normal"
         font-size-adjust="none"
         letter-spacing="normal"
         word-spacing="normal"><path
           style="fill:#000000;stroke-width:0"
           inkscape:connector-curvature="0"
           d="m 493.66,434.79 0.1,0.37 0.05,0.18 0.06,0.18 0.06,0.17 0.07,0.17 0.07,0.17 0.08,0.16 0.08,0.16 0.09,0.15 0.1,0.15 0.11,0.14 0.11,0.15 0.13,0.13 0.13,0.13 0.14,0.13 0.15,0.12 0.17,0.11 0.17,0.11 0.19,0.1 0.2,0.1 0.21,0.09 0.22,0.08 0.24,0.08 0.25,0.07 0.27,0.06 0.28,0.06 0.29,0.05 0.32,0.04 0.33,0.03 0.34,0.03 0.18,0.01 0.19,0.01 c 0.25,0 0.85,0.05 0.85,0.99 0,0.05 0,0.55 -0.65,0.55 l -10.12,0 c -0.29,0 -0.89,0 -0.89,-0.99 0,-0.55 0.5,-0.55 0.89,-0.55 2.84,-0.05 3.39,-1.1 3.39,-2.19 0,-0.15 -0.1,-0.9 -0.15,-1.05 l -5.57,-22.17 -11.01,26 c -0.4,0.9 -0.45,0.95 -1.6,0.95 l -6.67,0 c -1,0 -1.45,0 -1.45,-0.99 0,-0.55 0.45,-0.55 1.4,-0.55 0.25,0 3.38,0 3.38,-0.45 l -6.67,-26.75 c -0.5,-1.99 -1.35,-3.58 -5.38,-3.74 -0.3,0 -0.85,-0.04 -0.85,-0.99 0,-0.35 0.25,-0.55 0.65,-0.55 l 10.11,0 c 0.25,0 0.9,0 0.9,1 0,0.5 -0.45,0.54 -1,0.54 -2.89,0.1 -3.28,1.2 -3.28,2.19 0,0.36 0.04,0.6 0.2,1.15 l 6.57,26.3 c 0.2,-0.3 0.2,-0.39 0.45,-0.89 l 12.4,-29.34 c 0.35,-0.85 0.5,-0.95 0.95,-0.95 0.55,0 0.55,0.15 0.79,1.05 z"
           id="path4528" /></g>    </g>
    <path
       inkscape:connector-curvature="0"
       id="path4553"
       d="m 301.52327,274.2101 0,-3.39286"
       style="fill:none;fill-rule:evenodd;stroke:#000000;stroke-width:1px;stroke-linecap:butt;stroke-linejoin:miter;stroke-opacity:1"
       inkscape:export-xdpi="90"
       inkscape:export-ydpi="90" />
    <path
       inkscape:connector-curvature="0"
       id="path4553-6"
       d="m 343.68687,274.2395 0,-3.39286"
       style="fill:none;fill-rule:evenodd;stroke:#000000;stroke-width:1px;stroke-linecap:butt;stroke-linejoin:miter;stroke-opacity:1"
       inkscape:export-xdpi="90"
       inkscape:export-ydpi="90" />
    <path
       inkscape:connector-curvature="0"
       id="path4553-7"
       d="m 387.58387,274.22866 0,-3.39286"
       style="fill:none;fill-rule:evenodd;stroke:#000000;stroke-width:1px;stroke-linecap:butt;stroke-linejoin:miter;stroke-opacity:1"
       inkscape:export-xdpi="90"
       inkscape:export-ydpi="90" />
    <path
       inkscape:connector-curvature="0"
       id="path4553-5"
       d="m 432.85714,274.42086 0,-3.39286"
       style="fill:none;fill-rule:evenodd;stroke:#000000;stroke-width:1px;stroke-linecap:butt;stroke-linejoin:miter;stroke-opacity:1"
       inkscape:export-xdpi="90"
       inkscape:export-ydpi="90" />
    <path
       inkscape:connector-curvature="0"
       id="path4553-56"
       d="m 476.397,274.16832 0,-3.39286"
       style="fill:none;fill-rule:evenodd;stroke:#000000;stroke-width:1px;stroke-linecap:butt;stroke-linejoin:miter;stroke-opacity:1"
       inkscape:export-xdpi="90"
       inkscape:export-ydpi="90" />
    <path
       inkscape:connector-curvature="0"
       id="path4553-2"
       d="m 520.35714,274.27292 0,-3.39286"
       style="fill:none;fill-rule:evenodd;stroke:#000000;stroke-width:1px;stroke-linecap:butt;stroke-linejoin:miter;stroke-opacity:1"
       inkscape:export-xdpi="90"
       inkscape:export-ydpi="90" />
    <g
       id="g4629"
       transform="matrix(0.2061179,0,0,0.2061179,235.22878,210.75454)"
       inkscape:export-xdpi="90"
       inkscape:export-ydpi="90">
      <g
         word-spacing="normal"
         letter-spacing="normal"
         font-size-adjust="none"
         font-stretch="normal"
         font-weight="normal"
         font-variant="normal"
         font-style="normal"
         stroke-miterlimit="10.433"
         xml:space="preserve"
         transform="matrix(1.0629921,0,0,-1.0629921,-186.02362,789.27165)"
         id="g4631"
         style="font-style:normal;font-variant:normal;font-weight:normal;font-stretch:normal;letter-spacing:normal;word-spacing:normal;text-anchor:start;fill:none;fill-opacity:1;fill-rule:evenodd;stroke:#000000;stroke-linecap:butt;stroke-linejoin:miter;stroke-miterlimit:10.43299961;stroke-dasharray:none;stroke-dashoffset:0;stroke-opacity:1"><path
           id="path4633"
           d="m 470.64,437.88 0,0.05 0,0.06 0,0.05 0,0.05 0,0.05 0,0.05 0,0.04 0,0.05 0,0.04 0,0.04 0,0.04 0,0.04 0,0.04 -0.01,0.04 0,0.03 0,0.04 -0.01,0.03 0,0.03 -0.01,0.06 -0.01,0.05 -0.02,0.05 -0.01,0.05 -0.02,0.04 -0.02,0.04 -0.03,0.04 -0.03,0.03 -0.03,0.02 -0.03,0.03 -0.04,0.02 -0.05,0.02 -0.02,0.01 -0.03,0.01 -0.02,0 -0.03,0.01 -0.03,0.01 -0.03,0 -0.03,0.01 -0.03,0 -0.03,0.01 -0.04,0 -0.04,0 -0.03,0 -0.04,0.01 -0.04,0 -0.04,0 -0.05,0 -0.04,0 -0.05,0 -0.05,0.01 -0.05,0 -0.05,0 -0.05,0 c -3.09,-3.19 -7.47,-3.19 -9.07,-3.19 l 0,-1.55 c 1,0 3.94,0 6.53,1.3 l 0,-25.81 c 0,-1.79 -0.15,-2.39 -4.63,-2.39 l -1.6,0 0,-1.54 16.14,0 0,1.54 -1.59,0 c -4.49,0 -4.64,0.55 -4.64,2.39 z"
           inkscape:connector-curvature="0"
           style="fill:#000000;stroke-width:0" /><path
           id="path4635"
           d="m 502.91,421.94 0,0.75 -0.01,0.74 -0.02,0.75 -0.03,0.74 -0.05,0.75 -0.06,0.74 -0.07,0.74 -0.1,0.73 -0.11,0.73 -0.14,0.73 -0.16,0.72 -0.19,0.72 -0.22,0.71 -0.24,0.71 -0.28,0.7 -0.15,0.35 -0.16,0.35 c -2.29,4.78 -6.37,5.58 -8.47,5.58 -2.99,0 -6.62,-1.3 -8.66,-5.93 -1.6,-3.44 -1.85,-7.32 -1.85,-11.31 0,-3.74 0.2,-8.22 2.24,-12.01 2.15,-4.03 5.78,-5.03 8.22,-5.03 l 0,1.1 c -1.94,0 -4.88,1.25 -5.78,6.03 -0.54,2.99 -0.54,7.57 -0.54,10.51 0,3.19 0,6.47 0.4,9.16 0.94,5.93 4.68,6.38 5.92,6.38 1.65,0 4.94,-0.9 5.88,-5.83 0.5,-2.79 0.5,-6.57 0.5,-9.71 0,-3.74 0,-7.13 -0.55,-10.31 -0.75,-4.73 -3.59,-6.23 -5.83,-6.23 l 0,0 0,-1.1 c 2.69,0 6.48,1.05 8.67,5.78 1.59,3.44 1.84,7.32 1.84,11.26 z"
           inkscape:connector-curvature="0"
           style="fill:#000000;stroke-width:0" /></g>    </g>
    <g
       transform="matrix(0.18092751,0,0,0.18092751,284.87179,219.79451)"
       id="g4697"
       inkscape:export-xdpi="90"
       inkscape:export-ydpi="90">
      <g
         style="font-style:normal;font-variant:normal;font-weight:normal;font-stretch:normal;letter-spacing:normal;word-spacing:normal;text-anchor:start;fill:none;fill-opacity:1;fill-rule:evenodd;stroke:#000000;stroke-linecap:butt;stroke-linejoin:miter;stroke-miterlimit:10.43299961;stroke-dasharray:none;stroke-dashoffset:0;stroke-opacity:1"
         id="g4699"
         transform="matrix(1.0629921,0,0,-1.0629921,-186.02362,789.27165)"
         xml:space="preserve"
         stroke-miterlimit="10.433"
         font-style="normal"
         font-variant="normal"
         font-weight="normal"
         font-stretch="normal"
         font-size-adjust="none"
         letter-spacing="normal"
         word-spacing="normal"><path
           style="fill:#000000;stroke-width:0"
           inkscape:connector-curvature="0"
           d="m 470.64,437.88 0,0.05 0,0.06 0,0.05 0,0.05 0,0.05 0,0.05 0,0.04 0,0.05 0,0.04 0,0.04 0,0.04 0,0.04 0,0.04 -0.01,0.04 0,0.03 0,0.04 -0.01,0.03 0,0.03 -0.01,0.06 -0.01,0.05 -0.02,0.05 -0.01,0.05 -0.02,0.04 -0.02,0.04 -0.03,0.04 -0.03,0.03 -0.03,0.02 -0.03,0.03 -0.04,0.02 -0.05,0.02 -0.02,0.01 -0.03,0.01 -0.02,0 -0.03,0.01 -0.03,0.01 -0.03,0 -0.03,0.01 -0.03,0 -0.03,0.01 -0.04,0 -0.04,0 -0.03,0 -0.04,0.01 -0.04,0 -0.04,0 -0.05,0 -0.04,0 -0.05,0 -0.05,0.01 -0.05,0 -0.05,0 -0.05,0 c -3.09,-3.19 -7.47,-3.19 -9.07,-3.19 l 0,-1.55 c 1,0 3.94,0 6.53,1.3 l 0,-25.81 c 0,-1.79 -0.15,-2.39 -4.63,-2.39 l -1.6,0 0,-1.54 16.14,0 0,1.54 -1.59,0 c -4.49,0 -4.64,0.55 -4.64,2.39 z"
           id="path4701" /><path
           style="fill:#000000;stroke-width:0"
           inkscape:connector-curvature="0"
           d="m 502.91,421.94 0,0.75 -0.01,0.74 -0.02,0.75 -0.03,0.74 -0.05,0.75 -0.06,0.74 -0.07,0.74 -0.1,0.73 -0.11,0.73 -0.14,0.73 -0.16,0.72 -0.19,0.72 -0.22,0.71 -0.24,0.71 -0.28,0.7 -0.15,0.35 -0.16,0.35 c -2.29,4.78 -6.37,5.58 -8.47,5.58 -2.99,0 -6.62,-1.3 -8.66,-5.93 -1.6,-3.44 -1.85,-7.32 -1.85,-11.31 0,-3.74 0.2,-8.22 2.24,-12.01 2.15,-4.03 5.78,-5.03 8.22,-5.03 l 0,1.1 c -1.94,0 -4.88,1.25 -5.78,6.03 -0.54,2.99 -0.54,7.57 -0.54,10.51 0,3.19 0,6.47 0.4,9.16 0.94,5.93 4.68,6.38 5.92,6.38 1.65,0 4.94,-0.9 5.88,-5.83 0.5,-2.79 0.5,-6.57 0.5,-9.71 0,-3.74 0,-7.13 -0.55,-10.31 -0.75,-4.73 -3.59,-6.23 -5.83,-6.23 l 0,0 0,-1.1 c 2.69,0 6.48,1.05 8.67,5.78 1.59,3.44 1.84,7.32 1.84,11.26 z"
           id="path4703" /><path
           style="fill:#000000;stroke-width:0"
           inkscape:connector-curvature="0"
           d="m 516.68,446.18 0,0.04 0,0.04 0,0.04 0,0.04 0,0.04 0,0.04 0,0.03 0,0.04 -0.01,0.03 0,0.03 0,0.04 0,0.03 -0.01,0.02 0,0.03 0,0.03 -0.01,0.03 0,0.02 0,0.02 -0.02,0.05 -0.01,0.04 -0.01,0.04 -0.02,0.03 -0.02,0.03 -0.02,0.03 -0.03,0.03 -0.02,0.02 -0.03,0.02 -0.04,0.02 -0.03,0.01 -0.04,0.01 -0.05,0.02 -0.05,0 -0.02,0.01 -0.03,0 -0.03,0.01 -0.02,0 -0.03,0 -0.03,0 -0.04,0 -0.03,0.01 -0.03,0 -0.04,0 -0.03,0 -0.04,0 -0.04,0 -0.04,0 -0.04,0 -0.04,0 -0.05,0 -0.04,0 c -2.24,-2.19 -5.41,-2.23 -6.84,-2.23 l 0,-1.25 c 0.84,0 3.14,0 5.05,0.97 l 0,-17.78 c 0,-1.15 0,-1.61 -3.48,-1.61 l -1.33,0 0,-1.25 12.45,0 0,1.25 -1.32,0 c -3.49,0 -3.49,0.46 -3.49,1.61 z"
           id="path4705" /></g>    </g>
    <g
       id="g4777"
       transform="matrix(0.16309584,0,0,0.16309584,332.71066,225.53571)"
       inkscape:export-xdpi="90"
       inkscape:export-ydpi="90">
      <g
         word-spacing="normal"
         letter-spacing="normal"
         font-size-adjust="none"
         font-stretch="normal"
         font-weight="normal"
         font-variant="normal"
         font-style="normal"
         stroke-miterlimit="10.433"
         xml:space="preserve"
         transform="matrix(1.0629921,0,0,-1.0629921,-186.02362,789.27165)"
         id="g4779"
         style="font-style:normal;font-variant:normal;font-weight:normal;font-stretch:normal;letter-spacing:normal;word-spacing:normal;text-anchor:start;fill:none;fill-opacity:1;fill-rule:evenodd;stroke:#000000;stroke-linecap:butt;stroke-linejoin:miter;stroke-miterlimit:10.43299961;stroke-dasharray:none;stroke-dashoffset:0;stroke-opacity:1"><path
           id="path4781"
           d="m 470.64,437.88 0,0.05 0,0.06 0,0.05 0,0.05 0,0.05 0,0.05 0,0.04 0,0.05 0,0.04 0,0.04 0,0.04 0,0.04 0,0.04 -0.01,0.04 0,0.03 0,0.04 -0.01,0.03 0,0.03 -0.01,0.06 -0.01,0.05 -0.02,0.05 -0.01,0.05 -0.02,0.04 -0.02,0.04 -0.03,0.04 -0.03,0.03 -0.03,0.02 -0.03,0.03 -0.04,0.02 -0.05,0.02 -0.02,0.01 -0.03,0.01 -0.02,0 -0.03,0.01 -0.03,0.01 -0.03,0 -0.03,0.01 -0.03,0 -0.03,0.01 -0.04,0 -0.04,0 -0.03,0 -0.04,0.01 -0.04,0 -0.04,0 -0.05,0 -0.04,0 -0.05,0 -0.05,0.01 -0.05,0 -0.05,0 -0.05,0 c -3.09,-3.19 -7.47,-3.19 -9.07,-3.19 l 0,-1.55 c 1,0 3.94,0 6.53,1.3 l 0,-25.81 c 0,-1.79 -0.15,-2.39 -4.63,-2.39 l -1.6,0 0,-1.54 16.14,0 0,1.54 -1.59,0 c -4.49,0 -4.64,0.55 -4.64,2.39 z"
           inkscape:connector-curvature="0"
           style="fill:#000000;stroke-width:0" /><path
           id="path4783"
           d="m 502.91,421.94 0,0.75 -0.01,0.74 -0.02,0.75 -0.03,0.74 -0.05,0.75 -0.06,0.74 -0.07,0.74 -0.1,0.73 -0.11,0.73 -0.14,0.73 -0.16,0.72 -0.19,0.72 -0.22,0.71 -0.24,0.71 -0.28,0.7 -0.15,0.35 -0.16,0.35 c -2.29,4.78 -6.37,5.58 -8.47,5.58 -2.99,0 -6.62,-1.3 -8.66,-5.93 -1.6,-3.44 -1.85,-7.32 -1.85,-11.31 0,-3.74 0.2,-8.22 2.24,-12.01 2.15,-4.03 5.78,-5.03 8.22,-5.03 l 0,1.1 c -1.94,0 -4.88,1.25 -5.78,6.03 -0.54,2.99 -0.54,7.57 -0.54,10.51 0,3.19 0,6.47 0.4,9.16 0.94,5.93 4.68,6.38 5.92,6.38 1.65,0 4.94,-0.9 5.88,-5.83 0.5,-2.79 0.5,-6.57 0.5,-9.71 0,-3.74 0,-7.13 -0.55,-10.31 -0.75,-4.73 -3.59,-6.23 -5.83,-6.23 l 0,0 0,-1.1 c 2.69,0 6.48,1.05 8.67,5.78 1.59,3.44 1.84,7.32 1.84,11.26 z"
           inkscape:connector-curvature="0"
           style="fill:#000000;stroke-width:0" /><path
           id="path4785"
           d="m 522.61,430.35 -1.19,0 c -0.1,-0.77 -0.45,-2.83 -0.9,-3.18 -0.28,-0.21 -2.97,-0.21 -3.45,-0.21 l -6.42,0 c 3.66,3.25 4.88,4.22 6.97,5.86 2.58,2.06 4.99,4.22 4.99,7.54 0,4.21 -3.7,6.79 -8.16,6.79 -4.33,0 -7.25,-3.03 -7.25,-6.24 0,-1.78 1.5,-1.95 1.84,-1.95 0.84,0 1.85,0.59 1.85,1.85 0,0.62 -0.24,1.85 -2.05,1.85 1.08,2.47 3.45,3.24 5.09,3.24 3.48,0 5.3,-2.72 5.3,-5.54 0,-3.04 -2.16,-5.45 -3.28,-6.7 l -8.4,-8.3 c -0.35,-0.31 -0.35,-0.38 -0.35,-1.36 l 14.36,0 z"
           inkscape:connector-curvature="0"
           style="fill:#000000;stroke-width:0" /></g>    </g>
    <g
       transform="matrix(0.18092751,0,0,0.18092751,371.01464,220.36595)"
       id="g4867"
       inkscape:export-xdpi="90"
       inkscape:export-ydpi="90">
      <g
         style="font-style:normal;font-variant:normal;font-weight:normal;font-stretch:normal;letter-spacing:normal;word-spacing:normal;text-anchor:start;fill:none;fill-opacity:1;fill-rule:evenodd;stroke:#000000;stroke-linecap:butt;stroke-linejoin:miter;stroke-miterlimit:10.43299961;stroke-dasharray:none;stroke-dashoffset:0;stroke-opacity:1"
         id="g4869"
         transform="matrix(1.0629921,0,0,-1.0629921,-186.02362,789.27165)"
         xml:space="preserve"
         stroke-miterlimit="10.433"
         font-style="normal"
         font-variant="normal"
         font-weight="normal"
         font-stretch="normal"
         font-size-adjust="none"
         letter-spacing="normal"
         word-spacing="normal"><path
           style="fill:#000000;stroke-width:0"
           inkscape:connector-curvature="0"
           d="m 470.64,437.88 0,0.05 0,0.06 0,0.05 0,0.05 0,0.05 0,0.05 0,0.04 0,0.05 0,0.04 0,0.04 0,0.04 0,0.04 0,0.04 -0.01,0.04 0,0.03 0,0.04 -0.01,0.03 0,0.03 -0.01,0.06 -0.01,0.05 -0.02,0.05 -0.01,0.05 -0.02,0.04 -0.02,0.04 -0.03,0.04 -0.03,0.03 -0.03,0.02 -0.03,0.03 -0.04,0.02 -0.05,0.02 -0.02,0.01 -0.03,0.01 -0.02,0 -0.03,0.01 -0.03,0.01 -0.03,0 -0.03,0.01 -0.03,0 -0.03,0.01 -0.04,0 -0.04,0 -0.03,0 -0.04,0.01 -0.04,0 -0.04,0 -0.05,0 -0.04,0 -0.05,0 -0.05,0.01 -0.05,0 -0.05,0 -0.05,0 c -3.09,-3.19 -7.47,-3.19 -9.07,-3.19 l 0,-1.55 c 1,0 3.94,0 6.53,1.3 l 0,-25.81 c 0,-1.79 -0.15,-2.39 -4.63,-2.39 l -1.6,0 0,-1.54 16.14,0 0,1.54 -1.59,0 c -4.49,0 -4.64,0.55 -4.64,2.39 z"
           id="path4871" /><path
           style="fill:#000000;stroke-width:0"
           inkscape:connector-curvature="0"
           d="m 502.91,421.94 0,0.75 -0.01,0.74 -0.02,0.75 -0.03,0.74 -0.05,0.75 -0.06,0.74 -0.07,0.74 -0.1,0.73 -0.11,0.73 -0.14,0.73 -0.16,0.72 -0.19,0.72 -0.22,0.71 -0.24,0.71 -0.28,0.7 -0.15,0.35 -0.16,0.35 c -2.29,4.78 -6.37,5.58 -8.47,5.58 -2.99,0 -6.62,-1.3 -8.66,-5.93 -1.6,-3.44 -1.85,-7.32 -1.85,-11.31 0,-3.74 0.2,-8.22 2.24,-12.01 2.15,-4.03 5.78,-5.03 8.22,-5.03 l 0,1.1 c -1.94,0 -4.88,1.25 -5.78,6.03 -0.54,2.99 -0.54,7.57 -0.54,10.51 0,3.19 0,6.47 0.4,9.16 0.94,5.93 4.68,6.38 5.92,6.38 1.65,0 4.94,-0.9 5.88,-5.83 0.5,-2.79 0.5,-6.57 0.5,-9.71 0,-3.74 0,-7.13 -0.55,-10.31 -0.75,-4.73 -3.59,-6.23 -5.83,-6.23 l 0,0 0,-1.1 c 2.69,0 6.48,1.05 8.67,5.78 1.59,3.44 1.84,7.32 1.84,11.26 z"
           id="path4873" /><path
           style="fill:#000000;stroke-width:0"
           inkscape:connector-curvature="0"
           d="m 514.52,435.64 0.25,0 0.25,-0.02 0.24,-0.02 0.24,-0.04 0.23,-0.05 0.23,-0.06 0.22,-0.07 0.22,-0.09 0.21,-0.09 0.2,-0.11 0.19,-0.11 0.19,-0.13 0.18,-0.13 0.18,-0.15 0.17,-0.16 0.15,-0.17 0.16,-0.18 0.14,-0.2 0.13,-0.2 0.13,-0.21 0.12,-0.23 0.11,-0.23 0.09,-0.25 0.09,-0.26 0.08,-0.27 0.07,-0.28 0.06,-0.29 0.05,-0.3 0.04,-0.31 0.03,-0.32 0.02,-0.33 0,-0.35 c 0,-4.32 -2.51,-5.61 -4.53,-5.61 -1.39,0 -4.46,0.38 -5.93,2.44 1.64,0.07 2.02,1.22 2.02,1.95 0,1.12 -0.83,1.92 -1.91,1.92 -0.98,0 -1.96,-0.59 -1.96,-2.02 0,-3.28 3.63,-5.41 7.85,-5.41 4.84,0 8.19,3.25 8.19,6.73 0,2.72 -2.23,5.44 -6.07,6.24 3.67,1.33 4.99,3.94 4.99,6.07 0,2.76 -3.17,4.81 -7.04,4.81 -3.87,0 -6.84,-1.88 -6.84,-4.67 0,-1.18 0.77,-1.85 1.82,-1.85 1.08,0 1.77,0.8 1.77,1.78 0,1.01 -0.69,1.75 -1.77,1.81 1.22,1.54 3.62,1.92 4.92,1.92 1.56,0 3.76,-0.76 3.76,-3.8 0,-1.46 -0.49,-3.07 -1.39,-4.15 -1.16,-1.32 -2.13,-1.39 -3.87,-1.5 -0.88,-0.07 -0.95,-0.07 -1.12,-0.1 -0.07,0 -0.35,-0.07 -0.35,-0.46 0,-0.49 0.31,-0.49 0.91,-0.49 z"
           id="path4875" /></g>    </g>
    <g
       id="g4967"
       transform="matrix(0.18765697,0,0,0.18765697,413.61571,216.87954)"
       inkscape:export-xdpi="90"
       inkscape:export-ydpi="90">
      <g
         word-spacing="normal"
         letter-spacing="normal"
         font-size-adjust="none"
         font-stretch="normal"
         font-weight="normal"
         font-variant="normal"
         font-style="normal"
         stroke-miterlimit="10.433"
         xml:space="preserve"
         transform="matrix(1.0629921,0,0,-1.0629921,-186.02362,789.27165)"
         id="g4969"
         style="font-style:normal;font-variant:normal;font-weight:normal;font-stretch:normal;letter-spacing:normal;word-spacing:normal;text-anchor:start;fill:none;fill-opacity:1;fill-rule:evenodd;stroke:#000000;stroke-linecap:butt;stroke-linejoin:miter;stroke-miterlimit:10.43299961;stroke-dasharray:none;stroke-dashoffset:0;stroke-opacity:1"><path
           id="path4971"
           d="m 470.64,437.88 0,0.05 0,0.06 0,0.05 0,0.05 0,0.05 0,0.05 0,0.04 0,0.05 0,0.04 0,0.04 0,0.04 0,0.04 0,0.04 -0.01,0.04 0,0.03 0,0.04 -0.01,0.03 0,0.03 -0.01,0.06 -0.01,0.05 -0.02,0.05 -0.01,0.05 -0.02,0.04 -0.02,0.04 -0.03,0.04 -0.03,0.03 -0.03,0.02 -0.03,0.03 -0.04,0.02 -0.05,0.02 -0.02,0.01 -0.03,0.01 -0.02,0 -0.03,0.01 -0.03,0.01 -0.03,0 -0.03,0.01 -0.03,0 -0.03,0.01 -0.04,0 -0.04,0 -0.03,0 -0.04,0.01 -0.04,0 -0.04,0 -0.05,0 -0.04,0 -0.05,0 -0.05,0.01 -0.05,0 -0.05,0 -0.05,0 c -3.09,-3.19 -7.47,-3.19 -9.07,-3.19 l 0,-1.55 c 1,0 3.94,0 6.53,1.3 l 0,-25.81 c 0,-1.79 -0.15,-2.39 -4.63,-2.39 l -1.6,0 0,-1.54 16.14,0 0,1.54 -1.59,0 c -4.49,0 -4.64,0.55 -4.64,2.39 z"
           inkscape:connector-curvature="0"
           style="fill:#000000;stroke-width:0" /><path
           id="path4973"
           d="m 502.91,421.94 0,0.75 -0.01,0.74 -0.02,0.75 -0.03,0.74 -0.05,0.75 -0.06,0.74 -0.07,0.74 -0.1,0.73 -0.11,0.73 -0.14,0.73 -0.16,0.72 -0.19,0.72 -0.22,0.71 -0.24,0.71 -0.28,0.7 -0.15,0.35 -0.16,0.35 c -2.29,4.78 -6.37,5.58 -8.47,5.58 -2.99,0 -6.62,-1.3 -8.66,-5.93 -1.6,-3.44 -1.85,-7.32 -1.85,-11.31 0,-3.74 0.2,-8.22 2.24,-12.01 2.15,-4.03 5.78,-5.03 8.22,-5.03 l 0,1.1 c -1.94,0 -4.88,1.25 -5.78,6.03 -0.54,2.99 -0.54,7.57 -0.54,10.51 0,3.19 0,6.47 0.4,9.16 0.94,5.93 4.68,6.38 5.92,6.38 1.65,0 4.94,-0.9 5.88,-5.83 0.5,-2.79 0.5,-6.57 0.5,-9.71 0,-3.74 0,-7.13 -0.55,-10.31 -0.75,-4.73 -3.59,-6.23 -5.83,-6.23 l 0,0 0,-1.1 c 2.69,0 6.48,1.05 8.67,5.78 1.59,3.44 1.84,7.32 1.84,11.26 z"
           inkscape:connector-curvature="0"
           style="fill:#000000;stroke-width:0" /><path
           id="path4975"
           d="m 523.45,429.72 0,1.25 -3.88,0 0,15.56 c 0,0.73 0,0.97 -0.76,0.97 -0.42,0 -0.56,0 -0.91,-0.49 l -11.54,-16.04 0,-1.25 10.25,0 0.24,1.25 -9.2,0 9.2,12.76 0,-12.76 -0.24,-1.25 0,-2.86 c 0,-1.19 0,-1.61 -2.83,-1.61 l -0.94,0 0,-1.25 10.5,0 0,1.25 -0.94,0 c -2.83,0 -2.83,0.42 -2.83,1.61 l 0,2.86 z"
           inkscape:connector-curvature="0"
           style="fill:#000000;stroke-width:0" /></g>    </g>
    <g
       transform="matrix(0.18062185,0,0,0.18062185,461.10738,219.39047)"
       id="g5077"
       inkscape:export-xdpi="90"
       inkscape:export-ydpi="90">
      <g
         style="font-style:normal;font-variant:normal;font-weight:normal;font-stretch:normal;letter-spacing:normal;word-spacing:normal;text-anchor:start;fill:none;fill-opacity:1;fill-rule:evenodd;stroke:#000000;stroke-linecap:butt;stroke-linejoin:miter;stroke-miterlimit:10.43299961;stroke-dasharray:none;stroke-dashoffset:0;stroke-opacity:1"
         id="g5079"
         transform="matrix(1.0629921,0,0,-1.0629921,-186.02362,789.27165)"
         xml:space="preserve"
         stroke-miterlimit="10.433"
         font-style="normal"
         font-variant="normal"
         font-weight="normal"
         font-stretch="normal"
         font-size-adjust="none"
         letter-spacing="normal"
         word-spacing="normal"><path
           style="fill:#000000;stroke-width:0"
           inkscape:connector-curvature="0"
           d="m 470.64,437.88 0,0.05 0,0.06 0,0.05 0,0.05 0,0.05 0,0.05 0,0.04 0,0.05 0,0.04 0,0.04 0,0.04 0,0.04 0,0.04 -0.01,0.04 0,0.03 0,0.04 -0.01,0.03 0,0.03 -0.01,0.06 -0.01,0.05 -0.02,0.05 -0.01,0.05 -0.02,0.04 -0.02,0.04 -0.03,0.04 -0.03,0.03 -0.03,0.02 -0.03,0.03 -0.04,0.02 -0.05,0.02 -0.02,0.01 -0.03,0.01 -0.02,0 -0.03,0.01 -0.03,0.01 -0.03,0 -0.03,0.01 -0.03,0 -0.03,0.01 -0.04,0 -0.04,0 -0.03,0 -0.04,0.01 -0.04,0 -0.04,0 -0.05,0 -0.04,0 -0.05,0 -0.05,0.01 -0.05,0 -0.05,0 -0.05,0 c -3.09,-3.19 -7.47,-3.19 -9.07,-3.19 l 0,-1.55 c 1,0 3.94,0 6.53,1.3 l 0,-25.81 c 0,-1.79 -0.15,-2.39 -4.63,-2.39 l -1.6,0 0,-1.54 16.14,0 0,1.54 -1.59,0 c -4.49,0 -4.64,0.55 -4.64,2.39 z"
           id="path5081" /><path
           style="fill:#000000;stroke-width:0"
           inkscape:connector-curvature="0"
           d="m 502.91,421.94 0,0.75 -0.01,0.74 -0.02,0.75 -0.03,0.74 -0.05,0.75 -0.06,0.74 -0.07,0.74 -0.1,0.73 -0.11,0.73 -0.14,0.73 -0.16,0.72 -0.19,0.72 -0.22,0.71 -0.24,0.71 -0.28,0.7 -0.15,0.35 -0.16,0.35 c -2.29,4.78 -6.37,5.58 -8.47,5.58 -2.99,0 -6.62,-1.3 -8.66,-5.93 -1.6,-3.44 -1.85,-7.32 -1.85,-11.31 0,-3.74 0.2,-8.22 2.24,-12.01 2.15,-4.03 5.78,-5.03 8.22,-5.03 l 0,1.1 c -1.94,0 -4.88,1.25 -5.78,6.03 -0.54,2.99 -0.54,7.57 -0.54,10.51 0,3.19 0,6.47 0.4,9.16 0.94,5.93 4.68,6.38 5.92,6.38 1.65,0 4.94,-0.9 5.88,-5.83 0.5,-2.79 0.5,-6.57 0.5,-9.71 0,-3.74 0,-7.13 -0.55,-10.31 -0.75,-4.73 -3.59,-6.23 -5.83,-6.23 l 0,0 0,-1.1 c 2.69,0 6.48,1.05 8.67,5.78 1.59,3.44 1.84,7.32 1.84,11.26 z"
           id="path5083" /><path
           style="fill:#000000;stroke-width:0"
           inkscape:connector-curvature="0"
           d="m 510.41,443.46 0.16,-0.04 0.16,-0.04 0.16,-0.04 0.15,-0.03 0.15,-0.03 0.14,-0.03 0.14,-0.03 0.14,-0.02 0.13,-0.03 0.13,-0.02 0.12,-0.02 0.12,-0.02 0.12,-0.01 0.11,-0.02 0.11,-0.01 0.1,-0.01 0.11,-0.01 0.09,-0.01 0.1,-0.01 0.09,0 0.09,-0.01 0.08,0 0.08,-0.01 0.08,0 0.08,0 0.07,0 0.07,0 0.06,-0.01 0.07,0 0.06,0 0.05,0 0.05,0 c 4.61,0 7.33,3.14 7.33,3.66 0,0.39 -0.24,0.49 -0.42,0.49 -0.07,0 -0.14,0 -0.28,-0.1 -0.84,-0.32 -2.68,-1.01 -5.26,-1.01 -0.98,0 -2.83,0.07 -5.1,0.94 -0.34,0.17 -0.41,0.17 -0.45,0.17 -0.45,0 -0.45,-0.38 -0.45,-0.94 l 0,-10.28 c 0,-0.6 0,-1.02 0.56,-1.02 0.31,0 0.34,0.07 0.7,0.49 1.49,1.92 3.62,2.2 4.84,2.2 2.09,0 3.03,-1.67 3.21,-1.96 0.63,-1.14 0.84,-2.47 0.84,-4.49 0,-1.05 0,-3.11 -1.05,-4.64 -0.87,-1.26 -2.37,-2.09 -4.08,-2.09 -2.27,0 -4.6,1.25 -5.47,3.56 1.32,-0.11 1.98,0.76 1.98,1.7 0,1.5 -1.29,1.78 -1.74,1.78 -0.07,0 -1.74,0 -1.74,-1.88 0,-3.14 2.85,-6.28 7.04,-6.28 4.46,0 8.37,3.31 8.37,7.71 0,3.94 -3,7.56 -7.33,7.56 -1.53,0 -3.34,-0.38 -4.87,-1.7 z"
           id="path5085" /></g>    </g>
    <path
       sodipodi:nodetypes="cc"
       inkscape:connector-curvature="0"
       id="path4196"
       d="m 512.85714,185.21935 -114.28571,-40"
       style="fill:none;fill-rule:evenodd;stroke:#000000;stroke-width:1;stroke-linecap:butt;stroke-linejoin:miter;stroke-miterlimit:4;stroke-dasharray:1, 1;stroke-dashoffset:0;stroke-opacity:1;marker-end:url(#marker4543)"
       inkscape:export-xdpi="90"
       inkscape:export-ydpi="90" />
    <g
       id="g6345"
       transform="matrix(0.34536975,0.09254155,-0.09254155,0.34536975,358.74281,-3.1560601)"
       inkscape:export-xdpi="90"
       inkscape:export-ydpi="90">
      <g
         word-spacing="normal"
         letter-spacing="normal"
         font-size-adjust="none"
         font-stretch="normal"
         font-weight="normal"
         font-variant="normal"
         font-style="normal"
         stroke-miterlimit="10.433"
         xml:space="preserve"
         transform="matrix(1.0629921,0,0,-1.0629921,-186.02362,789.27165)"
         id="g6347"
         style="font-style:normal;font-variant:normal;font-weight:normal;font-stretch:normal;letter-spacing:normal;word-spacing:normal;text-anchor:start;fill:none;fill-opacity:1;fill-rule:evenodd;stroke:#000000;stroke-linecap:butt;stroke-linejoin:miter;stroke-miterlimit:10.43299961;stroke-dasharray:none;stroke-dashoffset:0;stroke-opacity:1"><path
           id="path6349"
           d="m 469.45,433.64 0.23,-0.34 0.23,-0.34 0.23,-0.33 0.24,-0.31 0.24,-0.3 0.24,-0.3 0.24,-0.28 0.25,-0.27 0.24,-0.25 0.25,-0.25 0.24,-0.24 0.25,-0.22 0.24,-0.22 0.24,-0.2 0.24,-0.19 0.24,-0.19 c 3.03,-2.29 6.07,-2.79 6.17,-2.79 0.6,0 0.6,0.55 0.6,0.95 0,0.8 -0.05,0.84 -1.15,1.2 -3.38,0.94 -5.32,2.73 -6.47,3.98 -2.54,2.74 -3.14,5.73 -3.44,7.32 -0.05,0.25 -0.25,0.45 -0.55,0.45 -0.45,0 -0.49,-0.3 -0.59,-0.9 -1.15,-5.53 -4.69,-9.41 -10.16,-10.96 -0.75,-0.25 -0.85,-0.25 -0.85,-1.09 0,-0.4 0,-0.95 0.6,-0.95 0.14,0 3.08,0.55 5.92,2.59 1.65,1.25 2.99,2.74 4.09,4.43 l 0,-35.51 c 0,-0.9 0,-1.79 0.99,-1.79 1,0 1,0.89 1,1.79 z"
           inkscape:connector-curvature="0"
           style="fill:#000000;stroke-width:0" /><path
           id="path6351"
           d="m 519.8,424.58 0.07,0 0.07,0 0.07,0 0.08,0.01 0.09,0 0.09,0 0.09,0.01 0.1,0.01 0.1,0.01 0.1,0.01 0.1,0.02 0.1,0.02 0.1,0.03 0.1,0.02 0.1,0.04 0.1,0.03 0.1,0.05 0.1,0.04 0.09,0.06 0.09,0.05 0.09,0.07 0.08,0.07 0.03,0.04 0.04,0.04 0.04,0.04 0.03,0.05 0.03,0.04 0.04,0.05 0.02,0.05 0.03,0.05 0.03,0.05 0.02,0.06 0.02,0.06 0.02,0.05 0.02,0.07 0.02,0.06 0.01,0.07 0.01,0.07 0.01,0.07 0.01,0.07 0,0.07 0,0.08 c 0,1.2 -1.04,1.2 -1.94,1.2 l -11.35,0 c -7.53,0 -13.06,-8.22 -13.06,-14.15 0,-4.38 2.94,-7.87 7.47,-7.87 l 0.05,1.1 c -2.44,0 -4.43,1.79 -4.43,5.38 0,1.49 0.6,5.58 2.34,8.52 2.09,3.43 5.08,4.13 6.78,4.13 4.18,0 4.58,-3.29 4.58,-4.83 0,-2.34 -1,-6.43 -2.69,-8.97 -1.94,-2.94 -4.63,-4.23 -6.58,-4.23 l 0,0 -0.05,-1.1 c 5.88,0 12.51,6.03 12.51,13.7 0,0.85 0,3.24 -1.55,5.43 z"
           inkscape:connector-curvature="0"
           style="fill:#000000;stroke-width:0" /><path
           id="path6353"
           d="m 538.13,401.82 -0.01,-0.06 -0.02,-0.07 -0.02,-0.07 -0.02,-0.08 -0.02,-0.07 -0.02,-0.08 -0.04,-0.16 -0.04,-0.16 -0.04,-0.16 -0.04,-0.16 -0.02,-0.07 -0.02,-0.08 -0.02,-0.08 -0.01,-0.07 -0.02,-0.07 -0.02,-0.07 -0.01,-0.07 -0.02,-0.06 -0.01,-0.06 -0.01,-0.06 -0.01,-0.05 -0.02,-0.05 0,-0.04 -0.01,-0.04 -0.01,-0.04 0,-0.03 0,-0.02 0,-0.02 c 0,-0.77 0.62,-1.12 1.18,-1.12 0.63,0 1.19,0.46 1.36,0.77 0.17,0.31 0.46,1.43 0.63,2.16 0.17,0.66 0.56,2.27 0.77,3.14 0.2,0.76 0.41,1.53 0.59,2.33 0.38,1.5 0.38,1.57 1.08,2.65 1.12,1.71 2.86,3.7 5.58,3.7 1.95,0 2.06,-1.6 2.06,-2.44 0,-2.09 -1.5,-5.96 -2.06,-7.43 -0.39,-0.97 -0.52,-1.29 -0.52,-1.88 0,-1.85 1.53,-3 3.31,-3 3.48,0 5.02,4.81 5.02,5.33 0,0.46 -0.45,0.46 -0.56,0.46 -0.49,0 -0.52,-0.21 -0.66,-0.59 -0.81,-2.79 -2.3,-4.22 -3.7,-4.22 -0.73,0 -0.87,0.49 -0.87,1.22 0,0.8 0.17,1.25 0.8,2.82 0.42,1.08 1.85,4.78 1.85,6.73 0,0.56 0,2.03 -1.29,3.04 -0.59,0.45 -1.6,0.94 -3.24,0.94 -3.14,0 -5.06,-2.06 -6.18,-3.52 -0.27,2.96 -2.75,3.52 -4.53,3.52 -2.89,0 -4.84,-1.78 -5.89,-3.18 -0.24,2.41 -2.3,3.18 -3.73,3.18 -1.5,0 -2.3,-1.08 -2.75,-1.88 -0.77,-1.3 -1.26,-3.29 -1.26,-3.46 0,-0.45 0.49,-0.45 0.59,-0.45 0.49,0 0.52,0.11 0.77,1.05 0.52,2.05 1.18,3.76 2.54,3.76 0.91,0 1.16,-0.77 1.16,-1.71 0,-0.66 -0.32,-1.95 -0.56,-2.89 -0.24,-0.94 -0.6,-2.37 -0.77,-3.14 l -1.12,-4.46 c -0.14,-0.46 -0.34,-1.33 -0.34,-1.43 0,-0.77 0.62,-1.12 1.18,-1.12 0.63,0 1.19,0.46 1.36,0.77 0.17,0.31 0.45,1.43 0.63,2.16 0.17,0.66 0.56,2.27 0.76,3.14 0.21,0.76 0.43,1.53 0.6,2.33 0.38,1.43 0.45,1.71 1.46,3.14 0.98,1.4 2.62,3.21 5.23,3.21 2.03,0 2.06,-1.78 2.06,-2.44 0,-0.87 -0.1,-1.32 -0.59,-3.28 z"
           inkscape:connector-curvature="0"
           style="fill:#000000;stroke-width:0" /><path
           id="path6355"
           d="m 572.72,412.32 -0.07,0.11 -0.08,0.1 -0.07,0.11 -0.08,0.1 -0.08,0.1 -0.08,0.1 -0.09,0.09 -0.09,0.1 -0.09,0.09 -0.09,0.09 -0.1,0.08 -0.1,0.09 -0.1,0.08 -0.11,0.07 -0.11,0.08 -0.11,0.07 -0.11,0.07 -0.12,0.06 -0.12,0.06 -0.12,0.06 -0.12,0.05 -0.13,0.05 -0.13,0.05 -0.13,0.04 -0.14,0.04 -0.14,0.03 -0.14,0.02 -0.14,0.03 -0.15,0.02 -0.15,0.01 -0.15,0.01 -0.16,0 0,-0.98 c 2.44,0 3.11,-2.65 3.11,-3.03 0,-0.14 -0.07,-0.39 -0.11,-0.49 l -1.64,-6.52 c -0.24,-0.98 -1.01,-1.68 -1.78,-2.34 -0.31,-0.28 -1.7,-1.39 -3.2,-1.39 -1.29,0 -2.55,0.91 -2.55,3.38 0,1.85 1.01,5.69 1.82,7.08 1.6,2.79 3.38,3.31 4.35,3.31 l 0,0.98 c -4.46,0 -8.99,-4.92 -8.99,-9.94 0,-3.38 2.27,-5.79 5.26,-5.79 1.88,0 3.56,1.08 4.95,2.44 0.67,-2.09 2.69,-2.44 3.59,-2.44 1.26,0 2.13,0.77 2.76,1.85 0.77,1.36 1.22,3.35 1.22,3.48 0,0.46 -0.45,0.46 -0.56,0.46 -0.49,0 -0.52,-0.14 -0.76,-1.08 -0.42,-1.68 -1.09,-3.73 -2.55,-3.73 -0.91,0 -1.15,0.76 -1.15,1.71 0,0.59 0.28,1.84 0.52,2.75 0.25,0.94 0.59,2.37 0.77,3.14 l 0.7,2.65 c 0.21,0.91 0.62,2.55 0.62,2.72 0,0.77 -0.62,1.11 -1.18,1.11 -0.59,0 -1.39,-0.41 -1.6,-1.39 z"
           inkscape:connector-curvature="0"
           style="fill:#000000;stroke-width:0" /><path
           id="path6357"
           d="m 588.68,402.7 -0.03,-0.12 -0.04,-0.11 -0.05,-0.12 -0.04,-0.13 -0.06,-0.12 -0.06,-0.13 -0.06,-0.12 -0.07,-0.13 -0.07,-0.13 -0.07,-0.13 -0.08,-0.13 -0.09,-0.12 -0.09,-0.13 -0.09,-0.12 -0.1,-0.12 -0.1,-0.12 -0.11,-0.12 -0.11,-0.11 -0.11,-0.1 -0.12,-0.1 -0.12,-0.1 -0.13,-0.09 -0.13,-0.08 -0.13,-0.08 -0.14,-0.07 -0.14,-0.06 -0.15,-0.05 -0.15,-0.05 -0.15,-0.03 -0.16,-0.03 -0.16,-0.02 -0.16,0 c -0.11,0 -1.16,0 -1.89,0.49 1.43,0.45 1.53,1.7 1.53,1.92 0,0.76 -0.58,1.28 -1.39,1.28 -0.98,0 -1.99,-0.83 -1.99,-2.12 0,-1.75 1.95,-2.55 3.67,-2.55 1.6,0 3.03,1.01 3.9,2.48 0.84,-1.85 2.76,-2.48 4.15,-2.48 4.01,0 6.14,4.36 6.14,5.33 0,0.46 -0.46,0.46 -0.56,0.46 -0.49,0 -0.52,-0.17 -0.67,-0.59 -0.73,-2.41 -2.82,-4.22 -4.77,-4.22 -1.4,0 -2.13,0.94 -2.13,2.26 0,0.91 0.84,4.08 1.82,7.95 0.69,2.69 2.26,3.56 3.41,3.56 0.07,0 1.15,0 1.89,-0.49 -1.12,-0.31 -1.54,-1.29 -1.54,-1.91 0,-0.77 0.59,-1.3 1.4,-1.3 0.8,0 1.95,0.67 1.95,2.13 0,1.96 -2.23,2.55 -3.63,2.55 -1.74,0 -3.14,-1.15 -3.9,-2.48 -0.63,1.43 -2.23,2.48 -4.19,2.48 -3.9,0 -6.13,-4.29 -6.13,-5.34 0,-0.45 0.49,-0.45 0.59,-0.45 0.45,0 0.49,0.14 0.66,0.59 0.87,2.72 3.07,4.22 4.78,4.22 1.15,0 2.09,-0.63 2.09,-2.3 0,-0.7 -0.42,-2.44 -0.73,-3.63 z"
           inkscape:connector-curvature="0"
           style="fill:#000000;stroke-width:0" /></g>    </g>
  </g>
</svg>
