<?xml version="1.0" encoding="UTF-8" standalone="no"?>
<!-- Created with Inkscape (http://www.inkscape.org/) -->

<svg
   xmlns:dc="http://purl.org/dc/elements/1.1/"
   xmlns:cc="http://creativecommons.org/ns#"
   xmlns:rdf="http://www.w3.org/1999/02/22-rdf-syntax-ns#"
   xmlns:svg="http://www.w3.org/2000/svg"
   xmlns="http://www.w3.org/2000/svg"
   xmlns:sodipodi="http://sodipodi.sourceforge.net/DTD/sodipodi-0.dtd"
   xmlns:inkscape="http://www.inkscape.org/namespaces/inkscape"
   width="210mm"
   height="297mm"
   viewBox="0 0 744.09448819 1052.3622047"
   id="svg2"
   version="1.1"
   inkscape:version="0.91 r13725"
   sodipodi:docname="antesydespues.svg">
  <sodipodi:namedview
     id="base"
     pagecolor="#ffffff"
     bordercolor="#666666"
     borderopacity="1.0"
     inkscape:pageopacity="0.0"
     inkscape:pageshadow="2"
     inkscape:zoom="1.4"
     inkscape:cx="397.33919"
     inkscape:cy="738.25017"
     inkscape:document-units="px"
     inkscape:current-layer="layer1"
     showgrid="false"
     inkscape:window-width="1855"
     inkscape:window-height="1056"
     inkscape:window-x="65"
     inkscape:window-y="24"
     inkscape:window-maximized="1" />
  <defs
     id="defs4">
    <marker
       inkscape:isstock="true"
       style="overflow:visible"
       id="marker5344"
       refX="0.0"
       refY="0.0"
       orient="auto"
       inkscape:stockid="Arrow2Mstart">
      <path
         transform="scale(0.6) translate(0,0)"
         d="M 8.7185878,4.0337352 L -2.2072895,0.016013256 L 8.7185884,-4.0017078 C 6.9730900,-1.6296469 6.9831476,1.6157441 8.7185878,4.0337352 z "
         style="fill-rule:evenodd;stroke-width:0.625;stroke-linejoin:round;stroke:#000000;stroke-opacity:1;fill:#000000;fill-opacity:1"
         id="path5346" />
    </marker>
    <marker
       inkscape:isstock="true"
       style="overflow:visible;"
       id="marker4847"
       refX="0.0"
       refY="0.0"
       orient="auto"
       inkscape:stockid="Arrow2Mend">
      <path
         transform="scale(0.6) rotate(180) translate(0,0)"
         d="M 8.7185878,4.0337352 L -2.2072895,0.016013256 L 8.7185884,-4.0017078 C 6.9730900,-1.6296469 6.9831476,1.6157441 8.7185878,4.0337352 z "
         style="fill-rule:evenodd;stroke-width:0.625;stroke-linejoin:round;stroke:#000000;stroke-opacity:1;fill:#000000;fill-opacity:1"
         id="path4849" />
    </marker>
    <marker
       inkscape:stockid="Arrow2Mend"
       orient="auto"
       refY="0.0"
       refX="0.0"
       id="Arrow2Mend"
       style="overflow:visible;"
       inkscape:isstock="true"
       inkscape:collect="always">
      <path
         id="path4315"
         style="fill-rule:evenodd;stroke-width:0.625;stroke-linejoin:round;stroke:#000000;stroke-opacity:1;fill:#000000;fill-opacity:1"
         d="M 8.7185878,4.0337352 L -2.2072895,0.016013256 L 8.7185884,-4.0017078 C 6.9730900,-1.6296469 6.9831476,1.6157441 8.7185878,4.0337352 z "
         transform="scale(0.6) rotate(180) translate(0,0)" />
    </marker>
    <marker
       inkscape:stockid="Arrow1Mend"
       orient="auto"
       refY="0.0"
       refX="0.0"
       id="Arrow1Mend"
       style="overflow:visible;"
       inkscape:isstock="true">
      <path
         id="path4297"
         d="M 0.0,0.0 L 5.0,-5.0 L -12.5,0.0 L 5.0,5.0 L 0.0,0.0 z "
         style="fill-rule:evenodd;stroke:#000000;stroke-width:1pt;stroke-opacity:1;fill:#000000;fill-opacity:1"
         transform="scale(0.4) rotate(180) translate(10,0)" />
    </marker>
    <marker
       inkscape:stockid="Arrow2Mstart"
       orient="auto"
       refY="0.0"
       refX="0.0"
       id="Arrow2Mstart"
       style="overflow:visible"
       inkscape:isstock="true"
       inkscape:collect="always">
      <path
         id="path4312"
         style="fill-rule:evenodd;stroke-width:0.625;stroke-linejoin:round;stroke:#000000;stroke-opacity:1;fill:#000000;fill-opacity:1"
         d="M 8.7185878,4.0337352 L -2.2072895,0.016013256 L 8.7185884,-4.0017078 C 6.9730900,-1.6296469 6.9831476,1.6157441 8.7185878,4.0337352 z "
         transform="scale(0.6) translate(0,0)" />
    </marker>
    <marker
       inkscape:isstock="true"
       style="overflow:visible"
       id="marker4847-9"
       refX="0"
       refY="0"
       orient="auto"
       inkscape:stockid="Arrow2Mend">
      <path
         inkscape:connector-curvature="0"
         transform="scale(-0.6,-0.6)"
         d="M 8.7185878,4.0337352 -2.2072895,0.01601326 8.7185884,-4.0017078 c -1.7454984,2.3720609 -1.7354408,5.6174519 -6e-7,8.035443 z"
         style="fill:#000000;fill-opacity:1;fill-rule:evenodd;stroke:#000000;stroke-width:0.625;stroke-linejoin:round;stroke-opacity:1"
         id="path4849-2" />
    </marker>
    <marker
       inkscape:isstock="true"
       style="overflow:visible"
       id="marker4847-8"
       refX="0"
       refY="0"
       orient="auto"
       inkscape:stockid="Arrow2Mend">
      <path
         inkscape:connector-curvature="0"
         transform="scale(-0.6,-0.6)"
         d="M 8.7185878,4.0337352 -2.2072895,0.01601326 8.7185884,-4.0017078 c -1.7454984,2.3720609 -1.7354408,5.6174519 -6e-7,8.035443 z"
         style="fill:#000000;fill-opacity:1;fill-rule:evenodd;stroke:#000000;stroke-width:0.625;stroke-linejoin:round;stroke-opacity:1"
         id="path4849-9" />
    </marker>
  </defs>
  <metadata
     id="metadata7">
    <rdf:RDF>
      <cc:Work
         rdf:about="">
        <dc:format>image/svg+xml</dc:format>
        <dc:type
           rdf:resource="http://purl.org/dc/dcmitype/StillImage" />
        <dc:title />
      </cc:Work>
    </rdf:RDF>
  </metadata>
  <g
     inkscape:label="Layer 1"
     inkscape:groupmode="layer"
     id="layer1">
    <ellipse
       style="opacity:1;fill:#ffffff;fill-opacity:1;fill-rule:nonzero;stroke:#000000;stroke-width:3.5;stroke-miterlimit:4;stroke-dasharray:none;stroke-dashoffset:0;stroke-opacity:1"
       id="path4136"
       cx="213.57143"
       cy="193.79077"
       rx="95"
       ry="17.142857" />
    <ellipse
       style="opacity:1;fill:#ffffff;fill-opacity:1;fill-rule:nonzero;stroke:#000000;stroke-width:3.5;stroke-miterlimit:4;stroke-dasharray:none;stroke-dashoffset:0;stroke-opacity:1"
       id="path4136-3"
       cx="213.71428"
       cy="397.50507"
       rx="95"
       ry="17.142857" />
    <path
       style="fill:none;fill-rule:evenodd;stroke:#000000;stroke-width:3.5;stroke-linecap:butt;stroke-linejoin:miter;stroke-miterlimit:4;stroke-dasharray:none;stroke-opacity:1"
       d="m 118,192.3622 0,204.28572"
       id="path4153"
       inkscape:connector-curvature="0" />
    <ellipse
       id="path4155"
       style="fill:#000000;stroke:none"
       cx="120"
       cy="396.64792"
       rx="1.5"
       ry="0.10714287" />
    <path
       style="fill:none;fill-rule:evenodd;stroke:#000000;stroke-width:3.5;stroke-linecap:butt;stroke-linejoin:miter;stroke-miterlimit:4;stroke-dasharray:none;stroke-opacity:1"
       d="m 308.34906,191.22746 0,205.06097"
       id="path4157"
       inkscape:connector-curvature="0" />
    <circle
       id="path4159"
       style="fill:#000000;stroke:none"
       cx="307.84399"
       cy="398.28842"
       r="1.5" />
    <ellipse
       style="opacity:1;fill:#ffffff;fill-opacity:1;fill-rule:nonzero;stroke:#989898;stroke-width:3.5;stroke-miterlimit:4;stroke-dasharray:3.5, 3.50000000000000000;stroke-dashoffset:0;stroke-opacity:1"
       id="path4136-6"
       cx="212.01021"
       cy="302.32394"
       rx="95"
       ry="17.142857" />
    <ellipse
       style="opacity:1;fill:#ffffff;fill-opacity:1;fill-rule:nonzero;stroke:#000000;stroke-width:3.5;stroke-miterlimit:4;stroke-dasharray:none;stroke-dashoffset:0;stroke-opacity:1"
       id="path4136-7"
       cx="555.7146"
       cy="262.95404"
       rx="120.54094"
       ry="21.751747" />
    <ellipse
       style="opacity:1;fill:#ffffff;fill-opacity:1;fill-rule:nonzero;stroke:#000000;stroke-width:3.5;stroke-miterlimit:4;stroke-dasharray:none;stroke-dashoffset:0;stroke-opacity:1"
       id="path4136-7-5"
       cx="556.51282"
       cy="393.19705"
       rx="120.54094"
       ry="21.751747" />
    <path
       style="fill:none;fill-rule:evenodd;stroke:#000000;stroke-width:3.5;stroke-linecap:butt;stroke-linejoin:miter;stroke-miterlimit:4;stroke-dasharray:none;stroke-opacity:1"
       d="m 434.24376,261.91529 0,132.32998"
       id="path4216"
       inkscape:connector-curvature="0" />
    <path
       style="fill:none;fill-rule:evenodd;stroke:#000000;stroke-width:3.5;stroke-linecap:butt;stroke-linejoin:miter;stroke-miterlimit:4;stroke-dasharray:none;stroke-opacity:1"
       d="m 676.51283,263.71479 0,132.32998"
       id="path4216-3"
       inkscape:connector-curvature="0" />
    <ellipse
       style="opacity:1;fill:#ffffff;fill-opacity:1;fill-rule:nonzero;stroke:#848484;stroke-width:3.5;stroke-miterlimit:4;stroke-dasharray:3.5, 3.50000000000000000;stroke-dashoffset:0;stroke-opacity:1"
       id="path4136-7-56"
       cx="555.11688"
       cy="335.47366"
       rx="120.54094"
       ry="21.751747" />
    <path
       style="fill:none;fill-rule:evenodd;stroke:#000000;stroke-width:1px;stroke-linecap:butt;stroke-linejoin:miter;stroke-opacity:1"
       d="m 118.18785,395.76305 -35.860418,0"
       id="path4265"
       inkscape:connector-curvature="0" />
    <path
       style="fill:none;fill-rule:evenodd;stroke:#000000;stroke-width:1px;stroke-linecap:butt;stroke-linejoin:miter;stroke-opacity:1"
       d="m 114.88455,193.75285 -35.86042,0"
       id="path4265-2"
       inkscape:connector-curvature="0" />
    <path
       style="fill:none;fill-rule:evenodd;stroke:#000000;stroke-width:1px;stroke-linecap:butt;stroke-linejoin:miter;stroke-opacity:1;marker-start:url(#Arrow2Mstart);marker-end:url(#Arrow2Mend)"
       d="m 88.388348,193.73254 0,200.51528"
       id="path4282"
       inkscape:connector-curvature="0" />
    <flowRoot
       xml:space="preserve"
       id="flowRoot4636-9"
       style="font-style:normal;font-weight:normal;font-size:15px;line-height:125%;font-family:sans-serif;letter-spacing:0px;word-spacing:0px;fill:#000000;fill-opacity:1;stroke:none;stroke-width:1px;stroke-linecap:butt;stroke-linejoin:miter;stroke-opacity:1"
       transform="translate(170.79142,38.3368)"><flowRegion
         id="flowRegion4638-1"><rect
           id="rect4640-2"
           width="17.857143"
           height="28.214285"
           x="41.42857"
           y="253.43364" /></flowRegion><flowPara
         id="flowPara4642-7"><flowSpan
           style="font-size:7.5px"
           id="flowSpan4644-0"><flowSpan
   style="font-size:25px"
   id="flowSpan4673">A</flowSpan>0</flowSpan></flowPara></flowRoot>    <path
       style="fill:none;fill-rule:evenodd;stroke:#000000;stroke-width:1px;stroke-linecap:butt;stroke-linejoin:miter;stroke-opacity:1"
       d="m 433.6445,263.43363 -35.86042,0"
       id="path4265-2-9"
       inkscape:connector-curvature="0" />
    <path
       style="fill:none;fill-rule:evenodd;stroke:#000000;stroke-width:1px;stroke-linecap:butt;stroke-linejoin:miter;stroke-opacity:1"
       d="m 434.43021,393.07649 -35.86042,0"
       id="path4265-2-3"
       inkscape:connector-curvature="0" />
    <path
       style="fill:none;fill-rule:evenodd;stroke:#000000;stroke-width:1px;stroke-linecap:butt;stroke-linejoin:miter;stroke-opacity:1"
       d="m 407.14286,263.43363 0,130.35715"
       id="path4714"
       inkscape:connector-curvature="0" />
    <ellipse
       style="opacity:1;fill:#ffffff;fill-opacity:1;fill-rule:nonzero;stroke:#7b7b7b;stroke-width:3.5;stroke-miterlimit:4;stroke-dasharray:14, 3.50000000000000000;stroke-dashoffset:0;stroke-opacity:1"
       id="path4136-7-3"
       cx="554.85712"
       cy="194.07649"
       rx="120.54094"
       ry="21.751747" />
    <path
       style="fill:none;fill-rule:evenodd;stroke:#7b7b7b;stroke-width:3.5;stroke-linecap:butt;stroke-linejoin:miter;stroke-opacity:1;stroke-miterlimit:4;stroke-dasharray:14, 3.50000000000000000;stroke-dashoffset:0"
       d="m 433.86052,263.3068 0,-70.20561"
       id="path4791"
       inkscape:connector-curvature="0" />
    <path
       style="fill:none;fill-rule:evenodd;stroke:#7b7b7b;stroke-width:3.5;stroke-linecap:butt;stroke-linejoin:miter;stroke-miterlimit:4;stroke-dasharray:14, 3.50000000000000000;stroke-dashoffset:0;stroke-opacity:1"
       d="m 674.7819,260.12977 0,-70.20561"
       id="path4791-7"
       inkscape:connector-curvature="0" />
    <path
       style="fill:none;fill-rule:evenodd;stroke:#000000;stroke-width:1px;stroke-linecap:butt;stroke-linejoin:miter;stroke-opacity:1"
       d="m 434.3656,195.87911 -35.86042,0"
       id="path4265-2-9-5"
       inkscape:connector-curvature="0" />
    <path
       style="fill:none;fill-rule:evenodd;stroke:#000000;stroke-width:1px;stroke-linecap:butt;stroke-linejoin:miter;stroke-opacity:1"
       d="m 407.09148,263.81187 0,-67.68022"
       id="path4823"
       inkscape:connector-curvature="0" />
    <path
       style="fill:none;fill-rule:evenodd;stroke:#000000;stroke-width:3.05522895;stroke-linecap:butt;stroke-linejoin:miter;stroke-miterlimit:4;stroke-dasharray:none;stroke-opacity:1;marker-end:url(#marker4847)"
       d="m 557.85714,146.64793 0,107.74592"
       id="path4827"
       inkscape:connector-curvature="0" />
    <path
       style="fill:none;fill-rule:evenodd;stroke:#000000;stroke-width:2.5;stroke-linecap:butt;stroke-linejoin:miter;stroke-miterlimit:4;stroke-dasharray:none;stroke-opacity:1;marker-start:url(#marker5344)"
       d="m 559.2617,421.68669 0,72.14286"
       id="path4827-2"
       inkscape:connector-curvature="0"
       inkscape:transform-center-x="4.3097354"
       inkscape:transform-center-y="56.681631" />
    <g
       id="g5462"
       transform="matrix(1.0000001,0,0,0.75587374,84.142832,-28.962658)">
      <g
         id="content"
         transform="matrix(1.0629921,0,0,-1.0629921,-186.02362,789.27165)"
         xml:space="preserve"
         stroke-miterlimit="10.433"
         font-style="normal"
         font-variant="normal"
         font-weight="normal"
         font-stretch="normal"
         font-size-adjust="none"
         letter-spacing="normal"
         word-spacing="normal"
         style="font-style:normal;font-variant:normal;font-weight:normal;font-stretch:normal;letter-spacing:normal;word-spacing:normal;text-anchor:start;fill:none;fill-opacity:1;fill-rule:evenodd;stroke:#000000;stroke-linecap:butt;stroke-linejoin:miter;stroke-miterlimit:10.43299961;stroke-dasharray:none;stroke-dashoffset:0;stroke-opacity:1"><path
           d="m 470.84,417.26 0.15,0 0.16,0 0.15,0 0.07,0.01 0.08,0 0.07,0.01 0.07,0 0.07,0.01 0.07,0.01 0.07,0.01 0.06,0.02 0.07,0.02 0.06,0.01 0.06,0.02 0.06,0.03 0.05,0.03 0.05,0.02 0.05,0.04 0.05,0.03 0.04,0.04 0.04,0.05 0.03,0.04 0.02,0.03 0.01,0.02 0.01,0.03 0.02,0.03 0.01,0.03 0.01,0.03 0.01,0.03 0.01,0.03 0,0.03 0.01,0.04 0,0.03 0.01,0.04 0,0.04 0,0.04 c 0,0.69 -0.6,0.69 -1.45,0.69 l -8.07,0 c 1.2,4.24 3.99,7.13 8.52,7.13 l 1.55,0 c 0.84,0 1.64,0 1.64,0.84 0,0.7 -0.65,0.7 -1.5,0.7 l -1.74,0 c -6.47,0 -13.15,-4.98 -13.15,-12.6 0,-5.48 3.74,-9.42 9.02,-9.42 3.23,0 6.47,2 6.47,2.54 0,0.15 -0.04,0.7 -0.49,0.7 -0.11,0 -0.2,0 -0.65,-0.3 -1.55,-1 -3.39,-1.84 -5.23,-1.84 -2.89,0 -5.38,2.09 -5.38,6.47 0,1.75 0.4,3.64 0.54,4.24 z"
           id="path5465"
           inkscape:connector-curvature="0"
           style="fill:#000000;stroke-width:0" /></g>    </g>
    <g
       id="g5603"
       transform="matrix(0.74498766,0,0,0.90845271,338.11329,-164.48602)">
      <g
         word-spacing="normal"
         letter-spacing="normal"
         font-size-adjust="none"
         font-stretch="normal"
         font-weight="normal"
         font-variant="normal"
         font-style="normal"
         stroke-miterlimit="10.433"
         xml:space="preserve"
         transform="matrix(1.0629921,0,0,-1.0629921,-186.02362,789.27165)"
         id="g5605"
         style="font-style:normal;font-variant:normal;font-weight:normal;font-stretch:normal;letter-spacing:normal;word-spacing:normal;text-anchor:start;fill:none;fill-opacity:1;fill-rule:evenodd;stroke:#000000;stroke-linecap:butt;stroke-linejoin:miter;stroke-miterlimit:10.43299961;stroke-dasharray:none;stroke-dashoffset:0;stroke-opacity:1"><path
           id="path5607"
           d="m 481.8,424.58 0.07,0 0.07,0 0.07,0 0.08,0.01 0.09,0 0.09,0 0.09,0.01 0.1,0.01 0.1,0.01 0.1,0.01 0.1,0.02 0.1,0.02 0.1,0.03 0.1,0.02 0.11,0.04 0.1,0.03 0.09,0.05 0.1,0.04 0.09,0.06 0.09,0.05 0.09,0.07 0.08,0.07 0.03,0.04 0.04,0.04 0.04,0.04 0.03,0.05 0.03,0.04 0.04,0.05 0.02,0.05 0.03,0.05 0.03,0.05 0.02,0.06 0.02,0.06 0.02,0.05 0.02,0.07 0.02,0.06 0.01,0.07 0.01,0.07 0.01,0.07 0.01,0.07 0,0.07 0,0.08 c 0,1.2 -1.04,1.2 -1.94,1.2 l -11.35,0 c -7.53,0 -13.06,-8.22 -13.06,-14.15 0,-4.38 2.94,-7.87 7.47,-7.87 l 0.05,1.1 c -2.44,0 -4.43,1.79 -4.43,5.38 0,1.49 0.6,5.58 2.34,8.52 2.09,3.43 5.08,4.13 6.78,4.13 4.18,0 4.58,-3.29 4.58,-4.83 0,-2.34 -1,-6.43 -2.69,-8.97 -1.94,-2.94 -4.63,-4.23 -6.58,-4.23 l 0,0 -0.05,-1.1 c 5.88,0 12.51,6.03 12.51,13.7 0,0.85 0,3.24 -1.55,5.43 z"
           inkscape:connector-curvature="0"
           style="fill:#000000;stroke-width:0" /></g>    </g>
    <text
       xml:space="preserve"
       style="font-style:normal;font-weight:normal;font-size:25px;line-height:125%;font-family:sans-serif;letter-spacing:0px;word-spacing:0px;fill:#000000;fill-opacity:1;stroke:none;stroke-width:1px;stroke-linecap:butt;stroke-linejoin:miter;stroke-opacity:1"
       x="195.85715"
       y="309.07648"
       id="text6305"
       sodipodi:linespacing="125%"><tspan
         sodipodi:role="line"
         id="tspan6307"
         x="195.85715"
         y="309.07648">A<tspan
   style="font-size:16.25px"
   id="tspan6309">0</tspan></tspan></text>
    <text
       xml:space="preserve"
       style="font-style:normal;font-weight:normal;font-size:25px;line-height:125%;font-family:sans-serif;letter-spacing:0px;word-spacing:0px;fill:#000000;fill-opacity:1;stroke:none;stroke-width:1px;stroke-linecap:butt;stroke-linejoin:miter;stroke-opacity:1"
       x="62.441887"
       y="307.35971"
       id="text6305-3"
       sodipodi:linespacing="125%"><tspan
         sodipodi:role="line"
         id="tspan6307-6"
         x="62.441887"
         y="307.35971">l<tspan
   style="font-size:16.25px"
   id="tspan6309-1">0</tspan></tspan></text>
    <text
       xml:space="preserve"
       style="font-style:normal;font-weight:normal;font-size:25px;line-height:125%;font-family:sans-serif;letter-spacing:0px;word-spacing:0px;fill:#000000;fill-opacity:1;stroke:none;stroke-width:1px;stroke-linecap:butt;stroke-linejoin:miter;stroke-opacity:1"
       x="550.87048"
       y="342.07397"
       id="text6305-2"
       sodipodi:linespacing="125%"><tspan
         sodipodi:role="line"
         id="tspan6307-9"
         x="550.87048"
         y="342.07397">A<tspan
   style="font-size:16.25px"
   id="tspan6309-3" /></tspan></text>
    <text
       xml:space="preserve"
       style="font-style:normal;font-weight:normal;font-size:25px;line-height:125%;font-family:sans-serif;letter-spacing:0px;word-spacing:0px;fill:#000000;fill-opacity:1;stroke:none;stroke-width:1px;stroke-linecap:butt;stroke-linejoin:miter;stroke-opacity:1"
       x="393.7254"
       y="336.31564"
       id="text6305-3-1"
       sodipodi:linespacing="125%"><tspan
         sodipodi:role="line"
         id="tspan6307-6-9"
         x="393.7254"
         y="336.31564">l<tspan
   style="font-size:16.25px"
   id="tspan6309-1-4" /></tspan></text>
    <path
       style="opacity:1;fill:#008080;fill-opacity:0.43216079;fill-rule:nonzero;stroke:#989898;stroke-width:1.78571427;stroke-miterlimit:4;stroke-dasharray:none;stroke-dashoffset:0;stroke-opacity:1"
       d="m 436.33919,365.08924 c 0,-21.89006 0.0434,-22.59206 1.48668,-24.03532 1.40941,-1.40941 1.42301,-1.55704 0.26168,-2.8403 -0.67375,-0.74449 -1.48126,-1.19523 -1.79447,-1.00166 -1.45047,0.89644 -1.30112,-1.29537 0.17019,-2.49775 1.33306,-1.0894 1.48508,-1.53743 0.76877,-2.26576 -0.68686,-0.69839 -0.89285,-8.12106 -0.89285,-32.17203 l 0,-31.26419 2.5536,1.73292 c 10.66902,7.24019 45.99138,13.39345 88.16068,15.35783 60.28517,2.80829 124.55392,-3.69375 144.0132,-14.56975 l 3.12966,-1.7492 0,29.30134 c 0,28.29401 -0.0495,29.36425 -1.43952,31.13138 -1.33688,1.69958 -1.35631,1.92198 -0.27248,3.1196 0.75961,0.83935 1.01188,1.90773 0.72261,3.06027 -0.24443,0.9739 -0.12182,1.9701 0.27248,2.21379 0.74054,0.45768 1.07327,46.78734 0.33602,46.78734 -0.20949,0 -1.89928,-0.76943 -3.7551,-1.70984 -10.50538,-5.32348 -34.0165,-9.77012 -67.29258,-12.72698 -16.42006,-1.45907 -80.33015,-1.21532 -97.14286,0.37048 -34.21709,3.22742 -58.40395,8.55797 -67.17744,14.80525 l -2.10827,1.50122 0,-22.54864 z m 97.85714,-8.26292 c 0,-1.90476 -0.23809,-2.14286 -2.14286,-2.14286 -1.90476,0 -2.14286,0.2381 -2.14286,2.14286 0,1.90476 0.2381,2.14286 2.14286,2.14286 1.90477,0 2.14286,-0.2381 2.14286,-2.14286 z m 7.01173,0.17857 c -0.17752,-1.54283 -0.64747,-2.01278 -2.1903,-2.1903 -1.76495,-0.20308 -1.96429,-0.004 -1.96429,1.96429 0,1.96802 0.22228,2.1903 2.1903,2.1903 1.96802,0 2.16737,-0.19935 1.96429,-1.96429 z m 6.5597,0.17857 c 0,-1.42857 -0.35715,-1.78571 -1.78572,-1.78571 -1.42857,0 -1.78571,0.35714 -1.78571,1.78571 0,1.42857 0.35714,1.78572 1.78571,1.78572 1.42857,0 1.78572,-0.35715 1.78572,-1.78572 z m 7.14285,0 c 0,-1.42857 -0.35714,-1.78571 -1.78571,-1.78571 -1.42857,0 -1.78571,0.35714 -1.78571,1.78571 0,1.42857 0.35714,1.78572 1.78571,1.78572 1.42857,0 1.78571,-0.35715 1.78571,-1.78572 z m 7.14286,0 c 0,-1.50793 -0.33333,-1.78571 -2.14286,-1.78571 -1.80952,0 -2.14285,0.27778 -2.14285,1.78571 0,1.50794 0.33333,1.78572 2.14285,1.78572 1.80953,0 2.14286,-0.27778 2.14286,-1.78572 z m 7.14286,0 c 0,-1.50793 -0.33334,-1.78571 -2.14286,-1.78571 -1.80952,0 -2.14286,0.27778 -2.14286,1.78571 0,1.50794 0.33334,1.78572 2.14286,1.78572 1.80952,0 2.14286,-0.27778 2.14286,-1.78572 z m 7.01173,-0.17857 c -0.17752,-1.54283 -0.64747,-2.01278 -2.1903,-2.1903 -1.76495,-0.20308 -1.96429,-0.004 -1.96429,1.96429 0,1.96802 0.22228,2.1903 2.1903,2.1903 1.96802,0 2.16737,-0.19935 1.96429,-1.96429 z m 6.69553,1.59036 c 0.20566,-0.20567 0.22177,-1.16995 0.0358,-2.14286 -0.24719,-1.29301 -0.79619,-1.76893 -2.04061,-1.76893 -1.41541,0 -1.70244,0.36129 -1.70244,2.14286 0,1.76871 0.29101,2.14286 1.66666,2.14286 0.91667,0 1.83494,-0.16827 2.0406,-0.37393 z m -62.99298,-2.48322 c 0,-1.78157 -0.28702,-2.14285 -1.70244,-2.14285 -1.24441,0 -1.79342,0.47592 -2.0406,1.76893 -0.40812,2.13494 -0.0931,2.51678 2.07638,2.51678 1.37566,0 1.66666,-0.37415 1.66666,-2.14286 z m 7.14286,0.35715 c 0,-1.50794 -0.33333,-1.78572 -2.14286,-1.78572 -1.80952,0 -2.14285,0.27778 -2.14285,1.78572 0,1.50793 0.33333,1.78571 2.14285,1.78571 1.80953,0 2.14286,-0.27778 2.14286,-1.78571 z m 62.85714,-0.43458 c 0,-2.06506 -0.13722,-2.18585 -1.96282,-1.72765 -2.49653,0.62658 -2.5467,0.68896 -1.98283,2.46554 0.30633,0.96514 1.07679,1.4824 2.20808,1.4824 1.46792,0 1.73757,-0.34457 1.73757,-2.22029 z m 7.14286,0.0774 c 0,-1.90476 -0.23809,-2.14285 -2.14286,-2.14285 -1.7687,0 -2.14285,0.291 -2.14285,1.66666 0,2.09557 0.52348,2.61905 2.61905,2.61905 1.37565,0 1.66666,-0.37415 1.66666,-2.14286 z m -90.84541,-0.89896 c 0.20293,-1.75813 0.002,-1.95818 -1.96429,-1.95818 -1.83999,0 -2.1903,0.27609 -2.1903,1.72619 0,3.12898 3.79575,3.34093 4.15459,0.23199 z m 6.93393,0.84514 c 0.55442,-1.74683 0.55008,-1.752 -1.98138,-2.3593 -1.81316,-0.43498 -1.96428,-0.30533 -1.96428,1.68523 0,1.80811 0.28069,2.15647 1.73758,2.15647 1.13128,0 1.90175,-0.51726 2.20808,-1.4824 z m 91.05434,-0.66046 c 0,-1.90477 -0.23809,-2.14286 -2.14286,-2.14286 -1.90476,0 -2.14286,0.23809 -2.14286,2.14286 0,1.90476 0.2381,2.14286 2.14286,2.14286 1.90477,0 2.14286,-0.2381 2.14286,-2.14286 z m -105,-0.71429 c 0,-1.90476 -0.2381,-2.14285 -2.14286,-2.14285 -1.76871,0 -2.14286,0.291 -2.14286,1.66666 0,0.91667 0.21429,1.88096 0.4762,2.14286 0.2619,0.2619 1.22619,0.47619 2.14285,0.47619 1.37566,0 1.66667,-0.37415 1.66667,-2.14286 z m 112.13192,0.89286 c -0.0188,-2.14493 -1.12025,-3.22637 -2.75703,-2.70687 -0.99951,0.31723 -1.51775,1.07501 -1.51775,2.21929 0,1.45445 0.34917,1.73758 2.14286,1.73758 1.56879,0 2.13993,-0.33487 2.13192,-1.25 z m -119.27478,-1.60714 c 0,-1.78156 -0.28703,-2.14286 -1.7024,-2.14286 -1.91155,0 -3.15154,2.76794 -1.6636,3.71351 1.98108,1.25895 3.366,0.61271 3.366,-1.57065 z m 125.71429,-0.0774 c 0,-2.06506 -0.13723,-2.18585 -1.96282,-1.72765 -2.44328,0.61322 -2.34644,0.48934 -1.85412,2.37199 0.27955,1.06898 0.95977,1.57595 2.11453,1.57595 1.42856,0 1.70241,-0.35714 1.70241,-2.22029 z m -132.54267,-0.36399 c 0.54612,-2.17593 0.61691,-2.07699 -1.92162,-2.68599 -1.80495,-0.433 -1.96428,-0.30055 -1.96428,1.63286 0,1.93159 0.47968,2.39214 2.95828,2.84027 0.25205,0.0456 0.66948,-0.75864 0.92762,-1.78714 z m 139.68552,-0.27286 c 0,-2.16665 -0.81445,-2.60778 -3.15586,-1.70929 -1.1385,0.43688 -1.53661,2.49301 -0.65366,3.37596 0.2619,0.2619 1.22619,0.47619 2.14286,0.47619 1.37566,0 1.66666,-0.37415 1.66666,-2.14286 z m 6.78572,-0.71428 c 0,-1.41708 -0.40551,-1.83238 -1.96429,-2.01173 -1.77295,-0.204 -1.96428,-0.008 -1.96428,2.01173 0,2.01977 0.19133,2.21572 1.96428,2.01172 1.55878,-0.17935 1.96429,-0.59465 1.96429,-2.01172 z m -153.57143,-0.7143 c 0,-1.41707 -0.40551,-1.83237 -1.96429,-2.01173 -1.77295,-0.204 -1.96428,-0.008 -1.96428,2.01173 0,2.01978 0.19133,2.21573 1.96428,2.01173 1.55878,-0.17936 1.96429,-0.59466 1.96429,-2.01173 z m 160.82979,1.14951 c 0.0635,-0.0429 -0.0579,-0.98065 -0.26977,-2.0838 -0.26508,-1.38004 -0.70926,-1.88137 -1.42391,-1.60714 -0.57127,0.21922 -1.43885,0.39857 -1.92796,0.39857 -0.58121,0 -0.78068,0.74012 -0.57575,2.13636 0.27892,1.90044 0.52161,2.08654 2.19771,1.68523 1.0363,-0.24812 1.93615,-0.48627 1.99968,-0.52922 z m -167.6155,-1.78049 c 0,-1.52303 -0.41054,-2.16691 -1.57595,-2.47167 -1.87914,-0.4914 -1.76066,-0.58168 -2.35746,1.79619 -0.48692,1.94002 -0.49972,1.93008 3.39769,2.63776 0.29464,0.0535 0.53572,-0.82953 0.53572,-1.96228 z m 173.15586,0.9117 c 0.62142,-0.23846 1.12985,-1.20274 1.12985,-2.14286 0,-1.42302 -0.35888,-1.70929 -2.14286,-1.70929 -2.16665,0 -2.60778,0.81446 -1.70929,3.15587 0.47127,1.22812 0.99037,1.36089 2.7223,0.69628 z M 464.5108,349.95632 c 0.5517,-2.19814 0.54824,-2.20333 -1.68478,-2.52444 -1.36842,-0.19679 -1.83584,0.15149 -2.24891,1.67569 -0.43674,1.6115 -0.27212,1.97286 1.01317,2.22416 0.84404,0.16503 1.74085,0.34382 1.9929,0.39732 0.25205,0.0535 0.66948,-0.74423 0.92762,-1.77273 z m 188.11315,0.0798 c 0.11734,-0.10127 0.0144,-0.97674 -0.22874,-1.94548 -0.3524,-1.40407 -0.79413,-1.69406 -2.17762,-1.42959 -1.21615,0.23248 -1.73555,0.80564 -1.73555,1.91517 0,0.87087 0.21782,1.80122 0.48405,2.06744 0.40904,0.40904 2.97351,-0.0169 3.65786,-0.60754 z m -194.85619,-2.13243 c 0,-2.00316 -2.66828,-3.2384 -3.64967,-1.68956 -1.11346,1.75727 -0.68475,3.36191 0.9711,3.63481 2.2087,0.36403 2.67857,0.0228 2.67857,-1.94525 z m 201.4516,-0.006 c 0.11375,-1.61883 -0.66452,-3.21359 -1.5633,-3.20335 -1.93412,0.0221 -2.83536,1.16783 -2.37169,3.01523 0.37805,1.50628 0.75147,1.74038 2.17069,1.36083 0.94275,-0.25214 1.73669,-0.77985 1.7643,-1.17271 z m -208.27999,-1.51286 c 0.55122,-2.19623 0.4675,-2.32426 -1.68644,-2.57888 -1.15511,-0.13655 -1.8255,0.29001 -2.26455,1.4409 -0.51085,1.33911 -0.33523,1.7509 0.97071,2.27615 2.35027,0.9453 2.46872,0.90007 2.98028,-1.13817 z m 214.97124,-0.89039 c -0.0393,-0.44607 -0.11964,-1.32802 -0.17857,-1.9599 -0.0826,-0.88556 -0.557,-1.03596 -2.06996,-0.65622 -2.52374,0.63341 -2.48565,0.5697 -1.65177,2.763 0.5968,1.56971 0.97315,1.7734 2.34142,1.26724 0.89667,-0.3317 1.59817,-0.96806 1.55888,-1.41412 z m -221.42716,-1.94171 c 0.3367,-1.11896 0.0245,-1.68061 -1.25912,-2.26548 -1.50067,-0.68375 -1.80708,-0.55762 -2.53701,1.0444 -0.4566,1.00214 -0.7378,1.89385 -0.62488,1.98157 0.11293,0.0877 0.84817,0.50831 1.63389,0.93464 1.57642,0.85537 2.11896,0.52539 2.78712,-1.69513 z m 228.28431,-1.39652 c 0,-1.4349 -1.97509,-2.62232 -3.53715,-2.12654 -1.67266,0.53088 -1.81469,1.2526 -0.62225,3.16199 0.6897,1.10439 1.13847,1.21029 2.5,0.58994 0.91267,-0.41584 1.6594,-1.14727 1.6594,-1.62539 z m -118.1153,-1.93709 c 0.63585,-2.22702 0.82616,-2.33006 4.67969,-2.53366 l 4.01689,-0.21224 0.83618,2.53366 c 0.57208,1.73344 1.26989,2.53367 2.20936,2.53367 0.75525,0 1.38299,-0.24108 1.39498,-0.53572 0.012,-0.29464 -1.51029,-4.63393 -3.38286,-9.64286 -2.98418,-7.98236 -3.6044,-9.10714 -5.02181,-9.10714 -0.88943,0 -1.61713,0.09 -1.61713,0.2001 0,0.11005 -1.60715,4.35929 -3.57143,9.44276 -1.96429,5.08347 -3.57143,9.33271 -3.57143,9.44276 0,0.11005 0.75707,0.2001 1.68239,0.2001 1.28592,0 1.83857,-0.54705 2.34517,-2.32143 z M 441.93612,330.18201 c 0.69849,-0.84163 0.40496,-4.06998 -0.37006,-4.06998 -0.3135,0 -3.21719,1.43467 -3.66922,1.81292 -0.12544,0.10495 0.19295,0.86499 0.70753,1.68896 1.07078,1.71458 2.21792,1.91018 3.33175,0.5681 z m 228.28061,-1.47575 c 0.60104,-0.98116 0.4677,-1.47032 -0.62121,-2.27892 -1.87058,-1.38904 -2.18246,-1.31552 -3.11659,0.73467 -0.66605,1.46181 -0.59387,1.88644 0.42106,2.47697 1.5292,0.88976 2.33998,0.66176 3.31674,-0.93272 z m -221.16421,-1.52725 c 0.11733,-0.10126 -3.3e-4,-1.03544 -0.26148,-2.07594 -0.38293,-1.52571 -0.76979,-1.80294 -1.99905,-1.43257 -2.21652,0.66783 -2.52074,1.17617 -1.81141,3.02686 0.50142,1.30827 0.97403,1.55254 2.2468,1.16127 0.88649,-0.27252 1.70781,-0.57835 1.82514,-0.67962 z m 214.81497,-1.15615 c 0.51227,-1.61401 -0.557,-2.73766 -2.6236,-2.75703 -1.34428,-0.0126 -2.26172,3.33656 -1.05089,3.83632 1.82472,0.75314 3.22328,0.34235 3.67449,-1.07929 z M 454.79454,325.4846 c 0.52544,-0.33305 0.84687,-1.37277 0.71428,-2.31049 -0.17701,-1.2519 -0.62066,-1.64162 -1.66963,-1.46667 -2.06929,0.34513 -2.70662,1.19978 -2.16568,2.90412 0.50294,1.58462 1.54052,1.87486 3.12103,0.87304 z m 202.42691,-1.83678 c 0.51336,-2.68547 -3.26912,-3.71421 -4.09452,-1.11361 -0.6059,1.90902 0.094,2.86354 2.09971,2.86354 1.1947,0 1.7541,-0.49073 1.99481,-1.74993 z M 462.758,323.35019 c -0.005,-0.24884 -0.20981,-1.19953 -0.45432,-2.11263 -0.36846,-1.37598 -0.76395,-1.58003 -2.31021,-1.19194 -2.40834,0.60446 -2.38252,0.56099 -1.583,2.66388 0.54606,1.43625 1.05036,1.7253 2.51998,1.44436 1.01052,-0.19317 1.83292,-0.55482 1.82755,-0.80367 z M 650.26573,322.547 c 0.6128,-1.93076 -0.0983,-2.86354 -2.18299,-2.86354 -1.36757,0 -1.74355,0.37224 -1.74355,1.72619 0,2.63508 3.16061,3.55057 3.92654,1.13735 z m -181.0694,-2.30995 c 0,-1.97424 -0.14952,-2.0995 -1.96282,-1.64439 -2.49821,0.62701 -2.47465,0.5946 -1.95035,2.68359 0.3524,1.40406 0.79413,1.69406 2.17762,1.42959 1.37722,-0.26327 1.73555,-0.773 1.73555,-2.46879 z m 174.28571,0.11325 c 0,-1.96653 -0.20005,-2.16721 -1.95818,-1.96428 -3.45467,0.39874 -2.81992,4.11278 0.70818,4.14365 0.9211,0.008 1.25,-0.56539 1.25,-2.17937 z m -167.23711,0.3798 c 0.1462,-0.1462 0.0713,-1.04071 -0.16637,-1.9878 -0.34725,-1.38358 -0.78523,-1.65449 -2.22864,-1.37857 -1.44225,0.27571 -1.79645,0.76476 -1.79645,2.48044 0,1.97423 0.14952,2.09949 1.96282,1.64438 1.07956,-0.27095 2.08244,-0.61225 2.22864,-0.75845 z m 160.34123,-1.19965 c 0.2328,-0.89023 0.0351,-1.82215 -0.4524,-2.13192 -1.4186,-0.9015 -3.366,-0.64647 -3.366,0.4408 0,0.55715 -0.1951,1.52144 -0.43357,2.14286 -0.33578,0.87504 0.0481,1.12984 1.70241,1.12984 1.60414,0 2.23895,-0.39379 2.54956,-1.58158 z m -153.68257,0.49337 c 0.20566,-0.20566 0.22176,-1.16995 0.0358,-2.14286 -0.2387,-1.24869 -0.80382,-1.76893 -1.92155,-1.76893 -2.08274,0 -2.3981,0.39822 -1.9931,2.51679 0.2387,1.2487 0.80382,1.76893 1.92154,1.76893 0.87087,0 1.75167,-0.16827 1.95733,-0.37393 z m 146.57346,-0.75592 c 0.89849,-2.34141 0.45736,-3.15587 -1.70929,-3.15587 -1.76871,0 -2.14286,0.29101 -2.14286,1.66667 0,0.91667 0.21429,1.88095 0.47619,2.14286 0.88295,0.88295 2.93908,0.48484 3.37596,-0.65366 z m -139.69756,-1.90587 c 0.20308,-1.76494 0.004,-1.96428 -1.96429,-1.96428 -2.22569,0 -2.66133,0.79854 -1.74224,3.19363 0.74627,1.94477 3.44427,1.04992 3.70653,-1.22935 z m 132.98827,-0.22072 c 0,-1.4611 -0.34715,-1.74356 -2.14286,-1.74356 -1.79317,0 -2.14286,0.2833 -2.14286,1.73603 0,1.24566 0.45397,1.81086 1.60715,2.00092 2.21835,0.36561 2.67857,0.0231 2.67857,-1.99339 z m -126.84414,1.3943 c 0.62142,-0.23846 1.12985,-1.20274 1.12985,-2.14285 0,-1.42303 -0.35888,-1.7093 -2.14286,-1.7093 -1.90476,0 -2.14285,0.2381 -2.14285,2.14286 0,2.16665 0.81445,2.60778 3.15586,1.70929 z m 119.70128,-1.62602 c 0,-1.61233 -0.37591,-2.13145 -1.73104,-2.3905 -1.31006,-0.25043 -1.82882,0.0333 -2.1331,1.16673 -0.68874,2.56546 -0.829,2.4312 3.32843,3.18608 0.29464,0.0535 0.53571,-0.82954 0.53571,-1.96231 z m -111.78571,-0.79756 c 0,-1.41707 -0.40551,-1.83237 -1.96429,-2.01173 -1.77295,-0.204 -1.96429,-0.008 -1.96429,2.01173 0,2.01978 0.19134,2.21574 1.96429,2.01173 1.55878,-0.17935 1.96429,-0.59466 1.96429,-2.01173 z m 104.64285,1.12985 c 0,-0.55715 0.1951,-1.52144 0.43357,-2.14285 0.33802,-0.88088 -0.0555,-1.12985 -1.78572,-1.12985 -1.87315,0 -2.21928,0.27033 -2.21928,1.73334 0,1.54622 0.68876,2.10651 3.03572,2.46951 0.29464,0.0456 0.53571,-0.37299 0.53571,-0.93015 z m -97.85714,-1.84413 c 0,-1.76871 -0.29101,-2.14286 -1.66666,-2.14286 -2.16948,0 -2.4845,0.38184 -2.07638,2.51679 0.24718,1.29301 0.79618,1.76893 2.0406,1.76893 1.41541,0 1.70244,-0.36129 1.70244,-2.14286 z m 91.29744,-0.17857 c 0.20308,-1.76494 0.004,-1.96429 -1.96428,-1.96429 -1.96802,0 -2.1903,0.22228 -2.1903,2.1903 0,1.96802 0.19934,2.16737 1.96428,1.96429 1.54284,-0.17752 2.01278,-0.64747 2.1903,-2.1903 z m -84.15458,-0.61902 c 0,-1.96004 -0.19213,-2.17468 -1.60715,-1.79547 -0.88392,0.23688 -1.84821,0.43508 -2.14285,0.44045 -0.66342,0.0121 -0.71025,2.45427 -0.0595,3.10499 0.26188,0.2619 1.22616,0.47619 2.14283,0.47619 1.38952,0 1.66667,-0.37018 1.66667,-2.22616 z m 7.14285,0.0833 c 0,-1.90476 -0.23809,-2.14285 -2.14285,-2.14285 -1.90477,0 -2.14286,0.23809 -2.14286,2.14285 0,1.90477 0.23809,2.14286 2.14286,2.14286 1.90476,0 2.14285,-0.23809 2.14285,-2.14286 z m 62.85715,0 c 0,-1.90476 -0.2381,-2.14285 -2.14286,-2.14285 -1.78982,0 -2.14286,0.28439 -2.14286,1.72619 0,1.75337 0.78621,2.40165 3.03572,2.50313 0.92523,0.0417 1.25,-0.50036 1.25,-2.08647 z m 7.14285,0 c 0,-1.90476 -0.23809,-2.14285 -2.14285,-2.14285 -1.90477,0 -2.14286,0.23809 -2.14286,2.14285 0,1.90477 0.23809,2.14286 2.14286,2.14286 1.90476,0 2.14285,-0.23809 2.14285,-2.14286 z m -62.85714,-0.31498 c 0,-2.0847 -0.93277,-2.79579 -2.86353,-2.18299 -0.9066,0.28774 -1.42218,1.08131 -1.42218,2.18896 0,1.45446 0.34916,1.73758 2.14285,1.73758 1.79571,0 2.14286,-0.28246 2.14286,-1.74355 z m 6.78967,1.02288 c 0.88765,-1.43627 -0.423,-3.56504 -2.19495,-3.56504 -1.45445,0 -1.73758,0.34916 -1.73758,2.14286 0,1.79571 0.28247,2.14285 1.74356,2.14285 0.95896,0 1.94399,-0.3243 2.18897,-0.72067 z m 6.78176,-1.42218 c 0,-1.80953 -0.27778,-2.14286 -1.78571,-2.14286 -1.50794,0 -1.78572,0.33333 -1.78572,2.14286 0,1.80952 0.27778,2.14285 1.78572,2.14285 1.50793,0 1.78571,-0.33333 1.78571,-2.14285 z m 7.14286,0 c 0,-1.90476 -0.2381,-2.14286 -2.14286,-2.14286 -1.76871,0 -2.14286,0.29101 -2.14286,1.66667 0,2.09557 0.52348,2.61904 2.61905,2.61904 1.37566,0 1.66667,-0.37415 1.66667,-2.14285 z m 7.01173,-0.17857 c 0.20307,-1.76495 0.004,-1.96429 -1.96429,-1.96429 -1.81841,0 -2.1903,0.28298 -2.1903,1.66667 0,2.10528 0.62895,2.73423 2.47061,2.4706 0.99327,-0.14218 1.53,-0.83477 1.68398,-2.17298 z m 7.14285,0 c 0.20308,-1.76495 0.004,-1.96429 -1.96428,-1.96429 -1.96802,0 -2.1903,0.22228 -2.1903,2.1903 0,1.96802 0.19934,2.16737 1.96428,1.96429 1.54284,-0.17752 2.01278,-0.64747 2.1903,-2.1903 z m 6.91482,0.89925 c 0.6128,-1.93077 -0.0983,-2.86354 -2.18299,-2.86354 -1.46109,0 -1.74356,0.34715 -1.74356,2.14286 0,1.79369 0.28313,2.14285 1.73758,2.14285 1.10765,0 1.90122,-0.51558 2.18897,-1.42217 z m 6.78774,-0.72068 c 0,-1.80953 -0.27778,-2.14286 -1.78571,-2.14286 -1.50794,0 -1.78572,0.33333 -1.78572,2.14286 0,1.80952 0.27778,2.14285 1.78572,2.14285 1.50793,0 1.78571,-0.33333 1.78571,-2.14285 z"
       id="path4238"
       inkscape:connector-curvature="0" />
    <path
       style="opacity:1;fill:#008080;fill-opacity:0.4321608;fill-rule:nonzero;stroke:#989898;stroke-width:1.78571427;stroke-miterlimit:4;stroke-dasharray:none;stroke-dashoffset:0;stroke-opacity:1"
       d="m 527.41061,282.10614 c -42.16078,-2.54573 -69.73699,-6.92347 -82.87214,-13.15601 -5.58624,-2.65063 -7.89676,-5.01977 -6.83336,-7.00674 4.91075,-9.17584 51.38892,-17.56669 100.6509,-18.17084 l 13.08826,-0.16052 2.72515,7.36103 c 1.49883,4.04856 2.90023,7.53611 3.11422,7.7501 0.90915,0.90915 1.90385,-0.87964 4.42671,-7.96074 l 2.67479,-7.50753 2.94131,0.0129 c 6.2376,0.0272 32.61652,1.43106 40.44131,2.15219 30.80773,2.83924 55.25997,8.128 62.78622,13.57998 3.9379,2.8526 4.24735,3.90247 1.87893,6.37457 -6.40567,6.68607 -33.73716,12.66572 -72.16515,15.78847 -9.08967,0.73865 -64.38857,1.45453 -72.85715,0.94319 z"
       id="path4240"
       inkscape:connector-curvature="0" />
    <path
       style="opacity:1;fill:#008080;fill-opacity:0.4321608;fill-rule:nonzero;stroke:#989898;stroke-width:1.78571427;stroke-miterlimit:4;stroke-dasharray:none;stroke-dashoffset:0;stroke-opacity:1"
       d="m 518.1249,411.7945 c -41.34469,-2.75711 -72.07932,-9.23704 -78.84955,-16.62425 -1.62018,-1.76783 -1.64789,-1.95199 -0.54655,-3.63285 2.4668,-3.76482 15.49581,-8.39869 32.25324,-11.47114 55.34687,-10.14777 150.8718,-7.95856 189.24167,4.33699 10.19167,3.26589 13.97262,5.69534 13.97262,8.97808 0,6.7444 -26.40984,13.67525 -66.42857,17.43314 -14.45117,1.35701 -74.19517,2.01017 -89.64286,0.98003 z"
       id="path4242"
       inkscape:connector-curvature="0" />
    <path
       style="opacity:1;fill:#008080;fill-opacity:0.4321608;fill-rule:nonzero;stroke:#989898;stroke-width:1.78571427;stroke-miterlimit:4;stroke-dasharray:none;stroke-dashoffset:0;stroke-opacity:1"
       d="m 557.05347,334.17163 c 0,-0.28151 0.53538,-1.91369 1.18972,-3.62708 l 1.18973,-3.11525 1.30969,3.44851 c 0.72034,1.89668 1.30996,3.52887 1.31028,3.62708 3.2e-4,0.0982 -1.12442,0.17857 -2.49942,0.17857 -1.375,0 -2.5,-0.23032 -2.5,-0.51183 z"
       id="path4244"
       inkscape:connector-curvature="0" />
  </g>
</svg>
