<?xml version="1.0" encoding="UTF-8" standalone="no"?>
<!-- Created with Inkscape (http://www.inkscape.org/) -->

<svg
   xmlns:dc="http://purl.org/dc/elements/1.1/"
   xmlns:cc="http://creativecommons.org/ns#"
   xmlns:rdf="http://www.w3.org/1999/02/22-rdf-syntax-ns#"
   xmlns:svg="http://www.w3.org/2000/svg"
   xmlns="http://www.w3.org/2000/svg"
   xmlns:xlink="http://www.w3.org/1999/xlink"
   xmlns:sodipodi="http://sodipodi.sourceforge.net/DTD/sodipodi-0.dtd"
   xmlns:inkscape="http://www.inkscape.org/namespaces/inkscape"
   width="28.756779mm"
   height="46.916847mm"
   viewBox="0 0 101.8941 166.2408"
   id="svg2"
   version="1.1"
   inkscape:version="0.91 r13725"
   sodipodi:docname="esponjas.svg">
  <defs
     id="defs4">
    <pattern
       inkscape:stockid="Stripes 1:8"
       id="Strips1_8"
       patternTransform="translate(0,0) scale(10,10)"
       height="1"
       width="9"
       patternUnits="userSpaceOnUse"
       inkscape:collect="always">
      <rect
         id="rect5576"
         height="2"
         width="1"
         y="-0.5"
         x="0"
         style="fill:black;stroke:none" />
    </pattern>
    <inkscape:perspective
       sodipodi:type="inkscape:persp3d"
       inkscape:vp_x="0 : 526.18111 : 1"
       inkscape:vp_y="0 : 1000 : 0"
       inkscape:vp_z="744.0945 : 526.1811 : 1"
       inkscape:persp3d-origin="372.04725 : 350.78741 : 1"
       id="perspective8014" />
    <pattern
       inkscape:collect="always"
       xlink:href="#Strips1_1"
       id="pattern7309"
       patternTransform="matrix(10,0,0,10,-215.65728,-215.96315)" />
    <pattern
       inkscape:isstock="true"
       inkscape:stockid="Stripes 1:1"
       id="Strips1_1"
       patternTransform="translate(0,0) scale(10,10)"
       height="1"
       width="2"
       patternUnits="userSpaceOnUse"
       inkscape:collect="always">
      <rect
         id="rect5540"
         height="2"
         width="1"
         y="-0.5"
         x="0"
         style="fill:black;stroke:none" />
    </pattern>
    <marker
       inkscape:isstock="true"
       style="overflow:visible"
       id="marker9715"
       refX="0"
       refY="0"
       orient="auto"
       inkscape:stockid="Arrow1Lend">
      <path
         transform="matrix(-0.8,0,0,-0.8,-10,0)"
         style="fill:#000000;fill-opacity:1;fill-rule:evenodd;stroke:#000000;stroke-width:1pt;stroke-opacity:1"
         d="M 0,0 5,-5 -12.5,0 5,5 0,0 Z"
         id="path9717"
         inkscape:connector-curvature="0" />
    </marker>
    <marker
       inkscape:stockid="Arrow1Lend"
       orient="auto"
       refY="0"
       refX="0"
       id="marker5539"
       style="overflow:visible"
       inkscape:isstock="true">
      <path
         id="path5541"
         d="M 0,0 5,-5 -12.5,0 5,5 0,0 Z"
         style="fill:#000000;fill-opacity:1;fill-rule:evenodd;stroke:#000000;stroke-width:1pt;stroke-opacity:1"
         transform="matrix(-0.8,0,0,-0.8,-10,0)"
         inkscape:connector-curvature="0" />
    </marker>
    <marker
       inkscape:stockid="Arrow1Lend"
       orient="auto"
       refY="0"
       refX="0"
       id="Arrow1Lend"
       style="overflow:visible"
       inkscape:isstock="true">
      <path
         id="path5246"
         d="M 0,0 5,-5 -12.5,0 5,5 0,0 Z"
         style="fill:#000000;fill-opacity:1;fill-rule:evenodd;stroke:#000000;stroke-width:1pt;stroke-opacity:1"
         transform="matrix(-0.8,0,0,-0.8,-10,0)"
         inkscape:connector-curvature="0" />
    </marker>
    <marker
       inkscape:stockid="Arrow1Lend"
       orient="auto"
       refY="0"
       refX="0"
       id="marker5539-1"
       style="overflow:visible"
       inkscape:isstock="true">
      <path
         inkscape:connector-curvature="0"
         id="path5541-2"
         d="M 0,0 5,-5 -12.5,0 5,5 0,0 Z"
         style="fill:#000000;fill-opacity:1;fill-rule:evenodd;stroke:#000000;stroke-width:1pt;stroke-opacity:1"
         transform="matrix(-0.8,0,0,-0.8,-10,0)" />
    </marker>
    <marker
       inkscape:isstock="true"
       style="overflow:visible"
       id="marker9715-5"
       refX="0"
       refY="0"
       orient="auto"
       inkscape:stockid="Arrow1Lend">
      <path
         inkscape:connector-curvature="0"
         transform="matrix(-0.8,0,0,-0.8,-10,0)"
         style="fill:#000000;fill-opacity:1;fill-rule:evenodd;stroke:#000000;stroke-width:1pt;stroke-opacity:1"
         d="M 0,0 5,-5 -12.5,0 5,5 0,0 Z"
         id="path9717-2" />
    </marker>
    <marker
       inkscape:isstock="true"
       style="overflow:visible"
       id="marker9715-9"
       refX="0"
       refY="0"
       orient="auto"
       inkscape:stockid="Arrow1Lend">
      <path
         inkscape:connector-curvature="0"
         transform="matrix(-0.8,0,0,-0.8,-10,0)"
         style="fill:#000000;fill-opacity:1;fill-rule:evenodd;stroke:#000000;stroke-width:1pt;stroke-opacity:1"
         d="M 0,0 5,-5 -12.5,0 5,5 0,0 Z"
         id="path9717-4" />
    </marker>
    <pattern
       patternUnits="userSpaceOnUse"
       width="97.846966"
       height="64.924747"
       patternTransform="translate(215.65728,215.96315)"
       id="pattern7306">
      <path
         sodipodi:nodetypes="ccccc"
         inkscape:connector-curvature="0"
         id="path7235"
         d="M 97.092717,0.89905428 1.3427171,61.399054 l 15.9999999,3 80,-46.5 z"
         style="opacity:0.33000004;fill:url(#pattern7309);fill-opacity:1;fill-rule:evenodd;stroke:#000000;stroke-width:1px;stroke-linecap:butt;stroke-linejoin:miter;stroke-opacity:1" />
    </pattern>
    <pattern
       patternUnits="userSpaceOnUse"
       width="99.785896"
       height="84.853156"
       patternTransform="translate(214.7141,170.40425)"
       id="pattern7410">
      <path
         inkscape:connector-curvature="0"
         id="path7233"
         d="M 0.28589633,69.957945 99.285896,0.95794501 l 0,18.99999999 -95.9999997,64 -1,-15"
         style="fill:none;fill-rule:evenodd;stroke:#000000;stroke-width:1px;stroke-linecap:butt;stroke-linejoin:miter;stroke-opacity:1" />
    </pattern>
    <pattern
       patternUnits="userSpaceOnUse"
       width="95.536041"
       height="80.020847"
       patternTransform="translate(225.46336,299.25632)"
       id="pattern7421">
      <path
         inkscape:connector-curvature="0"
         id="path7419"
         d="m 0.91821031,78.702378 c -0.20542,-1.33041 -0.9317,-12.43024 -0.81777,-12.49803 0.0409,-0.0243 10.81359969,-7.52406 23.93926969,-16.66601 34.36523,-23.93519 70.6965,-49.20790005 71.08433,-49.44759005 0.20551,-0.12701 0.32959,3.09152005 0.32339,8.38845005 l -0.0101,8.59454 -46.16607,30.75914 C 23.87992,64.750408 2.6537903,78.880328 2.1020903,79.232708 l -1.0031,0.64068 -0.18080999,-1.17101 z"
         style="opacity:0.33000004;fill:#000000;fill-opacity:1;fill-rule:nonzero;stroke:#000000;stroke-width:0.17677669;stroke-miterlimit:4;stroke-dasharray:none;stroke-dashoffset:0;stroke-opacity:1" />
    </pattern>
    <pattern
       patternTransform="matrix(10,0,0,10,149.19952,2.0369997e-6)"
       id="pattern8127"
       xlink:href="#Strips1_8-5"
       inkscape:collect="always" />
    <pattern
       inkscape:stockid="Stripes 1:8"
       id="Strips1_8-5"
       patternTransform="translate(0,0) scale(10,10)"
       height="1"
       width="9"
       patternUnits="userSpaceOnUse"
       inkscape:collect="always">
      <rect
         id="rect5576-4"
         height="2"
         width="1"
         y="-0.5"
         x="0"
         style="fill:black;stroke:none" />
    </pattern>
    <pattern
       patternTransform="matrix(10,0,0,10,287.4389,-3.5355324)"
       id="pattern8192"
       xlink:href="#Strips1_8-3"
       inkscape:collect="always" />
    <pattern
       inkscape:stockid="Stripes 1:8"
       id="Strips1_8-3"
       patternTransform="translate(0,0) scale(10,10)"
       height="1"
       width="9"
       patternUnits="userSpaceOnUse"
       inkscape:collect="always">
      <rect
         id="rect5576-0"
         height="2"
         width="1"
         y="-0.5"
         x="0"
         style="fill:black;stroke:none" />
    </pattern>
  </defs>
  <sodipodi:namedview
     id="base"
     pagecolor="#ffffff"
     bordercolor="#666666"
     borderopacity="1.0"
     inkscape:pageopacity="0.0"
     inkscape:pageshadow="2"
     inkscape:zoom="1.4142136"
     inkscape:cx="-290.67104"
     inkscape:cy="39.440549"
     inkscape:document-units="px"
     inkscape:current-layer="layer2"
     showgrid="false"
     inkscape:window-width="1855"
     inkscape:window-height="1056"
     inkscape:window-x="65"
     inkscape:window-y="24"
     inkscape:window-maximized="1"
     fit-margin-top="0"
     fit-margin-left="0"
     fit-margin-right="0"
     fit-margin-bottom="0" />
  <metadata
     id="metadata7">
    <rdf:RDF>
      <cc:Work
         rdf:about="">
        <dc:format>image/svg+xml</dc:format>
        <dc:type
           rdf:resource="http://purl.org/dc/dcmitype/StillImage" />
        <dc:title></dc:title>
      </cc:Work>
    </rdf:RDF>
  </metadata>
  <g
     inkscape:label="Layer 1"
     inkscape:groupmode="layer"
     id="layer1"
     transform="translate(-550.09371,-221.12283)">
    <path
       style="opacity:1;fill:#999999;fill-opacity:0.53500001;fill-rule:nonzero;stroke:#000000;stroke-width:0.33587572;stroke-miterlimit:4;stroke-dasharray:none;stroke-dashoffset:0;stroke-opacity:0.40500004"
       d=""
       id="path8906"
       inkscape:connector-curvature="0" />
  </g>
  <g
     inkscape:groupmode="layer"
     id="layer2"
     inkscape:label="Layer 2"
     transform="translate(-550.09371,-221.12283)">
    <path
       style="opacity:0.33000004;fill:#000000;fill-opacity:1;fill-rule:nonzero;stroke:#000000;stroke-width:0.17677669;stroke-miterlimit:4;stroke-dasharray:none;stroke-dashoffset:0;stroke-opacity:1"
       d=""
       id="path7415"
       inkscape:connector-curvature="0" />
    <path
       style="opacity:0.58999999;fill:#000000;fill-opacity:1;fill-rule:nonzero;stroke:#000000;stroke-width:0.0375;stroke-miterlimit:4;stroke-dasharray:none;stroke-dashoffset:0;stroke-opacity:1"
       d=""
       id="path7729"
       inkscape:connector-curvature="0" />
    <path
       style="opacity:0.58999999;fill:#000000;fill-opacity:1;fill-rule:nonzero;stroke:#000000;stroke-width:0.0375;stroke-miterlimit:4;stroke-dasharray:none;stroke-dashoffset:0;stroke-opacity:1"
       d=""
       id="path7741"
       inkscape:connector-curvature="0" />
    <path
       style="opacity:0.58999999;fill:#000000;fill-opacity:1;fill-rule:nonzero;stroke:#000000;stroke-width:0.0375;stroke-miterlimit:4;stroke-dasharray:none;stroke-dashoffset:0;stroke-opacity:1"
       d=""
       id="path7753"
       inkscape:connector-curvature="0" />
    <path
       style="opacity:0.58999999;fill:#000000;fill-opacity:1;fill-rule:nonzero;stroke:#000000;stroke-width:0.0375;stroke-miterlimit:4;stroke-dasharray:none;stroke-dashoffset:0;stroke-opacity:1"
       d=""
       id="path7767"
       inkscape:connector-curvature="0" />
    <path
       style="opacity:0.58999999;fill:#000000;fill-opacity:1;fill-rule:nonzero;stroke:#000000;stroke-width:0.075;stroke-miterlimit:4;stroke-dasharray:none;stroke-dashoffset:0;stroke-opacity:1"
       d=""
       id="path7807"
       inkscape:connector-curvature="0" />
    <path
       style="opacity:0.58999999;fill:#000000;fill-opacity:1;fill-rule:nonzero;stroke:#000000;stroke-width:0.075;stroke-miterlimit:4;stroke-dasharray:none;stroke-dashoffset:0;stroke-opacity:1"
       d=""
       id="path7823"
       inkscape:connector-curvature="0" />
    <path
       style="opacity:0.58999999;fill:#000000;fill-opacity:1;fill-rule:nonzero;stroke:#000000;stroke-width:0.075;stroke-miterlimit:4;stroke-dasharray:none;stroke-dashoffset:0;stroke-opacity:1"
       d=""
       id="path7827"
       inkscape:connector-curvature="0" />
    <path
       style="opacity:0.58999999;fill:#000000;fill-opacity:1;fill-rule:nonzero;stroke:#000000;stroke-width:0.075;stroke-miterlimit:4;stroke-dasharray:none;stroke-dashoffset:0;stroke-opacity:1"
       d=""
       id="path7829"
       inkscape:connector-curvature="0" />
    <path
       style="opacity:0.58999999;fill:#000000;fill-opacity:1;fill-rule:nonzero;stroke:#000000;stroke-width:0.0375;stroke-miterlimit:4;stroke-dasharray:none;stroke-dashoffset:0;stroke-opacity:1"
       d=""
       id="path7841"
       inkscape:connector-curvature="0" />
    <rect
       style="opacity:0.58999999;fill:#cccccc;fill-opacity:1;fill-rule:nonzero;stroke:url(#Strips1_8);stroke-width:0.1;stroke-miterlimit:4;stroke-dasharray:none;stroke-dashoffset:0;stroke-opacity:1"
       id="rect8030"
       width="101.82338"
       height="166.8772"
       x="114.5513"
       y="220.80463" />
    <path
       style="opacity:0.58999999;fill:#cccccc;fill-opacity:1;fill-rule:nonzero;stroke:#f9f9f9;stroke-width:0.07071068;stroke-miterlimit:4;stroke-dasharray:none;stroke-dashoffset:0;stroke-opacity:1"
       d="m 114.55236,304.52753 0,-83.08504 50.91169,0 50.91169,0 0,83.08504 0,83.08505 -50.91169,0 -50.91169,0 0,-83.08505 z"
       id="path8097"
       inkscape:connector-curvature="0" />
    <rect
       style="opacity:0.58999999;fill:#cccccc;fill-opacity:1;fill-rule:nonzero;stroke:url(#pattern8127);stroke-width:0.1;stroke-miterlimit:4;stroke-dasharray:none;stroke-dashoffset:0;stroke-opacity:1"
       id="rect8030-7"
       width="101.82338"
       height="166.8772"
       x="263.75082"
       y="220.80463" />
    <path
       style="opacity:0.58999999;fill:#cccccc;fill-opacity:1;fill-rule:nonzero;stroke:#f9f9f9;stroke-width:0.07071068;stroke-miterlimit:4;stroke-dasharray:none;stroke-dashoffset:0;stroke-opacity:1"
       d="m 263.75188,304.52753 0,-83.08504 50.91169,0 50.91169,0 0,83.08504 0,83.08505 -50.91169,0 -50.91169,0 0,-83.08505 z"
       id="path8097-4"
       inkscape:connector-curvature="0" />
    <path
       style="fill:#909090;fill-opacity:1;fill-rule:evenodd;stroke:#626262;stroke-width:1px;stroke-linecap:butt;stroke-linejoin:miter;stroke-opacity:1"
       d="m 263.75,331.3622 0.25,21.25 102.25,-44 -1,-18.5 z"
       id="path8145"
       inkscape:connector-curvature="0" />
    <path
       style="fill:#999999;fill-opacity:1;fill-rule:evenodd;stroke:#737373;stroke-width:1px;stroke-linecap:butt;stroke-linejoin:miter;stroke-opacity:1"
       d="m 263.22868,270.38839 0.25,21.25 102.25,-44 -1,-18.5 z"
       id="path8145-4"
       inkscape:connector-curvature="0" />
    <path
       style="fill:none;fill-rule:evenodd;stroke:#000000;stroke-width:1px;stroke-linecap:butt;stroke-linejoin:miter;stroke-opacity:1"
       d="m 315.89995,305.30389 c -0.43646,-0.19846 -0.79475,-0.17678 -1.23743,-0.17678 -0.0589,0 -0.12088,-0.0186 -0.17678,0 -0.125,0.0417 -0.22855,0.13511 -0.35355,0.17678 -0.0559,0.0186 -0.12407,-0.0264 -0.17678,0 -0.0745,0.0373 -0.10224,0.13951 -0.17678,0.17678 -0.10943,0.0547 -0.94483,-0.0579 -1.06066,0 -0.0745,0.0373 -0.11785,0.11785 -0.17677,0.17677 -0.11785,0.11785 -0.2357,0.23571 -0.35356,0.35356 -0.42465,0.42465 -0.35355,0.17628 -0.35355,0.88388 0,0.0589 -0.0263,0.12407 0,0.17678 0.0373,0.0745 0.13055,0.10744 0.17678,0.17677 0.0731,0.10964 0.10369,0.24392 0.17677,0.35356 0.0462,0.0693 0.11786,0.11785 0.17678,0.17677 0.0589,0.0589 0.10224,0.13951 0.17678,0.17678 0.0527,0.0264 0.12407,-0.0263 0.17677,0 0.0745,0.0373 0.10225,0.13951 0.17678,0.17678 0.10541,0.0527 0.24815,-0.0527 0.35355,0 0.0745,0.0373 0.10225,0.13951 0.17678,0.17677 0.14142,0.0707 0.38891,-0.0707 0.53033,0 0.18858,0.0943 0.16497,0.25927 0.35355,0.35356 0.0527,0.0264 0.12408,-0.0264 0.17678,0 0.0745,0.0373 0.10224,0.13951 0.17678,0.17677 0.0935,0.0467 0.62098,-0.0215 0.7071,0 0.3655,0.0914 0.63601,0.45923 0.88389,0.70711 0.13808,0.13808 0.42863,0.37779 0.53033,0.53033 0.43425,0.063 0.0734,0.37529 0.17677,0.53033 0.0925,0.13868 0.26111,0.21488 0.35356,0.35355 0.0111,0.0167 0.01,0.65727 0,0.70711 -0.0476,0.23824 -0.12913,0.46887 -0.17678,0.70711 -0.0442,0.22097 0.0884,0.26516 0,0.53033 -0.0263,0.079 -0.13951,0.10224 -0.17678,0.17677 -0.0263,0.0527 0.0264,0.12408 0,0.17678 -0.0373,0.0745 -0.15042,0.0977 -0.17677,0.17678 -0.0745,0.2236 0.0745,0.4835 0,0.7071 -0.0399,0.11971 -0.46281,0.3953 -0.53033,0.53033 -0.0507,0.1015 0.0474,0.91833 0,1.06066 -0.0263,0.0791 -0.13951,0.10225 -0.17678,0.17678 -0.0263,0.0527 0,0.11785 0,0.17678 0,0.11785 0,0.2357 0,0.35355 0,0.41248 0,0.82496 0,1.23744 0,0.53033 0,1.06066 0,1.59099 0,0.14967 -0.0317,0.61207 0,0.70711 0.0527,0.15811 0.27902,0.20448 0.35355,0.35355 0.0264,0.0527 0,0.11785 0,0.17678 0,0.11785 -0.0286,0.23922 0,0.35355 0.032,0.12783 0.13511,0.22855 0.17678,0.35355 0.0186,0.0559 0,0.11785 0,0.17678 0,0.11785 0,0.2357 0,0.35355 0,0.11785 -0.0286,0.23922 0,0.35356 0.032,0.12782 0.13511,0.22855 0.17678,0.35355 0.0186,0.0559 -0.0186,0.12087 0,0.17678 0.0417,0.125 0.13511,0.22855 0.17677,0.35355 0.0186,0.0559 -0.0263,0.12407 0,0.17678 0.095,0.19003 0.25854,0.3403 0.35356,0.53033 0.0264,0.0527 -0.0186,0.12087 0,0.17677 0.0417,0.125 0.14482,0.22573 0.17678,0.35356 0.0286,0.11433 -0.0286,0.23922 0,0.35355 0.0319,0.12783 0.14481,0.22573 0.17677,0.35355 0.0215,0.0861 -0.0467,0.61364 0,0.70711 0.0373,0.0745 0.15043,0.0977 0.17678,0.17678 0.028,0.0841 -0.0365,0.82921 0,0.88388 0.0925,0.13868 0.2611,0.21488 0.35355,0.35355 0.0327,0.049 0,0.11785 0,0.17678 0,0.11785 0,0.2357 0,0.35355 0,0.41248 0,0.82496 0,1.23744 0,0.0589 0.0263,0.12407 0,0.17678 -0.10606,0.21213 -0.42426,0.3182 -0.53033,0.53033 -0.0527,0.10541 0.0373,0.24175 0,0.35355 -0.42682,1.28047 0.051,-0.27871 -0.35355,0.53033 -0.0263,0.0527 0.0264,0.12407 0,0.17678 -0.0675,0.13503 -0.49043,0.41062 -0.53033,0.53033 -0.25513,0.76537 0.33794,-0.065 -0.17678,0.7071 -0.10728,0.16093 -0.45199,0.37365 -0.53033,0.53033 -0.0263,0.0527 0.0186,0.12088 0,0.17678 -0.0417,0.125 -0.14482,0.22573 -0.17678,0.35355 -0.0286,0.11434 0,0.23571 0,0.35356 0,0.0589 0.0327,0.12775 0,0.17677 -0.0924,0.13868 -0.27901,0.20449 -0.35355,0.35356 -0.0527,0.10541 0.0286,0.23922 0,0.35355 -0.032,0.12783 -0.13511,0.22855 -0.17678,0.35355 -0.0186,0.0559 0.0143,0.11962 0,0.17678 -0.19541,0.78164 -0.17677,0.2822 -0.17677,0.70711"
       id="path8174"
       inkscape:connector-curvature="0" />
    <path
       style="fill:none;fill-rule:evenodd;stroke:#000000;stroke-width:1px;stroke-linecap:butt;stroke-linejoin:miter;stroke-opacity:1"
       d="m 333.57762,236.36098 c -0.0589,0.29463 -0.11785,0.58925 -0.17677,0.88388 0,0.17678 0.0291,0.35596 0,0.53033 -0.0306,0.18381 -0.14024,0.34761 -0.17678,0.53033 -0.0884,0.44194 0.17678,0.53033 0,1.06066 -0.0527,0.15812 -0.2357,0.2357 -0.35355,0.35356 -0.0589,0.17677 -0.12559,0.35116 -0.17678,0.53033 -0.0667,0.2336 -0.13683,0.46745 -0.17678,0.7071 -0.21868,1.31209 0.47941,-1.23598 -0.17677,1.06066 -0.10239,0.35834 -0.29229,0.69306 -0.35356,1.06066 -0.0291,0.17437 0,0.35356 0,0.53033 0,0.17678 0,0.35356 0,0.53033 0,0.47141 0,0.94281 0,1.41422 0,0.41248 0,0.82495 0,1.23743 0,0.17678 0,0.35356 0,0.53033 0,0.0589 -0.0143,0.11961 0,0.17678 0.25986,1.03944 0.0197,0.20624 0.35356,0.70711 0.0731,0.10963 0.0977,0.24814 0.17677,0.35355 0.2,0.26667 0.52221,0.42976 0.70711,0.70711 0.0327,0.049 -0.0143,0.11961 0,0.17677 0.0452,0.18078 0.0934,0.36367 0.17678,0.53033 0.0745,0.14908 0.30085,0.19544 0.35355,0.35356 0.0373,0.1118 -0.0286,0.23922 0,0.35355 0.032,0.12783 0.11785,0.2357 0.17678,0.35355 0.0589,0.17678 0.14023,0.34761 0.17677,0.53033 0.0578,0.28891 -0.0578,0.59498 0,0.88389 0.0258,0.1292 0.15094,0.22435 0.17678,0.35355 0.0347,0.17335 0,0.35355 0,0.53033 0,0.17678 0,0.35355 0,0.53033 0,2.5338 0,5.0676 0,7.6014 0,0.70711 0,1.41421 0,2.12132 0,0.19647 -0.0345,1.31078 0,1.41421 0.0417,0.125 0.11785,0.23571 0.17678,0.35356"
       id="path8176"
       inkscape:connector-curvature="0" />
    <path
       style="fill:none;fill-rule:evenodd;stroke:#000000;stroke-width:1px;stroke-linecap:butt;stroke-linejoin:miter;stroke-opacity:1"
       d="m 291.85832,257.92774 c -0.11596,0.57984 -0.26074,1.00324 -0.17677,1.59099 0.0263,0.18446 0.1562,0.34513 0.17677,0.53033 0.0391,0.35139 -0.0467,0.7102 0,1.06066 0.0718,0.5385 0.27095,1.05404 0.35356,1.59099 0.0806,0.52416 -0.0658,1.06475 0,1.59099 0.0231,0.1849 0.14614,0.34652 0.17677,0.53033 0.0693,0.41599 -0.0813,1.0077 0,1.41421 0.16164,0.80818 0.19704,-0.12612 0.53033,0.70711 0.0657,0.16413 0,0.35355 0,0.53033 0,0.2357 -0.0387,0.47461 0,0.7071 0.0217,0.12997 0.15512,0.22359 0.17678,0.35356 0.0387,0.23249 0,0.4714 0,0.7071 0,0.17678 0,0.35356 0,0.53033 0,0.94281 0,1.88562 0,2.82843 0,0.2357 0,0.47141 0,0.70711 0,0.11785 0,0.2357 0,0.35355 0,0.0589 -0.0143,0.11961 0,0.17678 0.0452,0.18077 0.13158,0.34955 0.17678,0.53033 0.0143,0.0572 0,0.11785 0,0.17677 0,0.17678 0,0.35356 0,0.53033 0,0.29463 0,0.58926 0,0.88389 0,1.23744 0,2.47487 0,3.71231 0,0.53033 0,1.06066 0,1.59099 0,0.17678 -0.0383,0.35776 0,0.53033 0.19684,0.88577 0.41542,0.96338 0.53033,1.76777 0.025,0.175 0,0.35355 0,0.53033 0,0.0589 -0.0263,0.12407 0,0.17677 0.26011,0.52022 0.17677,-0.2744 0.17677,0.53033"
       id="path8178"
       inkscape:connector-curvature="0" />
    <rect
       style="opacity:0.58999999;fill:#666666;fill-opacity:1;fill-rule:nonzero;stroke:url(#pattern8192);stroke-width:0.1;stroke-miterlimit:4;stroke-dasharray:none;stroke-dashoffset:0;stroke-opacity:1"
       id="rect8030-78"
       width="101.82338"
       height="166.8772"
       x="401.9902"
       y="217.2691" />
    <path
       style="opacity:0.58999999;fill:#666666;fill-opacity:1;fill-rule:nonzero;stroke:#f9f9f9;stroke-width:0.07071068;stroke-miterlimit:4;stroke-dasharray:none;stroke-dashoffset:0;stroke-opacity:1"
       d="m 401.99126,300.992 0,-83.08504 50.91169,0 50.91169,0 0,83.08504 0,83.08505 -50.91169,0 -50.91169,0 0,-83.08505 z"
       id="path8097-6"
       inkscape:connector-curvature="0" />
    <path
       style="fill:none;fill-rule:evenodd;stroke:#000000;stroke-width:1px;stroke-linecap:butt;stroke-linejoin:miter;stroke-opacity:1"
       d="m 435.22422,260.40261 c -0.25832,0.92143 0.155,1.89845 0,2.82843 -0.0613,0.3676 -0.28046,0.69522 -0.35355,1.06066 -0.0462,0.23112 0.0462,0.47598 0,0.7071 -0.36785,1.83926 -0.2357,0.35356 -0.70711,1.76777 -0.0745,0.22361 0,0.47141 0,0.70711 0,0.58925 0,1.17851 0,1.76776 0,0.12045 -0.0638,1.22287 0,1.41422 0.0833,0.25 0.23571,0.4714 0.35356,0.7071 0.11785,0.23571 0.20737,0.48785 0.35355,0.70711 0.21456,0.32185 0.90398,0.74729 1.06066,1.06066 0.10541,0.21082 -0.10541,0.49629 0,0.70711 0.0745,0.14907 0.27902,0.20448 0.35355,0.35355 0.0527,0.10541 0,0.2357 0,0.35356 0,0.2357 0,0.4714 0,0.7071 0,0.82496 0,1.64992 0,2.47488 0,0.30345 0.0627,2.64024 0,2.82842 -0.10489,0.31469 -0.95576,0.74597 -1.06066,1.06066 -0.43688,1.31066 0.4756,0.23152 -0.35355,1.06066"
       id="path8208"
       inkscape:connector-curvature="0" />
    <path
       style="fill:none;fill-rule:evenodd;stroke:#000000;stroke-width:1px;stroke-linecap:butt;stroke-linejoin:miter;stroke-opacity:1"
       d="m 467.39758,240.95717 c 0,1.64992 0,3.29983 0,4.94975 0,0.2357 0.0462,0.47598 0,0.70711 -0.0731,0.36544 -0.28046,0.69522 -0.35355,1.06066 -0.11556,0.57781 0.0833,1.18443 0,1.76776 -0.0687,0.48103 -0.27367,0.93492 -0.35355,1.41422 -0.0387,0.23249 0,0.4714 0,0.7071 0,0.35356 0,0.70711 0,1.06066 0,0.82496 0,1.64992 0,2.47488 0,0.94281 0,1.88562 0,2.82843 0,0.2357 -0.10541,0.49628 0,0.7071 0.14907,0.29815 0.55803,0.40897 0.7071,0.70711 0.10541,0.21082 -0.0745,0.4835 0,0.70711 0.0527,0.15811 0.27902,0.20448 0.35356,0.35355 0.0527,0.10541 0,0.2357 0,0.35355 0,0.23571 -0.0745,0.4835 0,0.70711 0.0527,0.15811 0.27901,0.20448 0.35355,0.35355 0.0527,0.10541 0.11785,0.35356 0,0.35356 -0.11785,0 0,-0.47141 0,-0.35356 0,0.23571 0.13074,0.51099 0,0.70711 -0.14618,0.21926 -0.49629,0.19544 -0.70711,0.35355 -0.26666,0.2 -0.4714,0.47141 -0.7071,0.70711 -0.11786,0.11785 -0.20449,0.27902 -0.35356,0.35355 -0.10541,0.0527 -0.24814,-0.0527 -0.35355,0 -0.29814,0.14907 -0.42976,0.52221 -0.70711,0.70711 -0.21926,0.14618 -0.4714,0.2357 -0.7071,0.35355"
       id="path8210"
       inkscape:connector-curvature="0" />
    <path
       style="fill:none;fill-rule:evenodd;stroke:#000000;stroke-width:1px;stroke-linecap:butt;stroke-linejoin:miter;stroke-opacity:1"
       d="m 459.61941,301.76836 c 0,2.35702 0,4.71404 0,7.07106 0,0.35356 0,0.70711 0,1.06066 0,0.35356 -0.11181,0.72525 0,1.06066 0.13437,0.40312 0.51708,0.68061 0.7071,1.06066 0.0527,0.10541 -0.0286,0.23923 0,0.35356 0.18078,0.7231 0.58458,1.3861 0.70711,2.12132 0.22682,1.36094 -0.39749,0.97279 0.35355,2.47487 0.14908,0.29814 0.55804,0.40897 0.70711,0.70711 0.21731,0.43461 0.2357,0.94281 0.35356,1.41421 0.4393,1.75721 0.35355,0.9283 0.35355,2.47488 0,0.35355 0,0.7071 0,1.06066 0,0.2357 -0.0572,0.47844 0,0.7071 0.40626,1.62504 0.35355,0.0802 0.35355,1.06066 0,0.40541 0.0916,1.04797 0,1.41422 -0.0639,0.25565 -0.2357,0.4714 -0.35355,0.7071 -0.50263,1.00525 -0.16722,0.52077 -1.06066,1.41422 -0.45511,0.45511 -0.76739,0.84505 -1.41422,1.06066 -0.1118,0.0373 -0.35355,0.11785 -0.35355,0 0,-0.11785 0.2357,0 0.35355,0"
       id="path8212"
       inkscape:connector-curvature="0" />
    <path
       style="fill:none;fill-rule:evenodd;stroke:#000000;stroke-width:1px;stroke-linecap:butt;stroke-linejoin:miter;stroke-opacity:1"
       d="m 417.193,310.60719 c 0,1.17851 0,2.35702 0,3.53553 0,0.47141 0.0667,0.94755 0,1.41422 -0.0527,0.36893 -0.29228,0.69305 -0.35355,1.06066 -0.0747,0.44805 0,2.77688 0,3.18198 0,1.88562 0,3.77124 0,5.65685 0,1.06066 0,2.12132 0,3.18198 0,0.58926 -0.0731,1.18307 0,1.76777 0.0462,0.3698 0.29228,0.69305 0.35355,1.06066 0.0581,0.34874 0,0.70711 0,1.06066 0,1.17851 0,2.35702 0,3.53554 0,0.13976 0.0755,1.61677 0,1.76776 -0.0745,0.14907 -0.27902,0.20448 -0.35355,0.35356 -0.0527,0.1054 0.0527,0.24814 0,0.35355 -0.0745,0.14907 -0.27902,0.20448 -0.35356,0.35355 -0.0527,0.10541 0.0527,0.24815 0,0.35356 -0.0745,0.14907 -0.2611,0.21487 -0.35355,0.35355 -0.14618,0.21926 -0.19544,0.49629 -0.35355,0.70711 -0.11357,0.15141 -1.30704,1.19985 -1.41422,1.41421 -0.0527,0.10541 0.0286,0.23922 0,0.35355 -0.42809,1.71236 -0.35355,0.41724 -0.35355,1.76777"
       id="path8214"
       inkscape:connector-curvature="0" />
    <path
       style="fill:none;fill-rule:evenodd;stroke:#000000;stroke-width:1px;stroke-linecap:butt;stroke-linejoin:miter;stroke-opacity:1"
       d="m 482.95393,339.24502 c 0,3.29983 0,6.59966 0,9.89949 0,0.47141 0,0.94281 0,1.41421 0,0.47141 -0.0585,0.94645 0,1.41422 0.0603,0.48216 0.28484,0.93318 0.35356,1.41421 0.05,0.35 -0.05,0.71066 0,1.06066 0.0687,0.48103 0.29328,0.93205 0.35355,1.41422 0.0585,0.46776 0,0.9428 0,1.41421 0.11785,0.4714 0.27367,0.93491 0.35355,1.41421 0.11625,0.69749 -0.1,1.42132 0,2.12132 -0.15126,0.72457 0.60277,1.14176 0.70711,1.76777 0.0775,0.46499 0,0.94281 0,1.41421 0,0.23571 -0.0745,0.4835 0,0.70711 0.0527,0.15811 0.30085,0.19544 0.35355,0.35355 0.0597,0.1792 0,2.18585 0,2.47488"
       id="path8216"
       inkscape:connector-curvature="0" />
    <path
       style="fill:none;fill-rule:evenodd;stroke:#000000;stroke-width:1px;stroke-linecap:butt;stroke-linejoin:miter;stroke-opacity:1"
       d="m 443.0024,346.66964 c -0.78164,2.34492 -0.70711,1.37596 -0.70711,2.82842 0,0.35356 0.05,0.71066 0,1.06066 -0.0687,0.48103 -0.27367,0.93492 -0.35355,1.41422 -0.0387,0.23249 0.0462,0.47598 0,0.7071 -0.0731,0.36545 -0.28047,0.69522 -0.35356,1.06066 -0.0766,0.38288 0,2.09694 0,2.47488 0,1.76777 0,3.53553 0,5.3033 0,0.4714 0,0.94281 0,1.41421 0,0.35356 0.05,0.71066 0,1.06066 -0.0687,0.48103 -0.28483,0.93319 -0.35355,1.41422 -0.05,0.35 0.1118,0.72525 0,1.06066 -0.13437,0.40311 -0.54929,0.66613 -0.70711,1.06066 -0.2357,0.58925 0.11786,0.58925 0,1.06066 -0.32475,1.29903 -0.35355,0.74807 -0.35355,1.76776"
       id="path8218"
       inkscape:connector-curvature="0" />
    <path
       style="fill:none;fill-rule:evenodd;stroke:#000000;stroke-width:1px;stroke-linecap:butt;stroke-linejoin:miter;stroke-opacity:1"
       d="m 420.37498,235.65387 c 0,0.94281 0,1.88562 0,2.82843 0,0.4714 -0.0585,0.94645 0,1.41421 0.0603,0.48216 0.29989,0.93128 0.35355,1.41422 0.0911,0.81991 0,1.64991 0,2.47487 0,1.76777 0,3.53553 0,5.3033 0,0.70711 0,1.41421 0,2.12132 0,0.084 -0.0396,1.33497 0,1.41421 0.19003,0.38006 0.51708,0.68061 0.70711,1.06067 0.0538,0.10759 0,0.90143 0,1.06066"
       id="path8220"
       inkscape:connector-curvature="0" />
    <path
       style="fill:none;fill-rule:evenodd;stroke:#000000;stroke-width:1px;stroke-linecap:butt;stroke-linejoin:miter;stroke-opacity:1"
       d="m 495.68185,242.37139 c -0.11785,0.58925 -0.27901,1.17148 -0.35355,1.76776 -0.0877,0.70165 0,1.41422 0,2.12132 0,1.41422 0,2.82843 0,4.24264 0,4.5962 0,9.19239 0,13.78859 0,1.29636 0,2.59272 0,3.88908 0,0.35356 0,0.70711 0,1.06066 0,0.23571 -0.0462,0.47599 0,0.70711 0.0731,0.36544 0.26317,0.69911 0.35355,1.06066 0.0286,0.11433 -0.0527,0.24815 0,0.35355 0.0745,0.14908 0.23571,0.23571 0.35356,0.35356 0.11785,0.11785 0.2357,0.2357 0.35355,0.35355"
       id="path8222"
       inkscape:connector-curvature="0" />
    <path
       style="fill:none;fill-rule:evenodd;stroke:#000000;stroke-width:1px;stroke-linecap:butt;stroke-linejoin:miter;stroke-opacity:1"
       d="m 423.55696,345.60898 c -0.11785,0.7071 -0.27439,1.40884 -0.35355,2.12132 -0.0781,0.70278 0,1.41421 0,2.12132 0,1.06066 0,2.12132 0,3.18198 0,1.01902 0.11897,1.88338 -0.35355,2.82843 -0.0745,0.14907 -0.23571,0.2357 -0.35356,0.35355 -0.27615,0.27615 -0.85727,0.75558 -1.06066,1.06066 -0.65626,-0.0673 -0.24175,0.83705 -0.35355,1.06066 -0.0745,0.14907 -0.31313,0.19186 -0.35356,0.35355 -0.0857,0.343 0,0.70711 0,1.06066 0,1.06066 0,2.12132 0,3.18198 0,0.35356 0.0693,0.71398 0,1.06066 -0.0731,0.36544 -0.30084,0.69173 -0.35355,1.06066 -0.0667,0.46667 0.1857,0.98093 0,1.41422 -0.19696,0.45957 -0.83705,0.61344 -1.06066,1.06066 -0.61177,1.22353 -0.21289,2.62313 -0.35355,3.88908 -0.0412,0.3704 -0.30085,0.69173 -0.35356,1.06066 -0.0667,0.46667 0.14908,0.967 0,1.41422 -0.1054,0.31623 -0.5222,0.42975 -0.7071,0.7071 -0.0654,0.0981 0,0.23571 0,0.35356 -0.11785,0.11785 -0.2357,0.2357 -0.35356,0.35355"
       id="path8224"
       inkscape:connector-curvature="0" />
    <path
       style="opacity:0.58999999;fill:#1a1a1a;fill-opacity:1;fill-rule:nonzero;stroke:#f9f9f9;stroke-width:0.07071068;stroke-miterlimit:4;stroke-dasharray:none;stroke-dashoffset:0;stroke-opacity:1"
       d="m 550.12907,304.24323 0,-83.08504 50.91169,0 50.9117,0 0,83.08504 0,83.08505 -50.9117,0 -50.91169,0 0,-83.08505 z"
       id="path8097-6-8"
       inkscape:connector-curvature="0" />
  </g>
</svg>
