<?xml version="1.0" encoding="UTF-8" standalone="no"?>
<!-- Created with Inkscape (http://www.inkscape.org/) -->

<svg
   xmlns:dc="http://purl.org/dc/elements/1.1/"
   xmlns:cc="http://creativecommons.org/ns#"
   xmlns:rdf="http://www.w3.org/1999/02/22-rdf-syntax-ns#"
   xmlns:svg="http://www.w3.org/2000/svg"
   xmlns="http://www.w3.org/2000/svg"
   xmlns:sodipodi="http://sodipodi.sourceforge.net/DTD/sodipodi-0.dtd"
   xmlns:inkscape="http://www.inkscape.org/namespaces/inkscape"
   id="svg2"
   version="1.1"
   inkscape:version="0.91 r13725"
   xml:space="preserve"
   width="512.91382"
   height="372.13712"
   viewBox="0 0 512.91382 372.13712"
   sodipodi:docname="Explicacion.svg"><metadata
     id="metadata8"><rdf:RDF><cc:Work
         rdf:about=""><dc:format>image/svg+xml</dc:format><dc:type
           rdf:resource="http://purl.org/dc/dcmitype/StillImage" /><dc:title></dc:title></cc:Work></rdf:RDF></metadata><defs
     id="defs6"><clipPath
       clipPathUnits="userSpaceOnUse"
       id="clipPath20"><path
         d="m 757.5,412.5 3510,0 0,2527.5 -3510,0 0,-2527.5 z"
         id="path22"
         inkscape:connector-curvature="0" /></clipPath></defs><sodipodi:namedview
     pagecolor="#ffffff"
     bordercolor="#666666"
     borderopacity="1"
     objecttolerance="10"
     gridtolerance="10"
     guidetolerance="10"
     inkscape:pageopacity="0"
     inkscape:pageshadow="2"
     inkscape:window-width="1835"
     inkscape:window-height="933"
     id="namedview4"
     showgrid="false"
     inkscape:zoom="1.4792439"
     inkscape:cx="307.66208"
     inkscape:cy="168.8458"
     inkscape:window-x="65"
     inkscape:window-y="24"
     inkscape:window-maximized="0"
     inkscape:current-layer="g12"
     fit-margin-top="0"
     fit-margin-left="0"
     fit-margin-right="0"
     fit-margin-bottom="0" /><g
     id="g10"
     inkscape:groupmode="layer"
     inkscape:label="ink_ext_XXXXXX"
     transform="matrix(1.25,0,0,-1.25,-26.398879,372.84155)"><g
       id="g12"
       transform="scale(0.1,0.1)"><path
         d="m -903.16412,27.040842 5047.50002,0 0,3607.499958 -5047.50002,0 0,-3607.499958 z"
         style="fill:#ffffff;fill-opacity:1;fill-rule:nonzero;stroke:none"
         id="path14"
         inkscape:connector-curvature="0" /><g
         id="g16"><g
           id="g18"
           clip-path="url(#clipPath20)"><path
             d="m 1455,2940 0,-2520"
             style="fill:none;stroke:#c0c0c0;stroke-width:7.5;stroke-linecap:square;stroke-linejoin:miter;stroke-miterlimit:2;stroke-dasharray:7.5, 15;stroke-dashoffset:0;stroke-opacity:1"
             id="path24"
             inkscape:connector-curvature="0" /><path
             d="m 2160,2940 0,-2520"
             style="fill:none;stroke:#c0c0c0;stroke-width:7.5;stroke-linecap:square;stroke-linejoin:miter;stroke-miterlimit:2;stroke-dasharray:7.5, 15;stroke-dashoffset:0;stroke-opacity:1"
             id="path26"
             inkscape:connector-curvature="0" /><path
             d="m 2857.5,2940 0,-2520"
             style="fill:none;stroke:#c0c0c0;stroke-width:7.5;stroke-linecap:square;stroke-linejoin:miter;stroke-miterlimit:2;stroke-dasharray:7.5, 15;stroke-dashoffset:0;stroke-opacity:1"
             id="path28"
             inkscape:connector-curvature="0" /><path
             d="m 3562.5,2940 0,-2520"
             style="fill:none;stroke:#c0c0c0;stroke-width:7.5;stroke-linecap:square;stroke-linejoin:miter;stroke-miterlimit:2;stroke-dasharray:7.5, 15;stroke-dashoffset:0;stroke-opacity:1"
             id="path30"
             inkscape:connector-curvature="0" /><path
             d="M 757.5,960 4260,960"
             style="fill:none;stroke:#c0c0c0;stroke-width:7.5;stroke-linecap:square;stroke-linejoin:miter;stroke-miterlimit:2;stroke-dasharray:7.5, 15;stroke-dashoffset:0;stroke-opacity:1"
             id="path32"
             inkscape:connector-curvature="0" /><path
             d="m 757.5,1860 3502.5,0"
             style="fill:none;stroke:#c0c0c0;stroke-width:7.5;stroke-linecap:square;stroke-linejoin:miter;stroke-miterlimit:2;stroke-dasharray:7.5, 15;stroke-dashoffset:0;stroke-opacity:1"
             id="path34"
             inkscape:connector-curvature="0" /><path
             d="m 757.5,2760 3502.5,0"
             style="fill:none;stroke:#c0c0c0;stroke-width:7.5;stroke-linecap:square;stroke-linejoin:miter;stroke-miterlimit:2;stroke-dasharray:7.5, 15;stroke-dashoffset:0;stroke-opacity:1"
             id="path36"
             inkscape:connector-curvature="0" /><path
             d="m 3649.51,1493.25 0,-86.25 0.35,-12.12 -0.35,8.82 -0.7,7.04 -0.7,-5.72 -1.05,-11.86 -2.45,12.19 1.05,1.84 -1.75,-2.59 -0.7,-6.54 -1.75,-11.59 -1.05,-1.63 1.05,1.16 -1.05,-3.09 0.7,1.46 -1.05,10.93 -0.35,10.78 -0.7,3.11 -1.4,-8.98 0.7,-1.7 -1.4,0.63 -0.71,7.17 -1.75,8.73 -1.05,0.38 1.05,-2.23 0,4.12 -2.45,6.83 0,-3.58 -1.4,-15.4 -1.75,-7.76 -3.85,-2.04 -3.51,5.98 -1.4,-9 -0.7,-8.25 -0.7,2.72 -2.45,-7.2 -1.75,-7.3 -3.85,-0.69 -3.86,-7.41 -3.15,-13.25 -3.15,-5.87 -2.1,2.32 -2.8,-2.04 -0.7,5.29 -6.31,-6.96 0.7,0.99 -1.4,3 -1.4,-4.57 -0.7,4.84 -2.8,6.9 -1.75,-2.37 1.4,-1.33 -3.51,-1.7 0,9.54 -0.7,4.44 -4.9,-6.6 -6.3,-8.1 -3.51,-11.85 -2.8,3.34 -0.7,7.69 -3.5,-5.7 -0.7,-4.54 -3.86,-8.32 1.41,4.8 -5.61,-0.49 -1.75,-7.69 -1.4,6.45 -3.85,2.06 -5.61,4.22 -1.75,5.1 -4.9,1.69 -2.8,-15.24 -7.01,4.14 -3.85,7.71 1.05,6.52 -5.25,-1.42 -5.96,3.41 0,-4.67 -4.55,-7.22 -2.45,-0.77 -1.05,-7.35 -7.36,2.5 0,-2.01 -2.1,6.64 -1.4,-8.42 -1.4,-7.35 -1.4,10.22 -0.71,-4.99 -1.05,-4.31 -4.2,-10.13 -3.15,0.06 0,-11.42 -5.25,-5.91 0,-2.36 -1.41,0.51 -1.75,1.97 -1.4,-1.88 -1.05,2.33 -1.4,-2.91 -2.45,-1.24 -1.75,3.08 -3.51,-3.38 -0.7,3.17 -4.2,-9.09 0,1.46 -2.45,-5.4 -2.45,2.55 -4.56,-8.1 -1.4,5.42 -8.05,0.86 -1.75,-4.61 -7.01,-4.41 -2.8,-2.9 -1.4,-9.25 -4.9,2.91 -1.76,-2.85 -3.85,-4.97 -2.45,-1.97 -4.9,2.42 0,-2.81 -5.26,-5.57 -1.4,-1.88 -2.1,3.21 -3.5,-5.53 -3.51,0.58 -7.35,2.64 -7.71,-2.1 -1.75,-7.12 -5.25,-2.44 -7.36,-5.02 -6.3,-2.12 -4.55,-2.7 -2.81,0.92 -4.9,-5.76 -1.4,-2.59 -3.5,7.8 -2.81,-4.8 -3.85,-2.32 -5.6,-2.46 -8.76,-5.25 -2.8,-8.44 -3.5,1.82 -4.21,-3.99 -3.15,-2.78 -5.6,-2.4 -4.2,-3.15 -8.06,-6.56 -5.6,-4.78 -8.76,-6.47 -4.9,-3.19 -4.56,-1.74 -6.3,-1.67 -2.45,-8.02 -7.01,0.37 -3.15,-2.19 -3.85,-7.82 -9.11,0.43 -2.1,-2.34 -12.26,-1.65 -4.9,-4.84 -6.66,0.71 -9.81,-2.57 -4.2,2.53 -6.65,-6.65 -14.36,-8.12 -2.11,-6.17 -9.45,-1.69 -5.96,1.11 -8.75,-0.43 -7.01,-2.38 -8.05,-5.55 -12.96,-3.96 -6.66,-7.5 -8.05,-1.26 -9.81,-7.14 -10.16,2.08 -5.25,-2.64 -12.61,-4.84 -12.26,-2.89 -8.05,-15.37 -10.16,-4.28 -10.51,-4.31 -10.16,-9.9 -9.1,-1.48 -11.56,-7.05 -8.06,-2.08 -11.91,0.58 -9.8,-2.51 -10.51,-7.92 -10.51,-1.01 -11.56,-5.64 -8.75,-0.08 -8.76,-5.96 -14.36,-2.14 -10.51,-4.25 -8.75,-3.25 -9.81,-6.82 -10.51,-7.263 -8.75,-6.468 -10.51,-6.282 -10.16,3.621 -9.1,-6.578 -9.81,-5.226 -10.51,-7.524 -7.7,-2.293 -10.16,-7.175 -9.46,-12 -5.6,-8.403 -10.16,-7.156 -8.76,-1.242 -8.4,-12.75 -11.56,-6.129 -13.31,-11.852 -10.51,1.266 -8.05,-4.094 -14.36,-9.941 -4.91,-8.164 -8.75,-7.137 -9.81,-5.484 -16.46,-1.352 -11.91,-0.516 -11.56,-9.168 -11.56,-3.343 -12.26,-2.657 -6.65,-6.792 -11.56,-4.586 -11.56,1.734 -9.8,4.414 -7.36,1.113 -12.26,-2.078 -11.56,-5.508 -11.9,-5.207 -3.16,4.993 -8.4,-12.555 -6.31,-1.438 -7,8.957 -8.06,0.516 -6.3,1.992 -11.56,4.051 -8.76,3.129 -5.6,2.765 -8.76,7.114 -3.15,-0.281 -6.3,11.832 -8.76,6.875 -13.31,13.543 -5.25,4.8 -5.96,11.575 -5.25,9.578 -8.76,9.043 -6.65,16.304 -3.86,9.75 -8.05,13.524 -7.36,14.613 -4.2,11.293 -5.95,17.895 -7.71,14.202 -5.95,18.67 -4.91,15.64 -6.3,12.96 -7.36,19.29 -6.65,15.43 -6.31,20.74 -5.25,15.67 -6.65,16.37 -5.61,20.18 -7.35,17.83 -5.26,20.53 -7.35,16.71 -6.31,14.85 -6.65,22.05 -7.01,22.95 -6.3,21.11 -4.2,23.72 -6.31,18.52 -4.55,20.61 -8.06,19.65 -7.35,23.38 -6.66,23.83 -9.1,23.08 -10.86,26.35 -9.46,28.44 -10.51,24.21 -9.45,28.63 -11.21,30.5 -10.16,28.32 -6.3,28.98 -14.01,27.04 -5.96,21.96 -11.56,32.62 -6.3,28.15 -9.81,21.71 -7.35,27.13 -9.11,34.03 -14.01,25.54 -7.35,31.82 -10.51,29.47 -9.11,25.84 -12.61,24.04 -9.45,19.95 -13.31,26.25 -7.71,22.35 -12.26,23.47 -6.3,20.76 -8.06,15.79 -9.1,19.76 -11.21,21.52 -5.96,20.72 -8.05,22.73 -8.06,23.08 -13.31,16.54 -4.9,26.1 -9.46,23.6 -11.21,15.81 -6.65,13.18 -2.8,17.85 -9.46,15.99 -10.86,14.91 -10.15,19.89 -9.46,16.26 -9.46,15.47 -4.9,7.46 -8.41,12.17 -8.75,7.03 -5.26,17.1 -8.4,16.39 -11.91,13.22 -13.66,9.35 -7.01,1.8 -8.75,6.27 -12.61,8.92 -2.8,7.41 -14.01,2.92 -9.81,1.97 -9.11,-1.69 -6.3,1.41 -10.86,-2.4 -9.11,-2.72 -14.36,-0.9 -12.96,-5.1 -9.8,1.65 -8.76,-3.15 -14.71,0.64 -10.16,-2.01 -8.4,-1.2 -9.81,-3.24 -17.16,-0.94 -3.5,-5.06 -8.76,-5.68 -10.16,2.98 -10.51,-7.28 -4.9,-3.58 -7,-6.02 -7.71,-2.6 -11.91,-3.6 -2.1,-1.37 -8.41,-14.68 -12.6,1.27 -10.51,-3.97 -7.01,-5.98 -8.4,-4 -11.21,-4.85 -5.6,-9.17 -8.76,-0.49 -11.21,-7.18 -7,-5.7 -11.21,-6.28 -8.06,-12.45 -2.45,-9.25 -10.86,-3.43 -9.1,-6.02 -5.26,-0.03 -7,-4.84 -8.41,-10.31 -4.55,-5.4 -8.76,-1.56 -12.96,1.18 -6.3,-6.26 -9.11,-6.98 -9.1,-5.02 -6.31,-5.4 -10.16,-12.06 -4.55,2.27 -16.46,-3.99 -10.16,-2.63 -7.35,-5.98 -5.61,-3.54 -8.05,-7.03 -8.76,-5.29 -8.76,-8.68 -7,-4.73 -6.66,-4.93 -11.2,-7.84 -3.51,-13.55 -4.2,1.33 -11.21,-6.96 -4.9,-8.3 -6.31,4.2"
             style="fill:none;stroke:#000000;stroke-width:15;stroke-linecap:square;stroke-linejoin:miter;stroke-miterlimit:2;stroke-dasharray:none;stroke-opacity:1"
             id="path38"
             inkscape:connector-curvature="0" /><path
             d="M 3847.5,1477.5 2280,705"
             style="fill:none;stroke:#ff0000;stroke-width:7.5;stroke-linecap:butt;stroke-linejoin:miter;stroke-miterlimit:2;stroke-dasharray:none;stroke-opacity:1"
             id="path40"
             inkscape:connector-curvature="0" /><path
             d="M 1672.5,2827.5 2505,525"
             style="fill:none;stroke:#ff0000;stroke-width:7.5;stroke-linecap:butt;stroke-linejoin:miter;stroke-miterlimit:2;stroke-dasharray:none;stroke-opacity:1"
             id="path42"
             inkscape:connector-curvature="0" /><path
             d="m 2415,3150 0,-2572.5"
             style="fill:none;stroke:#ff0000;stroke-width:7.5;stroke-linecap:butt;stroke-linejoin:miter;stroke-miterlimit:2;stroke-dasharray:none;stroke-opacity:1"
             id="path44"
             inkscape:connector-curvature="0" /><path
             d="M 2512.5,2955 945,2182.5"
             style="fill:none;stroke:#ff0000;stroke-width:7.5;stroke-linecap:butt;stroke-linejoin:miter;stroke-miterlimit:2;stroke-dasharray:none;stroke-opacity:1"
             id="path46"
             inkscape:connector-curvature="0" /></g></g><g
         id="g48"
         transform="scale(10,10)"><text
           transform="matrix(0,1,1,0,30,149.18)"
           style="font-variant:normal;font-weight:bold;font-size:12.18229961px;font-family:Helvetica;-inkscape-font-specification:Helvetica-Bold;writing-mode:lr-tb;fill:#000000;fill-opacity:1;fill-rule:nonzero;stroke:none"
           id="text50"><tspan
             x="0 8.7956209 12.1823 16.239006"
             y="0"
             sodipodi:role="line"
             id="tspan52">R (m</tspan></text>
<text
           transform="matrix(0,1,1,0,30,174.6558)"
           style="font-variant:normal;font-weight:normal;font-size:12.18229961px;font-family:Symbol;-inkscape-font-specification:Symbol;writing-mode:lr-tb;fill:#000000;fill-opacity:1;fill-rule:nonzero;stroke:none"
           id="text54"><tspan
             x="0"
             y="0"
             id="tspan56">Ω</tspan></text>
<text
           transform="matrix(0,1,1,0,30,184.04291)"
           style="font-variant:normal;font-weight:bold;font-size:12.18229961px;font-family:Helvetica;-inkscape-font-specification:Helvetica-Bold;writing-mode:lr-tb;fill:#000000;fill-opacity:1;fill-rule:nonzero;stroke:none"
           id="text58"><tspan
             x="0"
             y="0"
             id="tspan60">)</tspan></text>
<text
           transform="matrix(1,0,0,-1,35.25,91.5)"
           style="font-variant:normal;font-weight:normal;font-size:12.18229961px;font-family:Helvetica;-inkscape-font-specification:Helvetica;writing-mode:lr-tb;fill:#000000;fill-opacity:1;fill-rule:nonzero;stroke:none"
           id="text62"><tspan
             x="0 6.7733588 10.160038 16.933397 23.706757"
             y="0"
             sodipodi:role="line"
             id="tspan64">0.045</tspan><tspan
             x="-0.75 6.0233588 9.410038 16.183397 22.956757"
             y="-90"
             sodipodi:role="line"
             id="tspan66">0.050</tspan><tspan
             x="0 6.7733588 10.160038 16.933397 23.706757"
             y="-180"
             sodipodi:role="line"
             id="tspan68">0.055</tspan></text>
</g><path
         d="m 757.5,960 -75,0"
         style="fill:none;stroke:#000000;stroke-width:7.5;stroke-linecap:square;stroke-linejoin:bevel;stroke-miterlimit:10;stroke-dasharray:none;stroke-opacity:1"
         id="path70"
         inkscape:connector-curvature="0" /><path
         d="m 757.5,1860 -75,0"
         style="fill:none;stroke:#000000;stroke-width:7.5;stroke-linecap:square;stroke-linejoin:bevel;stroke-miterlimit:10;stroke-dasharray:none;stroke-opacity:1"
         id="path72"
         inkscape:connector-curvature="0" /><path
         d="m 757.5,2760 -75,0"
         style="fill:none;stroke:#000000;stroke-width:7.5;stroke-linecap:square;stroke-linejoin:bevel;stroke-miterlimit:10;stroke-dasharray:none;stroke-opacity:1"
         id="path74"
         inkscape:connector-curvature="0" /><path
         d="m 757.5,2940 0,-2520"
         style="fill:none;stroke:#000000;stroke-width:7.5;stroke-linecap:square;stroke-linejoin:bevel;stroke-miterlimit:10;stroke-dasharray:none;stroke-opacity:1"
         id="path76"
         inkscape:connector-curvature="0" /><g
         id="g78"
         transform="scale(10,10)"><text
           transform="matrix(1,0,0,-1,233.602,3)"
           style="font-variant:normal;font-weight:bold;font-size:12.18229961px;font-family:Helvetica;-inkscape-font-specification:Helvetica-Bold;writing-mode:lr-tb;fill:#000000;fill-opacity:1;fill-rule:nonzero;stroke:none"
           id="text80"><tspan
             x="0 7.4433851 10.830065"
             y="0"
             sodipodi:role="line"
             id="tspan82">T (</tspan></text>
<text
           transform="matrix(1,0,0,-1,248.0981,7.125)"
           style="font-variant:normal;font-weight:normal;font-size:8px;font-family:Symbol;-inkscape-font-specification:Symbol;writing-mode:lr-tb;fill:#000000;fill-opacity:1;fill-rule:nonzero;stroke:none"
           id="text84"><tspan
             x="0"
             y="0"
             id="tspan86">ο</tspan></text>
<text
           transform="matrix(1,0,0,-1,253.10201,3)"
           style="font-variant:normal;font-weight:bold;font-size:12.18229961px;font-family:Helvetica;-inkscape-font-specification:Helvetica-Bold;writing-mode:lr-tb;fill:#000000;fill-opacity:1;fill-rule:nonzero;stroke:none"
           id="text88"><tspan
             x="0 8.7956209"
             y="0"
             sodipodi:role="line"
             id="tspan90">C)</tspan></text>
<text
           transform="matrix(1,0,0,-1,64.87501,19.5)"
           style="font-variant:normal;font-weight:normal;font-size:12.18229961px;font-family:Helvetica;-inkscape-font-specification:Helvetica;writing-mode:lr-tb;fill:#000000;fill-opacity:1;fill-rule:nonzero;stroke:none"
           id="text92"><tspan
             x="0 7.1144633 13.887822 69.75 76.864464 83.637825 147.37538 213.37543 220.14877 283.87537 290.64871 353.62537 360.39871"
             y="0"
             sodipodi:role="line"
             id="tspan94">−40−200204060</tspan></text>
</g><path
         d="m 757.5,420 0,-75"
         style="fill:none;stroke:#000000;stroke-width:7.5;stroke-linecap:square;stroke-linejoin:bevel;stroke-miterlimit:10;stroke-dasharray:none;stroke-opacity:1"
         id="path96"
         inkscape:connector-curvature="0" /><path
         d="m 1455,420 0,-75"
         style="fill:none;stroke:#000000;stroke-width:7.5;stroke-linecap:square;stroke-linejoin:bevel;stroke-miterlimit:10;stroke-dasharray:none;stroke-opacity:1"
         id="path98"
         inkscape:connector-curvature="0" /><path
         d="m 2160,420 0,-75"
         style="fill:none;stroke:#000000;stroke-width:7.5;stroke-linecap:square;stroke-linejoin:bevel;stroke-miterlimit:10;stroke-dasharray:none;stroke-opacity:1"
         id="path100"
         inkscape:connector-curvature="0" /><path
         d="m 2857.5,420 0,-75"
         style="fill:none;stroke:#000000;stroke-width:7.5;stroke-linecap:square;stroke-linejoin:bevel;stroke-miterlimit:10;stroke-dasharray:none;stroke-opacity:1"
         id="path102"
         inkscape:connector-curvature="0" /><path
         d="m 3562.5,420 0,-75"
         style="fill:none;stroke:#000000;stroke-width:7.5;stroke-linecap:square;stroke-linejoin:bevel;stroke-miterlimit:10;stroke-dasharray:none;stroke-opacity:1"
         id="path104"
         inkscape:connector-curvature="0" /><path
         d="m 4260,420 0,-75"
         style="fill:none;stroke:#000000;stroke-width:7.5;stroke-linecap:square;stroke-linejoin:bevel;stroke-miterlimit:10;stroke-dasharray:none;stroke-opacity:1"
         id="path106"
         inkscape:connector-curvature="0" /><path
         d="M 757.5,420 4260,420"
         style="fill:none;stroke:#000000;stroke-width:7.5;stroke-linecap:square;stroke-linejoin:bevel;stroke-miterlimit:10;stroke-dasharray:none;stroke-opacity:1"
         id="path108"
         inkscape:connector-curvature="0" /><g
         id="g128"
         transform="scale(10,10)"><text
           transform="matrix(1,0,0,-1,342,147.75)"
           style="font-variant:normal;font-weight:normal;font-size:6.44048977px;font-family:Helvetica;-inkscape-font-specification:Helvetica;writing-mode:lr-tb;fill:#ff0000;fill-opacity:1;fill-rule:nonzero;stroke:none"
           id="text130"><tspan
             x="0"
             y="0"
             id="tspan132">1</tspan><tspan
             x="-123.75"
             y="-24.75"
             id="tspan134">2</tspan><tspan
             x="-92.25"
             y="-75"
             id="tspan136">3</tspan><tspan
             x="-141"
             y="-114"
             id="tspan138">4</tspan></text>
</g><text
         xml:space="preserve"
         style="font-style:normal;font-weight:normal;font-size:130px;line-height:125%;font-family:sans-serif;letter-spacing:0px;word-spacing:0px;fill:#000000;fill-opacity:1;stroke:none;stroke-width:1px;stroke-linecap:butt;stroke-linejoin:miter;stroke-opacity:1"
         x="2525.6147"
         y="-2887.9619"
         id="text4266"
         sodipodi:linespacing="125%"
         transform="scale(1,-1)"><tspan
           sodipodi:role="line"
           id="tspan4268"
           x="2525.6147"
           y="-2887.9619">R<tspan
   style="font-size:80px"
   id="tspan4270">M</tspan></tspan></text>
<text
         xml:space="preserve"
         style="font-style:normal;font-weight:normal;font-size:130px;line-height:125%;font-family:sans-serif;letter-spacing:0px;word-spacing:0px;fill:#000000;fill-opacity:1;stroke:none;stroke-width:1px;stroke-linecap:butt;stroke-linejoin:miter;stroke-opacity:1"
         x="2503.9819"
         y="-676.021"
         id="text4272"
         sodipodi:linespacing="125%"
         transform="scale(1,-1)"><tspan
           sodipodi:role="line"
           id="tspan4274"
           x="2503.9819"
           y="-676.021">R<tspan
   style="font-size:90px"
   id="tspan4276">A</tspan></tspan></text>
</g></g></svg>