<?xml version="1.0" encoding="UTF-8" standalone="no"?>
<!-- Created with Inkscape (http://www.inkscape.org/) -->

<svg
   xmlns:dc="http://purl.org/dc/elements/1.1/"
   xmlns:cc="http://creativecommons.org/ns#"
   xmlns:rdf="http://www.w3.org/1999/02/22-rdf-syntax-ns#"
   xmlns:svg="http://www.w3.org/2000/svg"
   xmlns="http://www.w3.org/2000/svg"
   xmlns:sodipodi="http://sodipodi.sourceforge.net/DTD/sodipodi-0.dtd"
   xmlns:inkscape="http://www.inkscape.org/namespaces/inkscape"
   id="svg2"
   version="1.1"
   inkscape:version="0.91 r13725"
   xml:space="preserve"
   width="513.75"
   height="373.75"
   viewBox="0 0 513.75 373.75"
   sodipodi:docname="ExpRes.svg"><metadata
     id="metadata8"><rdf:RDF><cc:Work
         rdf:about=""><dc:format>image/svg+xml</dc:format><dc:type
           rdf:resource="http://purl.org/dc/dcmitype/StillImage" /><dc:title></dc:title></cc:Work></rdf:RDF></metadata><defs
     id="defs6"><clipPath
       clipPathUnits="userSpaceOnUse"
       id="clipPath20"><path
         d="m 546.328,416.859 3510,0 0,2527.5 -3510,0 0,-2527.5 z"
         id="path22"
         inkscape:connector-curvature="0" /></clipPath></defs><sodipodi:namedview
     pagecolor="#ffffff"
     bordercolor="#666666"
     borderopacity="1"
     objecttolerance="10"
     gridtolerance="10"
     guidetolerance="10"
     inkscape:pageopacity="0"
     inkscape:pageshadow="2"
     inkscape:window-width="1855"
     inkscape:window-height="1056"
     id="namedview4"
     showgrid="false"
     inkscape:zoom="2.5257525"
     inkscape:cx="268.65444"
     inkscape:cy="235.52322"
     inkscape:window-x="65"
     inkscape:window-y="24"
     inkscape:window-maximized="1"
     inkscape:current-layer="g10" /><g
     id="g10"
     inkscape:groupmode="layer"
     inkscape:label="ink_ext_XXXXXX"
     transform="matrix(1.25,0,0,-1.25,0,373.75)"><g
       id="g12"
       transform="scale(0.1,0.1)"><path
         d="m 0,31.3906 3933.16,0 0,3607.5 -3933.16,0 0,-3607.5 z"
         style="fill:#ffffff;fill-opacity:1;fill-rule:nonzero;stroke:none"
         id="path14"
         inkscape:connector-curvature="0" /><g
         id="g16"><g
           id="g18"
           clip-path="url(#clipPath20)"><path
             d="m 1243.83,2944.37 0,-2520.003"
             style="fill:none;stroke:#c0c0c0;stroke-width:7.5;stroke-linecap:square;stroke-linejoin:miter;stroke-miterlimit:2;stroke-dasharray:7.5, 15;stroke-dashoffset:0;stroke-opacity:1"
             id="path24"
             inkscape:connector-curvature="0" /><path
             d="m 1948.83,2944.37 0,-2520.003"
             style="fill:none;stroke:#c0c0c0;stroke-width:7.5;stroke-linecap:square;stroke-linejoin:miter;stroke-miterlimit:2;stroke-dasharray:7.5, 15;stroke-dashoffset:0;stroke-opacity:1"
             id="path26"
             inkscape:connector-curvature="0" /><path
             d="m 2646.33,2944.37 0,-2520.003"
             style="fill:none;stroke:#c0c0c0;stroke-width:7.5;stroke-linecap:square;stroke-linejoin:miter;stroke-miterlimit:2;stroke-dasharray:7.5, 15;stroke-dashoffset:0;stroke-opacity:1"
             id="path28"
             inkscape:connector-curvature="0" /><path
             d="m 3351.33,2944.37 0,-2520.003"
             style="fill:none;stroke:#c0c0c0;stroke-width:7.5;stroke-linecap:square;stroke-linejoin:miter;stroke-miterlimit:2;stroke-dasharray:7.5, 15;stroke-dashoffset:0;stroke-opacity:1"
             id="path30"
             inkscape:connector-curvature="0" /><path
             d="m 546.328,964.367 3502.502,0"
             style="fill:none;stroke:#c0c0c0;stroke-width:7.5;stroke-linecap:square;stroke-linejoin:miter;stroke-miterlimit:2;stroke-dasharray:7.5, 15;stroke-dashoffset:0;stroke-opacity:1"
             id="path32"
             inkscape:connector-curvature="0" /><path
             d="m 546.328,1864.37 3502.502,0"
             style="fill:none;stroke:#c0c0c0;stroke-width:7.5;stroke-linecap:square;stroke-linejoin:miter;stroke-miterlimit:2;stroke-dasharray:7.5, 15;stroke-dashoffset:0;stroke-opacity:1"
             id="path34"
             inkscape:connector-curvature="0" /><path
             d="m 546.328,2764.37 3502.502,0"
             style="fill:none;stroke:#c0c0c0;stroke-width:7.5;stroke-linecap:square;stroke-linejoin:miter;stroke-miterlimit:2;stroke-dasharray:7.5, 15;stroke-dashoffset:0;stroke-opacity:1"
             id="path36"
             inkscape:connector-curvature="0" /><path
             d="m 3438.32,1497.61 0,-86.25 0.35,-12.11 -0.35,8.83 -0.7,7.03 -0.71,-5.71 -1.05,-11.87 -2.42,12.19 1.01,1.83 -1.72,-2.57 -0.7,-6.57 -1.76,-11.56 -1.05,-1.64 1.05,1.17 -1.05,-3.08 0.7,1.44 -1.05,10.94 -0.35,10.78 -0.71,3.09 -1.4,-8.99 0.7,-1.68 -1.41,0.63 -0.7,7.18 -1.76,8.71 -1.01,0.4 1.01,-2.23 0,4.1 -2.42,6.84 0,-3.6 -1.41,-15.39 -1.75,-7.77 -3.83,-2.03 -3.52,5.97 -1.4,-8.98 -0.71,-8.24 -0.7,2.69 -2.46,-7.18 -1.76,-7.31 -3.83,-0.66 -3.86,-7.43 -3.17,-13.24 -3.12,-5.9 -2.11,2.35 -2.81,-2.03 -0.71,5.27 -6.29,-6.95 0.71,0.97 -1.41,3.01 -1.41,-4.57 -0.7,4.84 -2.77,6.88 -1.76,-2.34 1.41,-1.33 -3.52,-1.72 0,9.53 -0.7,4.45 -4.93,-6.6 -6.28,-8.08 -3.52,-11.88 -2.77,3.36 -0.71,7.7 -3.51,-5.71 -0.71,-4.53 -3.86,-8.32 1.4,4.81 -5.58,-0.51 -1.76,-7.7 -1.41,6.45 -3.82,2.07 -5.63,4.22 -1.76,5.11 -4.88,1.68 -2.81,-15.23 -6.99,4.14 -3.87,7.7 1.05,6.52 -5.23,-1.41 -5.98,3.4 0,-4.69 -4.57,-7.18 -2.42,-0.79 -1.06,-7.34 -7.38,2.5 0,-2.03 -2.07,6.64 -1.4,-8.4 -1.41,-7.38 -1.41,10.23 -0.7,-5 -1.05,-4.29 -4.18,-10.12 -3.17,0.04 0,-11.41 -5.23,-5.9 0,-2.38 -1.45,0.51 -1.72,1.99 -1.4,-1.87 -1.06,2.3 -1.4,-2.89 -2.47,-1.25 -1.71,3.09 -3.52,-3.4 -0.7,3.16 -4.22,-9.06 0,1.44 -2.42,-5.39 -2.46,2.54 -4.57,-8.08 -1.41,5.43 -8.05,0.86 -1.76,-4.61 -6.99,-4.42 -2.81,-2.93 -1.41,-9.22 -4.88,2.89 -1.76,-2.85 -3.86,-4.96 -2.43,-1.99 -4.92,2.42 0,-2.81 -5.23,-5.55 -1.41,-1.87 -2.11,3.2 -3.51,-5.55 -3.52,0.59 -7.34,2.66 -7.7,-2.11 -1.76,-7.11 -5.23,-2.46 -7.38,-5 -6.29,-2.11 -4.53,-2.74 -2.82,0.94 -4.92,-5.78 -1.4,-2.58 -3.48,7.81 -2.81,-4.8 -3.87,-2.31 -5.59,-2.46 -8.75,-5.27 -2.81,-8.44 -3.51,1.84 -4.18,-3.99 -3.17,-2.81 -5.58,-2.38 -4.22,-3.17 -8.05,-6.56 -5.62,-4.76 -8.75,-6.49 -4.89,-3.16 -4.57,-1.76 -6.29,-1.68 -2.46,-8.01 -7.03,0.39 -3.12,-2.19 -3.87,-7.85 -9.1,0.43 -2.11,-2.34 -12.27,-1.64 -4.88,-4.84 -6.68,0.7 -9.81,-2.54 -4.17,2.5 -6.65,-6.64 -14.37,-8.13 -2.11,-6.17 -9.45,-1.68 -5.98,1.13 -8.75,-0.43 -6.99,-2.38 -8.05,-5.54 -12.97,-3.99 -6.64,-7.5 -8.04,-1.25 -9.85,-7.15 -10.15,2.07 -5.24,-2.61 -12.62,-4.85 -12.26,-2.89 -8.05,-15.39 -10.16,-4.26 -10.5,-4.29 -10.16,-9.93 -9.1,-1.48 -11.56,-7.03 -8.05,-2.11 -11.91,0.58 -9.81,-2.5 -10.51,-7.92 -10.5,-1.02 -11.57,-5.63 -8.75,-0.07 -8.75,-5.98 -14.37,-2.11 -10.51,-4.26 -8.75,-3.24 -9.8,-6.84 -10.51,-7.263 -8.75,-6.449 -10.51,-6.29 -10.16,3.598 -9.1,-6.558 -9.8,-5.243 -10.55,-7.5 -7.69,-2.297 -10.16,-7.191 -9.45,-11.988 -5.59,-8.403 -10.16,-7.148 -8.79,-1.25 -8.39,-12.73 -11.57,-6.141 -13.28,-11.871 -10.51,1.293 -8.04,-4.102 -14.38,-9.969 -4.92,-8.16 -8.75,-7.109 -9.8,-5.512 -16.45,-1.32 -11.91,-0.551 -11.57,-9.141 -11.56,-3.359 -12.26,-2.66 -6.64,-6.789 -11.57,-4.57 -11.56,1.711 -9.8,4.417 -7.35,1.133 -12.26,-2.07 -11.57,-5.512 -11.91,-5.23 -3.16,5 -8.4,-12.539 -6.29,-1.449 -6.99,8.949 -8.09,0.511 -6.29,1.989 -11.56,4.058 -8.75,3.133 -5.63,2.77 -8.75,7.109 -3.16,-0.269 -6.29,11.828 -8.75,6.882 -13.32,13.508 -5.23,4.813 -5.98,11.597 -5.23,9.571 -8.76,9.019 -6.67,16.332 -3.83,9.731 -8.09,13.547 -7.34,14.613 -4.18,11.289 -5.98,17.892 -7.69,14.18 -5.94,18.67 -4.92,15.67 -6.29,12.97 -7.39,19.25 -6.64,15.43 -6.32,20.74 -5.24,15.67 -6.64,16.41 -5.62,20.15 -7.35,17.85 -5.27,20.51 -7.34,16.72 -6.29,14.84 -6.68,22.07 -7,22.93 -6.29,21.14 -4.21,23.71 -6.29,18.51 -4.57,20.59 -8.05,19.69 -7.34,23.36 -6.68,23.82 -9.1,23.09 -10.86,26.37 -9.46,28.43 -10.51,24.18 -9.45,28.64 -11.21,30.5 -10.16,28.32 -6.28,28.99 -14.03,27.03 -5.97,21.95 -11.57,32.62 -6.29,28.17 -9.8,21.71 -7.34,27.11 -9.11,34.07 -14.02,25.5 -7.34,31.84 -10.51,29.45 -9.1,25.86 -12.62,24.03 -9.45,19.96 -13.32,26.25 -7.7,22.34 -12.26,23.48 -6.29,20.74 -8.09,15.82 -9.1,19.76 -11.21,21.49 -5.94,20.74 -8.05,22.74 -8.08,23.08 -13.28,16.53 -4.93,26.09 -9.45,23.59 -11.21,15.82 -6.64,13.21 -2.81,17.81 -9.46,16.01 -10.86,14.93 -10.15,19.88 -9.45,16.25 -9.46,15.47 -4.92,7.46 -8.4,12.19 -8.75,6.99 -5.27,17.11 -8.4,16.4 -11.91,13.21 -13.64,9.37 -7.03,1.8 -8.75,6.25 -12.61,8.94 -2.78,7.39 -14.02,2.93 -9.81,1.95 -9.1,-1.68 -6.33,1.41 -10.86,-2.39 -9.1,-2.73 -14.33,-0.9 -12.97,-5.08 -9.81,1.64 -8.75,-3.16 -14.72,0.66 -10.16,-2.03 -8.4,-1.21 -9.8,-3.24 -17.19,-0.94 -3.48,-5.04 -8.75,-5.7 -10.15,3.01 -10.55,-7.31 -4.88,-3.55 -6.99,-6.02 -7.74,-2.62 -11.87,-3.59 -2.11,-1.37 -8.4,-14.68 -12.62,1.29 -10.51,-3.99 -7.03,-5.98 -8.4,-4.02 -11.21,-4.84 -5.58,-9.14 -8.75,-0.51 -11.21,-7.19 -7,-5.7 -11.21,-6.29 -8.08,-12.42 -2.43,-9.26 -10.85,-3.44 -9.11,-6.01 -5.27,-0.04 -6.99,-4.85 -8.44,-10.31 -4.53,-5.39 -8.75,-1.56 -12.97,1.17 -6.29,-6.25 -9.14,-6.95 -9.06,-5.04 -6.33,-5.39 -10.16,-12.07 -4.57,2.26 -16.44,-3.98 -10.16,-2.62 -7.34,-5.98 -5.63,-3.55 -8.04,-7.03 -8.75,-5.28 -8.75,-8.71 -7.031,-4.72 -6.648,-4.92 -11.211,-7.86 -3.512,-13.55 -4.18,1.37 -11.207,-7 -4.921,-8.28 -6.29,4.18"
             style="fill:none;stroke:#000000;stroke-width:15;stroke-linecap:square;stroke-linejoin:miter;stroke-miterlimit:2;stroke-dasharray:none;stroke-opacity:1"
             id="path38"
             inkscape:connector-curvature="0" /><path
             d="M 3636.33,1481.87 2068.83,709.367"
             style="fill:none;stroke:#ff0000;stroke-width:7.5;stroke-linecap:butt;stroke-linejoin:miter;stroke-miterlimit:2;stroke-dasharray:none;stroke-opacity:1"
             id="path40"
             inkscape:connector-curvature="0" /><path
             d="M 1461.33,2831.87 2293.83,529.367"
             style="fill:none;stroke:#ff0000;stroke-width:7.5;stroke-linecap:butt;stroke-linejoin:miter;stroke-miterlimit:2;stroke-dasharray:none;stroke-opacity:1"
             id="path42"
             inkscape:connector-curvature="0" /><path
             d="m 2203.83,3154.37 0,-2572.503"
             style="fill:none;stroke:#ff0000;stroke-width:7.5;stroke-linecap:butt;stroke-linejoin:miter;stroke-miterlimit:2;stroke-dasharray:none;stroke-opacity:1"
             id="path44"
             inkscape:connector-curvature="0" /><path
             d="M 2301.33,2959.37 733.828,2186.87"
             style="fill:none;stroke:#ff0000;stroke-width:7.5;stroke-linecap:butt;stroke-linejoin:miter;stroke-miterlimit:2;stroke-dasharray:none;stroke-opacity:1"
             id="path46"
             inkscape:connector-curvature="0" /></g></g><g
         id="g48"
         transform="scale(10,10)"><text
           transform="matrix(0,1,1,0,8.88086,149.616)"
           style="font-variant:normal;font-size:12.18229961px;font-family:f-0;-inkscape-font-specification:f-0-0;writing-mode:lr-tb;fill:#000000;fill-opacity:1;fill-rule:nonzero;stroke:none"
           id="text50"><tspan
             x="0 8.7956209 12.1823 16.239006"
             y="0"
             sodipodi:role="line"
             id="tspan52">R (m</tspan></text>
<text
           transform="matrix(0,1,1,0,8.88086,175.089)"
           style="font-variant:normal;font-size:12.18229961px;font-family:f-1;-inkscape-font-specification:f-1-1;writing-mode:lr-tb;fill:#000000;fill-opacity:1;fill-rule:nonzero;stroke:none"
           id="text54"><tspan
             x="0"
             y="0"
             id="tspan56">Ω</tspan></text>
<text
           transform="matrix(0,1,1,0,8.88086,184.48158)"
           style="font-variant:normal;font-size:12.18229961px;font-family:f-0;-inkscape-font-specification:f-0-0;writing-mode:lr-tb;fill:#000000;fill-opacity:1;fill-rule:nonzero;stroke:none"
           id="text58"><tspan
             x="0"
             y="0"
             id="tspan60">)</tspan></text>
<text
           transform="matrix(1,0,0,-1,14.1309,91.9363)"
           style="font-variant:normal;font-size:12.18229961px;font-family:f-2;-inkscape-font-specification:f-2-0;writing-mode:lr-tb;fill:#000000;fill-opacity:1;fill-rule:nonzero;stroke:none"
           id="text62"><tspan
             x="0 6.7733588 10.160038 16.933397 23.706757"
             y="0"
             sodipodi:role="line"
             id="tspan64">0.045</tspan><tspan
             x="-0.75 6.0233588 9.410038 16.183397 22.956757"
             y="-90"
             sodipodi:role="line"
             id="tspan66">0.050</tspan><tspan
             x="0 6.7733588 10.160038 16.933397 23.706757"
             y="-180"
             sodipodi:role="line"
             id="tspan68">0.055</tspan></text>
</g><path
         d="m 546.328,964.367 -75,0"
         style="fill:none;stroke:#000000;stroke-width:7.5;stroke-linecap:square;stroke-linejoin:bevel;stroke-miterlimit:10;stroke-dasharray:none;stroke-opacity:1"
         id="path70"
         inkscape:connector-curvature="0" /><path
         d="m 546.328,1864.37 -75,0"
         style="fill:none;stroke:#000000;stroke-width:7.5;stroke-linecap:square;stroke-linejoin:bevel;stroke-miterlimit:10;stroke-dasharray:none;stroke-opacity:1"
         id="path72"
         inkscape:connector-curvature="0" /><path
         d="m 546.328,2764.37 -75,0"
         style="fill:none;stroke:#000000;stroke-width:7.5;stroke-linecap:square;stroke-linejoin:bevel;stroke-miterlimit:10;stroke-dasharray:none;stroke-opacity:1"
         id="path74"
         inkscape:connector-curvature="0" /><path
         d="m 546.328,2944.37 0,-2520.003"
         style="fill:none;stroke:#000000;stroke-width:7.5;stroke-linecap:square;stroke-linejoin:bevel;stroke-miterlimit:10;stroke-dasharray:none;stroke-opacity:1"
         id="path76"
         inkscape:connector-curvature="0" /><g
         id="g78"
         transform="scale(10,10)"><text
           transform="matrix(1,0,0,-1,212.483,3.43633)"
           style="font-variant:normal;font-size:12.18229961px;font-family:f-0;-inkscape-font-specification:f-0-0;writing-mode:lr-tb;fill:#000000;fill-opacity:1;fill-rule:nonzero;stroke:none"
           id="text80"><tspan
             x="0 7.4433851 10.830065"
             y="0"
             sodipodi:role="line"
             id="tspan82">T (</tspan></text>
<text
           transform="matrix(1,0,0,-1,226.9791,7.56133)"
           style="font-variant:normal;font-size:8px;font-family:f-1;-inkscape-font-specification:f-1-1;writing-mode:lr-tb;fill:#000000;fill-opacity:1;fill-rule:nonzero;stroke:none"
           id="text84"><tspan
             x="0"
             y="0"
             id="tspan86">ο</tspan></text>
<text
           transform="matrix(1,0,0,-1,231.98301,3.43633)"
           style="font-variant:normal;font-size:12.18229961px;font-family:f-0;-inkscape-font-specification:f-0-0;writing-mode:lr-tb;fill:#000000;fill-opacity:1;fill-rule:nonzero;stroke:none"
           id="text88"><tspan
             x="0 8.7956209"
             y="0"
             sodipodi:role="line"
             id="tspan90">C)</tspan></text>
<text
           transform="matrix(1,0,0,-1,43.75601,19.93633)"
           style="font-variant:normal;font-size:12.18229961px;font-family:f-2;-inkscape-font-specification:f-2-1;writing-mode:lr-tb;fill:#000000;fill-opacity:1;fill-rule:nonzero;stroke:none"
           id="text92"><tspan
             x="0"
             y="0"
             id="tspan94">−</tspan></text>
<text
           transform="matrix(1,0,0,-1,50.87046,19.93633)"
           style="font-variant:normal;font-size:12.18229961px;font-family:f-2;-inkscape-font-specification:f-2-0;writing-mode:lr-tb;fill:#000000;fill-opacity:1;fill-rule:nonzero;stroke:none"
           id="text96"><tspan
             x="0 6.7733588"
             y="0"
             sodipodi:role="line"
             id="tspan98">40</tspan></text>
<text
           transform="matrix(1,0,0,-1,113.51186,19.93633)"
           style="font-variant:normal;font-size:12.18229961px;font-family:f-2;-inkscape-font-specification:f-2-1;writing-mode:lr-tb;fill:#000000;fill-opacity:1;fill-rule:nonzero;stroke:none"
           id="text100"><tspan
             x="0"
             y="0"
             id="tspan102">−</tspan></text>
<text
           transform="matrix(1,0,0,-1,120.62631,19.93633)"
           style="font-variant:normal;font-size:12.18229961px;font-family:f-2;-inkscape-font-specification:f-2-0;writing-mode:lr-tb;fill:#000000;fill-opacity:1;fill-rule:nonzero;stroke:none"
           id="text104"><tspan
             x="0 6.7733588 70.511276 136.51472 143.28809 207.00493 213.77829 276.76077 283.53415"
             y="0"
             sodipodi:role="line"
             id="tspan106">200204060</tspan></text>
</g><path
         d="m 546.328,424.367 0,-75"
         style="fill:none;stroke:#000000;stroke-width:7.5;stroke-linecap:square;stroke-linejoin:bevel;stroke-miterlimit:10;stroke-dasharray:none;stroke-opacity:1"
         id="path108"
         inkscape:connector-curvature="0" /><path
         d="m 1243.83,424.367 0,-75"
         style="fill:none;stroke:#000000;stroke-width:7.5;stroke-linecap:square;stroke-linejoin:bevel;stroke-miterlimit:10;stroke-dasharray:none;stroke-opacity:1"
         id="path110"
         inkscape:connector-curvature="0" /><path
         d="m 1948.83,424.367 0,-75"
         style="fill:none;stroke:#000000;stroke-width:7.5;stroke-linecap:square;stroke-linejoin:bevel;stroke-miterlimit:10;stroke-dasharray:none;stroke-opacity:1"
         id="path112"
         inkscape:connector-curvature="0" /><path
         d="m 2646.33,424.367 0,-75"
         style="fill:none;stroke:#000000;stroke-width:7.5;stroke-linecap:square;stroke-linejoin:bevel;stroke-miterlimit:10;stroke-dasharray:none;stroke-opacity:1"
         id="path114"
         inkscape:connector-curvature="0" /><path
         d="m 3351.33,424.367 0,-75"
         style="fill:none;stroke:#000000;stroke-width:7.5;stroke-linecap:square;stroke-linejoin:bevel;stroke-miterlimit:10;stroke-dasharray:none;stroke-opacity:1"
         id="path116"
         inkscape:connector-curvature="0" /><path
         d="m 4048.83,424.367 0,-75"
         style="fill:none;stroke:#000000;stroke-width:7.5;stroke-linecap:square;stroke-linejoin:bevel;stroke-miterlimit:10;stroke-dasharray:none;stroke-opacity:1"
         id="path118"
         inkscape:connector-curvature="0" /><path
         d="m 546.328,424.367 3502.502,0"
         style="fill:none;stroke:#000000;stroke-width:7.5;stroke-linecap:square;stroke-linejoin:bevel;stroke-miterlimit:10;stroke-dasharray:none;stroke-opacity:1"
         id="path120"
         inkscape:connector-curvature="0" /><g
         id="g122"
         transform="scale(10,10)"><text
           transform="matrix(1,0,0,-1,320.881,148.186)"
           style="font-variant:normal;font-size:6.44048977px;font-family:f-2;-inkscape-font-specification:f-2-0;writing-mode:lr-tb;fill:#ff0000;fill-opacity:1;fill-rule:nonzero;stroke:none"
           id="text124"><tspan
             x="0"
             y="0"
             id="tspan126">1</tspan><tspan
             x="-123.75"
             y="-24.75"
             id="tspan128">2</tspan><tspan
             x="-92.25"
             y="-75"
             id="tspan130">3</tspan><tspan
             x="-141"
             y="-114"
             id="tspan132">4</tspan></text>
</g><g
         id="g134"
         transform="scale(10,10)"><text
           transform="matrix(1,0,0,-1,231.442,289.233)"
           style="font-variant:normal;font-weight:normal;font-size:13px;font-family:'DejaVu Sans';-inkscape-font-specification:DejaVuSans;writing-mode:lr-tb;fill:#000000;fill-opacity:1;fill-rule:nonzero;stroke:none"
           id="text136"><tspan
             x="0"
             y="0"
             id="tspan138">R</tspan></text>
<text
           transform="matrix(1,0,0,-1,240.48106,289.233)"
           style="font-variant:normal;font-weight:normal;font-size:8px;font-family:'DejaVu Sans';-inkscape-font-specification:DejaVuSans;writing-mode:lr-tb;fill:#000000;fill-opacity:1;fill-rule:nonzero;stroke:none"
           id="text140"><tspan
             x="0"
             y="0"
             id="tspan142">M</tspan></text>
<text
           transform="matrix(1,0,0,-1,229.27876,68.039)"
           style="font-variant:normal;font-weight:normal;font-size:13px;font-family:'DejaVu Sans';-inkscape-font-specification:DejaVuSans;writing-mode:lr-tb;fill:#000000;fill-opacity:1;fill-rule:nonzero;stroke:none"
           id="text144"><tspan
             x="0"
             y="0"
             id="tspan146">R</tspan></text>
<text
           transform="matrix(1,0,0,-1,238.31782,68.039)"
           style="font-variant:normal;font-weight:normal;font-size:9px;font-family:'DejaVu Sans';-inkscape-font-specification:DejaVuSans;writing-mode:lr-tb;fill:#000000;fill-opacity:1;fill-rule:nonzero;stroke:none"
           id="text148"><tspan
             x="0"
             y="0"
             id="tspan150">A</tspan></text>
</g></g><rect
       style="opacity:1;fill:#ffffff;fill-opacity:1;fill-rule:nonzero;stroke:#ffffff;stroke-width:6.32000017;stroke-miterlimit:4;stroke-dasharray:none;stroke-dashoffset:0;stroke-opacity:1"
       id="rect4278"
       width="12.352755"
       height="7.9184318"
       x="316.10382"
       y="-154.56779"
       transform="scale(1,-1)" /><text
       xml:space="preserve"
       style="font-style:normal;font-weight:normal;font-size:20px;line-height:125%;font-family:sans-serif;letter-spacing:0px;word-spacing:0px;fill:#d40000;fill-opacity:1;stroke:none;stroke-width:1px;stroke-linecap:butt;stroke-linejoin:miter;stroke-opacity:1;"
       x="298.04977"
       y="-139.36441"
       id="text4280"
       sodipodi:linespacing="125%"
       transform="scale(1,-1)"><tspan
         sodipodi:role="line"
         id="tspan4282"
         x="298.04977"
         y="-139.36441">1</tspan></text>
<text
       xml:space="preserve"
       style="font-style:normal;font-weight:normal;font-size:20px;line-height:125%;font-family:sans-serif;letter-spacing:0px;word-spacing:0px;fill:#d40000;fill-opacity:1;stroke:none;stroke-width:1px;stroke-linecap:butt;stroke-linejoin:miter;stroke-opacity:1"
       x="224.99687"
       y="-204.92393"
       id="text4280-3"
       sodipodi:linespacing="125%"
       transform="scale(1,-1)"><tspan
         sodipodi:role="line"
         id="tspan4282-6"
         x="224.99687"
         y="-204.92393">3</tspan></text>
<text
       xml:space="preserve"
       style="font-style:normal;font-weight:normal;font-size:20px;line-height:125%;font-family:sans-serif;letter-spacing:0px;word-spacing:0px;fill:#d40000;fill-opacity:1;stroke:none;stroke-width:1px;stroke-linecap:butt;stroke-linejoin:miter;stroke-opacity:1"
       x="174.00217"
       y="-160.58072"
       id="text4280-7"
       sodipodi:linespacing="125%"
       transform="scale(1,-1)"><tspan
         sodipodi:role="line"
         id="tspan4282-5"
         x="174.00217"
         y="-160.58072">2</tspan></text>
<text
       xml:space="preserve"
       style="font-style:normal;font-weight:normal;font-size:20px;line-height:125%;font-family:sans-serif;letter-spacing:0px;word-spacing:0px;fill:#d40000;fill-opacity:1;stroke:none;stroke-width:1px;stroke-linecap:butt;stroke-linejoin:miter;stroke-opacity:1"
       x="170.83479"
       y="-275.23962"
       id="text4280-35"
       sodipodi:linespacing="125%"
       transform="scale(1,-1)"><tspan
         sodipodi:role="line"
         id="tspan4282-62"
         x="170.83479"
         y="-275.23962">4</tspan></text>
<rect
       style="opacity:1;fill:#ffffff;fill-opacity:1;fill-rule:nonzero;stroke:#ffffff;stroke-width:5.06954288;stroke-miterlimit:4;stroke-dasharray:none;stroke-dashoffset:0;stroke-opacity:1"
       id="rect4278-9"
       width="6.6349916"
       height="9.4856262"
       x="200.02783"
       y="-179.42343"
       transform="scale(1,-1)" /><rect
       style="opacity:1;fill:#ffffff;fill-opacity:1;fill-rule:nonzero;stroke:#ffffff;stroke-width:6.32000017;stroke-miterlimit:4;stroke-dasharray:none;stroke-dashoffset:0;stroke-opacity:1"
       id="rect4278-1"
       width="12.352755"
       height="7.9184318"
       x="229.15944"
       y="-232.01007"
       transform="scale(1,-1)" /><rect
       style="opacity:1;fill:#ffffff;fill-opacity:1;fill-rule:nonzero;stroke:#ffffff;stroke-width:5.03506327;stroke-miterlimit:4;stroke-dasharray:none;stroke-dashoffset:0;stroke-opacity:1"
       id="rect4278-2"
       width="6.9862084"
       height="8.886631"
       x="180.37289"
       y="-265.90997"
       transform="scale(1,-1)" /></g></svg>